<?xml version="1.0" encoding="UTF-8"?>
<svg id="_レイヤー_2" data-name="レイヤー 2" xmlns="http://www.w3.org/2000/svg" viewBox="0 0 318.66 121.58">
  <defs>
    <style>
      .cls-1 {
        fill: #ea5532;
      }
    </style>
  </defs>
  <g id="_文字" data-name="文字">
    <g>
      <path class="cls-1" d="m33.17,48.86c-.19,0-.34-.07-.45-.2-.14-.17-.18-.42-.13-.72l3.92-22.25c-2.91,5.1-6.34,9.88-10.21,14.24-.18.21-.38.32-.58.32-.19,0-.35-.1-.46-.28-.22-.29-.16-.75.15-1.18,5.1-6.5,9.23-13.54,12.29-20.95h-7.39c-.28,0-.48-.22-.51-.57-.04-.18.01-.37.15-.54.21-.26.57-.42.94-.42h7.28l1.61-9.13-.58.13c-2.68.64-4.69,1.07-6.5,1.4h0c-.38,0-.62-.22-.65-.56-.07-.43.31-.9.83-1.01,6.01-1.64,10.58-3.52,13.95-5.76.1-.06.22-.09.33-.09.15,0,.28.06.37.16,1.48,1.32,2.21,2.38,2.09,3.04-.1.55-.61.61-.99.61-.15,0-.67-.02-1.38-.27-1.35.54-2.95,1.08-4.69,1.62l-1.69,9.86h3.76l1.99-2.72c.19-.27.44-.43.69-.43.24,0,.44.14.57.39.52,1,.94,1.96,1.25,2.87.1.25.03.6-.1.83l-.12.22c-.18.24-.4.37-.6.37h-7.7l-.83,4.73.3.13c4.14,2.61,6.23,5.69,5.75,8.45-.22,1.27-.83,1.91-1.81,1.91-.5,0-.88-.44-1.14-1.3-.71-2.67-1.86-5.14-3.42-7.35l-4.16,23.58c-.09.53-.44.88-.87.88h-1.23Zm27.18-1.35c-.19,0-.35-.07-.49-.21-.37-.38-.53-1.25-.51-2.69,0-1.14-.05-2.51-.14-4.08l-.34.12c-5.71,2.02-11.4,3.22-16.74,4.26-.41,1.4-.84,2.1-1.24,2.1-.37,0-.86-.43-.91-4.13-.02-.33.1-.68.32-.91.16-.17.35-.26.56-.26,1.35-.17,2.31-.27,3.02-.32l.56-.05c4.34-10.82,8.65-23.5,12.73-37.63.12-.46.49-.8.87-.8.08,0,.15.01.23.04,2.3.76,3.46,1.54,3.33,2.25-.09.49-.86.94-2.19,1.26-4.16,12.39-8.69,24.09-13.38,34.7,3.71-.41,7.89-1.17,12.78-2.3l.03-.03.13-.03c.08,0,.09,0,.11-.03-.43-3.63-1.24-7.31-2.49-11.18-.12-.44.03-.9.39-1.18.1-.09.22-.13.34-.13.21,0,.41.14.52.38,2.36,4.74,3.85,9.27,4.44,13.46.27,1.84.3,3.41.07,4.67-.32,1.83-.98,2.72-2,2.72Z"/>
      <path class="cls-1" d="m92.31,45.31c-2.89,0-5.51-4.03-6.56-7.89-1.28,2.27-2.6,4.55-3.93,6.77-.41.72-.86,1.07-1.36,1.07-.27,0-.53-.13-.73-.36-.28-.34-.4-.85-.31-1.36.07-.37.17-.64.34-.9,5.39-8.65,9.38-15.89,12.93-23.45.18-.37.35-.75.5-1.12-.12.04-.25.09-.4.16-2.55.89-4.33,1.46-5.73,1.46-.66,0-1.24-.13-1.72-.39-1.17-.67-1.89-1.71-2.01-2.93,0-.07,0-.12,0-.17,0-.06,0-.12,0-.18.11-.61.6-.94,1-.94.28,0,.52.21.64.54.16.74.91,1.18,1.99,1.18.17,0,.33,0,.49-.05,1.32-.14,3.56-.9,5.36-1.51l.96-.32c.27-.11.55-.22.87-.27,1.49-4,3.53-9.81,3.55-9.87.35-.97,1.07-1.41,1.6-1.41.29,0,.56.13.76.36.25.3.35.73.26,1.2-.03.17-.05.28-.12.45-.86,2.25-2.16,5.57-3.41,8.69.51-.09,1.03-.13,1.5-.13,1.95,0,3.48.57,4.3,1.6,1.22,1.53,1.43,3.65.74,7.57-.1.6-.23,1.3-.4,2-.92,4.47-1.85,7.91-4.13,13.28-1.85,4.32-4.46,6.9-6.98,6.9Zm5.89-28.31c-.71,0-1.5.11-2.33.32l-1.15,2.7c-2.28,5.2-5.03,10.28-7.66,15,.86,2.57,2.75,6.99,5.85,6.99h.13c1.78,0,4.05-3.67,6.08-9.81,1.07-3.29,1.77-5.96,2.17-8.18.64-3.63.34-5.89-.87-6.54-.6-.31-1.36-.47-2.21-.47Zm12.54,18.55c-.85,0-1.59-.2-2.2-.61-.32-.19-.37-.63-.31-.95.09-.51.45-1.04.94-1.04.13,0,.24,0,.34.07.23.14.53.2.97.2.58,0,2.05-.2,3-2,.13-.3.24-.66.3-1,.36-2.02-.73-4.58-1.61-6.64l-.07-.16c-1.65-3.82-3.02-6.5-4.2-8.18-.17-.2-.19-.51-.16-.71.09-.5.49-1.04.98-1.04.21,0,.43.14.57.37,2.7,3.29,5.03,7.45,6.37,11.4.74,2.03.96,3.77.69,5.33-.16.88-.41,1.59-.84,2.3-.96,1.56-2.97,2.69-4.79,2.69Zm5.76-19.4c-.4,0-.72-.26-.91-.72-.67-1.76-1.11-2.53-2.07-3.59-.4-.46-.38-.98-.22-1.32.16-.34.46-.55.8-.55.11,0,.22.02.32.06,1.28.43,2.63,1.63,3.42,3.06.38.67.37,1.45-.03,2.14-.33.56-.85.92-1.32.92Zm2.5-5.35c-.23,0-.55-.09-.83-.53-.83-1.28-1.67-2.19-2.44-2.61-.35-.2-.51-.57-.4-.98.1-.39.46-.8,1.01-.8,1.33.11,2.67.82,3.66,1.92.56.63.49,1.45.23,2.01-.27.6-.77,1-1.23,1Z"/>
      <path class="cls-1" d="m160.43,48.86c-.19,0-.34-.07-.45-.2-.14-.16-.19-.42-.13-.72l.46-2.59h-11.29l-.46,2.62c-.09.53-.44.88-.87.88h-1.19c-.19,0-.34-.07-.45-.2-.14-.16-.18-.42-.13-.72l3.1-17.58c.11-.62.48-1.1.87-1.1.08,0,.16.02.24.06.53.29,1.15.7,1.92,1.25l10.66-.02,1.38-1.69c.18-.22.39-.33.59-.33.17,0,.32.08.46.22,1.17,1.35,1.71,2.3,1.62,2.83-.04.23-.2.45-.48.7l-1.13.87-2.59,14.83c-.09.53-.44.88-.87.88h-1.23Zm.15-5.03l2.07-11.74h-11.29l-2.07,11.74h11.29Zm-25.64,5.03c-.19,0-.34-.07-.45-.2-.14-.16-.19-.42-.13-.72l4.04-22.94-.17.06c-.25.06-.58.11-.99.18-.41.07-.9.15-1.47.26-.74.12-1.34.24-1.83.34l-.49.1c-.26.78-.74,1.78-1.14,1.78-.31,0-.73-.36-.77-3.48.02-.69.43-1.22.93-1.22l1.93-.11c.8-.04,1.32-.08,1.55-.1.08,0,.12,0,.13,0,3.69-4.73,7.25-10.01,10.51-15.65.18-.29.46-.46.73-.46.13,0,.25.04.35.11,1.67,1.13,2.46,2.03,2.34,2.68-.09.52-.69.77-2,.83-3.2,4.33-6.66,8.5-10.2,12.37l2.49-.2c1.56-.12,2.99-.29,4.37-.52-.28-1.15-.69-2.29-1.22-3.4-.19-.39-.11-.85.21-1.18.13-.16.3-.26.48-.26.15,0,.3.07.42.21,2.62,2.64,3.73,5.56,3.22,8.44-.25,1.44-.88,2.18-1.86,2.18-.32,0-.58-.1-.75-.28-.24-.26-.32-.69-.26-1.32.09-.92.1-1.85.04-2.74-.19.04-.44.1-.75.18-.64.15-1.55.37-2.7.61-.03.06-.14.06-.28.06-.06.03-.11.04-.15.05l-4.14,23.5c-.09.53-.44.88-.87.88h-1.11Zm-6.52-3.92c-.1,0-.19-.03-.27-.09-.29-.17-.35-.56-.17-1.02,1.81-3.91,3.3-8.37,4.42-13.25.13-.54.5-.9.92-.9.06,0,.12,0,.18.02,2,.63,2.88,1.24,2.76,1.94-.08.46-.62.81-1.69,1.09-1.45,4.38-3.3,8.34-5.46,11.72-.21.32-.46.49-.69.49Zm14.43-3.63c-.27,0-.48-.09-.63-.27-.32-.37-.39-1.11-.21-2.26.41-2.59.24-5.53-.53-8.76-.07-.42.06-.83.33-1.06.11-.1.24-.15.37-.15.19,0,.37.12.5.33,2.03,3.46,2.8,6.69,2.28,9.61-.3,1.72-.99,2.55-2.1,2.55Zm6.3-17.9c-.28,0-.48-.22-.51-.57-.04-.18.01-.37.15-.54.21-.26.57-.42.94-.42h7.41l1.63-9.26h-8.82c-.17,0-.4-.09-.52-.49-.04-.23.02-.45.18-.63.21-.25.55-.4.92-.4h8.51l1.73-9.8c.09-.51.46-.89.87-.89,1.91.13,2.97.42,3.33.88.12.16.17.33.13.52-.08.47-.78,1.02-2.07,1.63l-1.31,7.65h5.63l2.07-2.72c.19-.23.43-.35.66-.35.19,0,.36.09.48.25.68.97,1.21,1.91,1.57,2.77.11.27.02.63-.1.88l-.18.28c-.18.28-.4.42-.65.42h-9.74l-1.63,9.26h4.99l1.91-2.5c.22-.28.47-.43.7-.43.2,0,.38.12.49.34.55.89.95,1.71,1.26,2.54.09.23.09.59-.1.84l-.18.31c-.22.28-.43.42-.65.42h-19.08Zm-10.13-6.42c-.6,0-.95-.66-1.06-2.02-.19-2.05-1.12-4.16-2.68-6.1-.26-.35-.23-.88.08-1.29.1-.13.25-.2.42-.2.17,0,.34.06.51.18,1.09.72,1.85,1.33,2.39,1.92,1.62-2.65,3.11-5.58,4.55-8.95.17-.37.49-.62.8-.62.11,0,.21.03.31.09,1.87.96,2.68,1.72,2.56,2.41-.08.47-.68.76-1.88.93-1.84,2.66-3.71,5.06-5.5,7.09,1.19,1.62,1.67,3.15,1.43,4.54-.24,1.34-.88,2.01-1.92,2.01Z"/>
      <path class="cls-1" d="m212.39,48.86c-.19,0-.34-.07-.45-.2-.14-.17-.18-.42-.13-.72l.4-2.27h-12.06l-.41,2.3c-.09.53-.44.88-.87.88h-1.15c-.19,0-.34-.07-.45-.2-.14-.16-.19-.42-.13-.72l3.44-19.52c.12-.67.46-1.18.8-1.18.05,0,.11.01.16.04.46.27,1.11.7,1.87,1.25l11.63-.02,1.07-1.11c.17-.17.36-.27.54-.27.14,0,.27.05.37.16,1.29,1.28,1.81,2,1.74,2.4-.05.28-.26.56-.64.86l-.79.65-2.94,16.77c-.09.53-.44.88-.87.88h-1.15Zm.09-4.71l1.14-6.46h-12.06l-1.14,6.46h12.06Zm1.41-7.98l1.08-6.13h-12.06l-1.08,6.13h12.06Zm-34.19,12.32c-.22,0-.42-.15-.5-.39-.16-.41.03-.95.45-1.23,4.25-3.19,7.69-7.32,10.21-12.26-1.08-1.16-2.4-2.31-4.01-3.44l-.04.1c-.11.24-.2.46-.28.71-.22.53-.4.98-.56,1.39-.1.27-.2.51-.29.73-.18.41-.47.65-.79.65-.09,0-.18-.02-.27-.06l-.94-.43c-.4-.21-.51-.6-.31-1.04,2.71-6.88,5.02-13.23,7.05-19.4h-4c-.3,0-.51-.24-.54-.62-.02-.19.04-.39.19-.55.2-.22.52-.35.85-.35h4.02l.14-.37c.91-2.41,1.78-5.5,2.79-9.08l.45-1.59c.12-.46.47-.77.88-.77h.11c2.3.52,3.26,1.09,3.13,1.84-.09.52-.76.92-2.1,1.26-.35,1.25-.71,2.45-1.05,3.53-.62,2.02-1.12,3.65-1.53,4.88,0,.04-.03.1-.05.17-.01.04-.03.09-.04.14h4.35l1.46-1.91c.19-.23.41-.35.62-.35.19,0,.37.1.51.29,1.08,1.47,1.55,2.42,1.47,2.93-.04.25-.17.42-.43.6l-1.2.76c-2.05,7.7-4.28,14.2-6.58,19.27,2.96,2.77,4.25,4.97,3.94,6.72-.22,1.27-.78,1.91-1.64,1.91-.47,0-.93-.6-1.46-1.89-.55-1.29-1.31-2.61-2.26-3.92-2.93,4.99-6.76,8.91-11.39,11.67-.11.08-.23.12-.36.12Zm6.72-18.85c1.56.79,3.04,1.67,4.49,2.71,2.18-5.18,4.2-11.42,6-18.54h-4.75c-2.05,6.27-3.93,11.46-5.74,15.83Zm12.75-1.7c-.18,0-.74,0-.96-3.59-.01-.67.38-1.22.92-1.28.75-.05,1.51-.14,2.31-.24l.14-.02,3.16-17.89c.1-.59.49-1.02.92-1.02.12,0,.23.03.34.09.66.37,1.22.76,1.72,1.2,5.06-1.18,9.22-2.66,12.28-4.43.13-.06.23-.09.33-.09.13,0,.25.05.36.15,1.42,1.39,2.05,2.37,1.94,2.99-.03.19-.18.5-.8.5-.26,0-.69-.1-1.33-.27-1.77.51-3.45.92-4.95,1.23,0,.13-.04.35-.09.65-.04.48-.1.81-.14,1.02-.3,1.92-.43,3.88-.41,5.83h3.91l1.8-2.39c.19-.25.44-.39.68-.39.21,0,.38.1.5.29.44.72.88,1.59,1.27,2.49.14.22.1.58-.11.89l-.12.21c-.21.28-.44.42-.65.42h-7.21c.27,3.15,1.07,5.59,2.37,7.25.6.77.99,1.05,1.14,1.05.45,0,1.33-1.22,2.44-4.63.2-.55.54-.89.89-.89.14,0,.27.05.39.15.21.09.09.63.03.85-.68,2.18-.96,3.53-1.07,4.14-.2,1.12-.15,1.94.15,2.42.23.38.26.71.1,1.01-.59,1.08-1.21,1.55-2,1.55-1.49,0-2.97-1.08-4.4-3.22-1.57-2.23-2.48-5.43-2.71-9.51h-6.64l-1.4,7.95c2.65-.47,5.11-1.13,6.74-1.59.07-.02.14-.03.2-.03.34,0,.57.26.58.65.03.37-.24.77-.63.95-3.34,1.34-6.92,2.55-10.94,3.67-.31,1.29-.65,1.89-1.04,1.89Zm13.11-15.01c.03-2.35.21-4.73.54-7.08-.67.14-1.52.27-2.57.42-.87.13-1.87.28-2.99.47l-.25.04-1.08,6.15h6.35Z"/>
      <path class="cls-1" d="m248.16,46.01c-1.71,0-3.06-.57-4.01-1.7-1.82-2.17-2.19-6.42-1.09-12.64.16-.89.36-1.82.58-2.84l.06-.29c.83-3.64,1.54-6.7,2.13-9.25,1.16-5.01,1.86-8.03,2.15-9.67.05-.26.09-.53.08-.68.29-2.22.06-3.56-.77-4.37-.29-.2-.41-.54-.34-.94.09-.53.59-.99,1.06-.99.15,0,.27.06.4.12,1.87,1.37,2.56,3.45,2.08,6.19l-.04.22c-.6,3.41-2.78,13.4-4.23,19.42-.3,1.27-.65,2.72-.91,4.2-.72,4.31-.97,9.36,3.51,10.2.24.05.44.05.7.05,5.58,0,16.16-10.55,16.27-10.65.21-.22.46-.35.67-.35.17,0,.32.07.43.2.17.2.23.52.17.87-.05.3-.18.56-.36.75-3.07,3.37-11.09,12.16-18.1,12.16h-.42Z"/>
      <path class="cls-1" d="m314.38,45.14c-5.16,0-8.98-1.29-11.03-3.74-1.59-1.9-2.12-4.45-1.57-7.58l.03-.16c.73-4.15,4.12-8.16,10.35-12.25.4-.28.69-.69.73-.91.04-.24-.04-.42-.27-.56-.68-.52-1.45-.87-2.38-1.07-.15-.02-.28-.1-.38-.23-.13-.19-.18-.46-.14-.73.09-.49.47-.99,1.14-.99,1.62,0,3.81.43,6.07,1.19.72.21,1.07.85.93,1.66-.12.67-.59,1.32-1.22,1.68l-1.07.63c-5.62,3.3-10.94,6.42-11.87,11.71l-.04.22c-.55,3.14,1.16,5.03,2.7,6.06,1.88,1.26,4.65,1.98,7.59,1.98,1.18,0,2.29-.11,3.4-.32.09-.06.19-.06.28-.06.33,0,.6.12.8.36.27.32.37.83.28,1.36-.14.77-.72,1.58-1.72,1.64h-.1c-.87.06-1.69.11-2.51.11Zm-26.77-.27c-.32,0-.6-.13-.8-.37-.25-.3-.34-.72-.26-1.19.05-.28.19-.56.38-.89,7.3-12.61,10.35-18.26,13.05-24.15.09-.2.19-.41.29-.62.11-.24.23-.49.34-.74-.16.02-.32.06-.48.09-.21.04-.42.08-.64.11-.35.05-.74.05-1.08.05-2.61,0-4.54-1.39-5.03-3.63-.06-.17-.02-.4,0-.57.11-.61.61-.99,1.02-.99.24,0,.46.18.6.48.35,1.19,1.56,1.84,3.41,1.84.38,0,.81-.04,1.27-.09h.14c.45-.09.93-.19,1.45-.3l.7-.15c1.01-2.52,2-5.11,2.73-7,.57-1.49,1.02-2.67,1.27-3.19.33-.78.83-1.24,1.35-1.24.41,0,.72.16.94.42.26.31.37.75.29,1.2-.02.11-.04.23-.11.35-.72,2.02-2.02,5.18-3.56,8.67,1.58-.44,3.09-.98,4.24-1.4.08-.03.3-.11.47-.11.29,0,.53.11.7.32.26.3.35.81.26,1.35-.11.63-.54,1.45-1.37,1.69-2.17.69-4.05,1.21-5.9,1.62-1.05,2.43-2.35,5.22-3.91,8.47-3.1,6.44-9.21,17.25-10.37,19.05-.39.62-.88.96-1.38.96Z"/>
      <path class="cls-1" d="m10.77,87.26c-.79,0-1.38-.37-1.87-1.17-.47-.77-.6-1.77-.39-2.97.3-1.7,1.1-3.54,2.38-5.48,1.22-1.92,2.75-3.56,4.53-4.88.12-.1.25-.15.39-.15.17,0,.33.08.44.22.18.2.01.67-.39,1.09-1.71,1.86-2.96,3.97-3.71,6.27.75.04,1.32.29,1.68.74.46.57.59,1.46.38,2.65-.11.65-.35,1.26-.72,1.86-.79,1.23-1.68,1.82-2.73,1.82Zm-8.5,0c-.79,0-1.38-.37-1.87-1.17-.47-.77-.6-1.77-.39-2.97.28-1.6,1.08-3.45,2.38-5.48,1.22-1.92,2.75-3.56,4.53-4.88.12-.1.25-.15.39-.15.17,0,.33.08.44.22.18.2.01.67-.39,1.09-1.71,1.86-2.96,3.97-3.71,6.27.75.04,1.32.29,1.68.74.46.57.59,1.46.38,2.65-.11.65-.35,1.26-.72,1.86-.79,1.23-1.68,1.82-2.73,1.82Z"/>
      <path class="cls-1" d="m24.28,118.98c-.21,0-.38-.07-.49-.22-.15-.18-.21-.46-.15-.79.11-.63.53-1.04,1.02-1.04,2.23-.06,3.54-.24,4.25-.59,1.13-.54,1.9-1.85,2.25-3.79l5.13-29.11c.21-1.16.09-2.01-.33-2.52-.32-.38-.82-.57-1.49-.57h-3.99c-.21,0-.38-.07-.49-.22-.15-.18-.21-.46-.15-.79.1-.55.44-.92.85-.92,3.78-.54,6.79-1.45,8.93-2.7.2-.13.42-.2.61-.2.22,0,.41.09.54.25.19.23.26.59.19,1.01l-6.31,35.8c-.32,1.81-.08,3,.73,3.65.53.41,1.84.65,3.9.7.21,0,.4.08.53.24.16.19.21.46.16.77-.11.65-.5,1.04-.97,1.04h-14.72Z"/>
      <path class="cls-1" d="m71.02,120.48c-3.91,0-6.42-2.25-7.67-6.88-1.15-4.08-1.14-9.47.01-16.01,1.57-8.92,4.37-15.44,8.33-19.4,2.27-2.26,4.7-3.4,7.21-3.4,3.97,0,6.53,2.31,7.83,7.06,1.1,4.16,1.09,9.49-.03,15.83-1.13,6.43-3.04,11.8-5.67,15.94-2.86,4.55-6.22,6.85-10.01,6.85Zm7.7-43.4c-2.25,0-4.36,1.57-6.26,4.66-2.35,3.75-4.09,8.97-5.32,15.94-.99,5.62-1.21,10.32-.66,13.95.71,4.37,2.34,6.5,4.97,6.5s5.07-2.23,7.35-6.82c1.77-3.62,3.15-8.2,4.1-13.6,1.02-5.77,1.24-10.58.68-14.32-.68-4.25-2.27-6.31-4.86-6.31Z"/>
      <path class="cls-1" d="m110.82,120.48c-3.92,0-6.42-2.25-7.67-6.88-1.15-4.08-1.14-9.47.01-16.01,1.57-8.92,4.37-15.44,8.33-19.4,2.27-2.26,4.7-3.4,7.21-3.4,3.97,0,6.53,2.31,7.83,7.06,1.1,4.16,1.09,9.49-.03,15.83-1.13,6.43-3.04,11.8-5.67,15.94-2.86,4.55-6.23,6.85-10.01,6.85Zm7.7-43.4c-2.25,0-4.36,1.57-6.26,4.66-2.35,3.75-4.09,8.97-5.32,15.94-.99,5.62-1.21,10.32-.66,13.95.71,4.37,2.34,6.5,4.97,6.5s5.07-2.23,7.35-6.82c1.77-3.62,3.15-8.2,4.1-13.6,1.02-5.77,1.24-10.58.68-14.32-.68-4.25-2.28-6.31-4.86-6.31Z"/>
      <path class="cls-1" d="m149.39,87.99c-.17,0-.33-.08-.44-.22-.18-.2-.01-.67.39-1.09,1.69-1.84,2.94-3.95,3.71-6.27-.36-.01-.63-.09-.83-.23-1.08-.49-1.52-1.57-1.24-3.11.12-.66.37-1.33.73-1.92.78-1.21,1.68-1.82,2.68-1.82.82,0,1.43.37,1.92,1.17.47.77.61,1.75.4,2.92-.29,1.66-1.07,3.47-2.38,5.53-1.22,1.92-2.75,3.56-4.53,4.88-.12.1-.25.15-.39.15Zm-8.52,0c-.16,0-.31-.08-.43-.22-.18-.2-.01-.67.39-1.09,1.76-1.91,3.01-4.02,3.71-6.27-.33-.01-.59-.08-.82-.23-1.09-.5-1.52-1.57-1.25-3.11.12-.67.37-1.33.73-1.92.78-1.21,1.68-1.82,2.68-1.82.84,0,1.48.4,1.92,1.18.47.77.6,1.75.4,2.92-.3,1.73-1.11,3.59-2.38,5.53-1.28,2.01-2.76,3.6-4.53,4.88-.14.1-.28.15-.41.15Z"/>
      <path class="cls-1" d="m180.48,117.57c-.27,0-.5-.1-.65-.28-.18-.22-.25-.54-.18-.91.11-.64.62-1.16,1.31-1.31,2.22-.57,5.75-2.05,9.97-5.91,3.46-3.17,5.36-6.88,6.33-12.41l.28-1.56c1.05-5.97-1.89-11.5-6.71-12.57-1.32-.29-2.54-.43-3.73-.43-.61,0-1.25.05-1.86.14.62,1.48.78,3.01.48,4.69-.13.76-.45,1.98-1.2,3.42-3.33,6.62-7.09,12.43-11.17,17.27-1.77,2.07-3.58,3.21-5.09,3.21-1.39,0-2.5-.97-3.21-2.81-.59-1.58-.66-3.79-.2-6.41.74-4.22,2.71-8.8,5.13-11.96,4.17-5.42,8.85-8.64,14.32-9.85,1.21-.28,2.51-.43,3.75-.43,3.62,0,9.96,1.21,11.71,9.35.61,2.8.66,5.7.15,8.61-.94,5.33-3.77,10.44-7.76,14.02-3.72,3.33-7.34,5.26-11.39,6.06-.09.06-.19.06-.28.06Zm2.88-34.88c-2.6.77-5.24,2.27-8.07,4.6-5.43,4.46-7.17,10.43-7.73,13.59-.22,1.24-.33,2.38-.32,3.27.02,2.24.63,3.53,1.7,3.53.78,0,1.8-.74,2.85-2.07,2.92-3.57,7.95-10.89,10.49-15.68.67-1.27,1.14-2.61,1.36-3.86.25-1.42.15-2.64-.27-3.39Z"/>
      <path class="cls-1" d="m223.27,119.94c-.28,0-.48-.22-.51-.57-.04-.18.01-.37.15-.54.21-.26.57-.42.94-.42h11.66l1.6-9.1h-8.95c-.28,0-.48-.22-.51-.57-.04-.18.01-.37.15-.54.21-.26.57-.42.94-.42h8.64l1.56-8.83h-5.73l-.45,2.57c-.09.53-.44.88-.87.88h-1.1c-.19,0-.34-.07-.45-.2-.14-.16-.19-.42-.13-.72l4.34-24.59c.1-.58.29-1.31.49-1.46l.02-.02h.11c.08.04.11.06.13.08.4.27.71.47,1,.66.41.27.77.51,1.08.73l13.8-.02,1.5-1.86c.19-.22.41-.34.61-.34.13,0,.33.05.48.3,1.12,1.54,1.62,2.51,1.54,2.97-.04.24-.22.47-.48.65l-1.21.86-3.62,20.71c-.09.53-.44.88-.87.88h-1.15c-.19,0-.34-.07-.45-.2-.14-.17-.19-.42-.13-.72l.21-1.19h-6.03l-1.56,8.83h6.18l1.96-2.56c.19-.22.42-.35.63-.35.2,0,.38.11.5.3.59.82,1.1,1.73,1.53,2.71.14.22.1.58-.11.89l-.06.1c-.19.29-.4.42-.65.42h-10.25l-1.6,9.1h7.54l2.12-2.77c.19-.25.44-.39.68-.39.21,0,.38.1.5.29.55.9,1.12,1.84,1.59,2.81.14.23.1.58-.11.9l-.13.26c-.22.29-.44.43-.66.43h-26.43Zm24.6-22.5l1.58-8.94h-6.03l-1.58,8.94h6.03Zm-8.67,0l1.58-8.94h-5.73l-1.58,8.94h5.73Zm10.51-10.46l1.51-8.56h-6.03l-1.51,8.56h6.03Zm-8.67,0l1.51-8.56h-5.73l-1.51,8.56h5.73Zm-26.95,27.63c-.8,0-1.17-2.35-1.31-3.75-.08-.57.28-1.16.79-1.28l.5-.14c1.72-.48,3.34-.93,4.79-1.47l2.33-13.47h-4.14c-.3,0-.51-.24-.55-.62-.02-.19.04-.39.19-.55.2-.22.51-.35.85-.35h3.92l2.23-12.66h-4.53c-.28,0-.48-.22-.51-.57-.04-.18.01-.37.15-.54.21-.26.57-.42.94-.42h8.46l1.96-2.56c.19-.25.44-.39.68-.39.21,0,.38.1.5.29.47.77.94,1.68,1.4,2.71.13.21.11.54-.06.88l-.12.22c-.18.24-.39.37-.6.37h-5.71l-2.23,12.66h1.51l1.73-2.44c.2-.29.46-.46.71-.46.21,0,.4.13.52.36.43.77.82,1.65,1.16,2.6.1.25.03.61-.1.83l-.12.22c-.22.28-.44.42-.65.42h-5.02l-2.2,12.5c2.1-.77,4.11-1.62,5.95-2.53.1-.04.19-.06.28-.06.29,0,.52.21.62.55.07.44-.17.9-.56,1.08-4.6,2.67-8.84,4.83-12.61,6.42-.34,1.44-.73,2.16-1.14,2.16Z"/>
      <path class="cls-1" d="m295.54,121.66c-.19,0-.34-.07-.45-.2-.14-.17-.19-.42-.13-.72l.59-3.35h-25.66l-.6,3.38c-.09.53-.44.88-.87.88h-1.32c-.19,0-.34-.07-.45-.2-.14-.17-.19-.42-.13-.72l6.18-35.05c.1-.58.52-1.04.95-1.04.13,0,.25.04.36.12.5.26,1.06.64,1.8,1.13l10.97-.02,1.82-10.34c.09-.51.46-.89.87-.89,2.02.18,3.14.49,3.5.96.12.15.16.32.12.5-.09.52-.77,1.02-2.15,1.58l-1.4,8.19h11.16l1.61-2.02c.19-.23.42-.35.63-.35.18,0,.34.09.46.25,1.3,1.68,1.82,2.59,1.75,3.03-.05.28-.21.52-.49.71l-1.27.92-5.68,32.36c-.09.53-.44.88-.87.88h-1.32Zm.28-5.79l2.46-13.95h-11.55l-2.46,13.95h11.55Zm-14.32,0l2.46-13.95h-11.34l-2.46,13.95h11.34Zm17.05-15.48l2.29-12.98h-11.55l-2.29,12.98h11.55Zm-14.32,0l2.29-12.98h-11.34l-2.29,12.98h11.34Z"/>
    </g>
  </g>
</svg>