<?xml version="1.0" encoding="UTF-8"?>
<svg id="_レイヤー_2" data-name="レイヤー 2" xmlns="http://www.w3.org/2000/svg" viewBox="0 0 806.1 109.81">
  <defs>
    <style>
      .cls-1 {
        fill: none;
        stroke: #ea5532;
        stroke-miterlimit: 10;
        stroke-width: 1.02px;
      }

      .cls-2 {
        fill: #ea5532;
      }
    </style>
  </defs>
  <g id="_文字" data-name="文字">
    <g>
      <path class="cls-2" d="m8.98,55.6c-.21,0-.39-.08-.51-.22-.16-.19-.21-.47-.15-.81l4.43-25.15c-3.28,5.76-7.16,11.17-11.53,16.09-.2.23-.43.36-.66.36-.21,0-.4-.11-.52-.31-.25-.32-.18-.85.17-1.33,5.76-7.34,10.43-15.31,13.88-23.67H5.75c-.32,0-.55-.25-.58-.64-.04-.2.02-.42.17-.61.23-.29.64-.47,1.06-.47h8.22l1.82-10.31-.65.15c-3.02.72-5.28,1.21-7.34,1.59h0c-.43,0-.7-.24-.74-.64-.08-.49.35-1.01.93-1.14,6.8-1.85,11.95-3.98,15.76-6.51.12-.07.25-.1.37-.1.17,0,.32.06.42.18,1.67,1.5,2.49,2.69,2.36,3.44-.11.62-.69.69-1.12.69-.16,0-.76-.02-1.56-.31-1.51.6-3.29,1.21-5.24,1.81l-1.97,11.16h4.25l2.25-3.07c.21-.31.5-.48.78-.48.27,0,.5.15.64.44.59,1.12,1.06,2.22,1.41,3.25.12.28.03.68-.11.93l-.14.24c-.21.27-.45.42-.68.42h-8.7l-.93,5.28.33.21c4.68,2.95,7.04,6.43,6.49,9.55-.26,1.45-.93,2.15-2.05,2.15-.57,0-1-.5-1.29-1.47-.8-3.02-2.1-5.81-3.86-8.31l-4.7,26.64c-.1.6-.5,1-.98,1h-1.39Zm30.71-1.52c-.21,0-.4-.08-.55-.24-.42-.42-.6-1.42-.57-3.04,0-1.29-.06-2.85-.16-4.61l-.39.14c-6.42,2.28-12.84,3.63-18.86,4.81-.53,1.61-1.01,2.39-1.46,2.39-.41,0-.97-.48-1.02-4.67-.02-.37.11-.77.36-1.03.18-.19.4-.29.63-.29,1.53-.19,2.62-.31,3.42-.36l.57-.06c4.98-12.29,9.85-26.6,14.45-42.54.14-.52.56-.91.98-.91.09,0,.17.02.26.05,2.6.86,3.9,1.74,3.76,2.55-.1.55-.98,1.06-2.47,1.42-4.71,14.01-9.82,27.22-15.12,39.22,4.19-.47,8.91-1.32,14.44-2.6l.03-.03.15-.03c.09,0,.1,0,.13-.03-.49-4.1-1.4-8.26-2.82-12.64-.14-.49.04-1.01.44-1.33.11-.1.24-.15.38-.15.24,0,.46.16.59.43,2.66,5.36,4.35,10.48,5.02,15.21.31,2.07.33,3.85.08,5.27-.36,2.07-1.1,3.07-2.26,3.07Z"/>
      <path class="cls-2" d="m75.82,51.57c-3.26,0-6.22-4.55-7.41-8.92-1.43,2.55-2.93,5.12-4.44,7.65-.46.81-.97,1.21-1.54,1.21-.31,0-.6-.14-.82-.41-.32-.38-.45-.96-.35-1.54.07-.41.19-.71.38-1.01,6.09-9.78,10.6-17.96,14.61-26.5.2-.41.4-.84.57-1.26-.14.05-.29.1-.46.18-2.89,1-4.89,1.65-6.48,1.65-.74,0-1.4-.15-1.94-.44-1.31-.74-2.13-1.95-2.27-3.31.01-.08,0-.14,0-.19,0-.07,0-.13,0-.2.12-.66.67-1.06,1.14-1.06.31,0,.59.24.72.62.18.84,1.02,1.34,2.25,1.34.19,0,.37,0,.56-.06,1.49-.16,4.02-1.01,6.04-1.7l1.09-.37c.3-.12.62-.24.98-.31,1.68-4.51,3.99-11.08,4.01-11.15.4-1.1,1.19-1.59,1.8-1.59.33,0,.63.15.86.41.29.34.39.82.3,1.35-.03.18-.06.32-.14.51-.96,2.52-2.43,6.27-3.85,9.83.58-.1,1.16-.15,1.7-.15,2.2,0,3.93.64,4.86,1.81,1.38,1.73,1.61,4.13.83,8.55-.12.69-.26,1.47-.45,2.26-1.04,5.05-2.09,8.93-4.67,15.01-2.09,4.89-5.04,7.8-7.89,7.8Zm6.65-32c-.81,0-1.69.12-2.63.36l-1.3,3.05c-2.58,5.88-5.69,11.62-8.66,16.95.97,2.9,3.1,7.9,6.61,7.9h.14c2.01,0,4.58-4.14,6.87-11.08,1.2-3.71,2-6.74,2.45-9.25.72-4.1.38-6.65-.98-7.39-.68-.35-1.54-.54-2.5-.54Zm14.17,20.97c-.98,0-1.79-.22-2.48-.69-.36-.22-.42-.7-.35-1.08.1-.57.51-1.18,1.06-1.18.15,0,.27,0,.38.08.26.15.6.23,1.1.23.66,0,2.31-.22,3.39-2.26.15-.34.27-.75.34-1.13.4-2.29-.83-5.18-1.82-7.5l-.08-.19c-1.86-4.32-3.42-7.34-4.74-9.25-.19-.22-.22-.57-.18-.81.1-.57.55-1.18,1.11-1.18.24,0,.49.16.65.41,3.05,3.72,5.68,8.42,7.2,12.88.83,2.29,1.09,4.26.78,6.02-.18,1-.47,1.8-.94,2.59-1.08,1.76-3.36,3.03-5.41,3.03Zm6.51-21.92c-.45,0-.82-.29-1.03-.81-.75-1.99-1.26-2.86-2.33-4.05-.45-.52-.43-1.11-.25-1.49.18-.39.52-.63.91-.63.12,0,.24.02.36.07,1.45.49,2.97,1.85,3.87,3.46.43.76.42,1.64-.03,2.42-.37.63-.95,1.04-1.49,1.04Zm2.83-6.04c-.25,0-.62-.1-.94-.6-.93-1.45-1.89-2.47-2.75-2.95-.4-.22-.57-.65-.45-1.11.11-.44.52-.9,1.14-.9,1.5.12,3.02.93,4.13,2.17.63.71.55,1.64.26,2.27-.31.68-.86,1.13-1.39,1.13Z"/>
      <path class="cls-2" d="m152.8,55.6c-.21,0-.39-.08-.51-.22-.16-.19-.21-.47-.15-.81l.52-2.93h-12.76l-.52,2.97c-.1.6-.5,1-.98,1h-1.34c-.21,0-.39-.08-.51-.22-.16-.19-.21-.47-.15-.81l3.5-19.87c.12-.71.55-1.24.99-1.24.09,0,.18.02.27.07.6.33,1.29.78,2.16,1.41l12.04-.02,1.56-1.92c.21-.24.44-.37.67-.37.19,0,.36.08.51.25,1.32,1.53,1.93,2.6,1.83,3.2-.04.25-.22.51-.55.79l-1.28.98-2.93,16.76c-.1.6-.5,1-.98,1h-1.39Zm.16-5.69l2.34-13.27h-12.76l-2.34,13.27h12.76Zm-28.97,5.69c-.21,0-.39-.08-.51-.22-.16-.19-.21-.47-.15-.81l4.57-25.92-.2.07c-.29.06-.66.13-1.13.2-.46.08-1.01.17-1.66.29-.83.13-1.51.27-2.06.38l-.57.11c-.3.89-.83,2.01-1.29,2.01-.35,0-.82-.41-.86-3.94.03-.78.48-1.38,1.05-1.38l2.18-.12c.91-.05,1.49-.09,1.75-.11.09,0,.14-.01.15-.01,4.17-5.34,8.19-11.31,11.88-17.69.2-.33.52-.52.82-.52.14,0,.28.04.4.13,1.88,1.28,2.77,2.29,2.65,3.02-.1.59-.78.87-2.26.94-3.62,4.89-7.52,9.61-11.53,13.98l2.81-.22c1.76-.13,3.38-.33,4.94-.59-.32-1.3-.78-2.59-1.38-3.84-.21-.44-.12-.97.23-1.33.15-.19.34-.29.54-.29.17,0,.34.08.48.23,2.95,2.99,4.21,6.28,3.64,9.53-.29,1.63-1,2.46-2.1,2.46-.37,0-.65-.11-.84-.32-.27-.29-.37-.78-.3-1.5.1-1.04.11-2.08.05-3.1-.21.05-.49.11-.84.2-.73.17-1.75.42-3.05.69-.04.06-.16.06-.32.06-.07.03-.12.05-.17.06l-4.68,26.56c-.1.6-.5,1-.98,1h-1.25Zm-7.36-4.43c-.11,0-.21-.03-.31-.1-.32-.19-.4-.64-.19-1.15,2.05-4.42,3.73-9.46,4.99-14.98.15-.61.57-1.01,1.04-1.01.07,0,.14,0,.2.03,2.27.71,3.25,1.4,3.12,2.19-.09.53-.7.92-1.91,1.24-1.63,4.95-3.73,9.43-6.17,13.24-.24.36-.51.55-.78.55Zm16.31-4.1c-.3,0-.54-.1-.72-.31-.36-.42-.44-1.25-.24-2.55.47-2.92.27-6.25-.6-9.9-.08-.48.06-.93.37-1.2.13-.11.27-.17.42-.17.22,0,.42.13.57.38,2.29,3.9,3.16,7.56,2.58,10.86-.34,1.94-1.12,2.89-2.37,2.89Zm7.12-20.23c-.32,0-.55-.25-.58-.64-.04-.2.02-.42.17-.61.23-.29.64-.47,1.06-.47h8.37l1.85-10.47h-9.96c-.19,0-.45-.1-.59-.56-.05-.26.03-.51.2-.71.24-.28.63-.45,1.04-.45h9.62l1.95-11.07c.1-.58.52-1,.99-1h.1c2.05.15,3.25.47,3.66.99.14.18.19.38.15.59-.09.53-.88,1.15-2.34,1.84l-1.48,8.65h6.36l2.34-3.07c.22-.26.49-.4.75-.4.21,0,.41.1.54.28.77,1.1,1.36,2.15,1.77,3.13.13.3.02.71-.12,1l-.2.31c-.21.32-.45.47-.74.47h-11.01l-1.85,10.47h5.64l2.16-2.83c.25-.32.53-.49.79-.49.23,0,.43.14.55.39.63,1.02,1.08,1.94,1.42,2.88.11.25.1.66-.12.95l-.2.35c-.25.32-.49.48-.74.48h-21.56Zm-11.45-7.25c-.68,0-1.07-.75-1.2-2.29-.22-2.31-1.26-4.7-3.03-6.89-.29-.4-.26-1,.09-1.46.11-.14.28-.22.48-.22.19,0,.39.07.57.2,1.23.81,2.09,1.5,2.7,2.17,1.84-3,3.52-6.31,5.14-10.11.2-.42.56-.7.9-.7.12,0,.24.03.35.1,2.11,1.08,3.03,1.95,2.9,2.72-.09.53-.77.86-2.13,1.06-2.09,3.01-4.2,5.72-6.21,8.01,1.35,1.84,1.89,3.56,1.61,5.13-.27,1.51-1,2.28-2.17,2.28Z"/>
      <path class="cls-2" d="m211.53,55.6c-.21,0-.39-.08-.51-.22-.16-.19-.21-.47-.15-.81l.45-2.56h-13.63l-.46,2.6c-.1.6-.5,1-.98,1h-1.3c-.21,0-.39-.08-.51-.22-.16-.19-.21-.47-.15-.81l3.89-22.06c.13-.76.52-1.33.9-1.33.06,0,.12.01.18.04.52.31,1.25.79,2.12,1.41l13.15-.02,1.21-1.25c.19-.19.4-.3.61-.3.16,0,.3.06.42.18,1.46,1.45,2.05,2.26,1.97,2.71-.06.32-.29.64-.73.98l-.9.73-3.32,18.96c-.1.6-.5,1-.98,1h-1.3Zm.1-5.32l1.29-7.3h-13.63l-1.29,7.3h13.63Zm1.59-9.02l1.22-6.93h-13.63l-1.22,6.93h13.63Zm-38.63,13.92c-.25,0-.47-.17-.56-.44-.18-.47.03-1.07.5-1.4,4.79-3.6,8.66-8.24,11.51-13.8-1.23-1.39-2.7-2.69-4.5-3.95l-.05.11c-.12.27-.23.52-.32.8-.25.59-.45,1.11-.62,1.56-.12.31-.23.58-.33.83-.2.46-.54.73-.89.73-.1,0-.21-.02-.31-.07l-1.07-.49c-.45-.23-.58-.68-.35-1.17,3.06-7.77,5.67-14.95,7.97-21.92h-4.52c-.34,0-.58-.28-.62-.7-.03-.22.05-.44.21-.62.22-.25.58-.4.96-.4h4.54l.16-.42c1.03-2.72,2.01-6.22,3.16-10.28l.5-1.78c.14-.52.54-.87.99-.87.04,0,.08,0,.12,0,2.6.58,3.68,1.22,3.53,2.07-.1.59-.86,1.04-2.38,1.42-.4,1.46-.83,2.84-1.21,4.09-.69,2.26-1.24,4.04-1.7,5.42,0,.04-.03.12-.05.19-.02.05-.03.11-.05.16h4.92l1.65-2.16c.22-.26.46-.39.7-.39.22,0,.42.12.58.33,1.21,1.66,1.76,2.74,1.66,3.31-.05.28-.19.48-.49.67l-1.35.85c-2.32,8.71-4.84,16.05-7.44,21.77,3.35,3.13,4.81,5.61,4.46,7.6-.25,1.43-.88,2.16-1.86,2.16-.53,0-1.06-.68-1.65-2.14-.62-1.47-1.48-2.96-2.55-4.43-3.31,5.64-7.64,10.07-12.87,13.19-.12.09-.26.14-.4.14Zm7.6-21.3c1.76.88,3.42,1.89,5.08,3.06,2.47-5.86,4.75-12.91,6.78-20.96h-5.37c-2.32,7.08-4.44,12.93-6.49,17.89Zm14.4-1.92c-.21,0-.83,0-1.08-4.06-.02-.76.43-1.38,1.05-1.45.84-.06,1.68-.16,2.57-.27l.19-.02,3.57-20.22c.12-.67.56-1.15,1.05-1.15.13,0,.26.04.38.11.74.41,1.38.86,1.94,1.35,5.72-1.33,10.42-3.01,13.87-5.01.15-.07.26-.1.37-.1.15,0,.28.06.41.17,1.6,1.57,2.32,2.67,2.19,3.38-.04.21-.21.57-.91.57-.29,0-.78-.11-1.51-.31-1.99.57-3.89,1.04-5.59,1.38,0,.15-.04.38-.1.73-.05.54-.11.91-.16,1.16-.33,2.17-.49,4.38-.46,6.59h4.42l2.04-2.7c.22-.28.5-.45.77-.45.23,0,.43.12.57.33.5.82,1,1.8,1.43,2.82.15.25.11.65-.12,1.01l-.14.24c-.24.32-.49.48-.74.48h-8.15c.3,3.56,1.2,6.31,2.68,8.19.68.87,1.11,1.18,1.29,1.18.51,0,1.5-1.38,2.76-5.23.22-.62.61-1,1.01-1,.15,0,.3.06.44.16.24.11.1.71.03.96-.77,2.48-1.09,4-1.21,4.68-.22,1.27-.17,2.19.17,2.73.26.43.3.8.11,1.14-.67,1.21-1.36,1.76-2.26,1.76-1.68,0-3.35-1.22-4.97-3.64-1.78-2.52-2.81-6.13-3.06-10.74h-7.5l-1.58,8.98c2.99-.53,5.77-1.28,7.61-1.8.08-.02.15-.04.23-.04.38,0,.65.3.65.74.04.41-.27.88-.71,1.07-3.78,1.52-7.82,2.88-12.37,4.15-.36,1.46-.74,2.14-1.17,2.14Zm14.81-16.96c.03-2.65.24-5.34.61-8-.76.16-1.72.3-2.91.48-.98.15-2.11.31-3.38.53l-.28.05-1.22,6.94h7.18Z"/>
      <path class="cls-2" d="m251.96,52.37c-1.94,0-3.46-.65-4.53-1.92-2.06-2.45-2.47-7.26-1.23-14.29.18-1,.4-2.04.64-3.18l.08-.36c.93-4.09,1.73-7.54,2.39-10.42,1.31-5.69,2.11-9.12,2.43-10.97.05-.29.1-.6.09-.77.33-2.51.07-4.03-.87-4.93-.32-.23-.46-.61-.38-1.06.1-.6.66-1.12,1.19-1.12.17,0,.32.07.45.13,2.11,1.55,2.89,3.9,2.35,7l-.04.24c-.68,3.84-3.14,15.13-4.78,21.95-.32,1.36-.73,3.05-1.03,4.75-.82,4.87-1.1,10.58,3.97,11.52.27.06.5.06.79.06,6.31,0,18.26-11.92,18.38-12.04.24-.25.52-.4.76-.4.19,0,.36.08.48.23.19.23.26.59.19.99-.06.34-.2.63-.41.84-3.47,3.81-12.53,13.74-20.45,13.74h-.48Z"/>
      <path class="cls-2" d="m326.8,51.39c-5.84,0-10.14-1.46-12.46-4.22-1.8-2.15-2.4-5.03-1.77-8.57l.03-.18c.83-4.69,4.65-9.22,11.69-13.84.45-.31.78-.78.82-1.03.05-.27-.05-.47-.3-.63-.77-.58-1.64-.98-2.68-1.21-.17-.02-.32-.12-.42-.26-.15-.21-.21-.52-.15-.83.1-.56.53-1.12,1.29-1.12,1.83,0,4.31.49,6.85,1.35.81.24,1.21.96,1.05,1.88-.13.76-.66,1.49-1.38,1.9l-1.21.71c-6.35,3.73-12.36,7.26-13.41,13.24l-.04.24c-.63,3.55,1.31,5.68,3.05,6.85,2.12,1.42,5.25,2.24,8.57,2.24,1.33,0,2.59-.12,3.84-.36.1-.06.22-.06.32-.06.37,0,.68.14.9.41.3.36.42.94.31,1.54-.15.87-.81,1.78-1.94,1.85-1.09.07-2.02.12-2.96.12Zm-30.25-.31c-.36,0-.68-.15-.91-.42-.28-.34-.39-.81-.29-1.34.06-.32.21-.63.42-1.01,8.25-14.26,11.7-20.64,14.75-27.3.1-.23.21-.46.32-.69.13-.27.26-.55.39-.85-.18.03-.36.06-.54.1-.24.05-.48.09-.73.12-.4.06-.84.06-1.22.06-2.95,0-5.13-1.57-5.68-4.1-.07-.2-.02-.46.01-.65.12-.69.69-1.12,1.15-1.12.28,0,.52.19.68.55.4,1.34,1.77,2.07,3.85,2.07.44,0,.94-.05,1.47-.11h.12c.52-.1,1.07-.21,1.66-.34l.77-.16c1.14-2.85,2.27-5.78,3.09-7.92.65-1.68,1.16-3.01,1.43-3.6.37-.88.94-1.4,1.53-1.4,0,0,.11,0,.11,0,.35,0,.7.17.95.47.3.35.42.85.33,1.36-.02.13-.05.26-.12.4-.82,2.29-2.29,5.86-4.02,9.79,1.82-.51,3.59-1.15,4.78-1.59.1-.04.34-.13.54-.13.32,0,.6.12.79.36.29.34.4.91.29,1.53-.13.71-.61,1.64-1.55,1.91-2.41.77-4.59,1.37-6.67,1.83-1.16,2.69-2.63,5.84-4.41,9.58-3.52,7.29-10.42,19.5-11.72,21.53-.44.7-1,1.08-1.56,1.08Z"/>
      <path class="cls-2" d="m366,16.47c-.88,0-1.57-.43-2.12-1.33-.53-.87-.68-2-.44-3.36.34-1.91,1.24-4,2.68-6.19,1.38-2.17,3.1-4.02,5.12-5.51.13-.11.28-.17.44-.17.19,0,.37.09.5.25.2.23.01.76-.44,1.23-1.93,2.1-3.34,4.49-4.19,7.09.85.05,1.49.33,1.9.83.52.64.67,1.65.43,3-.13.73-.39,1.42-.81,2.11-.89,1.39-1.9,2.06-3.08,2.06Zm-9.6,0c-.88,0-1.57-.43-2.12-1.33-.53-.87-.68-2-.44-3.36.32-1.81,1.22-3.89,2.68-6.19,1.38-2.17,3.1-4.03,5.12-5.51.13-.11.29-.17.44-.17.19,0,.37.09.5.25.2.23.01.76-.44,1.23-1.93,2.1-3.34,4.49-4.19,7.09.85.05,1.49.33,1.9.83.52.64.67,1.65.43,3-.13.73-.39,1.42-.81,2.11-.89,1.39-1.9,2.06-3.08,2.06Z"/>
      <path class="cls-2" d="m381.26,52.32c-.23,0-.42-.08-.56-.24-.17-.21-.23-.52-.17-.9.12-.71.6-1.17,1.15-1.17,2.52-.07,4-.28,4.8-.67,1.27-.61,2.15-2.09,2.54-4.29l5.8-32.9c.23-1.31.1-2.27-.38-2.85-.36-.43-.92-.65-1.68-.65h-4.51c-.23,0-.42-.08-.56-.24-.17-.21-.23-.52-.17-.9.11-.62.5-1.04.96-1.04,4.27-.61,7.67-1.64,10.1-3.05.23-.15.47-.23.69-.23.25,0,.46.1.62.28.22.26.29.67.21,1.14l-7.13,40.46c-.36,2.05-.09,3.4.83,4.13.6.47,2.04.73,4.41.8.24,0,.45.09.6.27.18.21.24.52.18.87-.13.73-.56,1.17-1.1,1.17h-16.64Z"/>
      <path class="cls-2" d="m434.1,54.02c-4.42,0-7.26-2.54-8.67-7.77-1.29-4.61-1.29-10.7.02-18.1,1.78-10.08,4.94-17.45,9.41-21.92,2.57-2.55,5.31-3.84,8.15-3.84,4.48,0,7.38,2.61,8.85,7.98,1.24,4.71,1.23,10.73-.03,17.89-1.28,7.27-3.44,13.33-6.4,18.02-3.23,5.14-7.03,7.74-11.32,7.74Zm8.7-49.04c-2.55,0-4.93,1.77-7.08,5.27-2.66,4.24-4.62,10.13-6.01,18.02-1.12,6.35-1.37,11.66-.75,15.77.8,4.94,2.64,7.34,5.62,7.34s5.73-2.52,8.31-7.71c2-4.09,3.56-9.26,4.64-15.37,1.15-6.52,1.41-11.96.77-16.18-.77-4.8-2.57-7.14-5.5-7.14Z"/>
      <path class="cls-2" d="m479.07,54.02c-4.42,0-7.26-2.54-8.67-7.77-1.29-4.61-1.29-10.7.02-18.1,1.78-10.08,4.94-17.45,9.41-21.92,2.57-2.55,5.31-3.84,8.15-3.84,4.48,0,7.38,2.61,8.85,7.98,1.24,4.71,1.23,10.73-.03,17.89-1.28,7.27-3.44,13.33-6.4,18.02-3.23,5.14-7.03,7.74-11.32,7.74Zm8.7-49.04c-2.55,0-4.93,1.77-7.08,5.27-2.66,4.24-4.62,10.13-6.01,18.02-1.12,6.35-1.37,11.66-.75,15.77.8,4.94,2.64,7.34,5.62,7.34s5.73-2.52,8.31-7.71c2-4.09,3.56-9.26,4.64-15.37,1.15-6.52,1.41-11.96.77-16.18-.77-4.8-2.57-7.14-5.5-7.14Z"/>
      <path class="cls-2" d="m522.66,17.29c-.19,0-.37-.09-.5-.25-.2-.23-.01-.76.44-1.23,1.91-2.08,3.32-4.46,4.19-7.09-.4-.02-.72-.1-.93-.26-1.22-.56-1.71-1.77-1.41-3.51.13-.75.42-1.5.82-2.17.88-1.37,1.9-2.06,3.03-2.06.92,0,1.61.42,2.16,1.33.53.87.69,1.98.45,3.3-.33,1.88-1.21,3.92-2.7,6.25-1.38,2.17-3.1,4.03-5.12,5.51-.13.11-.29.17-.44.17Zm-9.62,0c-.18,0-.35-.09-.48-.25-.2-.23-.01-.76.44-1.23,1.99-2.16,3.4-4.54,4.19-7.09-.37-.02-.66-.1-.93-.26-1.23-.56-1.72-1.78-1.41-3.52.13-.75.42-1.5.82-2.17.88-1.37,1.9-2.06,3.03-2.06.95,0,1.68.45,2.17,1.33.53.87.68,1.98.45,3.3-.34,1.95-1.25,4.06-2.7,6.25-1.44,2.27-3.12,4.07-5.12,5.51-.16.12-.31.17-.46.17Z"/>
      <path class="cls-2" d="m557.8,50.72c-.31,0-.56-.11-.73-.31-.21-.25-.28-.61-.21-1.02.13-.72.71-1.31,1.48-1.48,2.51-.64,6.5-2.32,11.27-6.68,3.92-3.58,6.06-7.77,7.16-14.02l.31-1.77c1.19-6.75-2.14-12.99-7.58-14.21-1.48-.33-2.86-.48-4.21-.48-.69,0-1.42.06-2.1.16.7,1.67.88,3.41.55,5.3-.15.86-.51,2.23-1.36,3.87-3.76,7.48-8.01,14.05-12.62,19.52-2,2.34-4.05,3.63-5.75,3.63-1.57,0-2.83-1.1-3.63-3.17-.67-1.78-.75-4.29-.23-7.25.84-4.76,3.06-9.94,5.8-13.51,4.71-6.12,10-9.77,16.18-11.13,1.37-.32,2.84-.49,4.24-.49,4.09,0,11.26,1.37,13.23,10.56.69,3.17.75,6.44.17,9.73-1.06,6.03-4.26,11.8-8.77,15.84-4.21,3.76-8.3,5.94-12.87,6.85-.1.06-.22.06-.32.06Zm3.26-39.42c-2.94.86-5.92,2.57-9.12,5.2-6.13,5.04-8.1,11.79-8.73,15.36-.25,1.41-.38,2.69-.37,3.7.02,2.53.72,3.98,1.92,3.98.89,0,2.03-.83,3.22-2.34,3.3-4.03,8.98-12.3,11.86-17.72.75-1.44,1.28-2.95,1.53-4.36.28-1.6.17-2.99-.31-3.83Z"/>
      <path class="cls-2" d="m606.16,53.4c-.32,0-.54-.25-.58-.64-.04-.2.02-.42.17-.61.23-.29.64-.47,1.06-.47h13.17l1.81-10.28h-10.11c-.32,0-.54-.25-.58-.64-.04-.2.02-.42.17-.61.23-.29.64-.47,1.06-.47h9.76l1.76-9.98h-6.47l-.51,2.9c-.1.6-.5,1-.98,1h-1.25c-.21,0-.39-.08-.51-.22-.16-.19-.21-.47-.15-.81l4.9-27.79c.12-.66.33-1.48.56-1.65l.03-.02h.13c.09.04.12.07.15.09.46.3.82.54,1.15.76.46.3.86.57,1.21.82l15.6-.02,1.69-2.1c.21-.25.46-.39.69-.39.15,0,.37.06.54.34,1.26,1.74,1.83,2.84,1.74,3.36-.05.27-.25.54-.55.74l-1.37.97-4.1,23.4c-.1.6-.5,1-.98,1h-1.3c-.21,0-.39-.08-.51-.22-.16-.19-.21-.47-.15-.81l.24-1.35h-6.81l-1.76,9.98h6.99l2.21-2.89c.21-.25.47-.39.72-.39.23,0,.43.12.56.34.66.92,1.24,1.95,1.73,3.06.16.25.11.65-.12,1.01l-.07.12c-.21.32-.45.48-.74.48h-11.58l-1.81,10.28h8.52l2.4-3.13c.22-.28.5-.45.77-.45.23,0,.44.12.57.33.63,1.03,1.27,2.08,1.8,3.18.16.26.11.66-.12,1.01l-.14.3c-.25.33-.49.48-.74.48h-29.87Zm27.8-25.43l1.78-10.1h-6.81l-1.78,10.1h6.81Zm-9.8,0l1.78-10.1h-6.47l-1.78,10.1h6.47Zm11.88-11.82l1.71-9.67h-6.81l-1.71,9.67h6.81Zm-9.8,0l1.71-9.67h-6.47l-1.71,9.67h6.47Zm-30.45,31.22c-.91,0-1.32-2.65-1.48-4.23-.09-.65.32-1.31.89-1.45l.58-.16c1.93-.54,3.76-1.05,5.39-1.66l2.64-15.23h-4.68c-.34,0-.58-.28-.62-.7-.03-.22.05-.44.21-.62.22-.25.58-.4.96-.4h4.43l2.52-14.31h-5.12c-.32,0-.55-.25-.58-.64-.04-.2.02-.42.17-.61.23-.29.64-.47,1.06-.47h9.56l2.21-2.89c.22-.28.5-.45.77-.45.23,0,.44.12.57.33.53.87,1.06,1.9,1.58,3.06.15.24.12.61-.07,1l-.14.25c-.21.27-.45.42-.68.42h-6.45l-2.52,14.31h1.71l1.95-2.76c.23-.33.52-.52.8-.52.24,0,.45.15.59.41.48.88.92,1.87,1.31,2.94.12.28.03.69-.11.94l-.14.24c-.24.32-.49.48-.74.48h-5.68l-2.49,14.13c2.38-.87,4.64-1.83,6.73-2.86.11-.05.21-.07.32-.07.33,0,.59.24.7.62.08.5-.19,1.02-.63,1.21-5.19,3.02-9.99,5.46-14.25,7.25-.39,1.62-.83,2.45-1.29,2.45Z"/>
      <path class="cls-2" d="m687.84,55.35c-.21,0-.39-.08-.51-.22-.16-.19-.21-.47-.15-.81l.67-3.78h-28.99l-.67,3.82c-.11.6-.5,1-.98,1h-1.49c-.21,0-.39-.08-.51-.22-.16-.19-.21-.47-.15-.81l6.99-39.62c.12-.66.59-1.17,1.07-1.17.15,0,.28.04.41.13.57.3,1.23.74,2.03,1.28l12.39-.02,2.06-11.68c.1-.58.52-1,.99-1h.1c2.18.2,3.45.55,3.85,1.08.13.17.18.36.14.56-.1.58-.88,1.15-2.43,1.78l-1.58,9.25h12.61l1.82-2.28c.22-.26.47-.4.72-.4.2,0,.38.1.52.28,1.47,1.9,2.06,2.92,1.97,3.43-.06.32-.24.59-.56.8l-1.43,1.04-6.42,36.57c-.11.6-.5,1-.98,1h-1.49Zm.31-6.54l2.78-15.77h-13.05l-2.78,15.77h13.05Zm-16.18,0l2.78-15.77h-12.81l-2.78,15.77h12.81Zm19.27-17.49l2.59-14.67h-13.05l-2.59,14.67h13.05Zm-16.18,0l2.59-14.67h-12.81l-2.59,14.67h12.81Z"/>
    </g>
    <g>
      <g>
        <path class="cls-2" d="m634.21,94.71c-.1,0-.19-.04-.25-.13-.05-.07-.08-.18-.08-.3v-21.25c0-.33.19-.6.44-.6l.13.02c.31.1.57.21.8.33l1.99-.37.39-.86c.09-.17.22-.27.36-.27.09,0,.17.04.25.11.62.65.83.94.83,1.16,0,.13-.05.23-.18.37l-.38.35c-.39,1.86-.97,3.79-1.75,5.87.59.64,1.07,1.44,1.43,2.29l2-.35.43-.89c.09-.16.23-.25.37-.25.08,0,.16.03.22.09.6.59.83.91.83,1.13,0,.13-.08.25-.22.42l-.38.41.02,6.23c.34.95.86,1.57,1.6,1.84.48.17,1.08.25,1.78.25.65,0,1.39-.07,2.21-.22.96-.17,2.03-.43,3.18-.79.06-.02.11-.03.17-.03.15,0,.27.06.35.18.1.15.11.37.03.58-.08.21-.13.43-.19.67-.05.2-.17.34-.33.37l-1.63.29c-1.48.26-2.72.39-3.69.39-.8,0-1.44-.09-1.9-.27-.92-.37-1.59-1.12-1.97-2.25-.64,1.31-1.27,2.36-1.94,3.22.02.76-.08,1.12-.31,1.16h0c-.2,0-.47-.15-1.09-1.26-.14-.21-.08-.53.14-.72.78-.67,1.6-1.53,2.45-2.56l-.02-7.18-1.85.33c.21.74.31,1.57.31,2.45,0,2.51-.66,3.97-1.97,4.34h-.02c-.21,0-.32-.12-.37-.32-.12-.41-.54-.66-1.25-.73v6.14c0,.27-.15.49-.37.52l-.49.09h-.06Zm.92-7.55v-.08h.1s.15,0,.21,0c.36,0,.71-.06,1.04-.12.44-.08.71-.38.82-.94.12-.5.18-1.12.18-1.84,0-1.65-.45-3.22-1.35-4.66-.06-.14-.07-.25-.05-.39.49-1.85.88-3.84,1.15-5.91l-2.1.37v13.55Zm9.19,2.16c-.1,0-.19-.04-.25-.13-.05-.07-.08-.18-.08-.3v-8.93c-.54,1.32-1.16,2.59-1.85,3.79-.1.14-.23.22-.36.22-.07,0-.14-.02-.2-.07-.13-.12-.14-.33-.03-.57,1.23-2.51,2.21-5.55,2.92-9.05,0,0-2.17.38-2.17.38-.19,0-.3-.11-.34-.28-.03-.1-.01-.21.05-.31.08-.13.23-.22.4-.25l2.3-.41c.15-1.2.31-2.45.44-3.52.05-.27.23-.46.45-.46,1.1.13,1.53.33,1.53.69,0,.25-.28.5-.84.73-.04.57-.19,1.38-.38,2.34l2.77-.49.59-1.23c.08-.18.22-.29.36-.29.1,0,.19.05.25.14.29.3.55.66.79,1.08.07.11.08.3,0,.46l-.04.1c-.08.15-.17.23-.28.25l-4.69.83c-.24,1.3-.44,2.05-.54,2.4l.08.05s.09.06.1.07l2.86-.51.43-.79c.08-.14.21-.22.34-.22.07,0,.14.02.2.07.83.72.92,1,.92,1.15,0,.1-.05.2-.14.31l-.45.49.02,9.06c0,1.14-.45,1.85-1.38,2.15-.01,0-.03,0-.04,0-.23,0-.35-.14-.39-.35-.03-.21-.13-.36-.29-.45-.24-.09-.61-.14-1.04-.16h0c-.1,0-.19-.04-.25-.12-.06-.07-.09-.17-.09-.28,0-.25.19-.45.44-.46.42,0,.83-.04,1.25-.12.37-.07.56-.3.56-.69v-2.34l-3.05.54v4.85c0,.27-.15.49-.37.52l-.47.08h-.06Zm.9-6.28l3.05-.54v-2.53l-3.05.54v2.53Zm0-3.35l3.05-.54v-2.27l-3.05.54v2.27Zm-4.42-3.43c-.33,0-.53-.36-.61-1.09-.12-1.1-.46-2.1-1.03-3.05-.12-.16-.12-.38,0-.56.06-.09.15-.14.25-.14.08,0,.15.03.22.09,1.34,1.07,2.02,2.25,2.02,3.5,0,.74-.25,1.15-.76,1.24h-.08Z"/>
        <path class="cls-2" d="m670.02,88.16c-.1,0-.27-.05-.33-.36-.06-.26-.18-.43-.38-.5-.35-.11-1.06-.19-1.94-.21h0c-.1,0-.19-.04-.25-.12-.06-.07-.09-.17-.09-.28,0-.26.16-.46.41-.51.98-.05,1.83-.14,2.54-.27.46-.08.68-.36.68-.85v-6.39s-6.72,1.18-6.73,1.18c-.12,0-.23-.04-.31-.21-.04-.12-.03-.24.03-.35.08-.14.24-.25.42-.28l6.58-1.16v-2.99c0-.25.12-.46.29-.54l-7.23,1.28h-.06c-.12,0-.22-.07-.29-.21-.04-.12-.03-.24.03-.35.08-.14.24-.24.4-.27l4.2-.74v-3.84l-3.4.6h-.02c-.11,0-.22-.04-.31-.18-.05-.13-.03-.26.03-.38.09-.15.24-.26.42-.29l3.28-.58v-3.4c0-.29.18-.52.42-.53.29-.03.54-.05.75-.05.23,0,.92,0,.92.42,0,.26-.28.56-.85.91l.04,2.42,2.5-.44.65-1.34c.1-.18.24-.29.38-.29.1,0,.19.05.25.14.29.36.57.72.85,1.12.08.13.07.32.03.46l-.06.15c-.07.16-.17.25-.3.27l-4.3.76v3.84l3.48-.61.67-1.42c.09-.18.23-.27.38-.27.1,0,.2.05.28.14.36.46.64.85.85,1.17.08.17.09.32.02.45l-.03.12c-.08.19-.18.29-.32.31l-3.46.61c1.05.14,1.49.33,1.49.62,0,.22-.23.45-.73.74l.04,1.98.9-.16.53-1.26c.08-.19.23-.31.4-.31.11,0,.21.05.28.15l.23.35c.17.26.33.5.47.73.04.13.08.29,0,.45l-.05.18c-.09.17-.19.26-.3.28l-2.45.43v7.32c0,1.28-.6,2.05-1.84,2.38h-.07Zm-11.95-.24c-.1,0-.19-.04-.25-.13-.05-.07-.08-.18-.08-.3v-17.69c0-.38.16-.66.36-.66.36.11.71.28,1.14.48l2.53-.45.49-.95c.09-.16.22-.24.36-.24.08,0,.16.03.23.09.66.65.9.98.9,1.2,0,.15-.09.34-.22.48l-.39.43.02,15.5c0,.27-.15.49-.37.52,0,0-.52.09-.53.09-.26,0-.38-.17-.38-.42v-1.36l-2.86.5v2.3c0,.27-.15.48-.37.52l-.51.09h-.06Zm.94-3.74l2.86-.5v-6.7l-2.86.5v6.7Zm0-7.52l2.86-.5v-6.18l-2.86.5v6.18Zm8.51,7.89c-.19,0-.45-.1-.57-.56-.27-1.11-.82-2.1-1.69-3.04-.14-.13-.17-.37-.07-.55.07-.13.19-.2.31-.2.05,0,.09.01.14.03,1.82.86,2.75,1.91,2.75,3.13,0,.7-.25,1.1-.74,1.18h-.11Z"/>
        <path class="cls-2" d="m683,86.11c-.12,0-.22-.07-.28-.2-.09-.23.03-.5.3-.64,1.62-.85,2.81-1.8,3.65-2.89.67-.89,1.17-1.95,1.54-3.23l-2.8.49h-.02c-.17,0-.26-.07-.33-.21-.04-.12-.03-.24.03-.35.08-.14.24-.25.4-.27l2.99-.53c.07-.66.17-1.4.22-2.19,0-.27.19-.49.44-.5,1.1,0,1.63.16,1.63.49,0,.22-.25.45-.83.78,0,.23-.05.61-.13,1.11l3.46-.61.34-.55c.08-.11.18-.17.29-.17.06,0,.13.02.19.06.46.31,1,.75,1,1.06,0,.08-.03.12-.05.17l-.09.15-.39.35c-.03,2.14-.31,3.71-.81,4.6-.37.68-.93,1.12-1.71,1.34h-.02c-.2,0-.32-.11-.37-.3-.06-.22-.21-.36-.48-.47-.28-.11-.9-.18-1.74-.2h0c-.1,0-.19-.05-.26-.13-.06-.08-.08-.18-.08-.3,0-.23.2-.42.44-.43.72,0,1.44-.07,2.19-.21.7-.12,1.12-.51,1.29-1.18.2-.78.31-1.79.33-3l-3.75.66c-.44,2.11-1.42,3.86-2.85,5.15-.87.79-2.05,1.49-3.61,2.12-.04.02-.09.03-.13.03Zm-1.76-4.12c-.1,0-.19-.06-.26-.16-.1-.21-.01-.48.21-.67,2.09-1.59,3.67-3.42,4.82-5.58l-4.55.8h-.02c-.11,0-.21-.04-.3-.18-.05-.13-.03-.26.03-.38.09-.15.24-.26.42-.29l4.92-.87c.29-.66.54-1.25.7-1.75l.03-.11-1.87.33v.29c0,.28-.15.49-.37.52l-.51.09s-.02,0-.03,0c-.15,0-.23-.04-.29-.12-.05-.08-.08-.18-.08-.3v-5.92c0-.35.2-.61.46-.61.05,0,.1.01.16.03.25.09.55.2.83.35l8.59-1.53.51-.88c.08-.13.19-.21.32-.21.08,0,.16.04.22.1.87.69.97.98.97,1.13,0,.12-.07.26-.18.37l-.49.5.02,4.7c0,.27-.15.49-.37.52l-.51.09s-.02,0-.03,0c-.15,0-.23-.04-.29-.12-.05-.08-.08-.18-.08-.3v-.26l-5.47.96c-.16.55-.41,1.18-.71,1.85l8.28-1.46.75-1.34c.09-.14.21-.22.34-.22.08,0,.16.04.22.1.28.24.54.52.82.82l.2.21c.11.15.13.36.06.52l-.04.11c-.08.15-.17.23-.28.25l-4.97.88c1.27,1.18,2.92,1.9,4.9,2.13.15.02.26.11.33.23.09.19.06.44-.08.69-.1.21-.2.4-.27.58-.09.19-.24.3-.39.3-1.95-.54-3.64-1.71-5.39-3.69l-.1-.11-4.86.9c-1.34,2.67-3.42,4.91-6.13,6.61-.05.04-.11.06-.17.06Zm4.13-9.66l8.84-1.56v-1.65l-8.84,1.56v1.65Zm0-2.47l8.84-1.56v-1.55l-8.84,1.56v1.55Zm1.48-3.1c-.1,0-.19-.04-.25-.13-.05-.07-.08-.18-.08-.3v-1.16s-4.85.85-4.85.85c-.18,0-.28-.1-.32-.25-.04-.09-.03-.19.03-.3.08-.15.25-.26.43-.29l4.71-.83v-1.78c0-.29.18-.52.42-.53.26-.03.5-.04.69-.04.23,0,.91,0,.91.43,0,.23-.22.47-.8.9l.03.81,4.04-.71v-1.78c0-.29.18-.52.42-.53.28-.03.52-.05.72-.05.56,0,.85.14.85.42,0,.22-.26.5-.79.87l.03.86,3.33-.59.67-1.32c.09-.16.23-.25.36-.25.08,0,.16.03.22.09.3.31.59.68.9,1.12.09.1.1.29.03.47l-.04.1c-.09.17-.19.26-.3.28l-5.16.91v1.19c0,.27-.15.48-.37.52,0,0-.48.08-.49.08-.25,0-.38-.17-.38-.42v-1.16l-4.04.71v1.19c0,.27-.15.48-.37.52l-.49.09h-.06Z"/>
        <path class="cls-2" d="m705.27,81.48c-.1,0-.19-.05-.26-.15-.12-.23.02-.56.32-.76,2.93-1.86,5.32-4.13,7.12-6.75l-6.96,1.23h-.02c-.17,0-.26-.07-.33-.21-.04-.12-.03-.24.03-.35.08-.14.23-.24.4-.27l7.76-1.37v-1.7c0-.3.21-.54.46-.54,1.07.06,1.58.25,1.58.57,0,.19-.22.39-.75.69l.04.75,5.63-.99.77-1.39c.08-.14.21-.22.35-.22.08,0,.14.03.2.08.3.29.63.66.99,1.12.1.15.12.33.05.51l-.04.11c-.07.15-.17.23-.28.25l-7.16,1.26c2.07,1.49,4.45,2.42,7.1,2.77.15.02.27.1.33.23.09.18.07.42-.06.66-.12.22-.23.47-.33.72-.08.19-.22.3-.38.3-2.9-.8-5.28-2.13-7.15-3.97v6.02c0,.27-.15.49-.37.52l-.57.1s-.02,0-.03,0c-.15,0-.23-.04-.29-.12-.05-.08-.08-.18-.08-.3v-5.42c-2.27,2.8-4.85,4.95-7.9,6.58-.05.03-.11.05-.17.05Zm2.93-8.88c-.2,0-.33-.17-.33-.43v-7.67c-.67,1.1-1.38,2.09-2.09,2.95-.07.09-.18.15-.28.15s-.19-.05-.25-.14c-.11-.15-.07-.38.08-.58,1.63-2.37,2.9-5.26,3.76-8.59.06-.23.22-.37.39-.37,1.12.18,1.61.46,1.61.87,0,.27-.3.5-.91.7-.2.62-.44,1.23-.69,1.83l4.25-.75v-.18c.27-1.15.47-2.12.62-2.96.05-.25.23-.42.43-.42,1.18.17,1.69.4,1.69.76,0,.25-.28.47-.88.69-.31.7-.67,1.37-1.02,1.96l4.46-.79.65-1.22c.09-.17.21-.26.34-.26.06,0,.15.02.23.12.32.3.61.64.87,1.01.1.15.12.33.05.51l-.04.09c-.07.14-.17.22-.28.24l-6.15,1.08v2.06l3.48-.61.65-1.14c.08-.14.21-.23.34-.23.08,0,.15.03.21.08.22.19.47.48.84.9.13.15.16.35.08.53l-.04.11c-.07.15-.17.23-.28.25l-5.28.93v2.24l3.48-.61.69-1.25c.09-.15.21-.24.33-.24.06,0,.15.02.24.12.31.3.59.65.85,1.05.08.09.1.26.05.45l-.04.11c-.08.15-.17.23-.28.25l-5.32.94v2.4l4.52-.8.71-1.33c.09-.15.22-.24.35-.24.08,0,.16.03.22.09.31.3.6.66.91,1.03.12.17.14.36.07.54l-.06.14c-.07.14-.17.23-.28.25l-12,2.11v.62c0,.27-.15.49-.37.52l-.53.09h-.06Zm.96-2.07l4.27-.75v-2.4l-4.27.75v2.4Zm0-3.22l4.27-.75v-2.24l-4.27.75v2.24Zm0-3.06l4.27-.75v-2.06l-4.27.75v2.06Z"/>
        <path class="cls-2" d="m737.35,76.52c-.1,0-.19-.05-.25-.13-.05-.08-.08-.18-.08-.3v-8.09l-5.12.9v1.65c0,.27-.15.48-.37.52l-.59.1s-.02,0-.03,0c-.15,0-.23-.04-.29-.12-.05-.08-.08-.18-.08-.3v-10.28c0-.35.17-.64.39-.64h.02l.1.03c.3.1.65.29.98.47l4.99-.9v-5.34c0-.29.18-.52.42-.53.29-.03.55-.04.77-.04.46,0,1.07.05,1.07.46,0,.27-.3.59-.92,1l.04,4.2,5.23-.92.55-1.07c.1-.17.22-.25.36-.25.08,0,.16.04.23.1.74.72,1.05,1.12,1.05,1.35,0,.16-.07.29-.21.41l-.55.53.03,8.51c0,.27-.15.49-.37.52,0,0-.6.1-.6.1-.26,0-.38-.17-.38-.42v-1.26l-5.34.94v8.12c0,.27-.15.48-.37.52l-.61.11h-.06Zm-5.45-8.43l5.12-.9v-6.91l-5.12.9v6.91Zm6.5-1.15l5.34-.94v-6.91l-5.34.94v6.91Z"/>
        <path class="cls-2" d="m761.73,71.33c-.16,0-.3-.04-.42-.11-.47-.21-.71-.68-.71-1.4,0-.46.13-.89.39-1.27.25-.37.55-.59.9-.65.06-.01.12-.02.18-.02.18,0,.36.05.57.16.42.3.62.74.62,1.34,0,.43-.12.85-.35,1.21-.27.4-.6.65-.96.71-.07.01-.15.02-.22.02Zm.16-6.04c-.18,0-.3-.15-.32-.39-.52-8.23-.73-12.2-.73-13.69,0-1.02.36-1.61,1.08-1.73.08-.01.15-.02.22-.02.59,0,.89.48.89,1.42,0,1.12-.2,5.02-.59,11.6l-.14,2.32c-.02.27-.16.46-.35.49h-.05Z"/>
      </g>
      <polyline class="cls-1" points="630.44 103.13 596.09 109.19 597.86 89.83 589.58 72.23 761.33 41.95"/>
      <polyline class="cls-1" points="761.33 41.95 798.84 35.33 797.08 54.7 805.36 72.29 630.44 103.13"/>
    </g>
  </g>
</svg>