<?xml version="1.0" encoding="UTF-8"?>
<svg id="_レイヤー_2" data-name="レイヤー 2" xmlns="http://www.w3.org/2000/svg" xmlns:xlink="http://www.w3.org/1999/xlink" viewBox="0 0 250.18 275.28">
  <defs>
    <style>
      .cls-1 {
        fill: #fff;
      }

      .cls-2 {
        stroke: url(#_新規グラデーションスウォッチ_12-3);
      }

      .cls-2, .cls-3, .cls-4, .cls-5, .cls-6, .cls-7, .cls-8, .cls-9, .cls-10 {
        fill: none;
      }

      .cls-2, .cls-3, .cls-4, .cls-7, .cls-10 {
        stroke-linecap: round;
        stroke-linejoin: round;
        stroke-width: 1.47px;
      }

      .cls-3 {
        stroke: url(#_新規グラデーションスウォッチ_12-6);
      }

      .cls-4 {
        stroke: url(#_新規グラデーションスウォッチ_12-5);
      }

      .cls-5 {
        filter: url(#drop-shadow-1);
      }

      .cls-11 {
        fill: #fffbc7;
      }

      .cls-6 {
        stroke: url(#_新規グラデーションスウォッチ_12-2);
        stroke-miterlimit: 10;
      }

      .cls-7 {
        stroke: url(#_新規グラデーションスウォッチ_12-4);
      }

      .cls-12 {
        fill: url(#_新規グラデーションスウォッチ_12-8);
      }

      .cls-13 {
        fill: url(#_新規グラデーションスウォッチ_12);
      }

      .cls-9 {
        clip-path: url(#clippath);
      }

      .cls-10 {
        stroke: url(#_新規グラデーションスウォッチ_12-7);
      }
    </style>
    <clipPath id="clippath">
      <polygon class="cls-8" points="225.26 177.34 213.55 110.94 165.05 64.1 98.29 54.72 38.76 86.37 9.2 146.97 20.91 213.37 69.41 260.2 136.17 269.59 195.7 237.93 225.26 177.34"/>
    </clipPath>
    <linearGradient id="_新規グラデーションスウォッチ_12" data-name="新規グラデーションスウォッチ 12" x1="-71.71" y1="151.18" x2="135.8" y2="151.18" gradientTransform="translate(59.42 18.83) rotate(-10)" gradientUnits="userSpaceOnUse">
      <stop offset="0" stop-color="#db80a9"/>
      <stop offset=".11" stop-color="#ce82aa"/>
      <stop offset=".32" stop-color="#ad88ad"/>
      <stop offset=".59" stop-color="#7893b2"/>
      <stop offset=".93" stop-color="#30a1ba"/>
      <stop offset="1" stop-color="#1fa5bc"/>
    </linearGradient>
    <linearGradient id="_新規グラデーションスウォッチ_12-2" data-name="新規グラデーションスウォッチ 12" x1="9.64" y1="181.12" x2="224.82" y2="143.18" gradientTransform="matrix(1,0,0,1,0,0)" xlink:href="#_新規グラデーションスウォッチ_12"/>
    <filter id="drop-shadow-1" filterUnits="userSpaceOnUse">
      <feOffset dx="3.06" dy="3.06"/>
      <feGaussianBlur result="blur" stdDeviation="3.06"/>
      <feFlood flood-color="#231815" flood-opacity=".5"/>
      <feComposite in2="blur" operator="in"/>
      <feComposite in="SourceGraphic"/>
    </filter>
    <linearGradient id="_新規グラデーションスウォッチ_12-3" data-name="新規グラデーションスウォッチ 12" x1="113.74" y1="717.88" x2="117.82" y2="721.95" gradientTransform="translate(-138.33 -611.38) rotate(-2.35)" xlink:href="#_新規グラデーションスウォッチ_12"/>
    <linearGradient id="_新規グラデーションスウォッチ_12-4" data-name="新規グラデーションスウォッチ 12" x1="111.91" y1="698.54" x2="119.19" y2="705.82" gradientTransform="translate(-138.33 -611.38) rotate(-2.35)" xlink:href="#_新規グラデーションスウォッチ_12"/>
    <linearGradient id="_新規グラデーションスウォッチ_12-5" data-name="新規グラデーションスウォッチ 12" x1="120.75" y1="681.15" x2="129.58" y2="689.98" gradientTransform="translate(-138.33 -611.38) rotate(-2.35)" xlink:href="#_新規グラデーションスウォッチ_12"/>
    <linearGradient id="_新規グラデーションスウォッチ_12-6" data-name="新規グラデーションスウォッチ 12" x1="138.7" y1="671.38" x2="146.24" y2="678.92" gradientTransform="translate(-138.33 -611.38) rotate(-2.35)" xlink:href="#_新規グラデーションスウォッチ_12"/>
    <linearGradient id="_新規グラデーションスウォッチ_12-7" data-name="新規グラデーションスウォッチ 12" x1="159.26" y1="674.93" x2="163.01" y2="678.67" gradientTransform="translate(-138.33 -611.38) rotate(-2.35)" xlink:href="#_新規グラデーションスウォッチ_12"/>
    <linearGradient id="_新規グラデーションスウォッチ_12-8" data-name="新規グラデーションスウォッチ 12" x1="116.14" y1="10.25" x2="190.79" y2="84.91" gradientTransform="translate(37.99 32.59) rotate(-10)" xlink:href="#_新規グラデーションスウォッチ_12"/>
  </defs>
  <g id="_文字" data-name="文字">
    <g>
      <g>
        <g class="cls-9">
          <circle class="cls-8" cx="115.85" cy="161.88" r="109.13"/>
        </g>
        <polygon class="cls-13" points="225.26 177.34 213.55 110.94 165.05 64.1 98.29 54.72 38.76 86.37 9.2 146.97 20.91 213.37 69.41 260.2 136.17 269.59 195.7 237.93 225.26 177.34"/>
        <polygon class="cls-6" points="67.1 264.93 16.27 215.84 4 146.24 34.98 82.72 97.37 49.54 167.36 59.38 218.19 108.47 230.47 178.07 199.49 241.59 137.09 274.76 67.1 264.93"/>
        <polygon class="cls-13" points="225.26 177.34 213.55 110.94 165.05 64.1 98.29 54.72 38.76 86.37 9.2 146.97 20.91 213.37 69.41 260.2 136.17 269.59 195.7 237.93 225.26 177.34"/>
      </g>
      <g class="cls-5">
        <path class="cls-11" d="m61.31,141.09c-.13.23-.32.33-.77.45-.03,6.08-1.33,12.01-7.44,16.22l-.27-.23c4.64-4.14,6.05-9.95,5.9-15.97l-3.24.57c-.24,1.16-.55,2.27-.94,3.3,4.57.72,3.88,3.9,2.13,3.09-.41-.88-1.4-1.8-2.35-2.51-.68,1.64-1.55,3.09-2.59,4.28l-.32-.15c1.62-2.95,2.67-7.3,2.64-11.91l2.57.18c-.04.28-.23.51-.68.61-.08.86-.19,1.68-.34,2.49l2.91-.51.76-1.19,2.02,1.27Zm4.54,4.97c1.63.85,3.44,1.38,5.28,1.52v.23c-.63.26-1.07.89-1.14,1.72-1.39-.31-2.66-.8-3.8-1.51l1.18,6.67c.03.18-.62.68-1.26.79l-.33.06-1.59-9.02c-1.24-1.16-2.3-2.6-3.2-4.34l.28-.2c.72,1.06,1.6,2,2.61,2.8l-1.38-7.84,2.45-.16c-.01.3-.12.53-.62.7l1.51,8.57Z"/>
        <path class="cls-11" d="m93.77,145.46c-.62,1.51-1.91,3.19-3.82,3.53-1.5.26-2.66-.46-3-2.37-.41-2.34.02-4.8-.37-7.02-.23-1.29-.7-1.91-1.7-1.73-1.76.31-3.76,2.52-5.32,5.1v.02c.23,2.22.88,4.62,1.21,5.88.17.6.33,1.04.42,1.53.15.84-.07,1.87-.69,1.98-.47.08-.74-.14-.91-.62-.2-.51-.35-.89-.64-1.34-.28-.48-1.08-1.44-1.78-2.16l-.82,1.82c-.21.46-.38.83-.75.91-.35.06-.69-.22-.78-.73-.08-.43-.03-.76.29-1.26.72-1.06,2.37-4.06,3.4-6.48-.05-.52-.08-1.04-.12-1.54-.6.46-1.18.97-1.57,1.31-.38.34-.5.87-.87.94-.7.12-1.79-.57-2.15-1.25-.14-.29-.2-.66-.24-.97l.33-.16c.43.54.8.83,1.19.76.55-.1,2.36-1.37,3.21-2.05-.06-1.28-.12-2.35-.19-2.9-.08-.45-.18-.54-.57-.62-.31-.07-.72-.13-1.21-.15l-.09-.41c.38-.22.81-.42,1.31-.5.94-.17,2.27.64,2.38,1.27.08.43-.13.7-.24,1.52-.05.31-.11.82-.15,1.42.39.18.85.51.89.71.05.27-.13.47-.34.84-.11.19-.21.37-.32.58,1.48-1.91,3.48-4.02,5.47-4.37,1.6-.28,2.63.51,2.97,2.46.3,1.7-.09,4.52.28,6.63.19,1.09.7,1.46,1.67,1.29,1.31-.23,2.23-.9,3.26-2.16l.37.27Zm-15.02-.71c-.4.96-.87,2.01-1.35,3.01.68.6,1.47,1.28,1.8,1.57.26.16.38.12.32-.23-.14-.93-.5-2.62-.77-4.35Z"/>
        <path class="cls-11" d="m102.23,134.93c.97-.51,1.7-1.02,2.26-1.46.3-.24.52-.43.7-.46.39-.07,1.11.04,1.19.53.08.43-.17.73-1.08,1.29-.46.29-1.9,1.1-3.25,1.69-.12,1.02-.24,2.14-.42,3.16-.44,2.81-1.15,6.44-1.75,8.05-.21.59-.39.89-.9.98-.43.08-.83-.36-.92-.92-.1-.55.15-.85.4-1.57.7-1.65,1.46-3.83,1.95-6.79.13-.72.22-1.54.28-2.36-.68.23-1.44.47-2.1.58-1.31.23-2.35,0-3.34-1.65l.28-.3c1.06.6,1.73.84,2.7.67.93-.14,1.82-.45,2.57-.77.07-1.07.06-2.04.02-2.65-.05-.5-.18-.65-.58-.79-.4-.12-.87-.16-1.33-.21l-.05-.41c.45-.23.84-.38,1.38-.46.89-.13,2.28.19,2.38.68.07.41-.17.94-.28,2l-.11,1.16Zm2.4,7.38c.2.56.52,1.26,1.04,1.81.92,1,2.24,1.21,3.97.91,1.99-.35,2.62-.86,3.15-.96.57-.1,1.28.05,1.38.64.08.45-.41.79-1.06,1.07-.59.23-1.49.54-2.74.76-2.6.46-4.61-.1-5.48-1.95-.4-.69-.58-1.48-.7-2.16l.44-.12Zm.24-4.76c.92-.65,2.32-1.34,3.76-1.59,1.35-.24,2.32-.13,2.84.03.56.2.88.52.94.87.08.43-.24.66-.85.81-.37.08-.7.21-1.2.51-.67.31-1.53.91-2.2,1.34l-.28-.29c.58-.55,1.59-1.53,1.79-1.84.12-.15.04-.24-.15-.27-.5-.08-1.21-.04-1.83.07-.82.14-1.72.43-2.59.77l-.22-.41Z"/>
        <path class="cls-11" d="m131.97,127s1.51.77,2.41,1.33c-.02.24-.23.38-.5.43l-9.8,1.73c.15,1.33.22,2.58.22,3.79l5.6-.99.77-1.13,2.02,1.17c-.13.19-.36.36-.8.48.53,4.58.57,8.13-.29,9.27-.54.67-1.33,1.08-2.48,1.28-.09-.49-.27-.91-.66-1.09-.42-.22-1.58-.31-2.59-.3l-.06-.33c1.13-.09,3.06-.27,3.58-.36.43-.08.61-.15.8-.39.58-.69.47-4.04,0-8.04l-5.89,1.04c-.09,4.54-1.51,8.32-5.94,11.41l-.2-.2c4.37-4.35,4.81-9.29,3.97-15.27l-6.42,1.13-.27-.57,8.53-1.5-.71-4,2.46-.2c0,.29-.16.54-.64.71l.56,3.2,5.46-.96.85-1.63Z"/>
        <path class="cls-11" d="m144.53,132.24c-.21,1.18-.72,3.49-.79,4.3-.09.71-.13,1.21-.06,1.55.11.64.64,1.24.73,1.75.09.49-.11.82-.58.9-.41.07-.84-.19-1.23-.61-.77-.79-1.68-2.45-2.04-4.48-.4-2.28-.09-4.24.02-5.52.07-1.05.16-1.83.05-2.59-.12-.78-.74-1.44-1.52-2.02l.26-.32c.52.1.88.2,1.3.43.56.28,1.72,1.12,1.88,2.04.09.49-.13.93-.44,2.17-.36,1.33-.81,3.32-.47,5.27.17.94.36,1.33.55,1.57.19.24.34.26.48-.06.34-.8,1.05-3.4,1.36-4.51l.49.12Zm1.44-4.93c1.44-1.33,3.29-2.08,4.75-2.34,1.39-.25,2.22-.22,2.95-.04.53.14.77.43.83.72.06.33-.09.57-.53.71-.52.18-1.09.32-1.76.71-.83.55-2.11,1.58-3.05,2.4l-.39-.31c.78-.84,1.96-2.08,2.28-2.52.2-.29.2-.44-1.2-.19-.78.14-2.01.46-3.64,1.3l-.25-.44Zm.9,6.29c.21.47.52,1.18.88,1.6.94,1.14,2.11,1.64,4.65,1.19,2.17-.38,2.91-.89,3.38-.98.64-.11,1.33.02,1.43.55.17.96-1.73,1.55-4.03,1.96-3.4.6-5.32-.33-6.22-2.41-.27-.59-.43-1.21-.52-1.77l.44-.14Z"/>
        <path class="cls-11" d="m168.6,126.34c3.5.93,5.2,2.64,5.61,4.96.36,2.03-.9,4.73-4.63,5.38-2.91.51-4.69-.95-5.14-3.47-.09-.49-.15-1.11-.19-1.79-1.98-.09-3.27-.92-3.48-2.11-.2-1.13.76-2.52,2.14-3.57-.54-.07-1-.16-1.57-.4-.8-.37-1.3-.89-1.74-1.96l.3-.24c.64.61,1.26,1.13,2.18,1.33.83.17,1.64.16,2.36.09.13-1.4.25-2.54.22-3.06-.07-.5-.26-.63-.66-.75-.33-.09-.74-.12-1.08-.15l-.05-.42c.35-.15.73-.28,1.21-.36,1.05-.18,2.53.67,2.64,1.27.07.41-.2.65-.37,1.16-.16.54-.3,1.17-.45,2.11.19-.01.35-.04.52-.05.79-.06,1.15.3,1.23.71s-.21.63-.73.76c-.28.07-.76.13-1.23.2-.15,1.06-.3,2.49-.38,3.85.99-.13,1.78-.33,2.24-.37.56-.06.97.12,1.06.62.08.43-.18.75-.97,1-.53.14-1.39.29-2.35.33.02.59.05,1.13.13,1.56.35,2.01,1.81,2.71,3.72,2.37,2.6-.46,3.68-2.4,3.36-4.21-.4-2.26-1.97-3.35-4.08-4.42l.21-.38Zm-4.38,3.57c-.02-1.33.03-2.69.1-3.74-1.36.32-2.93,1.76-2.76,2.71.11.64.83,1.08,2.66,1.03Z"/>
        <path class="cls-11" d="m71.75,164.63l-3.46,1.07-2.42,27.19-1.73.3-10.96-20.56-2.96,23.02-1.69.3-12.04-24.71-3.45.22-.25-1.43,11.1-1.96.25,1.43-3.79,1.13,8.83,18.84,2.87-20.91-4.22.28-.25-1.43,11.06-1.95.25,1.43-4.13,1.23,9.78,18.75,1.81-20.76-3.97.16-.25-1.43,9.37-1.65.25,1.43Z"/>
        <path class="cls-11" d="m93.16,162.97c1.43.03,2.35.35,3.04.7.67.36,1.58,1.05,1.69,1.67.1.58-1.02.72-1.71,1.12-1.55.94-2.88,1.68-4.41,2.36,1.11.34,2.14.96,2.21,1.36.12.68-.27,1-.02,2.41.05.28.1.55.15.83,1.78-.5,3.5-1,4.43-1.32,1.89-.62,2.13-.88,2.68-.98,1.42-.25,3.33.14,3.5,1.13.11.65-.14,1.01-.82,1.13-.55.1-1.9.05-3.5.33-1.42.25-4.04.84-6.1,1.39.62,6.56-1.84,11.72-8.21,15.73l-.53-.48c5.13-4.55,6.81-8.72,6.28-14.59-2.38.71-5.79,1.88-6.87,2.42-.82.37-1.43.89-2.23,1.03-.83.15-2.4-1.04-2.92-1.8-.22-.34-.45-.91-.61-1.67l.46-.24c.91.82,1.58,1.37,2.41,1.23,2.03-.36,7.07-1.85,9.57-2.58-.08-.46-.16-.92-.24-1.38-.3-1.53-.62-2.43-1.68-3.07-1.63.64-4.08,1.51-8.05,2.56l-.29-.74c5.02-1.93,11.15-5.14,12.42-6.41.48-.5.38-.92-.96-1.67l.3-.46Z"/>
        <path class="cls-11" d="m110.37,167.58c.6-.36,1.17-.71,1.94-.85,1.02-.18,2.92.02,3.04.67.09.49-.02.99.16,1.65.14.42.52,1.5.95,2.53,2.08-.97,5.25-2.45,6.12-2.89.49-.28.8-.87,1.17-.94.92-.16,2.96,1.13,3.1,1.93.1.55-.82.75-1.14,1.25-.92,1.27-2.41,3.6-4.45,5.51l-.43-.27c1.16-2.04,2.1-4.46,2.44-5.79.09-.37-.04-.41-.37-.29-1,.43-3.74,1.8-5.85,2.84,1.32,3,3.07,6.63,3.85,8.14.34.67.89,1.65.99,2.21.14.77-.13,1.26-.87,1.39-.99.17-1.75-.55-2.07-1.67-.69-2.13-2.44-6.46-3.71-9.18-1.16.62-2.41,1.28-2.87,1.55-.88.57-1.16,1.19-1.74,1.29-.8.14-2.14-.61-2.61-1.29-.18-.32-.31-.87-.44-1.45l.31-.21c.51.35,1,.81,1.74.68.65-.08,2.89-1.08,4.94-2.01-.62-1.35-1.47-3.13-1.96-3.75-.38-.54-1.1-.66-2.12-.67l-.13-.39Z"/>
        <path class="cls-11" d="m132.25,159.06c3.87.17,8.69,1.39,9.15,4,.15.83-.3,1.51-1.07,1.65-.65.11-1.21-.2-2.15-1.05-1.8-1.59-3.04-2.51-6.18-3.92l.26-.68Zm21.81-.83l.75.31c-2.5,7.26-7.29,13.34-13.36,18.89-.63.56-.85,1.45-1.59,1.58-1.35.24-3.56-.96-4.39-1.86-.41-.53-.87-1.53-1.01-2.14l.41-.39c1.03.8,2.23,1.67,3.25,1.49,2.65-.47,12.68-10.71,15.95-17.89Z"/>
        <path class="cls-11" d="m161.89,154.24c.69.67,1.52,1.6,2.57,1.42,1.82-.32,7.5-2.43,9.06-3.12.64-.3.93-1.05,1.45-1.14,1.02-.18,3.58,1.24,3.72,2.04.12.68-.9,1.17-1.2,1.83-.73,1.78-2.02,4.89-3.78,7.71,5.37,1.15,10.81,3.55,11.31,6.38.12.68-.19,1.43-1.02,1.58-.95.17-1.68-.69-3.44-2.22-2.28-1.98-4.35-3.61-7.45-4.84-2.34,3.49-6.11,8.19-12.04,11.61l-.56-.63c6.57-5.03,12.62-13.74,14.29-20.45.08-.46-.12-.52-.45-.4-1.86.61-5.86,2.4-7.41,3.15-.94.45-1.01,1.1-1.81,1.24-1.02.18-2.57-1.07-3.09-1.87-.27-.43-.54-1.11-.72-1.94l.57-.35Z"/>
        <path class="cls-11" d="m194.76,147.91c.29,1.66.49,4.42.85,10.07l.4,4.82-1.17.21-1.27-4.66c-1.6-5.46-2.35-8.09-2.64-9.75-.28-1.57.34-2.41,1.51-2.61s2.03.37,2.31,1.94Zm-.54,20.34c-.2-1.11.5-2.18,1.73-2.4,1.2-.21,2.26.55,2.45,1.66.2,1.14-.53,2.22-1.73,2.43-1.23.22-2.26-.55-2.46-1.69Z"/>
      </g>
      <g>
        <line class="cls-2" x1="1.89" y1="105.43" x2="11.86" y2="100.94"/>
        <line class="cls-7" x1=".74" y1="84.59" x2="11.11" y2="86.35"/>
        <line class="cls-4" x1="11.01" y1="64.5" x2="18.66" y2="72.45"/>
        <line class="cls-3" x1="30.51" y1="51.87" x2="32.9" y2="62.84"/>
        <line class="cls-10" x1="52.34" y1="53.34" x2="48.5" y2="63.15"/>
      </g>
    </g>
    <g>
      <circle class="cls-12" cx="197.38" cy="52.8" r="52.79"/>
      <g>
        <path class="cls-1" d="m192.15,35.47s.96.49,1.54.86c-.01.15-.13.23-.31.27l-11.36,2-.18-.36,4.97-.88-1.87-10.63,1.59-.11c0,.2-.08.35-.4.45l.74,4.19,2.7-.48.57-1.06s.95.49,1.51.86c-.01.15-.12.23-.31.27l-4.4.78.98,5.54,3.67-.65.57-1.05Z"/>
        <path class="cls-1" d="m197.02,24.97c-.02.16-.16.3-.44.34-.19,1.02-.45,1.99-.77,2.91l.6.12c-.02.11-.12.22-.33.3l1.34,7.6c0,.08-.39.4-.79.47l-.19.03-1.24-7.03c-.37.78-.79,1.49-1.25,2.1l-.2-.08c.81-1.74,1.48-4.41,1.66-6.97l1.61.22Zm2.98,1.93l-.49-2.77,1.55-.13c0,.18-.09.33-.41.44l.4,2.27,1.87-.33.53-.98s.87.45,1.44.8c-.01.15-.13.23-.32.27l-7.59,1.34-.17-.35,3.2-.56Zm5.11,6.43s.9.47,1.46.84c-.01.15-.13.23-.3.26l-8.22,1.45-.17-.37,4.43-.78c.2-2.16.25-5.09.17-7.19l1.69.09c0,.17-.13.33-.42.39-.15,1.82-.57,4.52-1.21,6.67l2.04-.36.54-1.01Zm-6.92-4.89c3.75,3.35,2.74,6.53,1.72,5.41-.23-1.33-.83-3.72-1.9-5.3l.18-.11Z"/>
        <path class="cls-1" d="m173.99,59.27l.09.49-3.82.67-.09-.49,1.35-.41-1.25-2.31-3.25.57-.38,2.59,1.4-.06.09.49-3.12.55-.09-.49,1.11-.38,1.43-9.31.82-.14,4.58,8.3,1.12-.07Zm-3.99-2.57l-2.23-4.1-.67,4.61,2.89-.51Z"/>
        <path class="cls-1" d="m176.76,55.56c-.69.12-1.35-.34-1.48-1.03-.12-.69.34-1.35,1.03-1.48.69-.12,1.35.34,1.48,1.03.12.69-.34,1.35-1.03,1.48Z"/>
        <path class="cls-1" d="m183.57,48.4c2-.35,3.23.41,3.46,1.74.17.97-.31,1.99-1.84,2.59,1.96-.07,2.91.71,3.11,1.87.23,1.28-.59,2.74-3.26,3.22l-3.83.67-.09-.49,1.28-.37c-.19-1.25-.41-2.5-.64-3.76l-.12-.68c-.22-1.24-.44-2.47-.68-3.7l-1.33.09-.09-.49,4.01-.71Zm-1.27.79c.19,1.21.41,2.45.62,3.69l.74-.13c1.69-.3,2.35-1.03,2.12-2.34-.22-1.25-1.03-1.65-2.5-1.39l-.99.17Zm2.38,8.11c1.75-.31,2.53-1.17,2.3-2.45-.24-1.34-1.2-1.88-3.15-1.53l-.81.14c.26,1.46.48,2.74.73,4l.92-.16Z"/>
        <path class="cls-1" d="m191.92,52.88c-.69.12-1.35-.34-1.48-1.03-.12-.69.34-1.35,1.03-1.48.69-.12,1.35.34,1.48,1.03.12.69-.34,1.35-1.03,1.48Z"/>
        <path class="cls-1" d="m203.58,51.94l.34,2.07c-.79.63-1.69,1-2.68,1.17-2.83.5-5.11-1.14-5.63-4.06-.51-2.87,1.16-5.26,3.9-5.74.81-.14,1.78-.16,2.8.22l.39,2.06-.77.14-.66-1.73c-.53-.16-1.02-.17-1.49-.09-1.93.34-3.21,2.11-2.71,4.9.49,2.8,2.16,4.04,4.17,3.69.52-.09,1.06-.28,1.55-.63l.03-1.84.77-.14Z"/>
        <path class="cls-1" d="m215.4,43.77c-.07.12-.19.17-.45.23-.3.42-.86,1.06-1.29,1.44l-.17-.07c.09-.36.19-.92.23-1.36l-8.24,1.45c.2.84-.03,1.48-.37,1.78-.31.28-.79.34-1,0-.16-.3,0-.62.27-.85.4-.33.69-1.09.54-1.83l.21-.04c.1.19.19.38.26.56l1.51-.27c-.06-.02-.11-.03-.17-.06-.19-.57-.79-1.17-1.31-1.47l.1-.12c2.09.03,2.32,1.23,1.84,1.58l1.58-.28-.34-1.95,1.5-.11c.02.17-.08.32-.38.41l.26,1.46,1.18-.21c.26-.63.5-1.42.65-2.02l1.61.22c-.05.16-.2.29-.47.31-.31.41-.79.93-1.26,1.4l1.97-.35.5-.74,1.28.87Zm-9.94,11.31c1.54-.64,3.1-1.73,3.8-2.56l1.34.63c-.08.15-.27.21-.62.17-.98.73-2.7,1.51-4.44,1.94l-.09-.2Zm1.89-6.51l5.45-.96.42-.64,1.25.64c-.06.1-.22.25-.43.33l.64,3.62c0,.09-.48.4-.8.46l-.15.03-.06-.35-5.66,1,.04.22c.02.09-.37.38-.78.45l-.15.03-.9-5.11,1.15.29Zm4.65-1.26l-.06-.35-3.94.7.03.17c.01.08-.41.38-.81.45l-.15.03-.48-2.74,1.17.27,3.76-.66.41-.61,1.23.62c-.06.1-.22.24-.42.31l.24,1.37c0,.09-.48.37-.81.43l-.17.03Zm-4.66,1.64l.15.86,5.66-1-.15-.86-5.66,1Zm6.03,1.1l-.15-.86-5.66,1,.15.86,5.66-1Zm-1.5-3.47l-.19-1.05-3.94.7.19,1.05,3.94-.7Zm1.72,4.73l-.15-.87-5.66,1,.15.87,5.66-1Zm-1.87,1.14c6.45-.91,4.97,1.47,3.72.94-.77-.33-2.07-.65-3.72-.72v-.22Z"/>
        <path class="cls-1" d="m219.69,41.86c.21-.14.5-.3.9-.37.54-.09,1.64.19,1.7.53.05.31-.21.51-.3.9-.06.31-.17.78-.29,1.33.34-.11.71-.23.99-.28.97-.17,1.66.28,1.93,1.84.28,1.57.15,3.46-.48,4.59-.3.53-.8.94-1.45,1.06-.45.08-.58-.08-.83-.5-.12-.2-.24-.33-1.03-.83l.09-.21c.75.28,1.35.49,1.66.43.4-.07.64-.26.87-.77.35-.76.51-2.48.26-3.89-.15-.86-.44-1.22-1.12-1.1-.28.05-.67.2-1.07.37-.21.92-.46,1.97-.7,2.84-.43,1.5-.87,2.99-1.26,3.88-.15.4-.3.53-.53.57-.22.04-.49-.14-.55-.5-.05-.26-.03-.42.12-.69.53-.99.96-2.02,1.43-3.5.19-.64.38-1.39.54-2.12-.41.23-.78.45-1.02.6-.49.31-.65.48-.97.54-.35.06-.95-.39-1.13-.82-.09-.23-.11-.54-.07-.79l.22-.08c.23.34.41.69.77.63.41-.07,1.44-.54,2.37-.92.2-1.03.31-1.89.27-2.13-.03-.15-.09-.26-.27-.32-.22-.07-.67-.07-1.01-.04l-.04-.24Zm5.43,1.67c1.01-.05,1.78.15,2.42.63.65.47,1.12,1.27,1.3,2.25.1.59-.02,1.09-.46,1.16-.38.07-.44-.31-.84-.33-.29-.01-1.05.13-1.49.25l-.11-.27c.48-.2,1.16-.47,1.47-.65.25-.15.29-.29.22-.62-.07-.34-.29-.9-.76-1.37-.45-.45-1.01-.72-1.83-.75l.08-.3Zm.15-2.27c.72.12,1.28.3,1.68.56.36.23.51.42.55.67.04.23-.07.41-.28.45-.21.04-.41-.21-.7-.47-.31-.29-.74-.65-1.37-.97l.12-.23Zm1.02-1.05c.71.09,1.27.24,1.65.45.38.21.56.43.61.71.04.23-.07.38-.28.42-.21.04-.4-.22-.72-.48-.32-.26-.69-.54-1.38-.87l.12-.23Z"/>
        <path class="cls-1" d="m170.04,72.13c-.08.15-.2.21-.48.28-.02,3.79-.83,7.5-4.64,10.13l-.17-.14c2.9-2.58,3.78-6.21,3.68-9.97l-2.02.36c-.15.73-.34,1.42-.59,2.06,2.85.45,2.42,2.44,1.33,1.93-.26-.55-.87-1.13-1.46-1.56-.43,1.03-.97,1.93-1.61,2.67l-.2-.1c1.01-1.84,1.67-4.56,1.65-7.43l1.6.11c-.02.18-.14.32-.42.38-.05.54-.12,1.05-.21,1.55l1.82-.32.48-.74,1.26.79Zm2.83,3.1c1.02.53,2.15.86,3.3.95v.15c-.39.16-.67.55-.71,1.08-.87-.19-1.66-.5-2.37-.94l.73,4.16c.02.11-.39.42-.78.49l-.21.04-.99-5.63c-.77-.72-1.44-1.62-2-2.71l.18-.12c.45.66,1,1.25,1.63,1.75l-.86-4.89,1.53-.1c0,.19-.07.33-.39.44l.94,5.35Z"/>
        <path class="cls-1" d="m189.52,74.99c-.39.94-1.19,1.99-2.38,2.2-.93.16-1.66-.29-1.87-1.48-.26-1.46.01-3-.23-4.38-.14-.81-.43-1.19-1.06-1.08-1.1.19-2.35,1.58-3.32,3.19h0c.14,1.4.55,2.9.75,3.68.11.38.21.65.26.96.09.53-.04,1.17-.43,1.24-.29.05-.47-.09-.57-.39-.12-.32-.22-.56-.4-.84-.17-.3-.67-.9-1.11-1.35l-.51,1.13c-.13.29-.24.52-.47.57-.22.04-.43-.13-.49-.45-.05-.27-.02-.47.18-.79.45-.66,1.48-2.53,2.13-4.04-.03-.32-.05-.65-.08-.96-.37.29-.74.61-.98.82s-.31.54-.54.58c-.43.08-1.12-.36-1.34-.78-.08-.18-.13-.41-.15-.61l.21-.1c.27.33.5.52.74.48.35-.06,1.47-.85,2.01-1.28-.04-.8-.07-1.47-.12-1.81-.05-.28-.11-.34-.36-.39-.19-.05-.45-.08-.76-.09l-.06-.25c.24-.14.51-.26.82-.32.59-.1,1.42.4,1.49.79.05.27-.08.44-.15.95-.03.19-.07.51-.09.89.25.12.53.32.55.44.03.17-.08.29-.21.53-.07.12-.13.23-.2.37.93-1.19,2.17-2.51,3.41-2.73,1-.18,1.64.32,1.85,1.54.19,1.06-.06,2.82.18,4.14.12.68.44.91,1.04.81.82-.14,1.39-.56,2.03-1.35l.23.17Zm-9.37-.45c-.25.6-.54,1.26-.84,1.88.42.38.92.8,1.12.98.16.1.24.08.2-.14-.09-.58-.31-1.63-.48-2.71Z"/>
        <path class="cls-1" d="m194.03,68.56c.6-.32,1.06-.64,1.41-.91.18-.15.32-.27.44-.29.24-.04.69.02.74.33.05.27-.1.45-.68.81-.29.18-1.19.68-2.03,1.06-.07.63-.15,1.33-.26,1.97-.27,1.75-.72,4.02-1.09,5.02-.13.37-.25.56-.57.62-.27.05-.51-.23-.58-.57-.06-.35.09-.53.25-.98.44-1.03.91-2.39,1.22-4.24.08-.45.13-.96.18-1.47-.42.14-.9.29-1.31.36-.82.14-1.47,0-2.08-1.03l.18-.19c.66.37,1.08.52,1.68.42.58-.09,1.14-.28,1.6-.48.04-.67.04-1.28.01-1.65-.03-.31-.11-.4-.36-.49-.25-.07-.55-.1-.83-.13l-.03-.26c.28-.14.52-.24.86-.29.55-.08,1.42.12,1.49.42.04.26-.11.59-.18,1.25l-.07.73Zm1.5,4.61c.13.35.32.79.65,1.13.57.62,1.4.76,2.48.57,1.24-.22,1.63-.54,1.97-.6.36-.06.8.03.86.4.05.28-.26.49-.66.67-.37.14-.93.33-1.71.47-1.63.29-2.88-.06-3.42-1.22-.25-.43-.36-.93-.44-1.35l.28-.07Zm.15-2.97c.57-.41,1.45-.84,2.35-1,.84-.15,1.45-.08,1.77.02.35.12.55.33.58.54.05.27-.15.41-.53.5-.23.05-.44.13-.75.32-.42.19-.96.57-1.37.84l-.18-.18c.36-.34.99-.95,1.12-1.15.08-.09.03-.15-.1-.17-.31-.05-.76-.03-1.14.04-.51.09-1.07.27-1.62.48l-.14-.25Z"/>
        <path class="cls-1" d="m211.81,63.75s.94.48,1.51.83c-.01.15-.14.24-.31.27l-6.12,1.08c.09.83.14,1.61.14,2.36l3.49-.62.48-.71,1.26.73c-.08.12-.23.22-.5.3.33,2.86.35,5.07-.18,5.79-.34.42-.83.67-1.55.8-.05-.31-.17-.56-.41-.68-.26-.14-.98-.2-1.62-.19l-.04-.21c.7-.06,1.91-.17,2.23-.22.27-.05.38-.09.5-.25.36-.43.29-2.52,0-5.02l-3.67.65c-.05,2.83-.94,5.2-3.71,7.12l-.13-.12c2.73-2.71,3-5.8,2.48-9.53l-4.01.71-.17-.35,5.33-.94-.44-2.5,1.54-.13c0,.18-.1.33-.4.44l.35,2,3.41-.6.53-1.02Z"/>
        <path class="cls-1" d="m218.88,67.15c-.13.74-.45,2.18-.49,2.69-.05.45-.08.75-.04.97.07.4.4.77.46,1.09.05.31-.07.51-.36.57-.26.04-.52-.12-.77-.38-.48-.5-1.05-1.53-1.27-2.8-.25-1.42-.06-2.64.01-3.45.04-.65.1-1.14.03-1.62-.07-.49-.46-.9-.95-1.26l.16-.2c.33.06.55.13.81.27.35.18,1.07.69,1.17,1.27.05.31-.08.58-.28,1.36-.22.83-.51,2.07-.29,3.29.1.59.23.83.34.98.12.15.21.16.3-.04.22-.5.66-2.12.85-2.82l.3.08Zm.9-3.08c.9-.83,2.05-1.3,2.96-1.46.87-.15,1.39-.14,1.84-.02.33.09.48.27.52.45.04.2-.06.35-.33.44-.32.11-.68.2-1.1.44-.52.34-1.32.98-1.9,1.5l-.25-.19c.49-.52,1.22-1.3,1.43-1.57.13-.18.12-.27-.75-.12-.49.09-1.26.29-2.27.81l-.15-.28Zm.56,3.93c.13.29.33.73.55,1,.59.71,1.32,1.02,2.9.74,1.36-.24,1.82-.56,2.11-.61.4-.07.83.01.89.34.11.6-1.08.97-2.52,1.22-2.13.38-3.32-.21-3.88-1.51-.17-.37-.27-.76-.33-1.1l.27-.09Z"/>
        <path class="cls-1" d="m233.12,63.61c2.19.58,3.25,1.65,3.5,3.09.22,1.27-.56,2.95-2.89,3.36-1.82.32-2.93-.59-3.21-2.17-.05-.31-.1-.7-.12-1.12-1.24-.06-2.04-.58-2.17-1.32-.12-.7.48-1.58,1.34-2.23-.34-.05-.62-.1-.98-.25-.5-.23-.81-.56-1.09-1.22l.19-.15c.4.38.78.71,1.36.83.52.11,1.02.1,1.48.06.08-.87.16-1.59.14-1.91-.04-.31-.16-.39-.41-.47-.21-.06-.46-.08-.68-.09l-.03-.26c.22-.09.46-.17.75-.22.65-.12,1.58.42,1.64.79.04.26-.13.41-.23.73-.1.33-.19.73-.28,1.32.12,0,.22-.03.33-.03.5-.04.72.19.76.45.04.26-.13.39-.46.48-.18.04-.47.08-.77.12-.09.67-.19,1.55-.24,2.41.62-.08,1.11-.21,1.4-.23.35-.04.61.08.66.38.05.27-.12.47-.6.62-.33.08-.87.18-1.47.21.01.37.03.71.08.98.22,1.25,1.13,1.69,2.32,1.48,1.63-.29,2.3-1.5,2.1-2.63-.25-1.41-1.23-2.09-2.55-2.76l.13-.23Zm-2.74,2.22c-.01-.83.02-1.68.06-2.33-.85.2-1.83,1.1-1.72,1.69.07.4.52.67,1.66.64Z"/>
      </g>
    </g>
  </g>
</svg>