<?xml version="1.0" encoding="UTF-8"?>
<svg id="_レイヤー_2" data-name="レイヤー 2" xmlns="http://www.w3.org/2000/svg" viewBox="0 0 761.11 93.16">
  <defs>
    <style>
      .cls-1 {
        fill: #ea5532;
      }

      .cls-2 {
        fill: none;
        stroke: #ea5532;
        stroke-miterlimit: 10;
        stroke-width: .74px;
      }
    </style>
  </defs>
  <g id="_文字" data-name="文字">
    <g>
      <path class="cls-1" d="m169.94,1.95c-.12.53-.65.73-1.83.85,3.78,5.01,10.91,8.3,17.7,10.5l-.04.61c-1.79.45-2.93,2.03-3.26,3.5-6.51-3.13-12.33-7.98-15.14-14.16-3.95,6.06-12.37,12.62-20.43,15.91l-.28-.53c7.08-4.07,15.06-12.41,17.05-18.23l6.23,1.55Zm7.41,16.64l4.52,3.3c-.28.37-.94.77-1.83.94v7.94c0,2.6-.69,4.31-5.82,4.76-.16-1.3-.37-2.24-1.06-2.85-.69-.61-1.63-1.06-3.83-1.38v-.57s4.68.33,5.62.33c.73,0,.9-.24.9-.85v-8.18h-9.73v15.46c0,.2-1.3.89-3.42.89h-.69v-16.36h-10.38l-.37-1.18h24.13l1.95-2.24Zm-6.27-7.08s2.56,1.87,4.15,3.21c-.08.45-.53.65-1.1.65h-16.4l-.33-1.14h11.44l2.24-2.73Z"/>
      <path class="cls-1" d="m204.93,11.03s2.36,1.99,3.74,3.38c-.12.41-.53.61-1.06.61h-6.71v3.13c9.89,3.34,7,9.73,3.7,7.28-.49-2.08-2.16-4.56-3.7-6.39v18.23c-.04.29-1.3,1.14-3.13,1.14h-.69v-16.12c-2.03,3.62-4.68,6.84-7.98,9.56l-.49-.49c3.46-4.44,5.94-10.5,7.37-16.36h-6.47l-.33-1.14h7.89v-7.24c-2.52.49-5.13.85-7.61,1.1l-.16-.61c5.09-1.5,11.39-4.27,14.57-6.27l4.31,3.7c-.41.41-1.22.41-2.36.04-1.38.45-3.09.85-4.92,1.26v8.02h1.95l2.08-2.85Zm22.02-3.13c-.28.37-.94.69-1.75.9v26.74c-.08.29-1.95,1.1-3.3,1.1h-.61v-3.46h-8.3v2.65c0,.49-1.47,1.42-3.17,1.42h-.65V5.09l4.03,1.79h7.69l1.95-2.28,4.11,3.3Zm-5.66,24.09V8.06h-8.3v23.93h8.3Z"/>
      <path class="cls-1" d="m235.37,17.74c1.55-.49,3.05-.69,4.8-.69,6.06,0,10.05,3.21,10.05,8.95s-4.35,9.56-10.78,9.56c-4.8,0-7.85-2.28-8.59-6.43.37-1.02,1.22-1.51,2.2-1.51,1.34,0,2.03.73,2.52,2.89l.69,3.05c.85.24,1.67.37,2.65.37,4.27,0,6.76-2.85,6.76-7.41s-2.6-7.16-6.71-7.16c-1.55,0-3.01.16-4.44.61l-1.18-.45.94-13.51h15.06v3.83h-13.43l-.53,7.9Z"/>
      <path class="cls-1" d="m287.54,23.6s2.85,2.16,4.6,3.62c-.12.45-.57.65-1.14.65h-13.43v9.36c0,.28-1.3,1.14-3.46,1.14h-.73v-10.5h-18.68l-.37-1.18h7.04v-12.62l4.6,1.75h7.41v-7.77h-8.3c-3.05,4.15-6.63,7.41-10.42,9.69l-.49-.41c3.74-3.91,7.77-10.5,10.13-17.34l5.66,2.2c-.2.49-.73.81-1.67.73-.73,1.38-1.55,2.69-2.4,3.95h17.99l2.48-3.13s2.77,2.03,4.52,3.66c-.08.45-.49.65-1.06.65h-12.25v7.77h5.41l2.28-2.89s2.69,1.99,4.31,3.42c-.08.45-.53.65-1.1.65h-10.91v9.69h7.45l2.52-3.09Zm-14.16,3.09v-9.69h-7.94v9.69h7.94Z"/>
      <path class="cls-1" d="m316.48,26.7h-4.64v8.26h-4.11v-8.26h-12.09v-2.44l13.19-18.48h3.01v17.91h4.64v3.01Zm-8.75-3.01v-13.8l-9.81,13.8h9.81Z"/>
      <path class="cls-1" d="m351.84,5.09c-.28.33-.9.69-1.71.81v27.47c0,2.85-.61,4.56-5.82,5.05-.12-1.26-.41-2.24-1.1-2.85-.73-.65-1.87-1.1-4.15-1.46v-.61s5.09.37,6.06.37c.81,0,1.02-.33,1.02-.98v-9.2h-14.77c-.94,5.66-3.62,10.99-10.95,14.77l-.45-.45c6.88-5.7,7.94-13.02,7.94-21.2V2.36l4.6,1.71h13.23l1.91-2.24,4.19,3.26Zm-5.7,17.42v-8.18h-14.32v2.44c0,1.91-.08,3.83-.28,5.74h14.61Zm-14.32-17.25v7.94h14.32v-7.94h-14.32Z"/>
      <path class="cls-1" d="m367.22,23.48c-2.23,0-4.13.91-5.75,2.61l-.47-.41c2.01-2.83,4.54-4.07,7.1-4.07,1.93,0,3.77.69,5.83,1.9,2.15,1.24,3.77,1.95,5.67,1.95,2.23,0,4.13-.96,5.78-2.64l.44.41c-1.95,2.83-4.54,4.1-7.1,4.1-1.93,0-3.77-.69-5.83-1.9-2.15-1.24-3.77-1.95-5.67-1.95Z"/>
      <path class="cls-1" d="m411.55,1.95c-.12.53-.65.73-1.83.85,3.78,5.01,10.91,8.3,17.7,10.5l-.04.61c-1.79.45-2.93,2.03-3.26,3.5-6.51-3.13-12.33-7.98-15.14-14.16-3.95,6.06-12.37,12.62-20.43,15.91l-.28-.53c7.08-4.07,15.06-12.41,17.05-18.23l6.23,1.55Zm7.41,16.64l4.52,3.3c-.28.37-.94.77-1.83.94v7.94c0,2.6-.69,4.31-5.82,4.76-.16-1.3-.37-2.24-1.06-2.85s-1.63-1.06-3.83-1.38v-.57s4.68.33,5.62.33c.73,0,.9-.24.9-.85v-8.18h-9.73v15.46c0,.2-1.3.89-3.42.89h-.69v-16.36h-10.38l-.37-1.18h24.13l1.95-2.24Zm-6.27-7.08s2.56,1.87,4.15,3.21c-.08.45-.53.65-1.1.65h-16.4l-.33-1.14h11.44l2.24-2.73Z"/>
      <path class="cls-1" d="m446.55,11.03s2.36,1.99,3.74,3.38c-.12.41-.53.61-1.06.61h-6.71v3.13c9.89,3.34,7,9.73,3.7,7.28-.49-2.08-2.16-4.56-3.7-6.39v18.23c-.04.29-1.3,1.14-3.13,1.14h-.69v-16.12c-2.03,3.62-4.68,6.84-7.98,9.56l-.49-.49c3.46-4.44,5.94-10.5,7.37-16.36h-6.47l-.33-1.14h7.89v-7.24c-2.52.49-5.13.85-7.61,1.1l-.16-.61c5.09-1.5,11.39-4.27,14.57-6.27l4.31,3.7c-.41.41-1.22.41-2.36.04-1.38.45-3.09.85-4.92,1.26v8.02h1.95l2.08-2.85Zm22.02-3.13c-.28.37-.94.69-1.75.9v26.74c-.08.29-1.95,1.1-3.3,1.1h-.61v-3.46h-8.3v2.65c0,.49-1.47,1.42-3.17,1.42h-.65V5.09l4.03,1.79h7.69l1.95-2.28,4.11,3.3Zm-5.66,24.09V8.06h-8.3v23.93h8.3Z"/>
      <path class="cls-1" d="m490.54,6.55c-8.26,1.91-12.57,6.51-13.39,13.43,1.83-1.83,4.15-2.85,6.67-2.85,4.92,0,8.14,3.58,8.14,8.87,0,5.94-3.83,9.56-9.44,9.56-6.23,0-10.05-4.6-10.05-12.45,0-8.95,6.67-16.44,17.82-17.7l.24,1.14Zm-3.05,19.9c0-4.72-1.95-6.92-5.09-6.92-1.79,0-3.7.49-5.37,1.99-.04.33-.04.65-.04.98,0,7.73,2.16,11.44,5.58,11.44,2.89,0,4.92-2.4,4.92-7.49Z"/>
      <path class="cls-1" d="m529.16,23.6s2.85,2.16,4.6,3.62c-.12.45-.57.65-1.14.65h-13.43v9.36c0,.28-1.3,1.14-3.46,1.14h-.73v-10.5h-18.68l-.37-1.18h7.04v-12.62l4.6,1.75h7.41v-7.77h-8.3c-3.05,4.15-6.63,7.41-10.42,9.69l-.49-.41c3.74-3.91,7.77-10.5,10.13-17.34l5.66,2.2c-.2.49-.73.81-1.67.73-.73,1.38-1.55,2.69-2.4,3.95h17.99l2.48-3.13s2.77,2.03,4.52,3.66c-.08.45-.49.65-1.06.65h-12.25v7.77h5.41l2.28-2.89s2.69,1.99,4.31,3.42c-.08.45-.53.65-1.1.65h-10.91v9.69h7.45l2.52-3.09Zm-14.16,3.09v-9.69h-7.94v9.69h7.94Z"/>
      <path class="cls-1" d="m556.22,33.66v1.3h-16.85v-1.3l6.27-.81c.04-2.44.08-4.92.08-7.33V8.95l-5.7.61v-1.55l9.6-2.36.57.45-.12,6.43v12.98c0,2.4.04,4.84.08,7.33l6.06.81Z"/>
      <path class="cls-1" d="m593.46,5.09c-.29.33-.9.69-1.71.81v27.47c0,2.85-.61,4.56-5.82,5.05-.12-1.26-.41-2.24-1.1-2.85-.73-.65-1.87-1.1-4.15-1.46v-.61s5.09.37,6.06.37c.81,0,1.02-.33,1.02-.98v-9.2h-14.77c-.94,5.66-3.62,10.99-10.95,14.77l-.45-.45c6.88-5.7,7.94-13.02,7.94-21.2V2.36l4.6,1.71h13.23l1.91-2.24,4.19,3.26Zm-5.7,17.42v-8.18h-14.32v2.44c0,1.91-.08,3.83-.28,5.74h14.61Zm-14.32-17.25v7.94h14.32v-7.94h-14.32Z"/>
      <path class="cls-1" d="m610.25,22.84c-.66,1.78-1.98,5.02-2.31,6.24-.3,1.19-.46,1.95-.46,2.48,0,1.09.66,2.18.66,3.1s-.46,1.49-1.35,1.49c-.73,0-1.39-.56-1.95-1.35-1.09-1.52-1.98-4.29-1.98-7.72s.96-6.57,1.49-8.55c.43-1.58.79-2.87.79-4.16.03-1.39-.79-2.67-1.75-3.73l.43-.4c.89.26,1.52.56,2.18,1.06.89.63,2.54,2.31,2.54,3.96,0,.83-.46,1.49-1.25,3.17-1.06,2.08-2.31,5.08-2.31,8.05,0,1.32.2,2.01.4,2.41.2.46.49.5.79.03.79-1.19,2.54-4.75,3.37-6.4l.73.33Zm3.17,2.67c.2.79.5,1.91.89,2.64,1.22,2.15,2.87,3.14,6.96,3.14,3.43,0,4.75-.63,5.48-.63,1.19,0,2.41.5,2.41,1.52,0,1.75-3.23,2.18-7.03,2.18-5.78,0-8.45-2.28-9.14-5.91-.23-.99-.26-2.01-.2-2.84l.63-.1Zm.3-9.77c2.57-1.91,5.87-2.64,8.25-2.64,2.24,0,3.56.23,4.65.79.89.43,1.16,1.02,1.16,1.52,0,.66-.33.99-1.09,1.12-.92.17-1.95.23-3.17.63-1.49.56-3.73,1.75-5.45,2.77l-.5-.53c1.45-1.16,3.43-2.67,4.03-3.27.36-.4.46-.69-1.88-.69-1.12,0-2.97.17-5.74.96l-.26-.66Z"/>
      <path class="cls-1" d="m162.81,64.83c-.37.33-.85.41-1.83.49-1.02,1.95-2.48,4.07-4.15,6.1,7.77,2.6,5.17,8.06,2.32,5.94-.33-1.55-1.38-3.34-2.48-4.76v19.29c0,.29-1.22,1.18-3.01,1.18h-.65v-17.62c-1.87,1.75-3.87,3.3-5.9,4.56l-.45-.41c4.27-3.99,8.46-10.13,10.42-15.06h-8.91l-.37-1.14h5.33v-8.02l5.05.49c-.08.57-.45.98-1.51,1.1v6.43h.49l2.24-2.12,3.42,3.54Zm-.37-5.37l-.33-1.18h16.97l2.16-2.73s2.44,1.91,3.87,3.26c-.08.45-.49.65-1.06.65h-21.61Zm22.91,16.03c-.24.33-.69.57-1.59.73v15.55c0,.2-1.22.94-3.05.94h-.65v-2.52h-14.04v1.83c0,.29-1.14.98-2.97.98h-.65v-19.82l4.03,1.63h13.47l1.83-2.12,3.62,2.81Zm-7.2-3.09v-1.46h-10.21v.94c0,.29-1.1.9-2.89.9h-.65v-11.27l3.99,1.59h9.64l1.75-1.99,3.54,2.65c-.24.33-.61.57-1.47.73v7.12c0,.16-1.22.81-3.05.81h-.65Zm-12.13,3.54v5.66h5.25v-5.66h-5.25Zm0,13.06h5.25v-6.23h-5.25v6.23Zm12.13-19.25v-5.53h-10.21v5.53h10.21Zm-3.42,6.19v5.66h5.33v-5.66h-5.33Zm5.33,13.06v-6.23h-5.33v6.23h5.33Z"/>
      <path class="cls-1" d="m222.72,73.21s2.65,2.08,4.31,3.58c-.08.45-.53.65-1.1.65h-9.52v14.2c0,.45-1.71,1.38-3.13,1.38h-.77v-15.59h-9.32c-.81,6.88-3.95,12.33-11.88,15.71l-.41-.45c5.62-3.87,7.94-8.91,8.51-15.26h-9.93l-.33-1.14h10.34c.04-.85.08-1.75.08-2.65v-7.41h-8.79l-.28-1.18h9.07v-9.48l5.29.53c-.08.57-.41.98-1.42,1.14v7.81h9.08v-9.56l5.41.57c-.12.57-.41.98-1.51,1.14v7.85h3.05l2.28-2.93s2.6,2.03,4.15,3.46c-.12.45-.53.65-1.1.65h-8.38v10.05h3.87l2.44-3.09Zm-10.21,3.09v-10.05h-9.08v7.41c0,.9-.04,1.79-.12,2.65h9.2Z"/>
      <path class="cls-1" d="m230.85,91.65c4.07-2.6,8.1-6.88,9.97-10.17l4.64,2.65c-.28.37-.61.57-1.59.37-2.69,2.85-7.53,5.98-12.66,7.69l-.37-.53Zm33.09-15.63s2.77,2.08,4.44,3.54c-.12.45-.53.65-1.14.65h-15.55v12.09c0,.16-1.26.85-3.22.85h-.69v-12.94h-10.34v1.42c0,.41-1.59,1.14-3.05,1.14h-.69v-23.68l5.21.53c-.08.57-.41.98-1.47,1.14v18.27h24.05l2.44-3.01Zm-18.19,0c0,.41-1.59,1.26-3.17,1.26h-.61v-21.32l3.99,1.71h11.72l1.95-2.16,3.99,3.09c-.24.33-.85.69-1.67.85v16.2c-.04.37-1.91,1.26-3.26,1.26h-.61v-2.24h-12.33v1.34Zm0-17.21v4.11h12.33v-4.11h-12.33Zm12.33,9.36v-4.11h-12.33v4.11h12.33Zm0,5.33v-4.15h-12.33v4.15h12.33Zm-3.13,8.59c14.61,2.65,13.23,11.15,8.87,9.28-1.71-3.01-5.98-6.8-9.2-8.91l.33-.37Z"/>
      <path class="cls-1" d="m309.11,63.94c-.24.29-.85.65-1.67.81v23.28c0,2.85-.69,4.56-5.86,5.05-.2-1.22-.49-2.2-1.22-2.81-.81-.65-1.95-1.14-4.35-1.51v-.57s5.29.37,6.47.37c.77,0,1.02-.33,1.02-.94v-23.56h-10.99c-.2,1.95-.49,3.79-.98,5.49,12.86,5.33,10.34,14,6.31,11.19-.9-3.38-3.91-7.33-6.63-10.17-1.55,4.64-4.68,8.46-11.19,11.52l-.45-.65c6.47-4.68,8.42-10.3,9.03-17.38h-9.89v27.55c0,.49-1.55,1.42-3.26,1.42h-.65v-31.91l4.27,1.79h9.6c.16-2.36.2-4.88.24-7.57l5.45.45c-.12.57-.53,1.06-1.47,1.14-.08,2.12-.16,4.11-.33,5.98h10.5l1.91-2.2,4.11,3.21Z"/>
      <path class="cls-1" d="m314.46,68.53c.53.86,1.32,1.68,2.11,1.68,1.88,0,7.36-1.55,13-2.87,3.63-.89,6.7-1.55,7.79-1.55.92,0,1.88.13,2.61.46.79.36,1.32.86,1.32,1.58,0,.66-.59,1.19-1.49,1.19-.79,0-1.82-.1-2.9-.1-1.52,0-3.66.17-5.38,1.32-1.32.86-4.32,3.73-4.32,9.74,0,3.73,1.58,5.08,2.84,5.81,1.98,1.09,4.79.92,5.87.92.99,0,2.28.86,2.28,1.91,0,1.22-1.32,1.55-2.84,1.55-2.28,0-5.05-.23-7.2-1.72-2.18-1.49-3.5-3.63-3.5-7.62,0-4.36,1.78-8.58,5.51-11.29.26-.2.23-.4-.13-.3-3.8.89-8.42,2.47-10.4,3.53-.69.36-1.35,1.02-2.18,1.02-1.42,0-3.4-1.88-3.6-3.27-.1-.66.03-1.32.1-1.85l.49-.17Zm20.53,4.55c1.75.59,3.2,1.29,4.13,2.15.73.69,1.02,1.29.99,1.91,0,.63-.4,1.06-1.02,1.06-.5,0-.89-.59-1.49-1.42-.66-.86-1.52-1.98-3-3.2l.4-.5Zm2.94-2.18c1.78.5,3.2,1.09,4.06,1.75.86.69,1.19,1.32,1.19,2.05,0,.66-.36,1.02-.96,1.02s-.96-.59-1.62-1.42c-.66-.79-1.42-1.68-3.04-2.87l.36-.53Z"/>
      <path class="cls-1" d="m358.24,68.66c8.46,4.15,5.17,10.34,2.24,7.61-.04-.85-.28-1.79-.57-2.73-.81.24-1.71.53-2.69.81v17.74c0,.24-1.18,1.02-2.93,1.02h-.61v-13.23c-.2.37-.65.65-1.34.65-1.14,3.74-2.93,7.2-5.13,9.48l-.65-.37c1.3-2.89,2.32-7.04,2.77-11.07l4.35,1.02v-4.23c-1.26.33-2.6.69-4.07,1.06-.24.53-.65.77-1.02.85l-1.55-3.74c.94-.04,2.32-.12,4.03-.2,2.52-3.91,5.41-9.08,7.2-12.7l4.6,2.32c-.24.41-.81.65-1.71.53-2.08,2.73-5.49,6.55-8.75,9.73,2.16-.12,4.64-.33,7.2-.53-.53-1.38-1.18-2.73-1.83-3.79l.45-.24Zm.77-10.99c-.2.37-.77.65-1.63.53-1.71,2.08-3.66,4.23-5.58,5.82,3.3,2.56,1.02,5.9-1.34,4.11-.37-1.99-1.91-4.35-3.34-5.74l.41-.29c1.38.33,2.48.77,3.3,1.26,1.14-2.24,2.44-5.29,3.5-8.06l4.68,2.36Zm-.2,20.55c7.81,4.6,4.31,10.66,1.51,7.85.04-2.48-1.02-5.58-2.03-7.65l.53-.2Zm16.64-14.61v7.28h3.17l2.2-2.77s2.52,1.87,3.99,3.3c-.12.45-.53.65-1.1.65h-19.66l-.33-1.18h7.85v-7.28h-8.26l-.33-1.14h8.59v-6.96l5.21.49c-.08.53-.41.9-1.34,1.06v5.41h3.87l2.24-2.89s2.52,1.99,4.07,3.42c-.12.45-.53.61-1.1.61h-9.07Zm5.01,11.44l3.66,2.81c-.24.33-.69.57-1.51.73v13.02c0,.2-1.3.9-3.17.9h-.69v-2.69h-9.89v2.16c0,.29-1.18.94-3.05.94h-.61v-17.42l4.11,1.63h9.32l1.83-2.08Zm-1.71,13.59v-10.34h-9.89v10.34h9.89Z"/>
      <path class="cls-1" d="m403.7,65.85c-.28.41-.65.53-1.51.65-.41,5-1.02,9.93-2.81,14.41,5.94,3.78,4.31,8.5,1.26,6.84-.57-1.26-1.51-2.6-2.69-3.95-1.95,3.46-4.8,6.51-9.16,8.87l-.45-.49c3.66-2.85,6.02-6.43,7.53-10.5-.98-.94-2.03-1.79-3.01-2.56-.2.9-.41,1.71-.57,2.44-.69.49-2.03.61-3.58.2.98-3.62,2.28-9.97,3.3-15.83h-3.09l-.37-1.18h3.66c.61-3.74,1.06-7.16,1.26-9.44l4.8.94c-.12.53-.53.94-1.55.98-.24,1.83-.65,4.52-1.18,7.53h2.65l1.95-2.04,3.54,3.13Zm-8.34.08c-.69,4.07-1.55,8.59-2.32,12.29,1.34.37,2.52.81,3.58,1.26,1.22-4.23,1.71-8.83,1.95-13.55h-3.21Zm30.64,6.96c.94,1.02,1.18,1.63.73,2.32-.85,1.42-2.93.98-4.48.16l-.08-.04,2.77,2.12c-.24.33-.65.57-1.51.73v13.71c0,.2-1.34.94-3.22.94h-.65v-2.81h-9.69v2.08c0,.29-1.14.94-3.01.94h-.65v-17.78l-.98.33c-.24.57-.61.85-1.06.98l-1.75-4.31c.81-.04,1.95-.16,3.34-.33v-14.49l5.09,1.51-.04.08c3.87-1.1,7.85-2.56,10.13-3.66l3.74,3.58c-.45.37-1.26.37-2.32-.04-1.3.24-2.85.49-4.52.73,0,1.75.16,3.5.53,5.13h2.6l2.08-2.65s2.36,1.83,3.78,3.17c-.12.45-.49.65-1.1.65h-7.04c.85,2.81,2.4,5.09,4.84,6.23.53.29.81.2,1.06-.29.33-.69.85-1.99,1.22-3.21l.49.08-.33,4.15Zm-4.84,1.87c-3.26-2.04-5.01-5.17-5.86-8.83h-5.94v5.58c2.32-.28,4.96-.61,7.61-.94l.08.57c-2.44,1.02-5.94,2.4-10.66,4.03l3.95,1.55h9.07l1.75-1.95Zm-6.15-10.01c-.28-1.51-.45-3.09-.53-4.72-1.67.16-3.42.33-5.13.41v4.31h5.66Zm4.56,13.14h-9.69v4.76h9.69v-4.76Zm0,10.95v-5.01h-9.69v5.01h9.69Z"/>
      <path class="cls-1" d="m466.61,88.52c1.34,2.08,1.55,3.13.98,3.7-1.51,1.59-4.52.12-6.35-1.51-6.59-5.66-9.2-14.61-10.05-25.15h-20.35l-.33-1.18h20.59c-.2-2.85-.28-5.82-.28-8.87l5.58.57c-.08.53-.45,1.02-1.47,1.18-.04,2.4,0,4.76.12,7.12h6.02l1.95-2.36c-.45.08-.98.04-1.55-.24-.77-1.71-2.81-3.74-4.44-4.8l.37-.37c7.08.08,7.9,3.79,6.39,5.05.77.57,2.81,2.12,4.15,3.26-.08.45-.53.65-1.14.65h-11.68c.61,8.91,2.73,16.93,8.38,21.24.61.61.9.57,1.3-.12.57-1.06,1.59-3.17,2.16-4.88l.49.08-.85,6.63Zm-23.36-3.09c2.81-.61,5.82-1.3,8.87-1.99l.16.61c-3.99,1.83-9.6,4.15-17.82,7.2-.2.53-.57.9-.98,1.02l-2.56-4.35c1.79-.29,4.76-.85,8.42-1.63v-12.41h-7l-.33-1.18h12.82l2.28-2.89s2.52,1.99,4.11,3.42c-.12.45-.53.65-1.1.65h-6.88v11.56Z"/>
      <path class="cls-1" d="m494.74,71.11c1.45.17,2.24.36,2.94.79,1.02.63,2.24,2.01,2.24,3.14,0,.83-.69.86-2.18,1.29-2.38.69-5.94,1.95-8.78,3.2.13,1.88.17,3.96.17,5.12,0,.99-.5,1.68-1.42,1.68-.83,0-1.55-.46-1.55-1.58,0-.86.13-2.31.17-3.89-2.94,1.65-5.21,3.6-5.21,5.48,0,1.52,1.62,2.44,4.82,2.44,4.92,0,6.83-1.09,8.25-1.09s2.51.4,2.51,1.45c0,.76-.3,1.25-1.45,1.58-1.32.4-4.62.89-7.43.89-6.3,0-8.32-2.15-8.32-4.88s3.3-5.58,6.86-7.82c-.1-2.64-.56-3.66-2.21-3.66s-3.83,2.15-5.08,3.6c-1.19,1.39-2.18,3.23-3.23,3.27-.92.03-1.39-.76-1.42-1.85,0-1.06,1.16-1.75,2.51-3.2,1.78-1.78,3.33-3.89,4.46-5.88-.83.07-1.65.13-2.48.13-2.67,0-3.27-1.29-4.36-3.89l.56-.33c1.22,1.16,2.11,1.95,4.46,1.91.96-.03,2.05-.17,3.17-.36.46-1.02.76-1.88.89-2.51.13-.56.1-.92-.5-1.25-.46-.26-1.16-.46-1.95-.69v-.53c.73-.26,1.62-.53,2.21-.53,1.22,0,3.66.5,3.66,1.52,0,.46-.26.69-.59,1.39-.26.53-.63,1.22-.99,1.95,1.39-.4,2.64-.82,3.47-1.15,1.22-.53,1.52-.92,1.98-.92.99,0,1.85.33,1.85,1.25,0,.46-.3.89-1.06,1.25-1.19.63-4.29,1.72-7.76,2.38-.63,1.16-1.52,2.54-2.81,4.26-.13.2-.03.36.23.2,1.09-.66,2.28-1.22,3.6-1.22,2.05,0,3.33,1.32,3.73,3.53,2.48-1.29,5.45-2.58,7.13-3.53.56-.3.66-.66.2-1.16-.33-.43-.99-.86-1.62-1.19l.33-.56Z"/>
      <path class="cls-1" d="m530.27,65.28c2.85,3.91,8.42,6.31,13.31,7.28l-.08.53c-1.79.85-2.93,2.03-3.17,3.62-4.84-2.16-8.87-6.31-11.19-11.43h-7.94c-3.3,5.45-9.2,9.77-15.75,12.29l-.28-.53c4.68-2.93,8.83-7.37,10.78-11.76h-9.48l-.37-1.18h22.46c1.67-2.56,3.46-6.1,4.6-8.67l5.62,1.83c-.16.49-.69.73-1.63.69-1.75,1.83-4.76,4.27-7.41,6.14h6.92l2.2-2.77s2.48,1.95,3.95,3.3c-.12.45-.53.65-1.1.65h-11.44Zm8.38,14.2s2.52,1.79,4.07,3.13c-.12.45-.57.65-1.1.65h-15.34v5.09c0,2.65-.81,4.4-5.86,4.8-.12-1.14-.45-1.99-1.26-2.56-.73-.57-1.95-1.02-4.48-1.34v-.57s5.62.37,6.76.37c.77,0,1.02-.24,1.02-.81v-4.96h-15.67l-.33-1.18h15.99v-4.15h-10.42l-.33-1.18h10.74v-3.99c-2.44.29-5.05.49-7.45.57l-.16-.65c4.8-1.02,10.7-3.09,13.75-4.64l3.74,3.54c-.45.37-1.22.37-2.28-.04-1.1.24-2.4.49-3.78.69v4.52h4.56l2.16-2.48s2.4,1.71,3.87,3.01c-.08.45-.53.65-1.02.65h-9.56v4.15h10.13l2.24-2.6Zm-27.59-23.85c9.81,2.81,6.31,10.09,2.85,7.24-.12-2.4-1.67-5.21-3.26-6.96l.41-.29Zm9.2-.45c9.44,3.3,5.49,10.54,2.12,7.45.12-2.48-1.1-5.33-2.52-7.16l.41-.29Z"/>
      <path class="cls-1" d="m556.64,77.31c-.73,2.18-1.65,5.15-1.98,6.47-.2.73-.33,1.39-.33,2.21,0,1.12.56,1.91.56,3.1,0,.86-.53,1.35-1.42,1.35-.82,0-1.52-.63-2.08-1.62-.89-1.49-1.91-3.99-1.91-7.95,0-4.42,2.05-8.98,2.05-11.98,0-1.42-.82-2.64-1.85-3.76l.4-.43c.96.3,1.55.59,2.24,1.02.89.59,2.61,2.34,2.61,4.03,0,.86-.5,1.72-1.09,2.84-1.12,2.21-2.28,5.08-2.28,7.79,0,1.39.23,2.44.56,3.1.26.5.56.5.82.03.73-1.12,2.11-4.39,2.97-6.5l.73.3Zm7.46-11.85c.89-.5,2.08-.92,2.84-.92,1.45,0,3.76,1.02,3.76,2.08,0,.53-.46,1.09-.5,2.24-.03.69-.03,1.68,0,2.74.56-.2,1.09-.36,1.52-.56,1.19-.5,1.52-.79,1.75-.79,1.02,0,2.18.56,2.18,1.45,0,.63-.3,1.06-1.19,1.45-.89.4-2.38.89-4.13,1.32.2,3.5.5,8.42-.73,11.32-1.52,3.76-4.72,5.41-8.81,6.6l-.3-.59c3.2-1.75,5.35-3.7,6.44-7.39.89-2.61.79-6.34.66-9.41-1.16.17-2.31.26-3.43.26-2.01,0-4.19-.63-5.81-3.76l.4-.43c1.82,1.16,3.3,1.72,5.05,1.72,1.09,0,2.38-.2,3.66-.46-.1-1.72-.2-3.53-.3-4.49-.1-.73-.3-.99-.73-1.16-.63-.33-1.45-.46-2.28-.63l-.07-.59Zm6.77-1.52c1.58.69,2.81,1.39,3.63,2.34.66.76.86,1.25.83,1.91-.03.59-.43.96-1.02.92-.53,0-.83-.66-1.32-1.49-.53-.86-1.19-1.98-2.54-3.23l.43-.46Zm2.51-1.98c1.68.59,2.81,1.12,3.63,1.95.76.73,1.02,1.25.99,1.98,0,.56-.33.96-.96.96-.53,0-.89-.69-1.45-1.48-.53-.76-1.16-1.72-2.61-2.94l.4-.46Z"/>
      <path class="cls-1" d="m593.18,69.89c1.58-.53,2.77-1.09,3.73-1.58.59-.36,1.02-.63,1.32-.63.73,0,2.01.4,2.01,1.39,0,.79-.56,1.25-2.48,1.95-.86.36-3.17,1.12-5.38,1.65-.43,1.48-.92,3.13-1.45,4.65-1.35,4.03-3.43,9.7-4.79,12.05-.53.96-.96,1.52-1.95,1.52-.83,0-1.42-.92-1.42-1.98s.59-1.52,1.32-2.77c1.42-2.21,3.14-5.35,4.65-9.7.33-.96.69-2.08.99-3.2-1.06.17-2.21.3-3.14.3-2.28,0-3.83-.66-4.88-3.83l.46-.33c1.58,1.22,2.54,1.68,4.03,1.72,1.45.03,2.94-.2,4.16-.43.4-1.65.66-3.14.73-4.06.03-.79-.1-1.06-.66-1.42-.56-.33-1.25-.56-1.98-.79l.03-.59c.79-.3,1.55-.46,2.44-.43,1.65.03,3.76.96,3.76,1.82,0,.73-.56,1.45-1.16,3.43l-.36,1.29Zm1.58,12.21c.13.89.4,2.08,1.06,3.04,1.22,1.85,3.17,2.51,5.91,2.51,3.1,0,4.26-.63,5.05-.63,1.06,0,2.31.5,2.31,1.62,0,.79-.83,1.29-2.01,1.55-1.02.23-2.48.43-4.59.43-4.52,0-7.49-1.65-8.12-5.02-.36-1.16-.33-2.41-.26-3.43l.66-.07Zm1.49-6.96c1.65-.96,4.13-1.75,6.6-1.75,2.18,0,3.63.46,4.36.86.89.53,1.32,1.19,1.32,1.82,0,.76-.59,1.12-1.78,1.19-.59,0-1.19.1-2.05.36-1.25.26-2.74.86-3.89,1.32l-.36-.5c1.06-.66,2.77-1.91,3.14-2.31.23-.2.13-.36-.13-.46-.76-.26-1.91-.4-2.87-.4-1.22,0-2.64.2-4.13.46l-.2-.59Z"/>
      <path class="cls-1" d="m641.35,66.7c1.14-.12,1.59-1.22,2.4-1.22,1.1,0,4.11,2.44,4.11,3.58,0,.98-1.26.94-1.46,2.32-.65,4.48-1.79,10.26-4.11,14.73-1.06,2.16-3.3,3.87-5.25,3.87-1.02,0-1.38-.45-1.71-1.59-.37-1.46-1.46-2.28-3.91-4.31l.37-.69c2.12.85,4.15,1.55,5.05,1.71,1.06.2,1.46.12,2.03-.57,2.4-3.13,3.95-12.17,3.95-14.77,0-.33-.16-.49-.45-.49-1.83,0-4.84.41-7.37.77-1.46,5.13-5.17,15.71-17.82,21.65l-.61-.73c9.2-6.8,12.57-14.2,14.45-20.27-2.12.37-4.72.9-5.86,1.22-1.22.33-1.79.94-2.69.94-1.22,0-3.05-2.16-3.5-3.38-.37-.9-.29-1.83-.16-2.89l.69-.16c.73,1.18,1.42,2.4,2.73,2.4,1.14,0,5.25-.45,9.56-.94.53-2.24,1.02-5.01,1.02-6.15.04-.81-.08-1.18-.69-1.46-.69-.41-1.71-.69-2.48-.9l-.04-.73c.94-.33,2.24-.85,3.21-.85,1.99.04,5.25,1.91,5.25,3.09s-1.06,1.14-1.46,2.77c-.2.89-.49,2.24-.85,3.74l5.62-.69Z"/>
      <path class="cls-1" d="m656.94,71.3l.45-.45c1.18.45,2.32,1.18,3.01,1.71,2.04,1.3,3.22,2.97,3.22,4.68,0,1.02-.61,1.83-1.79,1.83-1.55,0-1.63-1.83-2.69-4.07-.69-1.55-1.42-2.73-2.2-3.7Zm2.69,20.47l-.41-.65c10.3-5.21,17.42-16.12,17.42-19.86,0-.69-.73-1.3-2.08-1.95l.12-.53c.57-.08,1.42-.2,2.12-.16,1.87.12,4.23,2.28,4.23,3.62,0,.77-.9,1.34-1.34,2.28-3.26,6.92-9.93,14.12-20.06,17.25Zm4.44-22.71l.41-.45c1.26.53,2.24.98,3.26,1.75,1.67,1.1,2.77,2.56,2.77,4.44,0,1.18-.9,1.79-1.83,1.79-1.59,0-1.46-1.75-2.48-3.95-.49-1.14-1.38-2.77-2.12-3.58Z"/>
      <path class="cls-1" d="m693.4,64.79c2.85,0,14.28-1.22,16.36-1.67,1.38-.29,1.55-.94,2.48-.94,1.59,0,5.33,3.17,5.33,4.48,0,1.18-1.38,1.59-1.99,2.93-4.6,10.01-12.01,17.66-24.7,22.06l-.53-.85c11.35-5.82,19.17-15.26,21.41-24.46.12-.45-.08-.57-.45-.57-2.32,0-12.37,1.79-14.69,2.36-1.02.24-1.99,1.02-2.85,1.02-1.59,0-3.66-2.36-4.07-3.66-.24-.81-.28-1.51-.33-2.6l.69-.29c.9,1.1,1.87,2.2,3.34,2.2Zm21.77-4.84c0-2.44,1.99-4.4,4.44-4.4s4.4,1.95,4.4,4.4-1.95,4.44-4.4,4.44-4.44-1.95-4.44-4.44Zm1.55,0c0,1.63,1.3,2.89,2.89,2.89s2.89-1.26,2.89-2.89-1.3-2.85-2.89-2.85-2.89,1.26-2.89,2.85Z"/>
      <path class="cls-1" d="m729.82,67.11v-.77c.81-.29,1.75-.57,2.81-.53,1.71.08,5.05,1.87,5.05,3.34,0,.98-.85,1.55-1.06,2.56-1.34,6.59-5.49,13.43-13.55,17.91l-.61-.73c6.31-5.37,10.34-13.96,10.34-19.41,0-1.3-1.75-1.95-2.97-2.36Zm8.42-5.25c1.18-.57,1.99-.77,3.01-.77,1.95,0,5.01,1.83,5.01,3.01,0,.98-.94,1.1-1.1,2.52-.29,2.16-.57,11.8-.53,14.77,0,.57.28.73.77.53,5.13-2.12,10.7-6.19,14.98-10.34l.73.57c-3.46,5.37-9.28,10.38-14.53,13.67-.94.61-1.59,1.87-2.6,1.87-1.26,0-3.34-2.56-3.34-3.58,0-.81.49-1.26.65-2.85.16-2.12.37-12.78.12-16.69-.04-1.1-1.14-1.67-3.13-1.99l-.04-.73Z"/>
    </g>
    <g>
      <path class="cls-1" d="m5.03,13.88c0,4.33-.24,10.15-4.69,14l-.34-.24c2.36-4.04,2.54-9.15,2.54-13.74v-7.34l2.91,1.1h6.32V3.6l3.46.32c-.05.37-.29.63-.97.73v3.01h6.03l1.49-1.97s1.68,1.36,2.7,2.31c-.08.29-.34.42-.73.42H5.03v5.45Zm2.91,1.31c1.23,3.62.55,6.24-.47,7.45-.68.84-1.91.97-2.44.21-.39-.71-.08-1.47.55-1.99,1.02-.92,2.04-3.3,1.97-5.66h.39Zm11.9,9.59c.71.29.89.58.89,1.05,0,1.05-1.02,1.49-5.01,1.49h-2.54c-2.31,0-2.83-.5-2.83-2.28v-12.32l3.25.34c-.05.31-.29.58-.86.68v10.67c0,.47.16.6,1,.6h2.2c.87,0,1.6,0,1.94-.03.29-.03.42-.1.58-.37.24-.45.63-1.99,1.02-3.64h.26l.1,3.8Zm-8.39-15.13c7.97.94,6.89,6.45,4.25,5.14-.68-1.78-2.75-3.8-4.48-4.93l.24-.21Zm8.13,5.35c7.71,3.85,4.59,10.09,2.54,7.6-.13-1.99-.79-5.27-2.78-7.37l.24-.24Z"/>
      <path class="cls-1" d="m42.94,18.52c1.91,1.5,5.19,2.49,7.94,2.91l-.03.31c-.87.21-1.42.94-1.65,2.02-1.21-.45-2.33-.97-3.38-1.62-.18.08-.42.16-.76.21-.31,2.52-.92,4.22-1.97,4.88-.68.39-1.6.63-2.75.63,0-.6-.1-1.18-.47-1.49-.39-.34-1.31-.63-2.28-.79v-.42c1,.1,2.78.21,3.28.21.45,0,.66-.03.86-.16.42-.29.76-1.47,1-3.2h-4.17c-1.26,2.59-4.01,4.72-10.07,5.87l-.16-.37c4.43-1.31,6.58-3.28,7.6-5.5h-4.06l-.13-.39c-1.47.92-3.22,1.7-5.27,2.23l-.21-.31c2.8-1.34,4.93-3.09,6.42-5.01h-6l-.21-.76h6.79c.42-.63.79-1.26,1.1-1.91h-.94v.29c0,.21-1.1.73-2.12.73h-.31v-8.44l2.6,1.05h9.83l1.18-1.26,2.49,1.89c-.16.18-.5.39-.97.5v5.4c-.03.18-1.21.71-2.04.71h-.42v-.87h-6.03l.55.13c-.1.29-.39.45-1.21.45-.29.45-.63.89-.97,1.34h10.59l1.42-1.65s1.6,1.13,2.57,1.99c-.05.29-.34.42-.71.42h-6.92ZM26.69,7.06l-.18-.76h7.18v-2.73l3.3.29c-.05.37-.26.63-.94.71v1.73h4.77v-2.73l3.36.29c-.03.37-.26.63-.94.71v1.73h3.41l1.39-1.73s1.57,1.21,2.49,2.07c-.08.29-.34.42-.71.42h-6.58v1.49c0,.18-.87.52-2.02.52h-.39v-2.02h-4.77v1.6c0,.21-.97.52-1.99.52h-.37v-2.12h-7Zm16.83,13.24c-.55-.55-1.05-1.13-1.44-1.78h-6.71c-.86,1-1.89,1.91-3.07,2.73h3.96c.26-.79.42-1.6.5-2.44l3.46.6c-.1.39-.42.6-.97.6-.1.42-.21.84-.37,1.23h3.67l.97-.94Zm-10.09-10.07v2.04h10.22v-2.04h-10.22Zm0,4.85h10.22v-2.07h-10.22v2.07Z"/>
      <path class="cls-1" d="m63.15,9.76c-.37,2.78-1,5.45-1.99,7.89,3.8,4.35,2.33,7.89.1,6.19-.24-1.13-.71-2.36-1.36-3.57-1.68,2.96-4.06,5.5-7.47,7.45l-.24-.26c3.07-2.57,5.11-5.74,6.45-9.25-1.39-2.04-3.09-3.96-4.69-5.43l.34-.21c2.1,1.08,3.77,2.2,5.09,3.33.55-1.97.86-4.04,1.05-6.13h-7.45l-.21-.76h5.06V3.58l3.38.31c-.03.37-.24.63-.92.73v4.38h2.02l1.42-1.89s1.6,1.34,2.57,2.23c-.05.29-.31.42-.71.42h-2.44Zm12.01-1.08s1.42,1.36,2.23,2.28c-.05.29-.31.42-.68.42h-2.96v13.29c0,1.83-.39,2.91-3.51,3.2-.08-.79-.24-1.39-.63-1.78-.45-.39-1.1-.68-2.41-.89v-.39s2.88.21,3.46.21c.5,0,.63-.16.63-.55v-13.08h-6.74l-.21-.76h6.95V3.81l3.43.34c-.08.39-.34.63-.97.73v5.74h.13l1.28-1.94Zm-9.59,4.54c6.21,3.2,3.64,8.18,1.44,6.03.05-1.97-.81-4.3-1.76-5.87l.31-.16Z"/>
      <path class="cls-1" d="m101.84,17c-.21.24-.42.31-1,.13-1.28.68-3.3,1.55-5.14,2.15,1.91,2.25,4.51,3.75,7.5,4.69l-.05.26c-1.05.18-1.81.92-2.2,2.1-4.56-2.33-7.24-5.85-8.44-12.14h-.47c-.66.55-1.42,1.05-2.23,1.52,4.25,3.41,4.43,9.23,2.67,11.25-.6.68-1.68.92-3.38.92-.03-.71-.21-1.15-.52-1.47-.31-.29-1.1-.58-1.97-.79l-.03-.34c.92.05,2.75.16,3.33.16.31,0,.52-.03.66-.21.42-.55.68-1.78.63-3.3-3.25,2.12-7.81,3.91-12.19,4.75l-.16-.45c4.48-1.36,9.28-4.04,11.95-6.97-.05-.24-.13-.47-.21-.71-2.88,1.73-7.16,3.36-11.01,4.19l-.16-.42c3.72-1.26,7.89-3.57,10.28-5.82-.13-.18-.24-.37-.37-.55-2.67,1.44-6.03,2.52-9.57,3.2l-.18-.42c3.46-1.07,6.68-2.75,8.91-4.54h-3.8v.52c0,.18-.76.76-1.97.76h-.45v-5.03c-1.02.66-2.1,1.23-3.22,1.7l-.26-.29c3.28-2.18,6.32-5.79,7.71-8.42l3.62.73c-.1.29-.42.45-1.21.47-.39.47-.84,1-1.34,1.49h4.54l1.28-1.26,2.25,2.02c-.21.18-.52.24-1,.26-1,.71-2.39,1.62-3.7,2.23h6.27l1.18-1.26,2.6,1.89c-.18.21-.55.42-1.05.52v3.93c-.03.16-1.26.68-2.04.68h-.42v-.97h-4.46c.52,1.78,1.31,3.3,2.31,4.59,1.39-1.1,3.04-2.65,3.83-3.67l2.67,1.89Zm-11.64-7.6c.63-.68,1.31-1.68,1.78-2.49h-5.16c-.76.73-1.63,1.47-2.57,2.18l.79.31h5.16Zm-5.51,4.04h5.11v-3.28h-5.11v3.28Zm7.44-3.28v3.28h5.35v-3.28h-5.35Z"/>
    </g>
    <polyline class="cls-2" points="118.68 7.17 127.77 16.26 118.68 25.34"/>
  </g>
</svg>