<?xml version="1.0" encoding="UTF-8"?>
<svg id="_レイヤー_2" data-name="レイヤー 2" xmlns="http://www.w3.org/2000/svg" xmlns:xlink="http://www.w3.org/1999/xlink" viewBox="0 0 339.35 336.49">
  <defs>
    <style>
      .cls-1 {
        stroke: url(#_新規グラデーションスウォッチ_14-2);
      }

      .cls-1, .cls-2, .cls-3, .cls-4, .cls-5, .cls-6, .cls-7, .cls-8, .cls-9, .cls-10, .cls-11, .cls-12, .cls-13, .cls-14, .cls-15, .cls-16, .cls-17, .cls-18, .cls-19, .cls-20, .cls-21, .cls-22, .cls-23, .cls-24, .cls-25, .cls-26, .cls-27, .cls-28, .cls-29, .cls-30, .cls-31, .cls-32, .cls-33, .cls-34 {
        fill: none;
        stroke-linecap: round;
        stroke-miterlimit: 10;
        stroke-width: .75px;
      }

      .cls-2 {
        stroke: url(#_新規グラデーションスウォッチ_14-17);
      }

      .cls-35 {
        fill: #ea5532;
      }

      .cls-3 {
        stroke: url(#_新規グラデーションスウォッチ_14-10);
      }

      .cls-4 {
        stroke: url(#_新規グラデーションスウォッチ_14-23);
      }

      .cls-5 {
        stroke: url(#_新規グラデーションスウォッチ_14-35);
      }

      .cls-6 {
        stroke: url(#_新規グラデーションスウォッチ_14-4);
      }

      .cls-7 {
        stroke: url(#_新規グラデーションスウォッチ_14-32);
      }

      .cls-8 {
        stroke: url(#_新規グラデーションスウォッチ_14-30);
      }

      .cls-9 {
        stroke: url(#_新規グラデーションスウォッチ_14-28);
      }

      .cls-10 {
        stroke: url(#_新規グラデーションスウォッチ_14-33);
      }

      .cls-11 {
        stroke: url(#_新規グラデーションスウォッチ_14-24);
      }

      .cls-12 {
        stroke: url(#_新規グラデーションスウォッチ_14-16);
      }

      .cls-13 {
        stroke: url(#_新規グラデーションスウォッチ_14-13);
      }

      .cls-14 {
        stroke: url(#_新規グラデーションスウォッチ_14-11);
      }

      .cls-36 {
        fill: url(#_新規グラデーションスウォッチ_14);
      }

      .cls-15 {
        stroke: url(#_新規グラデーションスウォッチ_14-14);
      }

      .cls-16 {
        stroke: url(#_新規グラデーションスウォッチ_14-6);
      }

      .cls-17 {
        stroke: url(#_新規グラデーションスウォッチ_14-27);
      }

      .cls-18 {
        stroke: url(#_新規グラデーションスウォッチ_14-19);
      }

      .cls-19 {
        stroke: url(#_新規グラデーションスウォッチ_14-9);
      }

      .cls-20 {
        stroke: url(#_新規グラデーションスウォッチ_14-18);
      }

      .cls-21 {
        stroke: url(#_新規グラデーションスウォッチ_14-34);
      }

      .cls-22 {
        stroke: url(#_新規グラデーションスウォッチ_14-12);
      }

      .cls-23 {
        stroke: url(#_新規グラデーションスウォッチ_14-26);
      }

      .cls-24 {
        stroke: url(#_新規グラデーションスウォッチ_14-8);
      }

      .cls-25 {
        stroke: url(#_新規グラデーションスウォッチ_14-7);
      }

      .cls-26 {
        stroke: url(#_新規グラデーションスウォッチ_14-21);
      }

      .cls-27 {
        stroke: url(#_新規グラデーションスウォッチ_14-15);
      }

      .cls-28 {
        stroke: url(#_新規グラデーションスウォッチ_14-3);
      }

      .cls-29 {
        stroke: url(#_新規グラデーションスウォッチ_14-22);
      }

      .cls-30 {
        stroke: url(#_新規グラデーションスウォッチ_14-5);
      }

      .cls-31 {
        stroke: url(#_新規グラデーションスウォッチ_14-29);
      }

      .cls-32 {
        stroke: url(#_新規グラデーションスウォッチ_14-31);
      }

      .cls-33 {
        stroke: url(#_新規グラデーションスウォッチ_14-20);
      }

      .cls-34 {
        stroke: url(#_新規グラデーションスウォッチ_14-25);
      }
    </style>
    <linearGradient id="_新規グラデーションスウォッチ_14" data-name="新規グラデーションスウォッチ 14" x1="115.31" y1="108.83" x2="221.53" y2="215.05" gradientUnits="userSpaceOnUse">
      <stop offset="0" stop-color="#efd17f"/>
      <stop offset=".25" stop-color="#d8643a"/>
      <stop offset=".53" stop-color="#b2307f"/>
      <stop offset=".79" stop-color="#9473a9"/>
      <stop offset="1" stop-color="#7975ac"/>
    </linearGradient>
    <linearGradient id="_新規グラデーションスウォッチ_14-2" data-name="新規グラデーションスウォッチ 14" x1="0" y1="168.24" x2="339.35" y2="168.24" xlink:href="#_新規グラデーションスウォッチ_14"/>
    <linearGradient id="_新規グラデーションスウォッチ_14-3" data-name="新規グラデーションスウォッチ 14" x1="88.82" y1="66.9" x2="166.67" y2="66.9" xlink:href="#_新規グラデーションスウォッチ_14"/>
    <linearGradient id="_新規グラデーションスウォッチ_14-4" data-name="新規グラデーションスウォッチ 14" x1="164.71" y1="62.12" x2="244.96" y2="62.12" xlink:href="#_新規グラデーションスウォッチ_14"/>
    <linearGradient id="_新規グラデーションスウォッチ_14-5" data-name="新規グラデーションスウォッチ 14" x1="243.53" y1="126.71" x2="300.24" y2="126.71" xlink:href="#_新規グラデーションスウォッチ_14"/>
    <linearGradient id="_新規グラデーションスウォッチ_14-6" data-name="新規グラデーションスウォッチ 14" x1="249.17" y1="203.15" x2="304.2" y2="203.15" xlink:href="#_新規グラデーションスウォッチ_14"/>
    <linearGradient id="_新規グラデーションスウォッチ_14-7" data-name="新規グラデーションスウォッチ 14" x1="172.62" y1="269.62" x2="250.5" y2="269.62" xlink:href="#_新規グラデーションスウォッチ_14"/>
    <linearGradient id="_新規グラデーションスウォッチ_14-8" data-name="新規グラデーションスウォッチ 14" x1="94.36" y1="274.38" x2="174.59" y2="274.38" xlink:href="#_新規グラデーションスウォッチ_14"/>
    <linearGradient id="_新規グラデーションスウォッチ_14-9" data-name="新規グラデーションスウォッチ 14" x1="39.08" y1="209.81" x2="95.79" y2="209.81" xlink:href="#_新規グラデーションスウォッチ_14"/>
    <linearGradient id="_新規グラデーションスウォッチ_14-10" data-name="新規グラデーションスウォッチ 14" x1="35.12" y1="133.37" x2="90.16" y2="133.37" xlink:href="#_新規グラデーションスウォッチ_14"/>
    <linearGradient id="_新規グラデーションスウォッチ_14-11" data-name="新規グラデーションスウォッチ 14" x1="302.44" y1="222.94" x2="328.43" y2="222.94" xlink:href="#_新規グラデーションスウォッチ_14"/>
    <linearGradient id="_新規グラデーションスウォッチ_14-12" data-name="新規グラデーションスウォッチ 14" x1="10.89" y1="113.58" x2="36.89" y2="113.58" xlink:href="#_新規グラデーションスウォッチ_14"/>
    <linearGradient id="_新規グラデーションスウォッチ_14-13" data-name="新規グラデーションスウォッチ 14" x1="227.78" y1="309.11" x2="239.65" y2="309.11" xlink:href="#_新規グラデーションスウォッチ_14"/>
    <linearGradient id="_新規グラデーションスウォッチ_14-14" data-name="新規グラデーションスウォッチ 14" x1="99.68" y1="27.4" x2="111.55" y2="27.4" xlink:href="#_新規グラデーションスウォッチ_14"/>
    <linearGradient id="_新規グラデーションスウォッチ_14-15" data-name="新規グラデーションスウォッチ 14" x1="59.84" y1="168.26" x2="279.48" y2="168.26" xlink:href="#_新規グラデーションスウォッチ_14"/>
    <linearGradient id="_新規グラデーションスウォッチ_14-16" data-name="新規グラデーションスウォッチ 14" x1="109.36" y1="312.8" x2="119.67" y2="312.8" xlink:href="#_新規グラデーションスウォッチ_14"/>
    <linearGradient id="_新規グラデーションスウォッチ_14-17" data-name="新規グラデーションスウォッチ 14" x1="219.65" y1="23.72" x2="229.96" y2="23.72" xlink:href="#_新規グラデーションスウォッチ_14"/>
    <linearGradient id="_新規グラデーションスウォッチ_14-18" data-name="新規グラデーションスウォッチ 14" x1="14.92" y1="231.77" x2="40.29" y2="231.77" xlink:href="#_新規グラデーションスウォッチ_14"/>
    <linearGradient id="_新規グラデーションスウォッチ_14-19" data-name="新規グラデーションスウォッチ 14" x1="299.03" y1="104.75" x2="324.4" y2="104.75" xlink:href="#_新規グラデーションスウォッチ_14"/>
    <linearGradient id="_新規グラデーションスウォッチ_14-20" data-name="新規グラデーションスウォッチ 14" x1="36.14" y1="86.18" x2="46.14" y2="86.18" xlink:href="#_新規グラデーションスウォッチ_14"/>
    <linearGradient id="_新規グラデーションスウォッチ_14-21" data-name="新規グラデーションスウォッチ 14" x1="45.39" y1="46.64" x2="110.55" y2="46.64" xlink:href="#_新規グラデーションスウォッチ_14"/>
    <linearGradient id="_新規グラデーションスウォッチ_14-22" data-name="新規グラデーションスウォッチ 14" x1="1.4" y1="146.03" x2="36.89" y2="146.03" xlink:href="#_新規グラデーションスウォッチ_14"/>
    <linearGradient id="_新規グラデーションスウォッチ_14-23" data-name="新規グラデーションスウォッチ 14" x1="1.4" y1="200.49" x2="39.94" y2="200.49" xlink:href="#_新規グラデーションスウォッチ_14"/>
    <linearGradient id="_新規グラデーションスウォッチ_14-24" data-name="新規グラデーションスウォッチ 14" x1="39.19" y1="258.73" x2="56" y2="258.73" xlink:href="#_新規グラデーションスウォッチ_14"/>
    <linearGradient id="_新規グラデーションスウォッチ_14-25" data-name="新規グラデーションスウォッチ 14" x1="55.25" y1="295.7" x2="120.08" y2="295.7" xlink:href="#_新規グラデーションスウォッチ_14"/>
    <linearGradient id="_新規グラデーションスウォッチ_14-26" data-name="新規グラデーションスウォッチ 14" x1="119.33" y1="318.25" x2="177.15" y2="318.25" xlink:href="#_新規グラデーションスウォッチ_14"/>
    <linearGradient id="_新規グラデーションスウォッチ_14-27" data-name="新規グラデーションスウォッチ 14" x1="176.4" y1="316.29" x2="229.52" y2="316.29" xlink:href="#_新規グラデーションスウォッチ_14"/>
    <linearGradient id="_新規グラデーションスウォッチ_14-28" data-name="新規グラデーションスウォッチ 14" x1="227.78" y1="288.43" x2="294.45" y2="288.43" xlink:href="#_新規グラデーションスウォッチ_14"/>
    <linearGradient id="_新規グラデーションスウォッチ_14-29" data-name="新規グラデーションスウォッチ 14" x1="293.7" y1="249.07" x2="303.18" y2="249.07" xlink:href="#_新規グラデーションスウォッチ_14"/>
    <linearGradient id="_新規グラデーションスウォッチ_14-30" data-name="新規グラデーションスウォッチ 14" x1="302.44" y1="188.77" x2="337.61" y2="188.77" xlink:href="#_新規グラデーションスウォッチ_14"/>
    <linearGradient id="_新規グラデーションスウォッチ_14-31" data-name="新規グラデーションスウォッチ 14" x1="299.39" y1="134.3" x2="337.61" y2="134.3" xlink:href="#_新規グラデーションスウォッチ_14"/>
    <linearGradient id="_新規グラデーションスウォッチ_14-32" data-name="新規グラデーションスウォッチ 14" x1="219.65" y1="40.04" x2="283.35" y2="40.04" xlink:href="#_新規グラデーションスウォッチ_14"/>
    <linearGradient id="_新規グラデーションスウォッチ_14-33" data-name="新規グラデーションスウォッチ 14" x1="109.8" y1="20.19" x2="162.61" y2="20.19" xlink:href="#_新規グラデーションスウォッチ_14"/>
    <linearGradient id="_新規グラデーションスウォッチ_14-34" data-name="新規グラデーションスウォッチ 14" x1="282.6" y1="77.05" x2="299.77" y2="77.05" xlink:href="#_新規グラデーションスウォッチ_14"/>
    <linearGradient id="_新規グラデーションスウォッチ_14-35" data-name="新規グラデーションスウォッチ 14" x1="161.87" y1="18.64" x2="220.4" y2="18.64" xlink:href="#_新規グラデーションスウォッチ_14"/>
  </defs>
  <g id="_バック" data-name="バック">
    <g>
      <g>
        <g>
          <g>
            <path d="m158.5,99.13c-.23.29-.71.55-1.32.68v20.09c-.03.26-1.42.9-2.49.9h-.45v-2.46h-11.21v1.55c0,.36-1.1,1-2.39,1h-.45v-15.76c-1.13.62-2.55,1.39-4.3,2.29v9.92c0,2.2-.42,3.39-3.78,3.75-.1-.9-.23-1.65-.61-2.1-.42-.49-1.07-.81-2.29-1v-.48s2.58.19,3.13.19c.52,0,.68-.16.68-.58v-8.27c-.81.42-1.68.84-2.58,1.26-.13.42-.42.71-.78.81l-1.39-3.62c.97-.16,2.68-.52,4.75-.97v-7.11h-4.3l-.26-.94h4.55v-7.17l4.04.42c-.06.45-.39.78-1.16.87v5.88h.58l1.52-2.2s1.23,1.13,2.2,2.13v-1.16l3.04,1.29h3.88v-6.85l3.94.39c-.03.45-.29.74-1.03.84v5.62h3.91l1.52-1.65,3.07,2.42Zm-18.32,5.88v-5.81c-.1.03-.23.03-.36.03h-3.94v6.46c1.36-.32,2.78-.64,4.2-1l.1.32Zm2.84-5.72v8.3h4.07v-8.3h-4.07Zm0,18.12h4.07v-8.92h-4.07v8.92Zm6.98-18.12v8.3h4.23v-8.3h-4.23Zm4.23,18.12v-8.92h-4.23v8.92h4.23Z"/>
            <path d="m178.94,112.96c-.26.36-.81.48-1.71.32-1.68,1.2-4.59,2.46-7.53,3.1,1.91.97,4.33,1.13,8.5,1.13,3.81,0,8.98,0,13.05-.13v.42c-1.26.26-1.97,1.13-2.1,2.52h-10.92c-6.17,0-8.79-.84-11.08-5.01-1.2,1.58-3.07,3.75-4.26,4.94.06.39-.13.61-.42.74l-1.78-3.39c1.03-.42,2.55-1.16,4.04-1.94v-9.69h-3.75l-.19-.94h3.49l1.55-2.07,3.33,2.78c-.23.26-.71.52-1.62.64v8.33c.52.52,1.03.97,1.58,1.33,2.42-1.29,4.97-3.59,6.1-5.23l3.71,2.13Zm-17.28-20.9c8.66,2.26,5.98,8.5,3,6.2-.32-2.07-1.87-4.49-3.33-5.97l.32-.23Zm25.91,15.47s1.94,1.49,3.17,2.58c-.1.36-.42.52-.87.52h-20.93l-.26-.94h5.59v-3.68h-4.04l-.26-.94h4.3v-3.07l3.68.32c-.06.39-.26.62-.84.74v2h4.1v-3.07l3.75.32c-.06.39-.26.62-.87.74v2h1l1.55-1.94s1.81,1.32,2.91,2.36c-.1.36-.42.52-.84.52h-4.62v3.68h1.74l1.74-2.16Zm-17.7-13.86l-.29-.9h5.56l1.26-1.36,2.75,2.04c-.16.19-.58.42-1.1.55v2.97c-.03.23-1.36.74-2.2.74h-.42v-.81h-3.07v2.2c0,.32.1.42.78.42h3.52c.23,0,.42-.07.55-.23.23-.26.55-.9.87-1.78h.36l.1,1.78c.74.29.9.52.9.97,0,1.03-1,1.39-4.68,1.39h-2.33c-2.26,0-2.58-.52-2.58-2.13v-4.78l2.94,1.23h2.65v-2.29h-5.56Zm7.24,16.02h4.1v-3.68h-4.1v3.68Zm3-16.02l-.29-.9h5.78l1.29-1.36,2.75,2.04c-.13.19-.55.45-1.07.55v2.97c-.03.23-1.36.74-2.26.74h-.45v-.81h-2.97v2.2c0,.32.06.42.78.42h3.71c.26,0,.45-.07.58-.23.23-.26.55-1,.87-1.88h.39l.1,1.88c.68.29.87.55.87,1,0,1.04-1.03,1.39-4.85,1.39h-2.36c-2.36,0-2.65-.52-2.65-2.16v-4.78l2.97,1.23h2.55v-2.29h-5.75Zm.65,17.73c13.02,1.58,7.66,7.11,5.2,4.65-.9-1.26-2.68-2.91-5.39-4.2l.19-.45Z"/>
            <path d="m193.79,101.79c.41.67,1.03,1.32,1.65,1.32,1.47,0,5.76-1.21,10.18-2.25,2.84-.7,5.24-1.21,6.1-1.21.72,0,1.47.1,2.04.36.62.28,1.03.67,1.03,1.24,0,.52-.46.93-1.16.93-.62,0-1.42-.08-2.27-.08-1.19,0-2.87.13-4.21,1.03-1.03.67-3.38,2.92-3.38,7.62,0,2.92,1.24,3.98,2.22,4.55,1.55.85,3.75.72,4.6.72.78,0,1.78.67,1.78,1.5,0,.96-1.03,1.21-2.22,1.21-1.78,0-3.95-.18-5.63-1.34-1.7-1.16-2.74-2.84-2.74-5.97,0-3.41,1.4-6.72,4.31-8.84.21-.15.18-.31-.1-.23-2.97.7-6.59,1.94-8.14,2.76-.54.29-1.06.8-1.71.8-1.11,0-2.66-1.47-2.82-2.56-.08-.52.03-1.03.08-1.45l.39-.13Zm16.07,3.57c1.37.46,2.51,1.01,3.23,1.68.57.54.8,1.01.78,1.5,0,.49-.31.83-.8.83-.39,0-.7-.46-1.16-1.11-.52-.67-1.19-1.55-2.35-2.51l.31-.39Zm2.3-1.71c1.4.39,2.51.85,3.18,1.37.67.54.93,1.03.93,1.6,0,.52-.28.8-.75.8s-.75-.46-1.27-1.11c-.52-.62-1.11-1.32-2.38-2.25l.28-.41Z"/>
            <path d="m85.21,160.31c-.08.24-.34.37-.93.4,1.82,2.51,5.33,4.25,8.65,5.37l-.02.3c-.87.22-1.42.99-1.58,1.7-3.2-1.56-6.05-4.05-7.39-7.13-1.9,3.02-5.97,6.26-9.94,7.92l-.14-.28c3.48-2.03,7.35-6.13,8.3-9.05l3.06.77Zm2.98,9.48l2.11,1.62c-.14.16-.45.34-.87.45v5.89c-.02.14-1.03.51-1.68.51h-.34v-1.42h-8v.97c0,.18-.89.63-1.72.63h-.28v-8.42l2.13.89h7.67l.99-1.11Zm-2.07-4.05s1.32,1.01,2.13,1.76c-.06.22-.26.32-.55.32h-8.91l-.16-.59h6.32l1.17-1.5Zm1.28,10.51v-4.76h-8v4.76h8Z"/>
            <path d="m101.45,162.37s1.15.89,1.86,1.52c-.06.22-.26.32-.55.32h-8.44l-.16-.57h6.32l.97-1.28Zm-6.18-.71l-.16-.59h4.23l.99-1.23s1.11.87,1.8,1.5c-.06.22-.24.32-.53.32h-6.34Zm4.25,4.6l.97-1.23s1.07.87,1.76,1.5c-.06.2-.26.3-.53.3h-6.46l-.16-.57h4.41Zm-4.25,3.18l-.16-.57h4.41l.97-1.23s1.07.85,1.76,1.48c-.06.22-.26.32-.53.32h-6.46Zm5.37,1.09l1.94,1.5c-.14.16-.45.34-.85.4v4.96c-.02.14-.93.55-1.52.55h-.3v-1.05h-2.94v.99c0,.16-.77.55-1.52.55h-.26v-7.65l1.86.77h2.65l.93-1.01Zm-.73,5.77v-4.17h-2.94v4.17h2.94Zm11.4-11.26s1.24,1.07,1.96,1.78c-.06.22-.26.32-.55.32h-4.15v10.61c0,.24-.83.71-1.58.71h-.36v-11.32h-3.87l-.16-.57h4.03v-6.88l2.73.28c-.02.32-.2.55-.79.63v5.97h1.64l1.09-1.54Z"/>
            <path d="m141.96,174.84v1.89h-24.39v-1.89l9.07-1.18c.06-3.54.12-7.13.12-10.6v-23.98l-8.25.88v-2.24l13.9-3.42.82.65-.18,9.31v18.79c0,3.47.06,7.01.12,10.6l8.78,1.18Z"/>
            <path d="m169.42,155.87c0,15.73-6.78,21.74-13.9,21.74s-13.96-6.01-13.96-21.74,6.72-21.92,13.96-21.92,13.9,6.19,13.9,21.92Zm-13.9,19.38c3.83,0,7.42-4.12,7.42-19.38s-3.59-19.5-7.42-19.5-7.48,4.12-7.48,19.5,3.48,19.38,7.48,19.38Z"/>
            <path d="m200.29,155.87c0,15.73-6.78,21.74-13.9,21.74s-13.96-6.01-13.96-21.74,6.72-21.92,13.96-21.92,13.9,6.19,13.9,21.92Zm-13.9,19.38c3.83,0,7.42-4.12,7.42-19.38s-3.59-19.5-7.42-19.5-7.48,4.12-7.48,19.5,3.48,19.38,7.48,19.38Z"/>
            <path d="m220.86,170.8c-.12.16-.43.34-.87.45v6.54c-.02.14-.99.57-1.68.57h-.32v-1.58h-7.53v1.09c0,.14-.61.59-1.58.59h-.34v-7.11c-1.72.85-3.62,1.56-5.69,2.09l-.16-.28c2.94-1.18,5.65-2.81,7.9-4.74-.24.02-.49-.04-.77-.2-.34-.99-1.32-2.15-2.21-2.98-1.32,1.03-2.75,1.9-4.23,2.53l-.18-.22c2.71-1.76,5.41-5,6.64-7.92l2.77.87c-.08.2-.24.3-.77.22-.32.49-.69.97-1.07,1.46h4.48l1.32-1.2,1.98,1.9c-.16.2-.38.26-.91.3-1.62,2.73-3.99,5.14-7.05,7.03l.14.06h7.09l.97-1.07,2.09,1.6Zm-10.61-8.04c-.65.71-1.36,1.4-2.13,2.04,2.69.59,3.46,1.98,3.26,2.86,1.6-1.5,2.92-3.16,3.83-4.9h-4.96Zm7.73,13.43v-5.33h-7.53v5.33h7.53Z"/>
            <path d="m227.73,167.23c4.09,1.84,2.43,4.7,1.03,3.4-.08-.91-.55-2.02-1.03-2.88v10.08c0,.22-.77.57-1.44.57h-.38v-8.42c-.73,1.4-1.64,2.65-2.77,3.77l-.26-.26c1.48-2.31,2.37-5.33,2.85-8.36h-2.47l-.16-.59h2.81v-4.88l2.55.26c-.04.3-.2.51-.73.59v4.03h.38l.97-1.36s1.07.95,1.72,1.62c-.06.22-.26.32-.53.32h-2.55v2.11Zm13.87,3.56c-.12.2-.3.28-.75.16-.75.57-1.88,1.28-2.96,1.82,1.17,1.5,2.75,2.27,4.33,2.75l-.02.22c-.71.2-1.19.89-1.4,1.78-2.25-1.4-3.64-3.2-4.39-6.86v5.47c0,1.26-.28,2.11-2.41,2.29-.04-.53-.12-.95-.34-1.21-.26-.26-.65-.47-1.48-.59v-.28s1.62.12,1.98.12c.32,0,.41-.12.41-.38v-2.75c-.87.79-2.09,1.94-3.73,3.36-.04.26-.16.46-.36.57l-1.42-1.86c.95-.32,3.24-1.36,5.51-2.41v-4.01h-4.48l-.16-.59h4.64v-2.17h-3.6l-.16-.57h3.77v-1.96h-4.19l-.16-.59h6.16c.36-1.05.83-2.47,1.11-3.48l2.51.71c-.08.24-.3.41-.77.38-.59.67-1.52,1.62-2.37,2.39h1.86l1.05-1.3s1.19.89,1.9,1.56c-.06.22-.26.32-.53.32h-4.74v1.96h1.84l1.03-1.3s1.19.89,1.88,1.54c-.04.22-.22.32-.51.32h-4.25v2.17h2.59l1.05-1.38s1.19.95,1.92,1.64c-.06.22-.26.32-.55.32h-5.02v.53c.26,1.17.69,2.12,1.21,2.89.71-.91,1.52-2.19,1.9-2.96l2.07,1.36Zm-10.69-1.11c4.27,1.11,2.59,4.19,1.09,2.92-.02-.93-.67-2.09-1.3-2.77l.2-.14Zm1.01-9.98c4.31,1.2,2.61,4.35,1.03,3.06-.08-1.01-.67-2.19-1.23-2.94l.2-.12Z"/>
            <path d="m249.63,169.3c-.4,1.09-1.21,3.08-1.42,3.83-.18.73-.28,1.2-.28,1.52,0,.67.4,1.34.4,1.9s-.28.91-.83.91c-.45,0-.85-.34-1.19-.83-.67-.93-1.21-2.63-1.21-4.74s.59-4.03.91-5.24c.26-.97.49-1.76.49-2.55.02-.85-.49-1.64-1.07-2.29l.26-.24c.55.16.93.34,1.34.65.55.38,1.56,1.42,1.56,2.43,0,.51-.28.91-.77,1.94-.65,1.28-1.42,3.12-1.42,4.94,0,.81.12,1.24.24,1.48.12.28.3.3.49.02.49-.73,1.56-2.92,2.07-3.93l.45.2Zm1.94,1.64c.12.49.3,1.17.55,1.62.75,1.32,1.76,1.92,4.27,1.92,2.11,0,2.92-.38,3.36-.38.73,0,1.48.3,1.48.93,0,1.07-1.98,1.34-4.31,1.34-3.54,0-5.18-1.4-5.61-3.62-.14-.61-.16-1.23-.12-1.74l.38-.06Zm.18-5.99c1.58-1.17,3.6-1.62,5.06-1.62,1.38,0,2.19.14,2.85.48.55.26.71.63.71.93,0,.41-.2.61-.67.69-.57.1-1.19.14-1.94.38-.91.34-2.29,1.07-3.34,1.7l-.3-.32c.89-.71,2.11-1.64,2.47-2.01.22-.24.28-.42-1.15-.42-.69,0-1.82.1-3.52.59l-.16-.4Z"/>
            <path d="m144.95,199.38c-.18.21-.57.44-1.14.57v11.6c-.03.21-1.24.8-2.09.8h-.41v-1.73h-16.77l-.23-.75h17v-4.91h-15.68l-.23-.72h15.91v-4.78h-16.33l-.23-.75h8.4v-10.13l3.44.31c-.05.36-.26.62-.96.72v9.09h5.42l1.24-1.39,2.66,2.07Zm-19.81-9.22c7.29,2.92,5.19,8.21,2.71,6.25-.31-2.04-1.71-4.47-2.97-6.1l.26-.15Zm19.56,1.27c-.13.28-.46.46-1.06.41-1.6,2.07-3.51,4.08-5.35,5.43l-.31-.23c.98-1.73,2.33-4.55,3.26-7.1l3.46,1.5Z"/>
            <path d="m158.36,194.81c1.24-.41,2.17-.85,2.92-1.24.46-.29.8-.49,1.03-.49.57,0,1.58.31,1.58,1.09,0,.62-.44.98-1.94,1.52-.67.29-2.48.88-4.21,1.29-.34,1.16-.72,2.45-1.14,3.64-1.06,3.15-2.69,7.59-3.75,9.43-.41.75-.75,1.19-1.52,1.19-.65,0-1.11-.72-1.11-1.55s.46-1.19,1.03-2.17c1.11-1.73,2.45-4.19,3.64-7.6.26-.75.54-1.63.77-2.51-.83.13-1.73.23-2.45.23-1.78,0-3-.52-3.82-3l.36-.26c1.24.96,1.99,1.32,3.15,1.34,1.14.03,2.3-.16,3.25-.34.31-1.29.52-2.46.57-3.18.03-.62-.08-.83-.52-1.11-.44-.26-.98-.44-1.55-.62l.03-.46c.62-.23,1.21-.36,1.91-.34,1.29.03,2.94.75,2.94,1.42,0,.57-.44,1.14-.9,2.69l-.28,1.01Zm1.24,9.56c.1.7.31,1.63.83,2.38.96,1.45,2.48,1.96,4.62,1.96,2.43,0,3.33-.49,3.95-.49.83,0,1.81.39,1.81,1.27,0,.62-.65,1.01-1.58,1.21-.8.18-1.94.34-3.59.34-3.54,0-5.86-1.29-6.35-3.93-.28-.9-.26-1.88-.21-2.69l.52-.05Zm1.16-5.45c1.29-.75,3.23-1.37,5.17-1.37,1.7,0,2.84.36,3.41.67.7.41,1.03.93,1.03,1.42,0,.59-.47.88-1.4.93-.47,0-.93.08-1.6.29-.98.21-2.14.67-3.05,1.03l-.28-.39c.83-.52,2.17-1.5,2.45-1.81.18-.15.1-.28-.1-.36-.59-.21-1.5-.31-2.25-.31-.96,0-2.07.16-3.23.36l-.16-.46Z"/>
            <path d="m180.48,190.96c.39.78.9,1.55,1.58,1.55.98,0,3.93-.72,5.22-1.14.83-.26.85-.59,1.32-.59,1.03,0,2.82,1.39,2.82,2.33,0,.62-.77.77-1.65,1.45-1.55,1.11-4.83,4.08-5.89,5.22-.23.23-.1.44.13.34,1.01-.34,2.51-.88,4.39-.88,3.41,0,6.3,2.2,6.25,5.94-.03,3.36-3.02,6.1-8.16,6.1-2.97,0-5.09-1.27-5.09-3.33,0-1.58,1.4-2.66,3.23-2.66s3.85,1.09,4.37,3.62c2.35-.83,3.38-2.53,3.41-4.42.05-2.27-1.55-4.24-4.62-4.24-3.59,0-6.12,2.46-8.32,5.27-.52.7-.77.88-1.29.85-.46,0-.96-.57-.9-1.39.03-.62.36-1.09,1.11-1.81,3.18-3.23,8.29-8.09,9.51-9.87.36-.46.13-.62-.23-.57-.9.18-2.76,1.01-3.8,1.53-.49.26-.9.67-1.39.67-1.29,0-2.35-1.5-2.48-2.32-.08-.52-.03-1.01.1-1.58l.41-.05Zm6.48,18.34c-.34-1.86-1.47-2.92-2.92-2.92-.96,0-1.6.52-1.6,1.32,0,.96,1.14,1.65,3.33,1.65.41,0,.8-.03,1.19-.05Z"/>
            <path d="m199.76,208.76c0-1.01.77-1.86,1.89-1.86s1.89.85,1.89,1.86-.8,1.86-1.89,1.86-1.89-.83-1.89-1.86Zm3.64-16.22c0,1.37-.21,3.56-.88,8.21l-.41,3.77h-.93l-.41-3.77c-.67-4.68-.88-6.85-.88-8.21s.72-2.07,1.76-2.07,1.76.65,1.76,2.07Z"/>
          </g>
          <g>
            <path class="cls-36" d="m158.5,99.13c-.23.29-.71.55-1.32.68v20.09c-.03.26-1.42.9-2.49.9h-.45v-2.46h-11.21v1.55c0,.36-1.1,1-2.39,1h-.45v-15.76c-1.13.62-2.55,1.39-4.3,2.29v9.92c0,2.2-.42,3.39-3.78,3.75-.1-.9-.23-1.65-.61-2.1-.42-.49-1.07-.81-2.29-1v-.48s2.58.19,3.13.19c.52,0,.68-.16.68-.58v-8.27c-.81.42-1.68.84-2.58,1.26-.13.42-.42.71-.78.81l-1.39-3.62c.97-.16,2.68-.52,4.75-.97v-7.11h-4.3l-.26-.94h4.55v-7.17l4.04.42c-.06.45-.39.78-1.16.87v5.88h.58l1.52-2.2s1.23,1.13,2.2,2.13v-1.16l3.04,1.29h3.88v-6.85l3.94.39c-.03.45-.29.74-1.03.84v5.62h3.91l1.52-1.65,3.07,2.42Zm-18.32,5.88v-5.81c-.1.03-.23.03-.36.03h-3.94v6.46c1.36-.32,2.78-.64,4.2-1l.1.32Zm2.84-5.72v8.3h4.07v-8.3h-4.07Zm0,18.12h4.07v-8.92h-4.07v8.92Zm6.98-18.12v8.3h4.23v-8.3h-4.23Zm4.23,18.12v-8.92h-4.23v8.92h4.23Z"/>
            <path class="cls-36" d="m178.94,112.96c-.26.36-.81.48-1.71.32-1.68,1.2-4.59,2.46-7.53,3.1,1.91.97,4.33,1.13,8.5,1.13,3.81,0,8.98,0,13.05-.13v.42c-1.26.26-1.97,1.13-2.1,2.52h-10.92c-6.17,0-8.79-.84-11.08-5.01-1.2,1.58-3.07,3.75-4.26,4.94.06.39-.13.61-.42.74l-1.78-3.39c1.03-.42,2.55-1.16,4.04-1.94v-9.69h-3.75l-.19-.94h3.49l1.55-2.07,3.33,2.78c-.23.26-.71.52-1.62.64v8.33c.52.52,1.03.97,1.58,1.33,2.42-1.29,4.97-3.59,6.1-5.23l3.71,2.13Zm-17.28-20.9c8.66,2.26,5.98,8.5,3,6.2-.32-2.07-1.87-4.49-3.33-5.97l.32-.23Zm25.91,15.47s1.94,1.49,3.17,2.58c-.1.36-.42.52-.87.52h-20.93l-.26-.94h5.59v-3.68h-4.04l-.26-.94h4.3v-3.07l3.68.32c-.06.39-.26.62-.84.74v2h4.1v-3.07l3.75.32c-.06.39-.26.62-.87.74v2h1l1.55-1.94s1.81,1.32,2.91,2.36c-.1.36-.42.52-.84.52h-4.62v3.68h1.74l1.74-2.16Zm-17.7-13.86l-.29-.9h5.56l1.26-1.36,2.75,2.04c-.16.19-.58.42-1.1.55v2.97c-.03.23-1.36.74-2.2.74h-.42v-.81h-3.07v2.2c0,.32.1.42.78.42h3.52c.23,0,.42-.07.55-.23.23-.26.55-.9.87-1.78h.36l.1,1.78c.74.29.9.52.9.97,0,1.03-1,1.39-4.68,1.39h-2.33c-2.26,0-2.58-.52-2.58-2.13v-4.78l2.94,1.23h2.65v-2.29h-5.56Zm7.24,16.02h4.1v-3.68h-4.1v3.68Zm3-16.02l-.29-.9h5.78l1.29-1.36,2.75,2.04c-.13.19-.55.45-1.07.55v2.97c-.03.23-1.36.74-2.26.74h-.45v-.81h-2.97v2.2c0,.32.06.42.78.42h3.71c.26,0,.45-.07.58-.23.23-.26.55-1,.87-1.88h.39l.1,1.88c.68.29.87.55.87,1,0,1.04-1.03,1.39-4.85,1.39h-2.36c-2.36,0-2.65-.52-2.65-2.16v-4.78l2.97,1.23h2.55v-2.29h-5.75Zm.65,17.73c13.02,1.58,7.66,7.11,5.2,4.65-.9-1.26-2.68-2.91-5.39-4.2l.19-.45Z"/>
            <path class="cls-36" d="m193.79,101.79c.41.67,1.03,1.32,1.65,1.32,1.47,0,5.76-1.21,10.18-2.25,2.84-.7,5.24-1.21,6.1-1.21.72,0,1.47.1,2.04.36.62.28,1.03.67,1.03,1.24,0,.52-.46.93-1.16.93-.62,0-1.42-.08-2.27-.08-1.19,0-2.87.13-4.21,1.03-1.03.67-3.38,2.92-3.38,7.62,0,2.92,1.24,3.98,2.22,4.55,1.55.85,3.75.72,4.6.72.78,0,1.78.67,1.78,1.5,0,.96-1.03,1.21-2.22,1.21-1.78,0-3.95-.18-5.63-1.34-1.7-1.16-2.74-2.84-2.74-5.97,0-3.41,1.4-6.72,4.31-8.84.21-.15.18-.31-.1-.23-2.97.7-6.59,1.94-8.14,2.76-.54.29-1.06.8-1.71.8-1.11,0-2.66-1.47-2.82-2.56-.08-.52.03-1.03.08-1.45l.39-.13Zm16.07,3.57c1.37.46,2.51,1.01,3.23,1.68.57.54.8,1.01.78,1.5,0,.49-.31.83-.8.83-.39,0-.7-.46-1.16-1.11-.52-.67-1.19-1.55-2.35-2.51l.31-.39Zm2.3-1.71c1.4.39,2.51.85,3.18,1.37.67.54.93,1.03.93,1.6,0,.52-.28.8-.75.8s-.75-.46-1.27-1.11c-.52-.62-1.11-1.32-2.38-2.25l.28-.41Z"/>
            <path class="cls-36" d="m85.21,160.31c-.08.24-.34.37-.93.4,1.82,2.51,5.33,4.25,8.65,5.37l-.02.3c-.87.22-1.42.99-1.58,1.7-3.2-1.56-6.05-4.05-7.39-7.13-1.9,3.02-5.97,6.26-9.94,7.92l-.14-.28c3.48-2.03,7.35-6.13,8.3-9.05l3.06.77Zm2.98,9.48l2.11,1.62c-.14.16-.45.34-.87.45v5.89c-.02.14-1.03.51-1.68.51h-.34v-1.42h-8v.97c0,.18-.89.63-1.72.63h-.28v-8.42l2.13.89h7.67l.99-1.11Zm-2.07-4.05s1.32,1.01,2.13,1.76c-.06.22-.26.32-.55.32h-8.91l-.16-.59h6.32l1.17-1.5Zm1.28,10.51v-4.76h-8v4.76h8Z"/>
            <path class="cls-36" d="m101.45,162.37s1.15.89,1.86,1.52c-.06.22-.26.32-.55.32h-8.44l-.16-.57h6.32l.97-1.28Zm-6.18-.71l-.16-.59h4.23l.99-1.23s1.11.87,1.8,1.5c-.06.22-.24.32-.53.32h-6.34Zm4.25,4.6l.97-1.23s1.07.87,1.76,1.5c-.06.2-.26.3-.53.3h-6.46l-.16-.57h4.41Zm-4.25,3.18l-.16-.57h4.41l.97-1.23s1.07.85,1.76,1.48c-.06.22-.26.32-.53.32h-6.46Zm5.37,1.09l1.94,1.5c-.14.16-.45.34-.85.4v4.96c-.02.14-.93.55-1.52.55h-.3v-1.05h-2.94v.99c0,.16-.77.55-1.52.55h-.26v-7.65l1.86.77h2.65l.93-1.01Zm-.73,5.77v-4.17h-2.94v4.17h2.94Zm11.4-11.26s1.24,1.07,1.96,1.78c-.06.22-.26.32-.55.32h-4.15v10.61c0,.24-.83.71-1.58.71h-.36v-11.32h-3.87l-.16-.57h4.03v-6.88l2.73.28c-.02.32-.2.55-.79.63v5.97h1.64l1.09-1.54Z"/>
            <path class="cls-36" d="m141.96,174.84v1.89h-24.39v-1.89l9.07-1.18c.06-3.54.12-7.13.12-10.6v-23.98l-8.25.88v-2.24l13.9-3.42.82.65-.18,9.31v18.79c0,3.47.06,7.01.12,10.6l8.78,1.18Z"/>
            <path class="cls-36" d="m169.42,155.87c0,15.73-6.78,21.74-13.9,21.74s-13.96-6.01-13.96-21.74,6.72-21.92,13.96-21.92,13.9,6.19,13.9,21.92Zm-13.9,19.38c3.83,0,7.42-4.12,7.42-19.38s-3.59-19.5-7.42-19.5-7.48,4.12-7.48,19.5,3.48,19.38,7.48,19.38Z"/>
            <path class="cls-36" d="m200.29,155.87c0,15.73-6.78,21.74-13.9,21.74s-13.96-6.01-13.96-21.74,6.72-21.92,13.96-21.92,13.9,6.19,13.9,21.92Zm-13.9,19.38c3.83,0,7.42-4.12,7.42-19.38s-3.59-19.5-7.42-19.5-7.48,4.12-7.48,19.5,3.48,19.38,7.48,19.38Z"/>
            <path class="cls-36" d="m220.86,170.8c-.12.16-.43.34-.87.45v6.54c-.02.14-.99.57-1.68.57h-.32v-1.58h-7.53v1.09c0,.14-.61.59-1.58.59h-.34v-7.11c-1.72.85-3.62,1.56-5.69,2.09l-.16-.28c2.94-1.18,5.65-2.81,7.9-4.74-.24.02-.49-.04-.77-.2-.34-.99-1.32-2.15-2.21-2.98-1.32,1.03-2.75,1.9-4.23,2.53l-.18-.22c2.71-1.76,5.41-5,6.64-7.92l2.77.87c-.08.2-.24.3-.77.22-.32.49-.69.97-1.07,1.46h4.48l1.32-1.2,1.98,1.9c-.16.2-.38.26-.91.3-1.62,2.73-3.99,5.14-7.05,7.03l.14.06h7.09l.97-1.07,2.09,1.6Zm-10.61-8.04c-.65.71-1.36,1.4-2.13,2.04,2.69.59,3.46,1.98,3.26,2.86,1.6-1.5,2.92-3.16,3.83-4.9h-4.96Zm7.73,13.43v-5.33h-7.53v5.33h7.53Z"/>
            <path class="cls-36" d="m227.73,167.23c4.09,1.84,2.43,4.7,1.03,3.4-.08-.91-.55-2.02-1.03-2.88v10.08c0,.22-.77.57-1.44.57h-.38v-8.42c-.73,1.4-1.64,2.65-2.77,3.77l-.26-.26c1.48-2.31,2.37-5.33,2.85-8.36h-2.47l-.16-.59h2.81v-4.88l2.55.26c-.04.3-.2.51-.73.59v4.03h.38l.97-1.36s1.07.95,1.72,1.62c-.06.22-.26.32-.53.32h-2.55v2.11Zm13.87,3.56c-.12.2-.3.28-.75.16-.75.57-1.88,1.28-2.96,1.82,1.17,1.5,2.75,2.27,4.33,2.75l-.02.22c-.71.2-1.19.89-1.4,1.78-2.25-1.4-3.64-3.2-4.39-6.86v5.47c0,1.26-.28,2.11-2.41,2.29-.04-.53-.12-.95-.34-1.21-.26-.26-.65-.47-1.48-.59v-.28s1.62.12,1.98.12c.32,0,.41-.12.41-.38v-2.75c-.87.79-2.09,1.94-3.73,3.36-.04.26-.16.46-.36.57l-1.42-1.86c.95-.32,3.24-1.36,5.51-2.41v-4.01h-4.48l-.16-.59h4.64v-2.17h-3.6l-.16-.57h3.77v-1.96h-4.19l-.16-.59h6.16c.36-1.05.83-2.47,1.11-3.48l2.51.71c-.08.24-.3.41-.77.38-.59.67-1.52,1.62-2.37,2.39h1.86l1.05-1.3s1.19.89,1.9,1.56c-.06.22-.26.32-.53.32h-4.74v1.96h1.84l1.03-1.3s1.19.89,1.88,1.54c-.04.22-.22.32-.51.32h-4.25v2.17h2.59l1.05-1.38s1.19.95,1.92,1.64c-.06.22-.26.32-.55.32h-5.02v.53c.26,1.17.69,2.12,1.21,2.89.71-.91,1.52-2.19,1.9-2.96l2.07,1.36Zm-10.69-1.11c4.27,1.11,2.59,4.19,1.09,2.92-.02-.93-.67-2.09-1.3-2.77l.2-.14Zm1.01-9.98c4.31,1.2,2.61,4.35,1.03,3.06-.08-1.01-.67-2.19-1.23-2.94l.2-.12Z"/>
            <path class="cls-36" d="m249.63,169.3c-.4,1.09-1.21,3.08-1.42,3.83-.18.73-.28,1.2-.28,1.52,0,.67.4,1.34.4,1.9s-.28.91-.83.91c-.45,0-.85-.34-1.19-.83-.67-.93-1.21-2.63-1.21-4.74s.59-4.03.91-5.24c.26-.97.49-1.76.49-2.55.02-.85-.49-1.64-1.07-2.29l.26-.24c.55.16.93.34,1.34.65.55.38,1.56,1.42,1.56,2.43,0,.51-.28.91-.77,1.94-.65,1.28-1.42,3.12-1.42,4.94,0,.81.12,1.24.24,1.48.12.28.3.3.49.02.49-.73,1.56-2.92,2.07-3.93l.45.2Zm1.94,1.64c.12.49.3,1.17.55,1.62.75,1.32,1.76,1.92,4.27,1.92,2.11,0,2.92-.38,3.36-.38.73,0,1.48.3,1.48.93,0,1.07-1.98,1.34-4.31,1.34-3.54,0-5.18-1.4-5.61-3.62-.14-.61-.16-1.23-.12-1.74l.38-.06Zm.18-5.99c1.58-1.17,3.6-1.62,5.06-1.62,1.38,0,2.19.14,2.85.48.55.26.71.63.71.93,0,.41-.2.61-.67.69-.57.1-1.19.14-1.94.38-.91.34-2.29,1.07-3.34,1.7l-.3-.32c.89-.71,2.11-1.64,2.47-2.01.22-.24.28-.42-1.15-.42-.69,0-1.82.1-3.52.59l-.16-.4Z"/>
            <path class="cls-36" d="m144.95,199.38c-.18.21-.57.44-1.14.57v11.6c-.03.21-1.24.8-2.09.8h-.41v-1.73h-16.77l-.23-.75h17v-4.91h-15.68l-.23-.72h15.91v-4.78h-16.33l-.23-.75h8.4v-10.13l3.44.31c-.05.36-.26.62-.96.72v9.09h5.42l1.24-1.39,2.66,2.07Zm-19.81-9.22c7.29,2.92,5.19,8.21,2.71,6.25-.31-2.04-1.71-4.47-2.97-6.1l.26-.15Zm19.56,1.27c-.13.28-.46.46-1.06.41-1.6,2.07-3.51,4.08-5.35,5.43l-.31-.23c.98-1.73,2.33-4.55,3.26-7.1l3.46,1.5Z"/>
            <path class="cls-36" d="m158.36,194.81c1.24-.41,2.17-.85,2.92-1.24.46-.29.8-.49,1.03-.49.57,0,1.58.31,1.58,1.09,0,.62-.44.98-1.94,1.52-.67.29-2.48.88-4.21,1.29-.34,1.16-.72,2.45-1.14,3.64-1.06,3.15-2.69,7.59-3.75,9.43-.41.75-.75,1.19-1.52,1.19-.65,0-1.11-.72-1.11-1.55s.46-1.19,1.03-2.17c1.11-1.73,2.45-4.19,3.64-7.6.26-.75.54-1.63.77-2.51-.83.13-1.73.23-2.45.23-1.78,0-3-.52-3.82-3l.36-.26c1.24.96,1.99,1.32,3.15,1.34,1.14.03,2.3-.16,3.25-.34.31-1.29.52-2.46.57-3.18.03-.62-.08-.83-.52-1.11-.44-.26-.98-.44-1.55-.62l.03-.46c.62-.23,1.21-.36,1.91-.34,1.29.03,2.94.75,2.94,1.42,0,.57-.44,1.14-.9,2.69l-.28,1.01Zm1.24,9.56c.1.7.31,1.63.83,2.38.96,1.45,2.48,1.96,4.62,1.96,2.43,0,3.33-.49,3.95-.49.83,0,1.81.39,1.81,1.27,0,.62-.65,1.01-1.58,1.21-.8.18-1.94.34-3.59.34-3.54,0-5.86-1.29-6.35-3.93-.28-.9-.26-1.88-.21-2.69l.52-.05Zm1.16-5.45c1.29-.75,3.23-1.37,5.17-1.37,1.7,0,2.84.36,3.41.67.7.41,1.03.93,1.03,1.42,0,.59-.47.88-1.4.93-.47,0-.93.08-1.6.29-.98.21-2.14.67-3.05,1.03l-.28-.39c.83-.52,2.17-1.5,2.45-1.81.18-.15.1-.28-.1-.36-.59-.21-1.5-.31-2.25-.31-.96,0-2.07.16-3.23.36l-.16-.46Z"/>
            <path class="cls-36" d="m180.48,190.96c.39.78.9,1.55,1.58,1.55.98,0,3.93-.72,5.22-1.14.83-.26.85-.59,1.32-.59,1.03,0,2.82,1.39,2.82,2.33,0,.62-.77.77-1.65,1.45-1.55,1.11-4.83,4.08-5.89,5.22-.23.23-.1.44.13.34,1.01-.34,2.51-.88,4.39-.88,3.41,0,6.3,2.2,6.25,5.94-.03,3.36-3.02,6.1-8.16,6.1-2.97,0-5.09-1.27-5.09-3.33,0-1.58,1.4-2.66,3.23-2.66s3.85,1.09,4.37,3.62c2.35-.83,3.38-2.53,3.41-4.42.05-2.27-1.55-4.24-4.62-4.24-3.59,0-6.12,2.46-8.32,5.27-.52.7-.77.88-1.29.85-.46,0-.96-.57-.9-1.39.03-.62.36-1.09,1.11-1.81,3.18-3.23,8.29-8.09,9.51-9.87.36-.46.13-.62-.23-.57-.9.18-2.76,1.01-3.8,1.53-.49.26-.9.67-1.39.67-1.29,0-2.35-1.5-2.48-2.32-.08-.52-.03-1.01.1-1.58l.41-.05Zm6.48,18.34c-.34-1.86-1.47-2.92-2.92-2.92-.96,0-1.6.52-1.6,1.32,0,.96,1.14,1.65,3.33,1.65.41,0,.8-.03,1.19-.05Z"/>
            <path class="cls-36" d="m199.76,208.76c0-1.01.77-1.86,1.89-1.86s1.89.85,1.89,1.86-.8,1.86-1.89,1.86-1.89-.83-1.89-1.86Zm3.64-16.22c0,1.37-.21,3.56-.88,8.21l-.41,3.77h-.93l-.41-3.77c-.67-4.68-.88-6.85-.88-8.21s.72-2.07,1.76-2.07,1.76.65,1.76,2.07Z"/>
          </g>
        </g>
        <g>
          <path class="cls-1" d="m324.03,99.23c-18.38-40.38-52.44-72.25-94.45-88.03C210.95,4.21,190.75.37,169.66.37c-24.81,0-48.36,5.29-69.61,14.82C59.35,33.41,27.21,67.19,11.29,108.84,4.24,127.32.37,147.34.37,168.26c0,24.6,5.33,47.98,14.92,69.02,18.4,40.38,52.44,72.25,94.45,88.01,18.63,6.99,38.83,10.83,59.92,10.83,24.81,0,48.39-5.29,69.61-14.79,40.73-18.25,72.87-52,88.78-93.65,7.05-18.48,10.92-38.5,10.92-59.42,0-24.6-5.33-47.96-14.94-69.02Zm-74.2,142.98l-20.68,55.05-1-.36-54.54-20.15-53.9,24.42-.41-.89-24.22-52.53-55.52-20.51.36-.99,20.32-54.08-24.63-53.45.9-.41,52.98-24.02,20.68-55.05,1,.36,54.52,20.15,53.93-24.45.41.92,24.22,52.53,55.52,20.51-.36.99-20.32,54.08,24.63,53.45-.9.41-52.98,24.02Z"/>
          <polygon class="cls-28" points="165.69 59.77 128.06 76.82 89.49 94.3 110.17 39.26 111.17 39.61 165.69 59.77"/>
          <polygon class="cls-6" points="244.24 88.76 205.47 74.46 165.69 59.77 219.61 35.32 220.02 36.23 244.24 88.76"/>
          <polygon class="cls-30" points="299.76 109.27 299.4 110.26 279.08 164.34 261.88 127.04 244.24 88.76 299.76 109.27"/>
          <polygon class="cls-16" points="303.71 217.79 302.81 218.2 249.83 242.21 264.26 203.76 279.08 164.34 303.71 217.79"/>
          <polygon class="cls-25" points="249.83 242.21 229.15 297.26 228.15 296.9 173.61 276.75 211.23 259.7 249.83 242.21"/>
          <polygon class="cls-24" points="173.61 276.75 119.71 301.17 119.3 300.28 95.08 247.75 133.86 262.06 173.61 276.75"/>
          <polygon class="cls-19" points="95.08 247.75 39.56 227.24 39.92 226.25 60.25 172.17 77.44 209.48 95.08 247.75"/>
          <polygon class="cls-3" points="89.49 94.3 75.06 132.75 60.25 172.17 35.62 118.73 36.51 118.32 89.49 94.3"/>
          <line class="cls-14" x1="328.06" y1="227.67" x2="302.81" y2="218.2"/>
          <polyline class="cls-22" points="11.27 108.84 11.29 108.84 36.51 118.32"/>
          <line class="cls-13" x1="239.27" y1="321.32" x2="228.15" y2="296.9"/>
          <line class="cls-15" x1="111.17" y1="39.61" x2="100.05" y2="15.19"/>
          <polygon class="cls-27" points="279.08 164.34 264.26 203.76 249.83 242.21 211.23 259.7 173.61 276.75 133.86 262.06 95.08 247.75 77.44 209.48 60.25 172.17 75.06 132.75 89.49 94.3 128.06 76.82 165.69 59.77 205.47 74.46 244.24 88.76 261.88 127.04 279.08 164.34"/>
          <polyline class="cls-12" points="119.3 300.28 109.74 325.29 109.74 325.31"/>
          <line class="cls-2" x1="229.58" y1="11.2" x2="220.02" y2="36.23"/>
          <line class="cls-20" x1="39.92" y1="226.25" x2="15.29" y2="237.28"/>
          <line class="cls-18" x1="324.03" y1="99.23" x2="299.4" y2="110.26"/>
          <line class="cls-33" x1="45.76" y1="54.03" x2="36.51" y2="118.32"/>
          <line class="cls-26" x1="110.17" y1="39.26" x2="45.76" y2="54.03"/>
          <line class="cls-29" x1="1.77" y1="173.75" x2="36.51" y2="118.32"/>
          <line class="cls-4" x1="39.56" y1="227.24" x2="1.77" y2="173.75"/>
          <line class="cls-11" x1="55.63" y1="290.22" x2="39.56" y2="227.24"/>
          <line class="cls-34" x1="119.71" y1="301.17" x2="55.63" y2="290.22"/>
          <line class="cls-23" x1="176.77" y1="335.32" x2="119.71" y2="301.17"/>
          <line class="cls-17" x1="229.15" y1="297.26" x2="176.77" y2="335.32"/>
          <line class="cls-9" x1="294.08" y1="279.95" x2="228.15" y2="296.9"/>
          <line class="cls-31" x1="302.81" y1="218.2" x2="294.08" y2="279.95"/>
          <line class="cls-8" x1="337.24" y1="159.34" x2="302.81" y2="218.2"/>
          <line class="cls-32" x1="299.76" y1="109.27" x2="337.24" y2="159.34"/>
          <line class="cls-7" x1="220.02" y1="36.23" x2="282.97" y2="43.84"/>
          <line class="cls-10" x1="110.17" y1="39.26" x2="162.24" y2="1.13"/>
          <line class="cls-21" x1="299.4" y1="110.26" x2="282.97" y2="43.84"/>
          <line class="cls-5" x1="220.02" y1="36.23" x2="162.24" y2="1.04"/>
        </g>
      </g>
      <g>
        <path class="cls-35" d="m104.08,226.24l.22.25c-1.51,1.23-2.81,3.09-2.81,5.85s1.3,4.62,2.81,5.85l-.22.25c-1.79-1.12-3.55-2.96-3.55-6.1s1.75-4.98,3.55-6.1Z"/>
        <path class="cls-35" d="m115.75,228.34c-.1.12-.25.16-.6.17-.65.97-1.48,1.85-2.47,2.61,1.53.82,3.35,1.38,5.16,1.68v.16c-.47.09-.79.42-.94.94-.81-.21-1.57-.47-2.31-.78l1.17.88c-.08.09-.29.21-.53.26v3.67c-.01.08-.53.3-.9.3h-.17v-.91h-4.84v.68c0,.09-.47.34-.91.34h-.14v-4.86c-.85.3-1.74.54-2.69.74l-.1-.2c2.18-.69,4.2-1.71,5.79-2.98-.69-.64-1.29-1.37-1.74-2.21-.98,1.08-2.17,2.07-3.42,2.72l-.13-.16c1.6-1.18,3.21-3.3,3.99-5.11l1.57.43c-.06.13-.17.19-.52.15-.21.35-.46.7-.73,1.05h3.56l.78-.66,1.12,1.09Zm-1.17,4.76c-.95-.4-1.82-.88-2.6-1.47-.99.68-2.12,1.25-3.37,1.72l.79.35h4.64l.53-.6Zm-.42,3.84v-2.87h-4.84v2.87h4.84Zm-4.17-8.64c-.09.1-.18.21-.27.31.52.77,1.24,1.43,2.08,1.99.81-.7,1.48-1.48,2-2.3h-3.81Z"/>
        <path class="cls-35" d="m120.86,228.74v2.73c0,2.12-.13,4.95-2.15,6.85l-.18-.13c1.18-1.96,1.29-4.45,1.29-6.72v-3.6l1.22.49h3.35v-1.99l1.52.14c-.03.18-.14.31-.48.37v1.48h3.22l.68-.88s.79.61,1.25,1.05c-.03.14-.17.21-.34.21h-9.39Zm1.55,3.39c.53,1.78.17,3.05-.31,3.61-.31.39-.84.51-1.09.18-.19-.29-.05-.64.23-.87.49-.49,1-1.72.95-2.93h.22Zm5.93,4.85c.33.12.4.23.4.44,0,.46-.48.64-2.46.64h-1.3c-1.09,0-1.34-.23-1.34-1.01v-6.11l1.43.16c-.01.16-.13.29-.42.34v5.37c0,.23.06.3.53.3h1.16c.49,0,.9,0,1.07-.01.14-.01.21-.05.29-.18.1-.22.26-1,.44-1.81h.14l.05,1.89Zm-4.12-7.62c3.72.68,3.26,3.16,2.11,2.55-.33-.86-1.35-1.87-2.24-2.43l.13-.12Zm4,2.67c3.56,1.88,2.3,4.82,1.36,3.74-.09-.98-.45-2.6-1.49-3.63l.13-.12Z"/>
        <path class="cls-35" d="m139.8,233.74c.92.79,2.51,1.35,3.87,1.6v.14c-.38.08-.62.39-.74.86-.62-.23-1.22-.53-1.77-.9-.1.06-.22.1-.4.12-.14,1.26-.44,2.12-.95,2.44-.3.2-.77.31-1.29.31,0-.26-.05-.51-.23-.65-.17-.15-.64-.27-1.12-.35v-.21c.51.05,1.39.12,1.64.12.22,0,.34-.03.44-.09.21-.17.39-.78.52-1.7h-2.24c-.61,1.27-1.92,2.31-4.84,2.88l-.08-.18c2.21-.62,3.3-1.59,3.82-2.7h-2.16l-.06-.2c-.72.47-1.56.86-2.55,1.14l-.1-.17c1.39-.65,2.46-1.51,3.21-2.47h-3.02l-.12-.38h3.42c.21-.31.39-.62.56-.95h-.7v.18c0,.09-.46.3-.87.3h-.14v-4.11l1.09.46h5.16l.52-.54,1.12.84c-.08.09-.26.2-.49.23v2.74c-.01.09-.51.32-.86.32h-.17v-.43h-3.09l.12.03c-.05.14-.2.22-.56.23-.16.23-.33.47-.49.69h5.46l.64-.75s.74.52,1.18.92c-.03.14-.16.21-.34.21h-3.39Zm-8.06-5.65l-.08-.39h3.63v-1.34l1.47.14c-.03.18-.14.31-.47.35v.85h2.51v-1.34l1.49.14c-.03.18-.14.31-.47.35v.85h1.87l.65-.81s.73.59,1.16.99c-.04.14-.16.21-.34.21h-3.34v.75c0,.08-.35.25-.85.25h-.18v-1h-2.51v.8c0,.09-.43.25-.85.25h-.16v-1.05h-3.55Zm8.39,6.54c-.29-.27-.53-.57-.74-.88h-3.45c-.43.47-.91.92-1.48,1.33h2.13c.13-.38.21-.78.25-1.18l1.51.26c-.05.19-.2.29-.47.3-.05.21-.1.42-.18.62h1.99l.44-.44Zm-5.2-4.99v1h5.36v-1h-5.36Zm0,2.4h5.36v-1.01h-5.36v1.01Z"/>
        <path class="cls-35" d="m156.63,227.52c-.09.09-.29.21-.55.26v9.14c0,.79-.17,1.25-1.48,1.38-.04-.31-.1-.57-.27-.73-.19-.17-.51-.29-1.08-.38v-.2s1.26.09,1.53.09c.23,0,.3-.09.3-.29v-3.39h-2.33c-.18,1.83-.75,3.62-2.61,4.89l-.18-.14c1.01-1.05,1.48-2.3,1.7-3.67-.05.09-.16.13-.3.13h-6.77l-.1-.39h1.42v-5.44h-1.08l-.09-.38h1.17v-1.9l1.42.14c-.04.17-.14.29-.44.34v1.42h2.15v-1.91l1.46.16c-.04.18-.16.3-.47.35v1.4h.13l.51-.73s.58.53.9.9c-.03.14-.14.21-.31.21h-1.22v5.44h.14l.55-.78s.6.55.99.94c.13-.87.16-1.78.16-2.73v-4.91l1.16.48h1.95l.49-.61,1.18.91Zm-12.13,10.66c.75-.7,1.53-1.91,1.99-3.25l1.4.6c-.06.13-.23.23-.51.2-.7,1.2-1.69,2.09-2.72,2.61l-.17-.16Zm2.38-9.39v1.46h2.15v-1.46h-2.15Zm0,3.39h2.15v-1.56h-2.15v1.56Zm0,2.04h2.15v-1.66h-2.15v1.66Zm1.69.78c2.85.83,2.03,2.81,1.07,2.11-.13-.69-.72-1.52-1.21-2l.14-.1Zm6.51-1.98v-2.6h-2.26v1.21c0,.46-.01.92-.04,1.39h2.3Zm-2.26-5.45v2.48h2.26v-2.48h-2.26Z"/>
        <path class="cls-35" d="m159.34,230.9v7.02c0,.14-.35.4-.83.4h-.18v-11.58l1.08.51h2.31l.51-.56,1.08.83c-.08.08-.26.2-.48.23v3.48c-.01.08-.51.29-.83.29h-.16v-.62h-2.5Zm0-3.29v1.25h2.5v-1.25h-2.5Zm2.5,2.9v-1.27h-2.5v1.27h2.5Zm4.63,2.13c-.06.08-.26.18-.48.22v3.9c-.01.09-.49.34-.83.34h-.16v-.72h-2.9v.52c0,.1-.42.32-.81.32h-.16v-5.33l1.03.46h2.72l.51-.56,1.08.84Zm-4.37.08v1.4h2.9v-1.4h-2.9Zm2.9,3.28v-1.5h-2.9v1.5h2.9Zm4.39-8.45c-.08.09-.29.21-.55.25v9.12c0,.81-.16,1.28-1.51,1.4-.03-.32-.1-.58-.27-.75-.19-.16-.48-.29-1.07-.38v-.21s1.25.1,1.52.1c.23,0,.3-.09.3-.29v-5.9h-2.6v.27c0,.09-.44.31-.86.31h-.13v-4.71l1.04.47h2.42l.49-.64,1.21.94Zm-4.17.06v1.25h2.6v-1.25h-2.6Zm2.6,2.9v-1.27h-2.6v1.27h2.6Z"/>
        <path class="cls-35" d="m171.42,231.76c.47-.14.92-.21,1.44-.21,1.85,0,3.11,1.03,3.11,2.87s-1.31,3.04-3.33,3.04c-1.44,0-2.37-.66-2.65-1.98.12-.3.36-.46.68-.46.42,0,.6.21.77.9l.23.86c.3.09.57.13.87.13,1.42,0,2.18-.92,2.18-2.35s-.85-2.26-2.22-2.26c-.46,0-.92.05-1.38.18l-.36-.11.3-4.29h4.65v1.11h-4.11l-.18,2.56Z"/>
        <path class="cls-35" d="m183.13,232.69c0,3.51-1.47,4.77-2.96,4.77s-2.99-1.26-2.99-4.77,1.46-4.8,2.99-4.8,2.96,1.3,2.96,4.8Zm-2.96,4.22c.87,0,1.69-.88,1.69-4.22s-.82-4.24-1.69-4.24-1.73.88-1.73,4.24.82,4.22,1.73,4.22Z"/>
        <path class="cls-35" d="m195.01,233.42c-.09.1-.3.22-.57.27v4.24c-.01.09-.53.34-.9.34h-.17v-.98h-5.11v.69c0,.09-.34.35-.86.35h-.18v-4.63c-1.09.57-2.3,1.04-3.63,1.4l-.12-.18c1.89-.74,3.63-1.78,5.06-2.99-.12,0-.26-.03-.42-.12-.25-.64-.95-1.43-1.56-1.98-.82.65-1.73,1.22-2.67,1.62l-.12-.14c1.77-1.14,3.54-3.16,4.38-4.99l1.56.51c-.05.13-.16.2-.51.14-.2.31-.43.61-.68.92h3.07l.74-.66,1.13,1.08c-.1.13-.26.17-.61.18-1.04,1.75-2.55,3.33-4.52,4.56l.09.04h4.81l.56-.61,1.21.92Zm-6.81-5.12c-.4.46-.86.9-1.35,1.31,1.78.49,2.25,1.43,2.11,1.95,1.09-.99,1.99-2.09,2.61-3.26h-3.37Zm5.17,8.62v-3.43h-5.11v3.43h5.11Z"/>
        <path class="cls-35" d="m199.44,231.28c2.48,1.2,1.59,2.87.77,2.14-.09-.57-.44-1.3-.77-1.85v6.4c0,.12-.42.34-.79.34h-.21v-5.67c-.47.99-1.07,1.9-1.82,2.69l-.18-.17c.96-1.5,1.55-3.42,1.87-5.34h-1.64l-.1-.38h1.87v-3.09l1.47.16c-.04.2-.13.32-.47.38v2.56h.31l.6-.81s.68.57,1.08.98c-.04.14-.17.21-.34.21h-1.65v1.46Zm8.89,2.17c-.09.13-.19.18-.49.09-.47.38-1.21.86-1.91,1.25.77.99,1.81,1.52,2.86,1.86v.14c-.4.1-.68.47-.79.96-1.48-.86-2.48-1.97-3.02-4.28v3.51c0,.71-.16,1.22-1.38,1.34-.03-.3-.09-.53-.23-.68-.16-.16-.42-.27-.95-.35v-.18s1.07.08,1.3.08c.21,0,.27-.08.27-.25v-1.86c-.61.49-1.46,1.23-2.6,2.11-.01.17-.09.3-.21.37l-.81-1.03c.62-.25,2.12-.95,3.6-1.66v.03s.01-2.57.01-2.57h-2.99l-.1-.39h3.09v-1.39h-2.42l-.1-.39h2.52v-1.26h-2.81l-.1-.37h3.99c.26-.65.58-1.55.77-2.2l1.44.43c-.05.16-.21.26-.48.25-.36.43-.91,1.03-1.4,1.52h1.23l.64-.78s.71.55,1.14.95c-.04.14-.16.2-.33.2h-3.11v1.26h1.34l.62-.77s.7.54,1.14.95c-.04.14-.16.21-.34.21h-2.77v1.39h1.85l.62-.8s.74.57,1.17.99c-.04.14-.17.21-.34.21h-3.3v.43c.18.73.46,1.31.78,1.81.51-.6,1.09-1.4,1.37-1.9l1.21.79Zm-6.75-.66c2.56.77,1.65,2.57.78,1.87-.05-.61-.49-1.34-.92-1.78l.14-.09Zm.66-6.4c2.55.84,1.61,2.68.71,1.94-.05-.64-.47-1.38-.85-1.86l.13-.08Z"/>
        <path class="cls-35" d="m214.24,227.61c.26-.14.61-.32.98-.32.58,0,1.43.3,1.43.65,0,.32-.21.53-.22.87-.01.16-.03.39-.03.68,2.22-.23,2.87-.36,3.13-.36.52,0,1.25.27,1.25.75,0,.29-.16.38-.44.38-.47,0-1.42-.33-3.95-.11-.01.62-.01,1.34,0,1.99.38.4.55,1.03.55,1.77,0,2.47-1.91,3.91-4.51,4.47l-.16-.3c1.59-.59,2.89-1.48,3.38-2.74-1.29.53-2.31-.51-2.31-1.82,0-1,.69-1.88,1.75-1.88.19,0,.38.03.53.07-.01-.38-.03-.91-.07-1.47-1.3.14-2.59.43-3.33.62-.6.16-.84.38-1.22.38-.47,0-1.11-.61-1.25-1.01-.09-.23-.12-.56-.12-.82l.23-.09c.34.46.57.82,1.01.82.51.01,3.12-.35,4.64-.53-.03-.47-.06-.9-.09-1.21-.03-.25-.09-.32-.3-.39-.19-.07-.49-.11-.87-.13l-.03-.25Zm1.65,5.84c0-.79-.36-1.25-.92-1.25-.64,0-1.05.56-1.05,1.22,0,.7.44,1.2,1.04,1.2.64,0,.94-.32.94-1.17Zm1.74-6.66c.6.23,1.05.48,1.39.79.31.29.42.52.42.78,0,.23-.14.36-.36.36-.21,0-.35-.27-.58-.59-.26-.34-.51-.7-1.03-1.14l.17-.21Zm1.48-.48c.62.23,1.07.4,1.42.71.31.29.42.52.42.78,0,.22-.16.37-.36.37-.19,0-.35-.25-.6-.57-.26-.33-.48-.65-1.03-1.08l.16-.21Z"/>
        <path class="cls-35" d="m222.28,230.87c.25.29.57.51.86.51.23,0,.44-.04,1.05-.37,1.33-.64,3.31-1.81,5.3-1.81,2.38,0,3.68,1.51,3.68,3.16s-1.03,2.78-2.42,3.46c-1.22.61-3.22.86-5.21.75l-.03-.35c1.75-.13,3.15-.35,4.47-1.04,1.37-.68,2.07-1.62,2.07-3s-.96-2.4-2.57-2.4-3.43,1.31-4.33,1.92c-.9.59-1.22.95-1.64.95s-1.04-.47-1.25-.87c-.13-.25-.14-.53-.18-.81l.2-.1Z"/>
        <path class="cls-35" d="m235.27,226.24c1.79,1.12,3.55,2.96,3.55,6.1s-1.75,4.98-3.55,6.1l-.22-.25c1.51-1.24,2.81-3.1,2.81-5.85s-1.3-4.62-2.81-5.85l.22-.25Z"/>
      </g>
    </g>
  </g>
</svg>