<?xml version="1.0" encoding="UTF-8"?>
<svg id="_レイヤー_2" data-name="レイヤー 2" xmlns="http://www.w3.org/2000/svg" viewBox="0 0 833.49 138.28">
  <defs>
    <style>
      .cls-1 {
        fill: #ea5532;
      }

      .cls-2 {
        stroke-width: 1.69px;
      }

      .cls-2, .cls-3, .cls-4, .cls-5 {
        fill: none;
        stroke: #ea5532;
        stroke-miterlimit: 10;
      }

      .cls-3 {
        stroke-width: .74px;
      }

      .cls-4 {
        stroke-width: .69px;
      }

      .cls-5 {
        stroke-width: .95px;
      }
    </style>
  </defs>
  <g id="_文字" data-name="文字">
    <g>
      <path class="cls-1" d="m5.03,22.33c0,4.33-.24,10.15-4.69,14l-.34-.24c2.36-4.04,2.54-9.15,2.54-13.74v-7.34l2.91,1.1h6.32v-4.06l3.46.32c-.05.37-.29.63-.97.73v3.01h6.03l1.49-1.97s1.68,1.36,2.7,2.31c-.08.29-.34.42-.73.42H5.03v5.45Zm2.91,1.31c1.23,3.62.55,6.24-.47,7.45-.68.84-1.91.97-2.44.21-.39-.71-.08-1.47.55-1.99,1.02-.92,2.04-3.3,1.97-5.66h.39Zm11.9,9.59c.71.29.89.58.89,1.05,0,1.05-1.02,1.49-5.01,1.49h-2.54c-2.31,0-2.83-.5-2.83-2.28v-12.32l3.25.34c-.05.31-.29.58-.86.68v10.67c0,.47.16.6,1,.6h2.2c.87,0,1.6,0,1.94-.03.29-.03.42-.1.58-.37.24-.45.63-1.99,1.02-3.64h.26l.1,3.8Zm-8.39-15.13c7.97.94,6.89,6.45,4.25,5.14-.68-1.78-2.75-3.8-4.48-4.93l.24-.21Zm8.13,5.35c7.71,3.85,4.59,10.09,2.54,7.6-.13-1.99-.79-5.27-2.78-7.37l.24-.24Z"/>
      <path class="cls-1" d="m42.94,26.97c1.91,1.49,5.19,2.49,7.94,2.91l-.03.31c-.87.21-1.42.94-1.65,2.02-1.21-.45-2.33-.97-3.38-1.62-.18.08-.42.16-.76.21-.31,2.52-.92,4.22-1.97,4.88-.68.39-1.6.63-2.75.63,0-.6-.1-1.18-.47-1.49-.39-.34-1.31-.63-2.28-.79v-.42c1,.1,2.78.21,3.28.21.45,0,.66-.03.86-.16.42-.29.76-1.47,1-3.2h-4.17c-1.26,2.59-4.01,4.72-10.07,5.87l-.16-.37c4.43-1.31,6.58-3.28,7.6-5.5h-4.06l-.13-.39c-1.47.92-3.22,1.7-5.27,2.23l-.21-.31c2.8-1.34,4.93-3.09,6.42-5.01h-6l-.21-.76h6.79c.42-.63.79-1.26,1.1-1.91h-.94v.29c0,.21-1.1.73-2.12.73h-.31v-8.44l2.6,1.05h9.83l1.18-1.26,2.49,1.89c-.16.18-.5.39-.97.5v5.4c-.03.18-1.21.71-2.04.71h-.42v-.87h-6.03l.55.13c-.1.29-.39.45-1.21.45-.29.45-.63.89-.97,1.34h10.59l1.42-1.65s1.6,1.13,2.57,1.99c-.05.29-.34.42-.71.42h-6.92Zm-16.25-11.46l-.18-.76h7.18v-2.73l3.3.29c-.05.37-.26.63-.94.71v1.73h4.77v-2.73l3.36.29c-.03.37-.26.63-.94.71v1.73h3.41l1.39-1.73s1.57,1.21,2.49,2.07c-.08.29-.34.42-.71.42h-6.58v1.49c0,.18-.87.52-2.02.52h-.39v-2.02h-4.77v1.6c0,.21-.97.52-1.99.52h-.37v-2.12h-7Zm16.83,13.24c-.55-.55-1.05-1.13-1.44-1.78h-6.71c-.86,1-1.89,1.91-3.07,2.73h3.96c.26-.79.42-1.6.5-2.44l3.46.6c-.1.39-.42.6-.97.6-.1.42-.21.84-.37,1.23h3.67l.97-.94Zm-10.09-10.07v2.04h10.22v-2.04h-10.22Zm0,4.85h10.22v-2.07h-10.22v2.07Z"/>
      <path class="cls-1" d="m52.35,36.07c1.52-1.52,3.07-4.06,3.96-6.87l3.2,1.36c-.13.29-.5.47-1.07.42-1.47,2.49-3.57,4.3-5.74,5.37l-.34-.29Zm24.64-21.6c-.18.21-.58.45-1.1.55v18.19c0,1.76-.34,2.78-3.28,3.07-.08-.76-.24-1.36-.55-1.73-.39-.39-.97-.66-2.15-.84v-.39s2.49.16,3.01.16c.45,0,.58-.16.58-.55v-6.61h-4.3c-.37,3.72-1.63,7.34-5.64,9.94l-.34-.26c2.02-2.15,2.99-4.64,3.46-7.37-.1.03-.24.05-.37.05h-13.74l-.21-.73h2.67v-10.96h-2.02l-.21-.76h2.23v-3.91l3.17.34c-.05.31-.26.55-.86.66v2.91h3.91v-3.91l3.3.34c-.08.34-.29.6-.92.71v2.86h.13l1.02-1.6s1.21,1.15,1.89,1.94c-.05.29-.31.42-.66.42h-2.39v10.96h.1l1.15-1.76s1.1,1.02,1.86,1.86c.26-1.73.31-3.54.31-5.37v-9.88l2.67,1.05h3.49l1.15-1.36,2.6,1.99Zm-19.63,2.52v2.91h3.91v-2.91h-3.91Zm0,6.82h3.91v-3.15h-3.91v3.15Zm0,4.14h3.91v-3.38h-3.91v3.38Zm3.15,1.47c6.19,1.57,4.19,5.95,1.99,4.33-.24-1.44-1.31-3.12-2.25-4.14l.26-.18Zm13-3.85v-5.22h-4.14v2.31c0,.97-.03,1.94-.08,2.91h4.22Zm-4.14-10.96v4.98h4.14v-4.98h-4.14Z"/>
      <path class="cls-1" d="m82.65,21.18v14.21c0,.34-.89.94-2.04.94h-.42V12.74l2.57,1.13h4.25l1.1-1.21,2.44,1.81c-.16.18-.52.39-1,.47v6.95c-.03.16-1.18.66-1.94.66h-.37v-1.36h-4.59Zm0-6.55v2.52h4.59v-2.52h-4.59Zm4.59,5.82v-2.59h-4.59v2.59h4.59Zm8.6,12.56c-.03.21-1.18.73-1.97.73h-.37v-1.49h-5.32v1.05c0,.24-.97.73-1.94.73h-.34v-10.83l2.39,1.02h4.95l1.15-1.23,2.41,1.81c-.16.21-.52.42-.97.5v7.71Zm-7.65-8.05v2.83h5.32v-2.83h-5.32Zm5.32,6.55v-2.99h-5.32v2.99h5.32Zm9.23-17.01c-.18.21-.58.45-1.07.55v18.14c0,1.81-.37,2.86-3.33,3.12-.08-.76-.21-1.39-.52-1.78-.39-.37-.94-.66-2.12-.86v-.39s2.41.18,2.91.18c.47,0,.58-.18.58-.55v-11.72h-4.77v.52c0,.24-1.02.79-2.02.79h-.34v-9.65l2.49,1.02h4.38l1.18-1.39,2.65,2.02Zm-8.34.13v2.52h4.77v-2.52h-4.77Zm4.77,5.82v-2.59h-4.77v2.59h4.77Z"/>
    </g>
    <polyline class="cls-3" points="118.68 14.87 127.77 23.96 118.68 33.04"/>
    <g>
      <path class="cls-1" d="m227.2,24.73c-.05.23-.28.32-.79.37,1.63,2.15,4.69,3.57,7.61,4.52l-.02.26c-.77.19-1.26.88-1.4,1.51-2.8-1.35-5.3-3.43-6.51-6.09-1.7,2.61-5.32,5.43-8.79,6.84l-.12-.23c3.05-1.75,6.48-5.34,7.33-7.84l2.68.67Zm3.19,7.16l1.94,1.42c-.12.16-.4.33-.79.4v3.41c0,1.12-.3,1.86-2.5,2.05-.07-.56-.16-.96-.46-1.23-.3-.26-.7-.46-1.65-.59v-.25s2.01.14,2.42.14c.32,0,.39-.1.39-.37v-3.52h-4.18v6.65c0,.09-.56.38-1.47.38h-.3v-7.04h-4.46l-.16-.51h10.38l.84-.96Zm-2.7-3.04s1.1.8,1.79,1.38c-.03.19-.23.28-.47.28h-7.05l-.14-.49h4.92l.96-1.17Z"/>
      <path class="cls-1" d="m241.9,28.64s1.02.86,1.61,1.45c-.05.18-.23.26-.46.26h-2.89v1.35c4.25,1.44,3.01,4.18,1.59,3.13-.21-.89-.93-1.96-1.59-2.75v7.84c-.02.12-.56.49-1.35.49h-.3v-6.93c-.88,1.56-2.01,2.94-3.43,4.11l-.21-.21c1.49-1.91,2.56-4.52,3.17-7.04h-2.78l-.14-.49h3.4v-3.12c-1.08.21-2.21.37-3.27.47l-.07-.26c2.19-.65,4.9-1.84,6.27-2.7l1.86,1.59c-.18.18-.53.18-1.02.02-.59.19-1.33.37-2.12.54v3.45h.84l.89-1.22Zm9.47-1.35c-.12.16-.4.3-.75.38v11.5c-.03.12-.84.47-1.42.47h-.26v-1.49h-3.57v1.14c0,.21-.63.61-1.37.61h-.28v-13.83l1.73.77h3.31l.84-.98,1.77,1.42Zm-2.43,10.36v-10.29h-3.57v10.29h3.57Z"/>
      <path class="cls-1" d="m254.64,31.52c.67-.21,1.31-.3,2.07-.3,2.61,0,4.32,1.38,4.32,3.85s-1.87,4.11-4.64,4.11c-2.07,0-3.38-.98-3.69-2.77.16-.44.52-.65.95-.65.58,0,.88.32,1.08,1.24l.3,1.31c.37.1.72.16,1.14.16,1.84,0,2.91-1.23,2.91-3.19s-1.12-3.08-2.89-3.08c-.67,0-1.29.07-1.91.26l-.51-.19.4-5.81h6.48v1.64h-5.78l-.23,3.4Z"/>
      <path class="cls-1" d="m276.73,34.05s1.23.93,1.98,1.56c-.05.19-.24.28-.49.28h-5.78v4.03c0,.12-.56.49-1.49.49h-.32v-4.51h-8.03l-.16-.51h3.03v-5.43l1.98.75h3.19v-3.34h-3.57c-1.31,1.79-2.85,3.18-4.48,4.17l-.21-.17c1.61-1.68,3.34-4.52,4.36-7.46l2.43.95c-.09.21-.32.35-.72.31-.32.6-.67,1.16-1.03,1.7h7.74l1.07-1.35s1.19.88,1.94,1.58c-.03.19-.21.28-.46.28h-5.27v3.34h2.33l.98-1.24s1.16.86,1.86,1.47c-.03.19-.23.28-.47.28h-4.69v4.17h3.2l1.09-1.33Zm-6.09,1.33v-4.17h-3.41v4.17h3.41Z"/>
    </g>
    <g>
      <path class="cls-1" d="m508.74,27.22c-.17.19-.52.41-1,.48v16.08c0,1.67-.36,2.67-3.41,2.95-.07-.74-.24-1.31-.64-1.67-.43-.38-1.1-.64-2.43-.86v-.36s2.98.21,3.55.21c.48,0,.6-.19.6-.57v-5.38h-8.65c-.55,3.31-2.12,6.43-6.41,8.65l-.26-.26c4.03-3.33,4.64-7.62,4.64-12.41v-8.46l2.69,1h7.74l1.12-1.31,2.45,1.91Zm-3.33,10.19v-4.79h-8.38v1.43c0,1.12-.05,2.24-.17,3.36h8.55Zm-8.38-10.1v4.64h8.38v-4.64h-8.38Z"/>
      <circle class="cls-5" cx="501.41" cy="36.13" r="19.06"/>
    </g>
    <g>
      <path class="cls-1" d="m292.75,50.82c11.97-4.07,17.7-10.49,19.29-20.41-2.36,2.1-5.47,3.24-9.17,3.24-7.77,0-13.75-5.09-13.75-13.73.06-9.03,6.62-14.56,15.21-14.56,9.55,0,15.28,7.12,15.28,18.57,0,13.67-8.72,24.92-26.42,28.93l-.45-2.03Zm19.61-23.08c.06-1.14.13-2.35.13-3.56,0-11.51-3.37-16.21-8.28-16.21-4.39,0-8.08,3.62-8.08,11.06s3.88,11.25,9.23,11.25c2.74,0,4.97-.83,7-2.54Z"/>
      <path class="cls-1" d="m358.92,19.55c-.31.35-.96.74-1.83.87v29.4c0,3.05-.65,4.88-6.24,5.4-.13-1.35-.44-2.39-1.18-3.05-.79-.7-2.01-1.18-4.45-1.57v-.65s5.45.39,6.5.39c.87,0,1.09-.35,1.09-1.04v-9.84h-15.84c-1,6.05-3.88,11.76-11.73,15.81l-.48-.48c7.37-6.1,8.51-13.94,8.51-22.69v-15.46l4.93,1.83h14.18l2.05-2.39,4.49,3.48Zm-6.11,18.64v-8.75h-15.36v2.61c0,2.05-.09,4.09-.31,6.14h15.66Zm-15.36-18.46v8.49h15.36v-8.49h-15.36Z"/>
      <path class="cls-1" d="m378.26,12.92c-.64,2.92-1.85,4.07-4.01,4.07-1.4,0-2.67-.57-3.31-2.23.95-6.49,6.75-9.41,13.43-9.41,8.59,0,13.56,4.58,13.56,11.06,0,5.28-3.37,9.47-10.31,11.32,8.21,1.33,11.71,5.66,11.71,11.57,0,7.63-6.3,13.16-15.98,13.16-7.64,0-12.8-3.24-13.81-10.11.7-1.59,1.85-2.29,3.44-2.29,2.16,0,3.12,1.27,3.95,4.71l1.15,4.71c1.27.32,2.48.45,3.69.45,6.88,0,10.5-3.75,10.5-10.36s-3.63-10.3-10.69-10.3h-3.12v-2.8h2.61c6.11,0,10.06-3.43,10.06-9.86,0-5.53-3.12-8.65-8.47-8.65-.95,0-2.04.06-3.18.32l-1.21,4.64Z"/>
      <path class="cls-1" d="m435.36,29.01c0,16.98-7.32,23.46-15.02,23.46s-15.09-6.49-15.09-23.46,7.26-23.65,15.09-23.65,15.02,6.68,15.02,23.65Zm-15.02,20.92c4.14,0,8.02-4.45,8.02-20.92s-3.88-21.05-8.02-21.05-8.08,4.45-8.08,21.05,3.76,20.92,8.08,20.92Z"/>
      <path class="cls-1" d="m475.71,20.38c-.31.35-.92.7-1.79.92v31.92c-.09.35-2.14,1.39-3.75,1.39h-.7v-3.79h-18.58v2.48c0,.57-1.66,1.61-3.53,1.61h-.74V17.33l4.62,1.92h17.8l2.22-2.4,4.45,3.53Zm-24.82.13v13.63h18.58v-13.63h-18.58Zm18.58,29.05v-14.15h-18.58v14.15h18.58Z"/>
    </g>
    <g>
      <path class="cls-1" d="m540.89,18.2c.96-.52,2.14-1,3.58-1,2.4,0,5.28,1.26,5.28,2.7,0,.87-.61,1.35-.87,2.44-.13.57-.26,1.26-.39,2.13,2.36-.44,4.28-.91,5.45-1.31,1.57-.48,2.22-.96,2.66-.96,1.13,0,3.14.48,3.14,1.79,0,1.04-.74,1.44-1.83,1.83-1.57.57-5.23,1.48-9.77,2.09-.09,1.61-.17,3.4-.17,5.36,1.88-.3,3.66-.74,5.23-1.22,1.7-.52,2.4-.96,2.79-.96,1.44,0,2.88.43,2.88,1.65,0,.96-.65,1.48-1.57,1.87-1.48.57-5.06,1.35-9.25,1.87.09,2.48.35,4.57.52,6.45,5.15,1,8.59,3.14,9.9,4.22,1.22.96,2.01,1.96,2.01,3.13s-.7,1.83-1.61,1.83-1.44-.48-2.4-1.31c-2.18-2-4.67-3.66-7.59-4.75.04.57.04,1.13.04,1.7,0,3.61-3.1,5.83-8.11,5.83-4.67,0-8.03-2-8.03-5.53s4.49-5.66,10.16-5.66c.83,0,1.61.04,2.4.09-.09-1.65-.17-3.61-.26-5.71-1.66.13-3.4.22-5.06.22-5.98,0-9.25-3.35-4.14-7.71l.74.48c-2.27,3.18-.79,4.18,3.18,4.18,1.75,0,3.49-.09,5.19-.26v-1.92c0-1.13,0-2.31.04-3.48-1.88.17-3.84.26-5.8.26-4.19,0-6.98-1.09-9.16-5.23l.65-.48c2.18,1.66,3.8,2.66,7.59,2.66,2.22,0,4.58-.22,6.76-.48.04-1.87.09-3.31.09-3.83,0-.87-.26-1.18-.96-1.48-.92-.35-1.83-.52-3.23-.78l-.09-.74Zm4.49,26.91c-1.31-.26-2.7-.39-4.14-.39-3.88,0-6.5,1.48-6.5,3.14,0,1.48,1.61,2.57,4.19,2.57,4.71,0,6.46-1.31,6.46-5.31Z"/>
      <path class="cls-1" d="m570.46,23.65c.7,1.13,1.74,2.22,2.79,2.22,2.49,0,9.73-2.05,17.19-3.79,4.8-1.18,8.86-2.05,10.3-2.05,1.22,0,2.49.17,3.45.61,1.05.48,1.75,1.13,1.75,2.09,0,.87-.79,1.57-1.96,1.57-1.05,0-2.4-.13-3.84-.13-2.01,0-4.84.22-7.11,1.74-1.75,1.13-5.71,4.92-5.71,12.85,0,4.92,2.09,6.71,3.75,7.67,2.62,1.44,6.33,1.22,7.77,1.22,1.31,0,3.01,1.13,3.01,2.53,0,1.61-1.75,2.05-3.75,2.05-3.01,0-6.67-.31-9.51-2.26-2.88-1.96-4.62-4.79-4.62-10.06,0-5.75,2.36-11.32,7.29-14.89.35-.26.31-.52-.17-.39-5.02,1.18-11.12,3.27-13.74,4.66-.92.48-1.79,1.35-2.88,1.35-1.88,0-4.49-2.48-4.76-4.31-.13-.87.04-1.74.13-2.44l.65-.22Zm27.13,6.01c2.31.78,4.23,1.7,5.45,2.83.96.91,1.35,1.7,1.31,2.53,0,.83-.52,1.39-1.35,1.39-.65,0-1.18-.78-1.96-1.87-.87-1.13-2.01-2.61-3.97-4.22l.52-.65Zm3.88-2.87c2.36.65,4.23,1.44,5.37,2.31,1.13.92,1.57,1.74,1.57,2.7,0,.87-.48,1.35-1.26,1.35s-1.27-.78-2.14-1.87c-.87-1.04-1.88-2.22-4.01-3.79l.48-.7Z"/>
    </g>
    <path class="cls-1" d="m511.93,101.28c-.17.19-.5.38-.98.5v17.46c-.05.19-1.17.76-2.05.76h-.38v-2.07h-10.15v1.36c0,.31-.91.88-1.93.88h-.41v-20.56l2.52,1.05h9.72l1.21-1.31,2.43,1.93Zm-13.55.07v7.46h10.15v-7.46h-10.15Zm10.15,15.89v-7.74h-10.15v7.74h10.15Z"/>
    <circle class="cls-5" cx="503.86" cy="109.73" r="19.06"/>
    <g>
      <line class="cls-2" x1="531.39" y1="97.8" x2="582.83" y2="97.8"/>
      <path class="cls-1" d="m587.93,97.8c-2.4.89-5.37,2.41-7.22,4.02l1.45-4.02-1.45-4.02c1.84,1.61,4.82,3.13,7.22,4.02Z"/>
    </g>
    <g>
      <path class="cls-1" d="m226.39,98.34c-.05.23-.28.32-.79.37,1.63,2.15,4.69,3.57,7.61,4.52l-.02.26c-.77.19-1.26.88-1.4,1.51-2.8-1.35-5.3-3.43-6.51-6.09-1.7,2.61-5.32,5.43-8.79,6.84l-.12-.23c3.05-1.75,6.48-5.34,7.33-7.84l2.68.67Zm3.19,7.16l1.94,1.42c-.12.16-.4.33-.79.4v3.41c0,1.12-.3,1.86-2.5,2.05-.07-.56-.16-.96-.46-1.23-.3-.26-.7-.46-1.65-.59v-.25s2.01.14,2.42.14c.32,0,.39-.11.39-.37v-3.52h-4.18v6.65c0,.09-.56.38-1.47.38h-.3v-7.04h-4.46l-.16-.51h10.38l.84-.96Zm-2.7-3.04s1.1.8,1.79,1.38c-.03.19-.23.28-.47.28h-7.05l-.14-.49h4.92l.96-1.17Z"/>
      <path class="cls-1" d="m241.09,102.25s1.02.86,1.61,1.45c-.05.18-.23.26-.46.26h-2.89v1.35c4.25,1.44,3.01,4.18,1.59,3.13-.21-.89-.93-1.96-1.59-2.75v7.84c-.02.12-.56.49-1.35.49h-.3v-6.93c-.88,1.56-2.01,2.94-3.43,4.11l-.21-.21c1.49-1.91,2.56-4.52,3.17-7.04h-2.78l-.14-.49h3.4v-3.12c-1.08.21-2.21.37-3.27.47l-.07-.26c2.19-.65,4.9-1.84,6.27-2.7l1.86,1.59c-.18.18-.53.18-1.02.02-.59.19-1.33.37-2.12.54v3.45h.84l.89-1.22Zm9.47-1.35c-.12.16-.4.3-.75.38v11.5c-.03.12-.84.47-1.42.47h-.26v-1.49h-3.57v1.14c0,.21-.63.61-1.37.61h-.28v-13.83l1.73.77h3.31l.84-.98,1.77,1.42Zm-2.43,10.36v-10.29h-3.57v10.29h3.57Z"/>
      <path class="cls-1" d="m253.83,105.13c.67-.21,1.31-.3,2.07-.3,2.61,0,4.32,1.38,4.32,3.85s-1.87,4.11-4.64,4.11c-2.07,0-3.38-.98-3.69-2.77.16-.44.52-.65.95-.65.58,0,.88.32,1.08,1.24l.3,1.31c.37.1.72.16,1.14.16,1.84,0,2.91-1.23,2.91-3.19s-1.12-3.08-2.89-3.08c-.67,0-1.29.07-1.91.26l-.51-.19.4-5.81h6.48v1.64h-5.78l-.23,3.4Z"/>
      <path class="cls-1" d="m275.91,107.65s1.23.93,1.98,1.56c-.05.19-.24.28-.49.28h-5.78v4.03c0,.12-.56.49-1.49.49h-.32v-4.51h-8.03l-.16-.51h3.03v-5.43l1.98.75h3.19v-3.34h-3.57c-1.31,1.79-2.85,3.18-4.48,4.17l-.21-.17c1.61-1.68,3.34-4.52,4.36-7.46l2.43.95c-.09.21-.32.35-.72.31-.32.6-.67,1.16-1.03,1.7h7.74l1.07-1.35s1.19.88,1.94,1.58c-.03.19-.21.28-.46.28h-5.27v3.34h2.33l.98-1.24s1.16.86,1.86,1.47c-.03.19-.23.28-.47.28h-4.69v4.17h3.2l1.09-1.33Zm-6.09,1.33v-4.17h-3.41v4.17h3.41Z"/>
    </g>
    <g>
      <path class="cls-1" d="m539.99,109.78c-.05.23-.28.32-.79.37,1.63,2.15,4.69,3.57,7.61,4.52l-.02.26c-.77.19-1.26.88-1.4,1.51-2.8-1.35-5.3-3.43-6.51-6.09-1.7,2.61-5.32,5.43-8.79,6.84l-.12-.23c3.05-1.75,6.48-5.34,7.33-7.84l2.68.67Zm3.19,7.16l1.94,1.42c-.12.16-.4.33-.79.4v3.41c0,1.12-.3,1.86-2.5,2.05-.07-.56-.16-.96-.46-1.23-.3-.26-.7-.46-1.65-.59v-.25s2.01.14,2.42.14c.32,0,.39-.1.39-.37v-3.52h-4.18v6.65c0,.09-.56.38-1.47.38h-.3v-7.04h-4.46l-.16-.51h10.38l.84-.96Zm-2.7-3.04s1.1.8,1.79,1.38c-.03.19-.23.28-.47.28h-7.05l-.14-.49h4.92l.96-1.17Z"/>
      <path class="cls-1" d="m554.69,113.68s1.02.86,1.61,1.45c-.05.18-.23.26-.46.26h-2.89v1.35c4.25,1.44,3.01,4.18,1.59,3.13-.21-.89-.93-1.96-1.59-2.75v7.84c-.02.12-.56.49-1.35.49h-.3v-6.93c-.88,1.56-2.01,2.94-3.43,4.11l-.21-.21c1.49-1.91,2.56-4.52,3.17-7.04h-2.78l-.14-.49h3.4v-3.12c-1.08.21-2.21.37-3.27.47l-.07-.26c2.19-.65,4.9-1.84,6.27-2.7l1.86,1.59c-.18.18-.53.18-1.02.02-.59.19-1.33.37-2.12.54v3.45h.84l.89-1.22Zm9.47-1.35c-.12.16-.4.3-.75.38v11.5c-.03.12-.84.47-1.42.47h-.26v-1.49h-3.57v1.14c0,.21-.63.61-1.37.61h-.28v-13.83l1.73.77h3.31l.84-.98,1.77,1.42Zm-2.43,10.36v-10.29h-3.57v10.29h3.57Z"/>
      <path class="cls-1" d="m573.26,111.76c-3.55.82-5.41,2.8-5.76,5.78.79-.79,1.79-1.23,2.87-1.23,2.12,0,3.5,1.54,3.5,3.82,0,2.56-1.65,4.11-4.06,4.11-2.68,0-4.32-1.98-4.32-5.36,0-3.85,2.87-7.07,7.67-7.61l.1.49Zm-1.31,8.56c0-2.03-.84-2.97-2.19-2.97-.77,0-1.59.21-2.31.86-.02.14-.02.28-.02.42,0,3.33.93,4.92,2.4,4.92,1.24,0,2.12-1.03,2.12-3.22Z"/>
      <path class="cls-1" d="m589.51,119.09s1.23.93,1.98,1.56c-.05.19-.25.28-.49.28h-5.78v4.03c0,.12-.56.49-1.49.49h-.32v-4.51h-8.03l-.16-.51h3.03v-5.43l1.98.75h3.19v-3.34h-3.57c-1.31,1.79-2.85,3.18-4.48,4.17l-.21-.17c1.61-1.68,3.34-4.52,4.36-7.46l2.43.95c-.09.21-.32.35-.72.31-.32.6-.67,1.16-1.03,1.7h7.74l1.07-1.35s1.19.88,1.94,1.58c-.04.19-.21.28-.46.28h-5.27v3.34h2.33l.98-1.24s1.16.86,1.86,1.47c-.04.19-.23.28-.47.28h-4.69v4.17h3.2l1.09-1.33Zm-6.09,1.33v-4.17h-3.41v4.17h3.41Z"/>
    </g>
    <g>
      <path class="cls-1" d="m318.14,123.48v2.05h-26.51v-2.05l9.86-1.28c.06-3.84.13-7.75.13-11.53v-26.06l-8.97.96v-2.43l15.11-3.71.9.7-.19,10.12v20.43c0,3.78.06,7.62.13,11.53l9.54,1.28Z"/>
      <path class="cls-1" d="m355.67,102.86c0,17.1-7.36,23.63-15.11,23.63s-15.18-6.53-15.18-23.63,7.3-23.82,15.18-23.82,15.11,6.72,15.11,23.82Zm-15.11,21.07c4.16,0,8.07-4.48,8.07-21.07s-3.91-21.2-8.07-21.2-8.13,4.48-8.13,21.2,3.78,21.07,8.13,21.07Z"/>
      <path class="cls-1" d="m394.88,93.33c-.31.35-.97.75-1.84.88v29.61c0,3.07-.66,4.91-6.27,5.44-.13-1.36-.44-2.41-1.18-3.07-.79-.7-2.02-1.18-4.47-1.58v-.66s5.48.39,6.54.39c.88,0,1.1-.35,1.1-1.05v-9.91h-15.92c-1.01,6.1-3.9,11.84-11.8,15.92l-.48-.48c7.41-6.14,8.55-14.04,8.55-22.86v-15.57l4.96,1.84h14.26l2.06-2.41,4.52,3.51Zm-6.14,18.78v-8.82h-15.44v2.63c0,2.06-.09,4.12-.31,6.19h15.75Zm-15.44-18.6v8.55h15.44v-8.55h-15.44Z"/>
      <path class="cls-1" d="m434.26,123.48v2.05h-26.51v-2.05l9.86-1.28c.06-3.84.13-7.75.13-11.53v-26.06l-8.97.96v-2.43l15.11-3.71.9.7-.19,10.12v20.43c0,3.78.06,7.62.13,11.53l9.54,1.28Z"/>
      <path class="cls-1" d="m476.24,94.17c-.31.35-.92.7-1.8.92v32.16c-.09.35-2.15,1.4-3.77,1.4h-.7v-3.82h-18.69v2.5c0,.57-1.67,1.62-3.55,1.62h-.75v-37.86l4.65,1.93h17.9l2.24-2.41,4.47,3.55Zm-24.96.13v13.73h18.69v-13.73h-18.69Zm18.69,29.26v-14.26h-18.69v14.26h18.69Z"/>
    </g>
    <path class="cls-1" d="m811.84,105.78c-.17.21-.41.31-.93.33-1.12,4.62-3.48,9.24-8.53,12l-.24-.29c3.57-2.93,5.57-7.53,6.41-12.03h-5.67l-.21-.69h5.74l1.26-1.26,2.17,1.93Zm12.2-1.6c-.14.24-.38.33-.91.24-1.43,1.29-3.67,3.03-5.88,4.36,2.02,3.43,4.76,5.53,7.53,6.98l-.1.24c-.98.17-1.69.93-2.05,2-3.91-3.07-6.69-7.1-8.03-14.93v14.29c0,1.72-.38,2.72-3.33,2.98-.1-.74-.26-1.29-.67-1.67-.43-.36-1.02-.64-2.36-.83v-.36s2.88.21,3.48.21c.43,0,.57-.14.57-.5v-18.94l3.17.33c-.07.33-.24.55-.86.64v2.14c.5,2.74,1.31,5,2.36,6.91,1.62-1.86,3.36-4.29,4.26-5.86l2.81,1.76Z"/>
    <circle class="cls-5" cx="813.96" cy="109.73" r="19.06"/>
    <g>
      <path class="cls-1" d="m627.05,123.09v2.03h-26.35v-2.03l9.8-1.27c.06-3.81.13-7.69.13-11.44v-25.88l-8.91.95v-2.42l15.02-3.69.89.7-.19,10.05v20.28c0,3.75.06,7.57.13,11.44l9.49,1.27Z"/>
      <path class="cls-1" d="m667.44,93.16c-.31.35-.96.74-1.83.87v29.4c0,3.05-.65,4.88-6.24,5.4-.13-1.35-.44-2.39-1.18-3.05-.79-.7-2.01-1.18-4.45-1.57v-.65s5.45.39,6.5.39c.87,0,1.09-.35,1.09-1.04v-9.84h-15.84c-1,6.05-3.88,11.76-11.74,15.81l-.48-.48c7.37-6.1,8.51-13.94,8.51-22.69v-15.46l4.93,1.83h14.18l2.05-2.39,4.49,3.48Zm-6.11,18.64v-8.75h-15.36v2.61c0,2.05-.09,4.09-.31,6.14h15.66Zm-15.36-18.46v8.49h15.36v-8.49h-15.36Z"/>
      <path class="cls-1" d="m686.78,86.53c-.64,2.92-1.85,4.07-4.01,4.07-1.4,0-2.67-.57-3.31-2.23.95-6.49,6.75-9.41,13.43-9.41,8.59,0,13.56,4.58,13.56,11.06,0,5.28-3.37,9.47-10.31,11.32,8.21,1.33,11.71,5.66,11.71,11.57,0,7.63-6.3,13.16-15.98,13.16-7.64,0-12.8-3.24-13.81-10.11.7-1.59,1.85-2.29,3.44-2.29,2.16,0,3.12,1.27,3.95,4.71l1.15,4.71c1.27.32,2.48.44,3.69.44,6.88,0,10.5-3.75,10.5-10.36s-3.63-10.3-10.69-10.3h-3.12v-2.8h2.61c6.11,0,10.06-3.43,10.06-9.86,0-5.53-3.12-8.65-8.47-8.65-.96,0-2.04.06-3.18.32l-1.21,4.64Z"/>
      <path class="cls-1" d="m742.48,123.09v2.03h-26.35v-2.03l9.8-1.27c.06-3.81.13-7.69.13-11.44v-25.88l-8.91.95v-2.42l15.02-3.69.89.7-.19,10.05v20.28c0,3.75.06,7.57.13,11.44l9.49,1.27Z"/>
      <path class="cls-1" d="m784.23,93.99c-.31.35-.92.7-1.79.92v31.92c-.09.35-2.14,1.39-3.75,1.39h-.7v-3.79h-18.58v2.48c0,.57-1.66,1.61-3.53,1.61h-.74v-37.58l4.62,1.92h17.8l2.22-2.4,4.45,3.53Zm-24.82.13v13.63h18.58v-13.63h-18.58Zm18.58,29.05v-14.15h-18.58v14.15h18.58Z"/>
    </g>
    <circle class="cls-4" cx="172.44" cy="31.03" r="30.68"/>
    <g>
      <path class="cls-1" d="m152.98,26.15c-.82,1.27-1.85,2.28-2.95,2.99l-.21-.16c1.01-1.2,2.03-3.15,2.6-5.18l1.93.71c-.08.17-.27.3-.62.29-.14.3-.3.6-.48.89h2.14l.76-.98s.86.68,1.35,1.19c-.03.17-.17.25-.4.25h-3.04c2.19,1.06.93,2.85-.08,1.92.03-.67-.29-1.39-.62-1.92h-.4Zm9.88,6.33l1.43,1.19c-.09.11-.29.19-.6.24-.17,2.07-.57,3.23-1.27,3.71-.43.29-.98.43-1.66.43,0-.41-.06-.79-.25-1-.21-.21-.65-.38-1.17-.48l.02-.24c.48.03,1.35.09,1.65.09.24,0,.36-.02.49-.11.3-.24.55-1.12.7-2.61h-4.1v4.43c-.02.09-.46.4-1.2.4h-.25v-3.55c-1.58,1.57-3.83,2.74-6.51,3.5l-.13-.21c2.39-1.08,4.4-2.79,5.59-4.58h-2.79c-.1.4-.21.79-.3,1.11-.38.17-.78.19-1.52-.03.43-1.39.95-3.42,1.2-4.56l1.58.73h2.87v-1.9h-5.08l-.14-.46h9.91l.7-.74,1.52,1.12c-.09.11-.32.24-.59.3v2.61c-.02.11-.76.41-1.24.41h-.25v-.89h-3.37v1.84h3.99l.79-.76Zm-6.24.76v-1.84h-3.26c-.13.51-.29,1.17-.44,1.84h3.71Zm6.6-8.6s.93.71,1.52,1.25c-.03.17-.21.25-.43.25h-3.85c1.93,1,.79,2.63-.19,1.79-.03-.6-.35-1.28-.7-1.79h-.7c-.67.85-1.43,1.57-2.22,2.07l-.19-.16c.74-1.01,1.49-2.63,1.92-4.28l2,.73c-.08.19-.29.3-.62.29-.17.3-.35.6-.55.89h3.17l.84-1.04Zm-5.15,6.3h3.37v-1.9h-3.37v1.9Z"/>
      <path class="cls-1" d="m176.09,36.49v.7h-9v-.7l3.35-.43c.02-1.3.04-2.63.04-3.91v-8.84l-3.04.33v-.83l5.13-1.26.3.24-.07,3.43v6.93c0,1.28.02,2.59.04,3.91l3.24.43Z"/>
      <path class="cls-1" d="m177.98,38.38c.92-.92,1.85-2.45,2.39-4.15l1.93.82c-.08.17-.3.29-.65.25-.89,1.5-2.15,2.6-3.47,3.25l-.21-.17Zm14.89-13.05c-.11.13-.35.27-.67.33v10.99c0,1.06-.21,1.68-1.98,1.85-.05-.46-.14-.82-.33-1.04-.24-.24-.59-.4-1.3-.51v-.24s1.5.1,1.82.1c.27,0,.35-.1.35-.33v-3.99h-2.6c-.22,2.25-.98,4.43-3.41,6l-.21-.16c1.22-1.3,1.81-2.8,2.09-4.45-.06.02-.14.03-.22.03h-8.3l-.13-.44h1.62v-6.62h-1.22l-.13-.46h1.35v-2.36l1.92.21c-.03.19-.16.33-.52.4v1.76h2.36v-2.36l2,.21c-.05.21-.17.36-.55.43v1.73h.08l.62-.97s.73.7,1.14,1.17c-.03.17-.19.25-.4.25h-1.44v6.62h.06l.7-1.06s.67.62,1.12,1.12c.16-1.04.19-2.14.19-3.25v-5.97l1.62.63h2.11l.7-.82,1.57,1.2Zm-11.86,1.52v1.76h2.36v-1.76h-2.36Zm0,4.12h2.36v-1.9h-2.36v1.9Zm0,2.5h2.36v-2.04h-2.36v2.04Zm1.9.89c3.74.95,2.53,3.6,1.2,2.61-.14-.87-.79-1.88-1.36-2.5l.16-.11Zm7.86-2.33v-3.15h-2.5v1.39c0,.59-.02,1.17-.05,1.76h2.55Zm-2.5-6.62v3.01h2.5v-3.01h-2.5Z"/>
    </g>
    <circle class="cls-4" cx="172.44" cy="107.25" r="30.68"/>
    <g>
      <path class="cls-1" d="m152.98,102.37c-.82,1.27-1.85,2.28-2.95,2.99l-.21-.16c1.01-1.2,2.03-3.15,2.6-5.18l1.93.71c-.08.17-.27.3-.62.29-.14.3-.3.6-.48.89h2.14l.76-.98s.86.68,1.35,1.19c-.03.17-.17.25-.4.25h-3.04c2.19,1.06.93,2.85-.08,1.92.03-.67-.29-1.39-.62-1.92h-.4Zm9.88,6.33l1.43,1.19c-.09.11-.29.19-.6.24-.17,2.07-.57,3.23-1.27,3.71-.43.29-.98.43-1.66.43,0-.41-.06-.79-.25-1-.21-.21-.65-.38-1.17-.48l.02-.24c.48.03,1.35.1,1.65.1.24,0,.36-.02.49-.11.3-.24.55-1.12.7-2.61h-4.1v4.43c-.02.09-.46.4-1.2.4h-.25v-3.55c-1.58,1.57-3.83,2.74-6.51,3.5l-.13-.21c2.39-1.08,4.4-2.79,5.59-4.58h-2.79c-.1.4-.21.79-.3,1.11-.38.17-.78.19-1.52-.03.43-1.39.95-3.42,1.2-4.56l1.58.73h2.87v-1.9h-5.08l-.14-.46h9.91l.7-.74,1.52,1.12c-.09.11-.32.24-.59.3v2.61c-.02.11-.76.41-1.24.41h-.25v-.89h-3.37v1.84h3.99l.79-.76Zm-6.24.76v-1.84h-3.26c-.13.51-.29,1.17-.44,1.84h3.71Zm6.6-8.6s.93.71,1.52,1.25c-.03.17-.21.25-.43.25h-3.85c1.93,1,.79,2.63-.19,1.79-.03-.6-.35-1.28-.7-1.79h-.7c-.67.85-1.43,1.57-2.22,2.07l-.19-.16c.74-1.01,1.49-2.63,1.92-4.28l2,.73c-.08.19-.29.3-.62.29-.17.3-.35.6-.55.89h3.17l.84-1.04Zm-5.15,6.3h3.37v-1.9h-3.37v1.9Z"/>
      <path class="cls-1" d="m176.55,111.37v2.04h-10.06v-1.56c1.3-1.35,2.56-2.69,3.63-3.78,2.43-2.56,3.41-4.28,3.41-6.28s-1.11-3.26-2.89-3.26c-.33,0-.74.04-1.17.13l-.5,1.85c-.26,1.17-.74,1.54-1.37,1.54-.52,0-.93-.28-1.2-.76.28-2.41,2.48-3.65,4.98-3.65,3.13,0,4.58,1.7,4.58,4.13,0,2.09-1.33,3.82-5.08,7.06-.67.61-1.67,1.54-2.78,2.54h8.45Z"/>
      <path class="cls-1" d="m177.98,114.6c.92-.92,1.85-2.46,2.39-4.15l1.93.82c-.08.17-.3.29-.65.25-.89,1.5-2.15,2.6-3.47,3.25l-.21-.17Zm14.89-13.05c-.11.13-.35.27-.67.33v10.99c0,1.06-.21,1.68-1.98,1.85-.05-.46-.14-.82-.33-1.04-.24-.24-.59-.4-1.3-.51v-.24s1.5.1,1.82.1c.27,0,.35-.1.35-.33v-3.99h-2.6c-.22,2.25-.98,4.43-3.41,6l-.21-.16c1.22-1.3,1.81-2.8,2.09-4.45-.06.02-.14.03-.22.03h-8.3l-.13-.44h1.62v-6.62h-1.22l-.13-.46h1.35v-2.36l1.92.21c-.03.19-.16.33-.52.4v1.76h2.36v-2.36l2,.21c-.05.21-.17.36-.55.43v1.73h.08l.62-.97s.73.7,1.14,1.17c-.03.17-.19.25-.4.25h-1.44v6.62h.06l.7-1.06s.67.62,1.12,1.12c.16-1.04.19-2.14.19-3.25v-5.97l1.62.63h2.11l.7-.82,1.57,1.2Zm-11.86,1.52v1.76h2.36v-1.76h-2.36Zm0,4.12h2.36v-1.9h-2.36v1.9Zm0,2.5h2.36v-2.04h-2.36v2.04Zm1.9.89c3.74.95,2.53,3.59,1.2,2.61-.14-.87-.79-1.88-1.36-2.5l.16-.11Zm7.86-2.33v-3.15h-2.5v1.39c0,.59-.02,1.17-.05,1.76h2.55Zm-2.5-6.62v3.01h2.5v-3.01h-2.5Z"/>
    </g>
  </g>
</svg>