<?xml version="1.0" encoding="UTF-8"?>
<svg id="_レイヤー_2" data-name="レイヤー 2" xmlns="http://www.w3.org/2000/svg" viewBox="0 0 68.78 68.2">
  <defs>
    <style>
      .cls-1 {
        fill: none;
        stroke: #ea5532;
        stroke-linecap: round;
        stroke-miterlimit: 10;
        stroke-width: .57px;
      }
    </style>
  </defs>
  <g id="_文字" data-name="文字">
    <g>
      <path class="cls-1" d="m65.48,20.2c-3.7-8.13-10.56-14.55-19.03-17.73-3.75-1.41-7.82-2.18-12.07-2.18-5,0-9.74,1.06-14.02,2.98C12.16,6.94,5.69,13.74,2.48,22.13c-1.42,3.72-2.2,7.76-2.2,11.97,0,4.96,1.07,9.67,3,13.9,3.71,8.13,10.56,14.55,19.03,17.73,3.75,1.41,7.82,2.18,12.07,2.18,5,0,9.75-1.06,14.02-2.98,8.2-3.68,14.68-10.47,17.88-18.87,1.42-3.72,2.2-7.76,2.2-11.97,0-4.96-1.07-9.66-3.01-13.9Zm-14.95,28.8l-4.17,11.09-.2-.07-10.99-4.06-10.86,4.92-.08-.18-4.88-10.58-11.18-4.13.07-.2,4.09-10.89-4.96-10.77.18-.08,10.67-4.84,4.17-11.09.2.07,10.98,4.06,10.86-4.92.08.18,4.88,10.58,11.18,4.13-.07.2-4.09,10.89,4.96,10.77-.18.08-10.67,4.84Z"/>
      <polygon class="cls-1" points="33.59 12.25 26.01 15.68 18.24 19.2 22.4 8.12 22.6 8.19 33.59 12.25"/>
      <polygon class="cls-1" points="49.41 18.09 41.6 15.21 33.59 12.25 44.45 7.32 44.53 7.51 49.41 18.09"/>
      <polygon class="cls-1" points="60.59 22.22 60.52 22.42 56.43 33.31 52.96 25.8 49.41 18.09 60.59 22.22"/>
      <polygon class="cls-1" points="61.39 44.08 61.21 44.16 50.54 49 53.44 41.25 56.43 33.31 61.39 44.08"/>
      <polygon class="cls-1" points="50.54 49 46.37 60.09 46.17 60.02 35.18 55.96 42.76 52.52 50.54 49"/>
      <polygon class="cls-1" points="35.18 55.96 24.32 60.88 24.24 60.7 19.36 50.12 27.17 53 35.18 55.96"/>
      <polygon class="cls-1" points="19.36 50.12 8.18 45.98 8.25 45.79 12.34 34.89 15.81 42.41 19.36 50.12"/>
      <polygon class="cls-1" points="18.24 19.2 15.33 26.95 12.34 34.89 7.38 24.12 7.56 24.04 18.24 19.2"/>
      <line class="cls-1" x1="66.29" y1="46.07" x2="61.21" y2="44.16"/>
      <polyline class="cls-1" points="2.48 22.13 2.48 22.13 7.56 24.04"/>
      <line class="cls-1" x1="48.41" y1="64.94" x2="46.17" y2="60.02"/>
      <line class="cls-1" x1="22.6" y1="8.19" x2="20.36" y2="3.27"/>
      <polygon class="cls-1" points="56.43 33.31 53.44 41.25 50.54 49 42.76 52.52 35.18 55.96 27.17 53 19.36 50.12 15.81 42.41 12.34 34.89 15.33 26.95 18.24 19.2 26.01 15.68 33.59 12.25 41.6 15.21 49.41 18.09 52.96 25.8 56.43 33.31"/>
      <polyline class="cls-1" points="24.24 60.7 22.31 65.74 22.31 65.74"/>
      <line class="cls-1" x1="46.46" y1="2.46" x2="44.53" y2="7.51"/>
      <line class="cls-1" x1="8.25" y1="45.79" x2="3.29" y2="48.01"/>
      <line class="cls-1" x1="65.48" y1="20.2" x2="60.52" y2="22.42"/>
      <line class="cls-1" x1="9.43" y1="11.09" x2="7.56" y2="24.04"/>
      <line class="cls-1" x1="22.4" y1="8.12" x2="9.43" y2="11.09"/>
      <line class="cls-1" x1=".57" y1="35.21" x2="7.56" y2="24.04"/>
      <line class="cls-1" x1="8.18" y1="45.98" x2=".57" y2="35.21"/>
      <line class="cls-1" x1="11.41" y1="58.67" x2="8.18" y2="45.98"/>
      <line class="cls-1" x1="24.32" y1="60.88" x2="11.41" y2="58.67"/>
      <line class="cls-1" x1="35.82" y1="67.76" x2="24.32" y2="60.88"/>
      <line class="cls-1" x1="46.37" y1="60.09" x2="35.82" y2="67.76"/>
      <line class="cls-1" x1="59.45" y1="56.6" x2="46.17" y2="60.02"/>
      <line class="cls-1" x1="61.21" y1="44.16" x2="59.45" y2="56.6"/>
      <line class="cls-1" x1="68.14" y1="32.31" x2="61.21" y2="44.16"/>
      <line class="cls-1" x1="60.59" y1="22.22" x2="68.14" y2="32.31"/>
      <line class="cls-1" x1="44.53" y1="7.51" x2="57.21" y2="9.04"/>
      <line class="cls-1" x1="22.4" y1="8.12" x2="32.89" y2=".43"/>
      <line class="cls-1" x1="60.52" y1="22.42" x2="57.21" y2="9.04"/>
      <line class="cls-1" x1="44.53" y1="7.51" x2="32.89" y2=".42"/>
    </g>
  </g>
</svg>