<?xml version="1.0" encoding="UTF-8"?>
<svg id="_レイヤー_2" data-name="レイヤー 2" xmlns="http://www.w3.org/2000/svg" viewBox="0 0 1440.15 338.86">
  <defs>
    <style>
      .cls-1 {
        fill: #fffddf;
      }

      .cls-2 {
        fill: #f8d9e7;
      }

      .cls-3 {
        fill: #fdf0f6;
      }

      .cls-4 {
        fill: #fad6db;
      }
    </style>
  </defs>
  <g id="_かみふぶき" data-name="かみふぶき">
    <polygon class="cls-3" points="387.18 121.99 396.75 133.2 388.4 136.03 383.08 129.8 387.18 121.99"/>
    <polygon class="cls-1" points="304.74 30.5 314.35 41.32 313.1 49.47 303.49 38.65 304.74 30.5"/>
    <rect class="cls-3" x="571.02" y=".03" width="4.89" height="13.05" transform="translate(133.06 373.9) rotate(-40.49)"/>
    <polygon class="cls-3" points="449.99 66.31 459.6 77.13 458.36 85.28 448.75 74.46 449.99 66.31"/>
    <rect class="cls-4" x="460.72" y="2.62" width="4.89" height="13.05" transform="translate(104.97 302.91) rotate(-40.49)"/>
    <polygon class="cls-4" points="215.94 43.15 225.51 54.37 217.15 57.19 211.83 50.96 215.94 43.15"/>
    <rect class="cls-1" x="1111.2" y="55.99" width="4.69" height="6.53" transform="translate(404.11 919.6) rotate(-53.54)"/>
    <polygon class="cls-2" points="746.19 18.29 744.19 32.62 737.18 36.96 739.18 22.63 746.19 18.29"/>
    <polygon class="cls-1" points="9.01 47.13 7.01 61.46 0 65.8 2 51.47 9.01 47.13"/>
    <polygon class="cls-1" points="187.21 106.05 192.13 92.44 199.88 89.64 194.97 103.25 187.21 106.05"/>
    <polygon class="cls-3" points="1184.66 30.08 1184.27 48.43 1174.17 44.14 1174.38 33.94 1184.66 30.08"/>
    <rect class="cls-1" x="810.17" y="41.06" width="13.05" height="4.89" transform="translate(108.79 453.09) rotate(-33.1)"/>
    <polygon class="cls-4" points="1193.29 95.56 1204 105.3 1203.63 113.54 1192.92 103.8 1193.29 95.56"/>
    <polygon class="cls-1" points="1351.52 70.08 1338.45 63.87 1336.42 55.88 1349.49 62.08 1351.52 70.08"/>
    <rect class="cls-3" x="689.42" y="3.11" width="4.89" height="13.05" transform="translate(462.67 662.5) rotate(-71.45)"/>
    <rect class="cls-3" x="838" y="22.5" width="13.05" height="9.38" transform="translate(122.19 465.58) rotate(-33.1)"/>
    <polygon class="cls-3" points="1028.86 57.28 1020.6 72.57 1019.59 55.22 1028.86 57.28"/>
    <rect class="cls-3" x="359.07" y="8.12" width="10.3" height="7.4" transform="translate(281.21 366.65) rotate(-78.69)"/>
    <polygon class="cls-4" points="527.39 32.25 512.4 49.47 499.38 49.17 514.38 31.94 527.39 32.25"/>
    <polygon class="cls-2" points="951.41 48.47 945.69 38.59 947.94 32.48 953.66 42.36 951.41 48.47"/>
    <polygon class="cls-1" points="1112.42 156.55 1102.6 139.6 1106.46 129.13 1116.27 146.07 1112.42 156.55"/>
    <rect class="cls-1" x="1277.91" y="89.04" width="9.38" height="13.05" transform="translate(179.97 757.68) rotate(-35.25)"/>
    <rect class="cls-3" x="506.86" y="329.48" width="13.05" height="4.89" transform="translate(-11.65 645.1) rotate(-63.7)"/>
    <rect class="cls-3" x="764.89" y="151.04" width="13.05" height="4.89" transform="translate(209.67 704.02) rotate(-55.68)"/>
    <polygon class="cls-3" points="876.63 297.63 863.86 286.14 863.22 294.66 870.32 301.05 876.63 297.63"/>
    <rect class="cls-4" x="656.84" y="126.56" width="13.05" height="4.89" transform="translate(229.16 646.85) rotate(-61.03)"/>
    <polygon class="cls-1" points="505.19 162.06 512.44 149.55 509.59 141.81 502.34 154.33 505.19 162.06"/>
    <rect class="cls-3" x="527.99" y="201.43" width="13.05" height="4.89" transform="translate(97.23 572.73) rotate(-61.03)"/>
    <polygon class="cls-4" points="929.81 140.98 945.28 133.05 927.95 131.67 929.81 140.98"/>
    <polygon class="cls-4" points="1077.04 258.72 1092.79 251.37 1075.52 249.34 1077.04 258.72"/>
    <polygon class="cls-3" points="1430.93 57.18 1439.53 72.28 1440.15 54.91 1430.93 57.18"/>
    <polygon class="cls-3" points="320.64 219.37 306.22 218.16 300.44 224.05 314.86 225.25 320.64 219.37"/>
    <rect class="cls-1" x="370.81" y="192" width="13.05" height="4.9" transform="translate(-28.81 317.87) rotate(-44.17)"/>
    <rect class="cls-1" x="1217.18" y="54.56" width="13.05" height="9.38" transform="translate(16.27 266.77) rotate(-12.52)"/>
    <polygon class="cls-2" points="298.75 124.7 311.42 131.69 319.1 128.67 306.42 121.68 298.75 124.7"/>
    <polygon class="cls-3" points="84.63 32.62 84.06 47.08 90.19 52.59 90.77 38.13 84.63 32.62"/>
    <polygon class="cls-3" points="1205.64 176.08 1220.64 193.3 1233.65 192.99 1218.65 175.77 1205.64 176.08"/>
  </g>
</svg>