<?xml version="1.0" encoding="UTF-8"?>
<svg id="_レイヤー_2" data-name="レイヤー 2" xmlns="http://www.w3.org/2000/svg" viewBox="0 0 66.69 13.33">
  <defs>
    <style>
      .cls-1 {
        stroke-width: .22px;
      }

      .cls-1, .cls-2 {
        fill: none;
        stroke: #fff;
        stroke-linecap: round;
        stroke-miterlimit: 10;
      }
    </style>
  </defs>
  <g id="_文字" data-name="文字">
    <g>
      <g>
        <path class="cls-1" d="m37.7,3.97c-.72-1.58-2.05-2.82-3.69-3.44-.73-.27-1.52-.42-2.34-.42-.97,0-1.89.21-2.72.58-1.59.71-2.84,2.03-3.46,3.66-.28.72-.43,1.5-.43,2.32,0,.96.21,1.87.58,2.69.72,1.58,2.05,2.82,3.69,3.44.73.27,1.52.42,2.34.42.97,0,1.89-.21,2.72-.58,1.59-.71,2.84-2.03,3.47-3.66.28-.72.43-1.5.43-2.32,0-.96-.21-1.87-.58-2.69Zm-2.9,5.58l-.81,2.15h-.04s-2.13-.8-2.13-.8l-2.1.95-.02-.03-.95-2.05-2.17-.8v-.04s.81-2.11.81-2.11l-.96-2.09.04-.02,2.07-.94.81-2.15h.04s2.13.8,2.13.8l2.11-.95.02.04.95,2.05,2.17.8v.04s-.81,2.11-.81,2.11l.96,2.09-.04.02-2.07.94Z"/>
        <polygon class="cls-1" points="31.52 2.43 30.05 3.09 28.55 3.78 29.35 1.63 29.39 1.64 31.52 2.43"/>
        <polygon class="cls-1" points="34.59 3.56 33.07 3 31.52 2.43 33.63 1.47 33.64 1.51 34.59 3.56"/>
        <polygon class="cls-1" points="36.75 4.36 36.74 4.4 35.95 6.51 35.28 5.05 34.59 3.56 36.75 4.36"/>
        <polygon class="cls-1" points="36.91 8.6 36.87 8.61 34.81 9.55 35.37 8.05 35.95 6.51 36.91 8.6"/>
        <polygon class="cls-1" points="34.81 9.55 34 11.7 33.96 11.69 31.83 10.9 33.3 10.23 34.81 9.55"/>
        <polygon class="cls-1" points="31.83 10.9 29.73 11.85 29.71 11.82 28.76 9.77 30.28 10.33 31.83 10.9"/>
        <polygon class="cls-1" points="28.76 9.77 26.6 8.97 26.61 8.93 27.41 6.82 28.08 8.27 28.76 9.77"/>
        <polygon class="cls-1" points="28.55 3.78 27.98 5.28 27.41 6.82 26.44 4.73 26.48 4.71 28.55 3.78"/>
        <line class="cls-1" x1="37.86" y1="8.98" x2="36.87" y2="8.61"/>
        <polyline class="cls-1" points="25.49 4.34 25.49 4.34 26.48 4.71"/>
        <line class="cls-1" x1="34.39" y1="12.64" x2="33.96" y2="11.69"/>
        <line class="cls-1" x1="29.39" y1="1.64" x2="28.96" y2=".69"/>
        <polygon class="cls-1" points="35.95 6.51 35.37 8.05 34.81 9.55 33.3 10.23 31.83 10.9 30.28 10.33 28.76 9.77 28.08 8.27 27.41 6.82 27.98 5.28 28.55 3.78 30.05 3.09 31.52 2.43 33.07 3 34.59 3.56 35.28 5.05 35.95 6.51"/>
        <polyline class="cls-1" points="29.71 11.82 29.34 12.79 29.34 12.79"/>
        <line class="cls-1" x1="34.02" y1=".53" x2="33.64" y2="1.51"/>
        <line class="cls-1" x1="26.61" y1="8.93" x2="25.65" y2="9.36"/>
        <line class="cls-1" x1="37.7" y1="3.97" x2="36.74" y2="4.4"/>
        <line class="cls-1" x1="26.84" y1="2.2" x2="26.48" y2="4.71"/>
        <line class="cls-1" x1="29.35" y1="1.63" x2="26.84" y2="2.2"/>
        <line class="cls-1" x1="25.12" y1="6.88" x2="26.48" y2="4.71"/>
        <line class="cls-1" x1="26.6" y1="8.97" x2="25.12" y2="6.88"/>
        <line class="cls-1" x1="27.22" y1="11.42" x2="26.6" y2="8.97"/>
        <line class="cls-1" x1="29.73" y1="11.85" x2="27.22" y2="11.42"/>
        <line class="cls-1" x1="31.95" y1="13.19" x2="29.73" y2="11.85"/>
        <line class="cls-1" x1="34" y1="11.7" x2="31.95" y2="13.19"/>
        <line class="cls-1" x1="36.53" y1="11.02" x2="33.96" y2="11.69"/>
        <line class="cls-1" x1="36.87" y1="8.61" x2="36.53" y2="11.02"/>
        <line class="cls-1" x1="38.22" y1="6.32" x2="36.87" y2="8.61"/>
        <line class="cls-1" x1="36.75" y1="4.36" x2="38.22" y2="6.32"/>
        <line class="cls-1" x1="33.64" y1="1.51" x2="36.1" y2="1.81"/>
        <line class="cls-1" x1="29.35" y1="1.63" x2="31.39" y2=".14"/>
        <line class="cls-1" x1="36.74" y1="4.4" x2="36.1" y2="1.81"/>
        <line class="cls-1" x1="33.64" y1="1.51" x2="31.39" y2=".14"/>
      </g>
      <line class="cls-2" x1="20.5" y1="6.66" x2=".5" y2="6.66"/>
      <line class="cls-2" x1="42.85" y1="6.66" x2="66.19" y2="6.66"/>
    </g>
  </g>
</svg>