<?xml version="1.0" encoding="UTF-8"?>
<svg id="_レイヤー_2" data-name="レイヤー 2" xmlns="http://www.w3.org/2000/svg" viewBox="0 0 20.36 7.87">
  <defs>
    <style>
      .cls-1 {
        fill: #ea5532;
        fill-rule: evenodd;
      }
    </style>
  </defs>
  <g id="_文字" data-name="文字">
    <g>
      <path class="cls-1" d="m9.95,3.28v1.54c0,.73,0,1.46,0,2.19,0,.41-.33.79-.73.85-.38.06-.79-.19-.91-.58-.04-.14-.06-.29-.06-.43,0-1.94,0-3.88,0-5.82,0-.15.01-.31.06-.45.1-.31.32-.5.64-.56.37-.06.65.09.86.38.32.43.63.86.95,1.3.66.9,1.32,1.8,1.98,2.71.03.04.07.08.13.16v-.27c0-1.11,0-2.21,0-3.32,0-.28.07-.54.28-.74C13.41,0,13.71-.06,14.03.06c.32.13.5.38.55.73,0,.05,0,.1,0,.15,0,2,0,4,0,5.99,0,.55-.39.96-.9.93-.29-.02-.5-.18-.67-.41-1.01-1.37-2.02-2.75-3.06-4.17Z"/>
      <path class="cls-1" d="m17.3,1.68v1.42h.24c.67,0,1.35,0,2.02,0,.49,0,.81.37.8.87,0,.44-.38.79-.84.8-.67,0-1.34,0-2,0h-.22v1.41h.23c.69,0,1.38,0,2.07,0,.45,0,.77.38.76.86,0,.42-.37.8-.79.8-1.04,0-2.09,0-3.13,0-.44,0-.8-.37-.8-.81,0-2.08,0-4.16,0-6.24,0-.44.35-.79.79-.79,1.04,0,2.09,0,3.13,0,.46,0,.8.37.8.83s-.35.83-.8.83c-.68,0-1.36,0-2.05,0h-.22Z"/>
      <path class="cls-1" d="m1.68,6.18c.76,0,1.49,0,2.22,0,.45,0,.73.23.84.65.12.48-.27,1.01-.77,1.02-1.06,0-2.12,0-3.17,0-.4,0-.76-.36-.79-.75,0-.05,0-.1,0-.15C0,4.94,0,2.92,0,.91,0,.39.33.02.79,0c.5-.01.89.36.89.87,0,1.68,0,3.36,0,5.03v.27Z"/>
      <path class="cls-1" d="m7.15,3.94c0,1.02,0,2.03,0,3.05,0,.41-.29.76-.68.86-.33.08-.74-.11-.9-.45-.07-.14-.11-.3-.11-.46,0-2,0-4.01,0-6.01,0-.66.56-1.08,1.13-.88.35.13.57.46.57.86,0,1.01,0,2.02,0,3.03Z"/>
    </g>
  </g>
</svg>