<?xml version="1.0" encoding="UTF-8"?>
<svg id="_レイヤー_2" data-name="レイヤー 2" xmlns="http://www.w3.org/2000/svg" viewBox="0 0 15.26 15.26">
  <defs>
    <style>
      .cls-1 {
        fill: #ea5532;
      }
    </style>
  </defs>
  <g id="_文字" data-name="文字">
    <g>
      <path class="cls-1" d="m10.8,15.26h-6.34c-2.46,0-4.46-2-4.46-4.46v-6.34C0,2,2,0,4.46,0h6.34c2.46,0,4.46,2,4.46,4.46v6.34c0,2.46-2,4.46-4.46,4.46ZM4.46,1.42c-1.68,0-3.04,1.36-3.04,3.04v6.34c0,1.68,1.36,3.04,3.04,3.04h6.34c1.68,0,3.04-1.36,3.04-3.04v-6.34c0-1.68-1.36-3.04-3.04-3.04h-6.34Z"/>
      <circle class="cls-1" cx="11.71" cy="3.56" r=".95"/>
      <path class="cls-1" d="m7.63,11.58c-2.18,0-3.95-1.77-3.95-3.95s1.77-3.95,3.95-3.95,3.95,1.77,3.95,3.95-1.77,3.95-3.95,3.95Zm0-6.47c-1.39,0-2.52,1.13-2.52,2.52s1.13,2.52,2.52,2.52,2.52-1.13,2.52-2.52-1.13-2.52-2.52-2.52Z"/>
    </g>
  </g>
</svg>