<?xml version="1.0" encoding="UTF-8"?>
<svg id="_レイヤー_2" data-name="レイヤー 2" xmlns="http://www.w3.org/2000/svg" viewBox="0 0 15.06 10.54">
  <defs>
    <style>
      .cls-1 {
        fill: #ea5532;
      }
    </style>
  </defs>
  <g id="_文字" data-name="文字">
    <path class="cls-1" d="m14.74,1.65c-.17-.65-.68-1.16-1.33-1.33-1.17-.31-5.88-.31-5.88-.31,0,0-4.71,0-5.88.31C1,.49.49,1,.31,1.65c-.31,1.17-.31,3.62-.31,3.62,0,0,0,2.45.31,3.62.17.65.68,1.16,1.33,1.33,1.17.31,5.88.31,5.88.31,0,0,4.71,0,5.88-.31.65-.17,1.16-.68,1.33-1.33.31-1.17.31-3.62.31-3.62,0,0,0-2.45-.31-3.62ZM6.02,7.53V3.01l3.91,2.26-3.91,2.26Z"/>
  </g>
</svg>