<?xml version="1.0" encoding="UTF-8"?>
<svg id="_レイヤー_2" data-name="レイヤー 2" xmlns="http://www.w3.org/2000/svg" viewBox="0 0 667.31 403.71">
  <defs>
    <style>
      .cls-1 {
        fill: #fff;
      }

      .cls-2 {
        fill: #ea5532;
      }

      .cls-3 {
        stroke-miterlimit: 10;
        stroke-width: 2.32px;
      }

      .cls-3, .cls-4 {
        fill: none;
        stroke: #fff;
      }

      .cls-4 {
        stroke-linecap: round;
        stroke-linejoin: round;
        stroke-width: 1.79px;
      }
    </style>
  </defs>
  <g id="_文字" data-name="文字">
    <g>
      <g>
        <path class="cls-2" d="m91.35,197.76c-.11.64-.52,1.06-1.02,1.06h-5.73l-3.88,12.23h7.07c.5,0,.76.42.65,1.06l-.16.92c-.11.64-.52,1.06-1.02,1.06h-7.35l-5.77,18.52c-.22.64-.68.99-1.15.85l-1.18-.28c-.48-.14-.68-.57-.46-1.2l5.6-17.88h-7.52l-5.99,18.52c-.22.64-.68.99-1.15.85l-1.18-.28c-.48-.14-.72-.64-.5-1.27l5.81-17.81h-5.4c-.5,0-.76-.42-.65-1.06l.16-.92c.11-.64.52-1.06,1.02-1.06h5.73l3.99-12.23h-7.18c-.5,0-.76-.42-.65-1.06l.17-.99c.11-.64.52-1.06,1.02-1.06h7.52l4.49-13.78c.21-.57.66-.92,1.1-.85l1.13.21c.49.07.71.71.49,1.34l-4.25,13.07h7.46l4.31-13.71c.22-.64.69-1.06,1.16-.92l1.18.28c.48.14.72.64.5,1.27l-4.2,13.07h5.35c.5,0,.76.42.65,1.06l-.17.99Zm-9.71,1.06h-7.35l-3.99,12.23h7.46l3.88-12.23Z"/>
        <path class="cls-2" d="m123.91,189.28l-1.72.92c-3.15,5.23-6.27,9.68-9.26,13.36,1.86,1.13,3.5,2.54,4.93,4.24,1.62,1.84,2.27,3.53,2.01,5.02-.3,1.7-.99,2.47-2.16,2.47-.67,0-1.16-.71-1.42-2.05-.5-2.54-1.68-5.02-3.76-7.42l-5.37,30.46c-.11.64-.52,1.06-1.02,1.06h-1.39c-.5,0-.76-.42-.65-1.06l4.96-28.13c-2.75,2.97-5.62,5.65-8.75,8.27-.4.35-.89.28-1.09-.14-.16-.35-.02-.85.45-1.27,7.71-7.7,14.18-16.33,19.52-26.08h-13.47c-.33,0-.57-.21-.61-.64-.07-.56.53-1.13,1.26-1.13h6.4l2.13-12.08c.12-.71.6-1.2,1.15-1.13,2.9.28,4.3.85,4.14,1.77-.11.64-1,1.27-2.67,1.91l-1.68,9.54h3.34l1.94-2.47c.42-.5.99-.57,1.29-.07,1.46,2.12,2.19,3.39,2.09,3.96-.05.28-.25.49-.57.71Zm26.27,22.19l-1.59,1.13-4.17,23.67c-.11.64-.52,1.06-1.02,1.06h-1.56c-.5,0-.76-.42-.65-1.06l.44-2.47h-21.21l-.44,2.47c-.11.64-.52,1.06-1.02,1.06h-1.56c-.5,0-.76-.42-.65-1.06l4.8-27.21c.16-.92.68-1.62,1.03-1.41.77.35,1.72.99,2.88,1.7h20.1l1.97-2.33c.35-.42.87-.49,1.18-.07,1.51,1.84,2.24,3.11,2.15,3.6-.06.35-.28.64-.66.92Zm-20.61,20.57l1.76-9.96h-8.85l-1.76,9.96h8.85Zm2.07-11.73l1.62-9.19h-8.85l-1.62,9.19h8.85Zm24.44-39.79c-.22.28-.48.5-.76.5h-29.45c-.33,0-.58-.21-.61-.64-.07-.57.53-1.13,1.26-1.13h23.44l2.92-3.6c.42-.49.94-.57,1.25-.14.81,1.06,1.55,2.26,2.2,3.6.17.28.15.71-.08,1.06l-.17.35Zm-5.89,9.4l-1.55,1.2-2.17,12.3c-.11.64-.52,1.06-1.02,1.06h-1.45c-.5,0-.76-.42-.65-1.06l.3-1.7h-14.25l-.37,2.12c-.11.64-.52,1.06-1.02,1.06h-1.45c-.5,0-.76-.42-.65-1.06l2.82-15.97c.17-.99.9-1.63,1.39-1.27.7.42,1.35.85,2.09,1.41h13.42l1.9-2.26c.42-.49.88-.57,1.19-.14,1.47,1.77,2.15,2.97,2.06,3.46-.05.28-.2.49-.59.85Zm-6.22,10.04l1.79-10.18h-14.25l-1.79,10.18h14.25Zm-2.04,32.09l1.76-9.96h-9.24l-1.76,9.96h9.24Zm2.07-11.73l1.62-9.19h-9.24l-1.62,9.19h9.24Z"/>
        <path class="cls-2" d="m208.21,213.88c-.22.28-.48.49-.75.49h-12.86l-3.74,21.2c-.11.64-.52,1.06-1.02,1.06h-1.73c-.5,0-.76-.42-.65-1.06l3.74-21.2h-14.2c-3.16,10.67-9.27,18.16-18.37,22.69-.36.14-.74.07-.88-.35-.25-.49.03-1.13.66-1.55,7.34-4.66,12.41-11.66,15.19-20.78h-12.53c-.28,0-.52-.21-.56-.64-.12-.57.53-1.13,1.31-1.13h12.31c.6-2.47,1.09-4.59,1.41-6.43l2.09-11.87h-11.14c-.33,0-.58-.21-.61-.64-.07-.57.53-1.13,1.26-1.13h10.8l2.72-15.41c.11-.64.59-1.13,1.13-1.06,3.18.28,4.69.85,4.53,1.77-.1.57-1,1.27-2.76,2.05l-2.23,12.65h13.53l2.74-15.55c.11-.64.59-1.13,1.13-1.06,3.24.28,4.75.85,4.59,1.77-.11.64-1.07,1.34-2.82,2.12l-2.24,12.72h5.68l2.87-3.96c.45-.64,1.07-.71,1.42-.14.67,1.27,1.32,2.62,1.91,4.03.1.35.1.71-.12.99l-.17.35c-.22.28-.48.49-.75.49h-11.14l-3.23,18.3h7.13l3.2-4.24c.5-.64,1.13-.71,1.42-.14.77,1.34,1.48,2.69,2.1,4.17.12.28.1.71-.13,1.06l-.24.42Zm-16.87-1.27l3.23-18.3h-13.53l-2.09,11.87c-.39,2.19-.87,4.31-1.41,6.43h13.81Z"/>
        <path class="cls-2" d="m257.14,223.7c-5.69,5.09-10.6,7.07-14.87,7.92-.12.07-.24.07-.35.07-.78,0-1.11-.64-.98-1.41.12-.71.69-1.41,1.62-1.63,3.32-.85,7.94-3.04,13.12-7.77,4.71-4.31,7.11-9.4,8.33-16.33l.36-2.05c1.4-7.92-2.55-15.19-8.88-16.61-1.61-.35-3.24-.57-4.91-.57-.84,0-1.74.07-2.6.21.56,1.27,1.2,3.32.69,6.22-.22,1.27-.72,2.83-1.56,4.45-5.4,10.74-10.75,18.02-14.62,22.61-2.17,2.54-4.52,4.17-6.58,4.17-1.67,0-3.14-1.13-4.1-3.6-.8-2.12-.83-5.09-.26-8.34.93-5.3,3.45-11.38,6.71-15.62,5.27-6.85,11.34-11.24,18.69-12.86,1.51-.35,3.22-.57,4.89-.57,6.4,0,13.24,2.9,15.23,12.16.83,3.82.83,7.63.19,11.24-1.31,7.42-5.24,13.92-10.13,18.3Zm-11.39-37.74c-3.17.92-6.67,2.76-10.7,6.08-6.45,5.3-9.22,12.51-10.17,17.88-.29,1.62-.44,3.11-.43,4.31.02,3.04.89,4.74,2.34,4.74,1,0,2.32-.85,3.83-2.76,3.76-4.59,10.42-14.28,13.76-20.57.92-1.77,1.51-3.53,1.79-5.09.34-1.91.19-3.6-.42-4.59Z"/>
        <path class="cls-2" d="m282.85,216.21c-1.97,5.8-4.38,10.95-7.23,15.41-.38.57-.79.71-1.09.5-.35-.21-.38-.71-.18-1.2,2.42-5.23,4.34-11.03,5.79-17.39.19-.78.77-1.2,1.3-1.06,2.48.78,3.68,1.55,3.53,2.4-.1.56-.79.99-2.13,1.34Zm14.86-6.29c-.95,0-1.34-.64-1.21-1.98.13-1.34.13-2.61.05-3.75-.69.14-2.27.57-4.64,1.06-.07.07-.18.07-.35.07-.18.07-.23.07-.29.07l-5.45,30.88c-.11.64-.52,1.06-1.02,1.06h-1.45c-.5,0-.76-.42-.65-1.06l5.33-30.25-.41.14c-.64.14-1.72.28-3.22.56-1.32.21-2.3.42-3.05.57-.61,1.55-1.13,2.33-1.47,2.33-.56,0-.85-1.48-.89-4.45.03-.78.48-1.48,1.1-1.48l2.53-.14c1.4-.07,2.14-.14,2.2-.14,5.02-6.36,9.62-13.22,13.87-20.57.31-.5.85-.71,1.24-.42,2.19,1.48,3.16,2.61,3.02,3.39-.11.64-.94.92-2.51.99-4.44,5.94-9.03,11.45-13.65,16.47l3.56-.28c1.86-.14,3.79-.35,5.86-.71-.32-1.34-.83-2.9-1.64-4.59-.2-.42-.16-.99.25-1.41.29-.35.69-.42,1.01-.07,3.5,3.53,4.84,7.28,4.19,10.95-.32,1.84-1.1,2.76-2.32,2.76Zm-1.17-32.23c-2.6,3.67-5.04,6.78-7.34,9.4,1.57,2.12,2.23,4.1,1.9,5.94-.3,1.7-1.12,2.54-2.4,2.54-.72,0-1.13-.85-1.28-2.54-.25-2.69-1.43-5.44-3.54-8.06-.31-.42-.26-1.06.11-1.55.22-.28.66-.28,1.06,0,1.4.92,2.47,1.77,3.21,2.61,2.26-3.67,4.24-7.63,6.05-11.87.27-.57.83-.92,1.28-.64,2.35,1.2,3.46,2.19,3.31,3.04-.1.56-.89.92-2.37,1.13Zm-2.82,49.75c-1,0-1.32-1.06-1-3.18.55-3.46.29-7.35-.7-11.52-.08-.49.06-.99.39-1.27.33-.28.71-.21.96.21,2.65,4.52,3.65,8.69,2.97,12.51-.39,2.19-1.24,3.25-2.63,3.25Zm30.59-11.8l-1.48,1.13-3.44,19.51c-.11.64-.52,1.06-1.02,1.06h-1.61c-.5,0-.76-.42-.65-1.06l.62-3.53h-15.03l-.62,3.53c-.11.64-.52,1.06-1.02,1.06h-1.56c-.5,0-.76-.42-.65-1.06l4.06-23.04c.16-.92.78-1.55,1.28-1.27.76.42,1.61.99,2.5,1.62h14.03l1.9-2.26c.42-.49.87-.49,1.19-.14,1.53,1.77,2.2,2.97,2.09,3.6-.05.28-.27.56-.59.85Zm7.31-26.29c-.23.35-.48.5-.76.5h-12.86l-2.18,12.37h6.68l2.59-3.32c.5-.64,1.07-.71,1.36-.14.69,1.13,1.23,2.19,1.64,3.32.12.28.1.71-.12.99l-.24.42c-.22.28-.48.49-.76.49h-25c-.28,0-.52-.21-.56-.64-.12-.57.53-1.13,1.31-1.13h9.8l2.18-12.37h-11.69c-.28,0-.46-.21-.57-.57-.11-.64.55-1.2,1.33-1.2h11.25l2.28-12.93c.11-.64.59-1.13,1.13-1.06,3.08.21,4.48.78,4.32,1.7-.1.57-1,1.27-2.64,2.05l-1.81,10.25h7.52l2.81-3.6c.42-.49.99-.57,1.31-.14.89,1.27,1.57,2.47,2.04,3.6.12.28.04.71-.13,1.06l-.23.35Zm-14.58,41.63l2.75-15.62h-15.03l-2.75,15.62h15.03Z"/>
        <path class="cls-2" d="m353.36,229c-.56,0-1.14-.78-1.8-2.4-.75-1.77-1.77-3.53-3.07-5.3-3.83,6.57-8.81,11.73-14.97,15.41-.38.28-.8.14-.95-.28-.19-.49.03-1.13.54-1.48,5.65-4.24,10.1-9.61,13.42-16.11-1.48-1.7-3.27-3.25-5.4-4.73-.19.42-.36.78-.49,1.2-.48,1.13-.81,2.05-1.1,2.76-.28.64-.77.92-1.24.71l-1.24-.57c-.41-.21-.61-.64-.34-1.2,3.12-7.92,6.3-16.47,9.3-25.58h-5.4c-.33,0-.56-.28-.6-.71-.07-.56.52-1.06,1.25-1.06h5.35l.21-.57c1.36-3.6,2.63-8.27,4.25-13.99.17-.64.68-.99,1.16-.92,2.84.64,4.16,1.34,4,2.26-.11.64-.98,1.13-2.67,1.55-1.54,4.95-2.63,8.62-3.46,11.1-.02.14-.12.35-.16.57h5.85l2.01-2.54c.42-.5.93-.57,1.29-.07,1.35,1.84,2.01,3.11,1.9,3.75-.05.28-.2.49-.51.71l-1.57.99c-2.73,10.11-5.62,18.59-8.71,25.37,3.87,3.6,5.59,6.5,5.19,8.76-.29,1.63-.98,2.4-2.04,2.4Zm-4.01-37.6c-2.66,8.13-5.16,15.05-7.59,20.92,2.41,1.2,4.41,2.47,6.09,3.67,2.87-6.78,5.54-14.98,7.96-24.59h-6.46Zm34.04,21.98l-1.04.85-3.89,22.05c-.11.64-.52,1.06-1.02,1.06h-1.5c-.5,0-.76-.42-.65-1.06l.55-3.11h-16.04l-.55,3.11c-.11.64-.52,1.06-1.02,1.06h-1.5c-.5,0-.76-.42-.65-1.06l4.51-25.58c.16-.92.68-1.63,1.08-1.41.61.35,1.45.92,2.44,1.62h15.31l1.49-1.48c.34-.35.74-.42,1.03-.14,1.56,1.55,2.33,2.54,2.25,3.04-.06.35-.35.71-.8,1.06Zm1.73-4.45c-1.84,0-3.77-1.34-5.67-4.17-2.09-2.97-3.25-7.14-3.53-12.51h-8.91l-1.88,10.67c3.22-.57,6.25-1.34,9-2.12.47-.14.87.14.88.71.04.42-.27.92-.76,1.13-4.74,1.91-9.52,3.46-14.32,4.81-.45,1.62-.88,2.47-1.33,2.47-.56,0-.95-1.55-1.14-4.59-.02-.85.48-1.48,1.11-1.55,1.07-.07,2.15-.21,3.29-.35l4.15-23.53c.16-.92.87-1.48,1.48-1.13.76.42,1.51.92,2.23,1.55,6.9-1.55,12.32-3.53,16.22-5.79.3-.14.53-.14.77.07,1.8,1.77,2.64,3.04,2.5,3.82-.06.35-.38.57-.94.57-.33,0-.92-.14-1.72-.35-3.04.85-5.25,1.34-6.63,1.62.03.14-.03.5-.11.92-.06.64-.13,1.06-.18,1.34-.39,2.54-.58,5.16-.54,7.77h5.23l2.45-3.18c.43-.57,1.06-.64,1.36-.14.56.92,1.14,2.05,1.65,3.25.17.28.1.71-.13,1.06l-.16.28c-.22.28-.48.49-.76.49h-9.58c.34,4.1,1.36,7.42,3.14,9.68.77.99,1.31,1.41,1.59,1.41.78,0,1.98-2.05,3.31-6.15.33-.92.96-1.34,1.5-.92.15.07.14.49,0,.99-.77,2.47-1.21,4.31-1.4,5.44-.27,1.55-.18,2.61.21,3.25.22.35.36.78.12,1.2-.74,1.34-1.52,1.98-2.52,1.98Zm-8.97,22.47l1.53-8.69h-16.04l-1.53,8.69h16.04Zm1.84-10.46l1.46-8.27h-16.04l-1.46,8.27h16.04Zm-2.09-30.46c.03-3.04.26-6.22.74-9.54-1.62.35-4.12.64-7.45,1.2l-.4.07-1.46,8.27h8.57Z"/>
        <path class="cls-2" d="m423.1,222.85c-8.18,3.46-16.27,6.36-24.13,8.62-.62,1.91-1.11,2.83-1.61,2.83-.72,0-1.12-1.84-1.3-5.58-.04-.71.4-1.34.97-1.41,3.45-.64,6.97-1.34,10.51-2.12l3.08-17.46h-9.35c-.28,0-.52-.21-.56-.64-.12-.57.53-1.13,1.31-1.13h16.26l2.91-3.89c.45-.64,1.07-.71,1.37-.21.73,1.2,1.44,2.54,2.04,3.89.12.28.1.71-.13,1.06l-.24.42c-.22.28-.48.5-.75.5h-9.63l-2.94,16.68c4.32-1.13,8.29-2.19,11.94-3.32.59-.21.96.21.95.92,0,.35-.29.71-.71.85Zm15.95,12.51c-1.78,0-3.86-2.12-6.16-6.43-4.68-8.83-6.49-20.99-5.52-36.25h-25.61c-.28,0-.52-.21-.56-.64-.12-.57.53-1.13,1.31-1.13h25l.19-2.05c.25-2.69.7-5.87,1.34-9.47l.64-3.6c.12-.71.65-1.13,1.19-1.06,2.94.35,4.35.92,4.2,1.77-.09.49-.94,1.2-2.46,1.98l-.26,1.48c-.61,3.46-1.07,7-1.37,10.6h11.41l2.73-3.82c.45-.64,1.07-.71,1.42-.14.65,1.06,1.27,2.26,1.84,3.46l.13.21c.12.28.1.71-.13,1.06l-.25.49c-.22.28-.48.49-.76.49h-16.54c-.75,11.52.25,20.99,2.9,28.41,1.57,4.38,2.85,6.57,3.8,6.57.89,0,2.4-3.82,4.52-11.45.29-.99.99-1.48,1.58-1.06.1.07.15.42.02.85-1.01,4.17-1.81,7.42-2.21,9.68-.6,3.39-.47,5.51.36,6.5.23.28.38.71.19,1.13-.79,1.62-1.7,2.4-2.93,2.4Zm2.08-48.41c-1,0-1.53-.78-1.54-2.33,0-2.47-.81-4.88-2.37-7.07-.26-.42-.28-.92,0-1.27.28-.35.7-.49,1-.28,4.13,2.47,5.87,5.23,5.32,8.34-.31,1.77-1.07,2.61-2.41,2.61Z"/>
        <path class="cls-2" d="m480.74,230.62c-.16.57-.55.92-1,.92h-22.88c-.5,0-.76-.42-.65-1.06l.32-1.84c2.46-6.71,7.35-13.29,14.79-19.79l1.05-.92c3.49-3.04,5.95-5.3,7.32-7.07,1.83-2.47,3-5.02,3.49-7.77.66-3.75.21-6.57-1.4-8.48-1.15-1.34-2.76-2.05-4.71-2.05-3.17,0-5.68,1.27-7.59,3.89-1.03,1.41-1.67,2.83-1.99,4.31,1.77.07,2.46,1.2,2.09,3.32-.41,2.33-1.5,3.46-3.28,3.46-2.17,0-3-1.62-2.45-4.73.57-3.25,2.07-6.08,4.66-8.76,2.66-2.76,5.68-4.1,9.19-4.1,3.29,0,5.81,1.13,7.67,3.25,2.11,2.54,2.85,5.94,2.09,10.25-.52,2.97-1.72,5.65-3.49,8.13-1.69,2.33-4.67,5.02-8.94,8.06l-1.78,1.27c-6.89,4.95-11.41,10.39-13.51,16.33h14.76c2.28,0,3.9-.64,4.86-1.98.8-1.06,1.84-3.46,3.13-7.35.14-.49.54-.85.93-.85.56,0,.79.56.61,1.27l-3.28,12.3Z"/>
        <path class="cls-2" d="m517.7,225.32c-3.33,5.3-7.25,7.99-11.65,7.99s-7.45-2.62-8.89-7.99c-1.37-4.88-1.32-11.17.02-18.73,1.84-10.46,5.07-18.02,9.73-22.69,2.63-2.61,5.43-3.96,8.38-3.96,4.62,0,7.59,2.76,9.08,8.2,1.27,4.81,1.3,10.95-.04,18.52-1.33,7.56-3.54,13.78-6.63,18.66Zm3.18-35.41c-.8-4.95-2.69-7.49-5.81-7.49-2.67,0-5.17,1.84-7.43,5.51-2.79,4.45-4.83,10.67-6.25,18.73-1.17,6.64-1.42,12.16-.78,16.4.83,5.09,2.76,7.7,5.94,7.7s6.04-2.69,8.71-8.06c2-4.1,3.67-9.47,4.82-15.97,1.22-6.93,1.44-12.58.79-16.82Z"/>
        <path class="cls-2" d="m556.24,230.62c-.16.57-.55.92-1,.92h-22.88c-.5,0-.76-.42-.65-1.06l.32-1.84c2.46-6.71,7.35-13.29,14.79-19.79l1.05-.92c3.49-3.04,5.95-5.3,7.32-7.07,1.83-2.47,3-5.02,3.49-7.77.66-3.75.21-6.57-1.4-8.48-1.15-1.34-2.76-2.05-4.71-2.05-3.17,0-5.68,1.27-7.59,3.89-1.03,1.41-1.67,2.83-1.98,4.31,1.77.07,2.46,1.2,2.09,3.32-.41,2.33-1.5,3.46-3.28,3.46-2.17,0-3-1.62-2.45-4.73.57-3.25,2.07-6.08,4.66-8.76,2.66-2.76,5.68-4.1,9.19-4.1,3.29,0,5.81,1.13,7.67,3.25,2.11,2.54,2.85,5.94,2.09,10.25-.52,2.97-1.72,5.65-3.49,8.13-1.69,2.33-4.67,5.02-8.94,8.06l-1.78,1.27c-6.89,4.95-11.41,10.39-13.51,16.33h14.76c2.28,0,3.9-.64,4.86-1.98.8-1.06,1.84-3.46,3.13-7.35.14-.49.54-.85.93-.85.56,0,.79.56.61,1.27l-3.28,12.3Z"/>
        <path class="cls-2" d="m591.53,228.43c-3.13,3.25-6.83,4.95-11.23,4.95-3.4,0-6.04-1.13-8.01-3.53-1.75-2.05-2.36-4.59-1.84-7.56.59-3.32,2-5.02,4.23-5.02,1.89,0,2.63,1.2,2.22,3.53-.39,2.19-1.35,3.25-2.97,3.25-.22,0-.45,0-.66-.07-.06,1.27.22,2.54.87,3.6,1.32,1.98,3.37,2.97,6.21,2.97s5.39-1.2,7.71-3.6c2.18-2.26,3.56-5.02,4.17-8.48.56-3.18.2-5.87-1.1-7.99-1.44-2.26-3.68-3.46-6.85-3.46h-1.95c-.5,0-.76-.42-.65-1.06l.12-.71c.11-.64.52-1.06,1.02-1.06h1.95c2.62,0,4.92-1.06,6.96-3.18,2.18-2.26,3.57-5.09,4.18-8.55.5-2.83.17-5.09-.96-6.85-1.22-1.91-3-2.9-5.34-2.9s-4.62.92-6.64,2.61c-1.12.99-1.99,2.12-2.55,3.39,1.78,0,2.43,1.06,2.06,3.18-.41,2.33-1.51,3.53-3.41,3.53-2,0-2.8-1.48-2.26-4.52.51-2.9,2.25-5.51,5.16-7.77,2.7-2.05,5.56-3.11,8.51-3.11,3.9,0,6.66,1.41,8.3,4.1,1.38,2.26,1.77,5.09,1.19,8.41-1.18,6.71-4.93,10.88-11.27,12.44l-.09.49c6.49,1.7,9.06,6.08,7.82,13.15-.69,3.89-2.32,7.14-4.91,9.82Z"/>
      </g>
      <g>
        <path class="cls-1" d="m73.18,234.13c-.13,0-.26-.02-.39-.06l-1.14-.27c-.42-.12-.72-.36-.89-.7-.14-.26-.25-.71-.02-1.35l5.33-17.01h-6.16l-5.85,18.07c-.29.83-.89,1.33-1.56,1.33-.13,0-.26-.02-.39-.06l-1.14-.27c-.42-.12-.73-.38-.91-.73-.2-.4-.22-.89-.05-1.39l5.53-16.94h-4.5c-.4,0-.76-.16-1-.45-.28-.34-.39-.83-.29-1.38l.16-.92c.17-.96.84-1.6,1.66-1.6h5.26l3.57-10.93h-6.29c-.4,0-.76-.16-1-.45-.28-.34-.39-.83-.29-1.38l.17-.99c.17-.96.84-1.6,1.66-1.6h7.04l4.34-13.33c.3-.8.92-1.31,1.6-1.31.07,0,.14,0,.21.02l1.15.22c.35.05.67.26.87.6.27.44.31,1.03.11,1.59l-3.97,12.21h6.09l4.17-13.25c.31-.87.92-1.4,1.6-1.4.12,0,.25.02.37.05l1.14.27c.42.12.73.38.91.73.2.4.22.89.05,1.39l-3.92,12.21h4.45c.4,0,.76.16,1,.45.28.34.39.83.29,1.38l-.17.99c-.17.96-.84,1.6-1.66,1.6h-5.26l-3.47,10.93h6.18c.4,0,.76.16,1,.45.28.34.39.83.29,1.38l-.16.92c-.17.96-.84,1.6-1.66,1.6h-6.87l-5.63,18.06c-.29.83-.89,1.34-1.56,1.34Zm4.1-23.73l3.47-10.93h-5.99l-3.57,10.93h6.09Z"/>
        <path class="cls-1" d="m141.83,237.99c-.4,0-.76-.16-1-.45-.28-.34-.39-.83-.29-1.38l.3-1.71h-19.89l-.34,1.94c-.17.96-.84,1.6-1.66,1.6h-1.56c-.4,0-.76-.16-1-.45-.28-.34-.39-.83-.29-1.38l3.78-21.41c-.49.79-1.22,1.19-2.16,1.19-.71,0-1.64-.45-2.06-2.57-.42-2.15-1.32-4.13-2.73-6.02l-5.12,29.05c-.17.96-.84,1.6-1.66,1.6h-1.39c-.4,0-.76-.16-1-.45-.28-.34-.39-.83-.29-1.38l4.58-26c-2.25,2.31-4.66,4.54-7.32,6.75-.27.24-.61.38-.95.38-.49,0-.92-.28-1.14-.74-.29-.65-.06-1.44.6-2.03,7.47-7.47,13.65-15.65,18.86-24.95h-12.37c-.69,0-1.2-.49-1.26-1.23-.05-.4.09-.83.4-1.18.37-.41.93-.66,1.5-.66h5.86l2.04-11.55c.17-.99.87-1.67,1.68-1.67.06,0,.12,0,.19.01,2.49.24,3.87.68,4.43,1.43.25.32.34.7.27,1.1-.15.84-1.02,1.57-2.74,2.27l-1.48,8.42h2.25l1.74-2.22c.37-.43.81-.66,1.25-.66s.86.24,1.11.65c1.75,2.54,2.3,3.66,2.17,4.41-.1.57-.53.92-.85,1.13l-1.62.87c-2.87,4.75-5.81,9.02-8.76,12.71,1.66,1.09,3.16,2.43,4.47,3.98,1.18,1.33,1.89,2.63,2.13,3.87l.4-2.29c.17-.96.72-1.99,1.54-1.99.16,0,.33.05.47.13.55.25,1.23.67,2.03,1.17l.69.43h19.61l1.78-2.1c.31-.37.73-.59,1.15-.59s.78.19,1.05.55c2.46,2.99,2.32,3.83,2.27,4.1-.12.67-.58,1.08-.92,1.33l-1.38.98-4.13,23.41c-.17.96-.84,1.6-1.66,1.6h-1.56Zm-.45-6.6l1.53-8.66h-7.92l-1.53,8.66h7.92Zm-12.36,0l1.53-8.66h-7.53l-1.53,8.66h7.53Zm14.43-11.73l1.39-7.89h-7.92l-1.39,7.89h7.92Zm-12.36,0l1.39-7.89h-7.53l-1.39,7.89h7.53Zm-4.53-14.11c-.4,0-.75-.16-1-.45-.28-.34-.39-.83-.29-1.38l2.82-15.97c.19-1.11.92-1.91,1.73-1.91.24,0,.48.08.68.22.72.43,1.32.83,1.93,1.29h12.9l1.71-2.03c.46-.54.91-.65,1.21-.65.39,0,.75.19,1.01.54,2.38,2.85,2.23,3.66,2.18,3.96-.09.5-.37.84-.8,1.22l-1.38,1.08-2.12,12.05c-.17.96-.84,1.6-1.66,1.6h-1.45c-.4,0-.76-.16-1-.45-.28-.34-.39-.83-.29-1.38l.17-.93h-12.93l-.28,1.58c-.17.96-.84,1.6-1.66,1.6h-1.45Zm16.86-6.25l1.56-8.88h-12.93l-1.56,8.88h12.93Zm-17.55-17.64c-.69,0-1.2-.49-1.26-1.23-.05-.4.1-.83.41-1.18.37-.41.93-.66,1.5-.66h23.13l2.72-3.36c.37-.43.81-.66,1.25-.66.41,0,.77.19,1.03.54.83,1.08,1.6,2.33,2.27,3.71.28.45.25,1.14-.11,1.7l-.16.34-.04.05c-.48.62-.95.75-1.27.75h-29.45Z"/>
        <path class="cls-1" d="m158.31,237.77c-.55,0-.99-.32-1.17-.86-.36-.71,0-1.69.92-2.31,6.95-4.42,11.87-11,14.67-19.59h-11.64c-.65,0-1.14-.51-1.2-1.23-.08-.32.03-.74.32-1.09.37-.46,1-.74,1.65-.74h11.79c.63-2.61,1.02-4.39,1.28-5.89l1.96-11.11h-10.36c-.69,0-1.2-.49-1.26-1.23-.05-.4.1-.83.41-1.18.37-.41.93-.66,1.5-.66h10.26l2.62-14.87c.16-.93.87-1.6,1.67-1.6.06,0,.12,0,.19.01,2.74.24,4.24.69,4.82,1.45.24.32.33.69.27,1.07-.14.8-1.04,1.56-2.81,2.39l-2.04,11.55h12.21l2.65-15.01c.16-.93.87-1.6,1.67-1.6.06,0,.12,0,.19.01,2.78.24,4.29.69,4.88,1.45.24.32.33.69.27,1.07-.15.84-1.04,1.6-2.88,2.46l-2.05,11.62h4.57l2.67-3.69c.35-.5.84-.79,1.34-.79.47,0,.89.25,1.16.69.79,1.51,1.43,2.85,1.95,4.12.23.77.05,1.27-.16,1.58l-.18.36-.04.05c-.48.62-.95.75-1.27.75h-10.59l-3,17h6.03l3-3.98c.4-.51.89-.78,1.37-.78s.9.27,1.14.74c.91,1.59,1.57,2.9,2.12,4.21.21.51.14,1.17-.18,1.67l-.22.39c-.52.69-1,.82-1.32.82h-12.32l-3.64,20.66c-.17.96-.84,1.6-1.66,1.6h-1.73c-.4,0-.76-.16-1-.45-.28-.34-.39-.83-.29-1.38l3.6-20.44h-12.94c-3.22,10.49-9.46,18.09-18.56,22.62-.24.1-.43.13-.61.13Zm32.49-25.82l3-17h-12.21l-2,11.34c-.31,1.76-.7,3.58-1.22,5.67h12.43Z"/>
        <path class="cls-1" d="m241.93,232.34c-.51,0-.96-.2-1.26-.55-.34-.41-.47-.98-.36-1.62.19-1.05,1.02-1.9,2.12-2.15,2.83-.72,7.38-2.64,12.82-7.62,4.45-4.07,6.88-8.84,8.13-15.96l.36-2.05c1.33-7.55-2.35-14.51-8.38-15.86-1.68-.37-3.25-.55-4.77-.55-.55,0-1.13.03-1.69.09.64,1.83.78,3.74.42,5.8-.18,1.04-.61,2.69-1.63,4.64-4.38,8.71-9.33,16.36-14.7,22.73-1.72,2.01-4.34,4.4-7.08,4.4-2.03,0-3.7-1.43-4.7-4.02-.81-2.16-.91-5.16-.29-8.69.99-5.6,3.61-11.7,6.83-15.9,5.54-7.21,11.78-11.49,19.07-13.1,1.62-.38,3.36-.58,5.03-.58,8.35,0,14.14,4.62,15.86,12.67.81,3.74.88,7.6.19,11.49-1.25,7.11-5.02,13.92-10.34,18.68-4.93,4.41-9.72,6.97-15.09,8.05-.23.1-.43.1-.56.1Zm3.49-45.59c-3.19,1.02-6.45,2.92-9.95,5.8-6.98,5.74-9.22,13.42-9.94,17.49-.28,1.6-.43,3.05-.42,4.19.02,2.52.66,4.09,1.69,4.09.4,0,1.53-.24,3.32-2.51,3.81-4.65,10.47-14.39,13.7-20.47.85-1.62,1.44-3.31,1.72-4.9.26-1.48.21-2.81-.12-3.7Z"/>
        <path class="cls-1" d="m316.76,237.99c-.4,0-.76-.16-1-.45-.28-.34-.39-.83-.29-1.38l.49-2.77h-13.71l-.53,3c-.17.96-.84,1.6-1.66,1.6h-1.56c-.4,0-.76-.16-1-.45-.28-.34-.39-.83-.29-1.38l4.06-23.04c.19-1.09.89-1.88,1.67-1.88.2,0,.39.05.57.15.67.37,1.43.87,2.39,1.54h13.52l1.71-2.03c.44-.52.88-.62,1.18-.62.36,0,.71.16.99.46,2.2,2.55,2.36,3.56,2.26,4.16-.07.42-.34.82-.81,1.23l-1.31,1-3.4,19.26c-.17.96-.84,1.6-1.66,1.6h-1.61Zm-.26-7.66l2.52-14.32h-13.71l-2.52,14.32h13.71Zm-33.15,7.66c-.4,0-.76-.16-1-.45-.28-.34-.39-.83-.29-1.38l5.16-29.25c-.23.04-.49.08-.77.13-.54.09-1.18.19-1.93.33-.97.16-1.74.31-2.38.43l-.32.06c-.87,2.12-1.47,2.41-1.94,2.41-1.08,0-1.49-1.38-1.54-5.1.04-1.21.81-2.14,1.75-2.14l2.49-.14c.93-.05,1.56-.09,1.9-.12,1.68-2.14,3.34-4.36,4.95-6.65-.27.06-.52.09-.73.09-1.65,0-1.86-2.36-1.93-3.14-.24-2.57-1.41-5.24-3.39-7.71-.5-.67-.46-1.61.09-2.35.23-.31.59-.48.98-.48.33,0,.67.12.97.33,1.15.75,2.03,1.43,2.72,2.08,1.98-3.3,3.8-6.93,5.57-11.07.33-.7.93-1.13,1.54-1.13.24,0,.48.07.69.2,2.68,1.37,3.81,2.52,3.6,3.7-.18,1.05-1.46,1.43-2.64,1.62-2.35,3.32-4.67,6.29-6.88,8.84,1.35,1.95,1.95,3.82,1.78,5.56,2.18-3.26,4.3-6.66,6.32-10.16.35-.56.87-.88,1.42-.88.28,0,.54.09.77.25,2.43,1.65,3.48,2.93,3.28,4.03-.2,1.14-1.49,1.42-2.81,1.51-3.96,5.27-8.12,10.33-12.4,15.05l1.92-.15c1.81-.14,3.48-.33,5.1-.58-.35-1.28-.83-2.55-1.42-3.79-.34-.72-.2-1.56.37-2.15.25-.31.62-.5,1.01-.5.35,0,.68.16.95.44,3.54,3.58,5.05,7.56,4.36,11.51-.48,2.72-1.88,3.29-2.96,3.29-.58,0-1.04-.18-1.37-.55-.42-.46-.58-1.16-.48-2.14.09-.96.12-1.93.09-2.88-.11.03-.23.05-.35.08-.82.2-1.97.48-3.43.78-.11.06-.23.08-.33.1l-5.37,30.43c-.17.96-.84,1.6-1.66,1.6h-1.45Zm-8.54-5.14c-.24,0-.47-.07-.66-.21-.57-.34-.74-1.13-.4-1.97,2.37-5.12,4.31-10.92,5.76-17.29.24-.96.93-1.59,1.73-1.59.13,0,.25.02.37.05,2.03.63,4.28,1.56,4,3.14-.17.98-1.24,1.46-2.27,1.76-1.97,5.72-4.38,10.84-7.18,15.22-.49.74-1.01.89-1.35.89Zm18.91-4.76c-.5,0-.93-.19-1.24-.54-.53-.62-.66-1.69-.4-3.39.53-3.32.3-7.12-.69-11.27-.13-.77.11-1.49.6-1.92.25-.21.54-.33.83-.33.44,0,.84.25,1.11.69,2.73,4.65,3.75,9.01,3.06,12.96-.44,2.51-1.54,3.79-3.27,3.79Zm8.26-23.46c-.65,0-1.14-.51-1.2-1.23-.08-.32.03-.74.32-1.09.37-.46,1-.74,1.65-.74h9.25l1.95-11.07h-10.92c-.27,0-.92-.1-1.19-1.03-.09-.51.03-.96.34-1.32.38-.45.98-.71,1.61-.71h10.7l2.19-12.4c.16-.93.87-1.6,1.67-1.6.06,0,.12,0,.19.01,2.58.18,4.01.59,4.6,1.35.25.32.35.71.28,1.11-.09.49-.47,1.27-2.7,2.38l-1.61,9.16h6.42l2.61-3.35c.38-.44.83-.67,1.29-.67.42,0,.8.2,1.05.54.92,1.32,1.63,2.57,2.12,3.74.18.44.13,1.04-.15,1.6l-.27.42c-.34.52-.78.79-1.3.79h-12.32l-1.95,11.07h5.59l2.4-3.07c.51-.64,1.01-.78,1.34-.78.47,0,.88.27,1.12.74.72,1.18,1.26,2.27,1.67,3.4.17.42.18,1.09-.21,1.61l-.19.35c-.52.69-1,.82-1.32.82h-25Z"/>
        <path class="cls-1" d="m375.95,237.99c-.4,0-.76-.16-1-.45-.28-.34-.39-.83-.29-1.38l.41-2.35h-14.72l-.45,2.57c-.17.96-.84,1.6-1.66,1.6h-1.5c-.4,0-.76-.16-1-.45-.28-.34-.39-.83-.29-1.38l4.51-25.58c.17-.99.73-1.99,1.57-1.99.16,0,.31.04.45.11.6.35,1.39.87,2.35,1.55h14.83l1.3-1.29c.31-.32.7-.51,1.08-.51.32,0,.63.13.86.36,1.93,1.92,2.56,2.86,2.43,3.61-.09.51-.43.98-1.04,1.46l-.84.69-3.85,21.81c-.17.96-.84,1.6-1.66,1.6h-1.5Zm-.33-7.24l1.3-7.39h-14.72l-1.3,7.39h14.72Zm1.84-10.46l1.23-6.97h-14.72l-1.23,6.97h14.72Zm-44.35,17.21c-.52,0-.97-.34-1.16-.87-.3-.76.03-1.71.78-2.23,5.38-4.04,9.76-9.25,13.01-15.48-1.22-1.35-2.65-2.61-4.34-3.84-.05.13-.1.26-.14.4-.31.73-.54,1.33-.74,1.85-.14.36-.26.68-.38.96-.33.74-.9,1.18-1.53,1.18-.2,0-.39-.04-.58-.13l-1.24-.57c-.8-.41-1.05-1.24-.66-2.07,3.43-8.71,6.38-16.8,8.99-24.66h-4.5c-.67,0-1.18-.54-1.25-1.3-.05-.39.09-.79.38-1.12.36-.4.92-.64,1.52-.64h4.89l.05-.14c1.18-3.14,2.33-7.19,3.65-11.89l.58-2.06c.22-.83.89-1.4,1.67-1.4.07,0,.15,0,.22.02,2.44.54,4.85,1.32,4.55,3.02-.19,1.09-1.53,1.63-2.79,1.98-.51,1.64-.97,3.13-1.38,4.48-.76,2.46-1.36,4.44-1.88,5.99h4.66l1.81-2.3c.36-.43.8-.66,1.23-.66s.82.22,1.1.61c1.96,2.68,2.12,3.65,2.01,4.24-.08.47-.33.83-.79,1.13l-1.37.86c-2.68,9.9-5.54,18.24-8.48,24.8,3.83,3.64,5.48,6.59,5.05,9.03-.43,2.43-1.69,2.94-2.68,2.94-.89,0-1.61-.84-2.41-2.81-.61-1.44-1.42-2.9-2.42-4.36-3.83,6.28-8.76,11.25-14.68,14.78-.19.14-.46.24-.74.24Zm9.49-25.49c1.71.88,3.35,1.87,4.97,2.99,2.68-6.48,5.17-14.19,7.41-22.95h-5.15c-2.57,7.84-4.94,14.38-7.23,19.96Zm16.02-1.44c-1.07,0-1.55-1.41-1.79-5.2-.02-1.18.7-2.13,1.69-2.24.93-.06,1.85-.17,2.81-.29l4.07-23.06c.18-1.03.91-1.77,1.74-1.77.25,0,.49.07.71.2.77.43,1.46.9,2.08,1.41,6.54-1.5,11.83-3.4,15.72-5.65.28-.13.49-.19.7-.19.3,0,.58.11.83.33,2.07,2.02,2.89,3.38,2.71,4.42-.05.26-.29,1.1-1.58,1.1-.37,0-.9-.12-1.72-.33-2.18.6-4.2,1.1-6.02,1.49-.02.14-.05.3-.08.5-.05.61-.13,1.05-.18,1.34-.36,2.3-.53,4.66-.53,7.01h4.27l2.26-2.93c.35-.46.83-.73,1.32-.73.46,0,.86.23,1.11.64.6.98,1.18,2.13,1.7,3.33.26.4.2,1.08-.18,1.67l-.14.25c-.52.69-1,.82-1.32.82h-8.86c.39,3.74,1.38,6.64,2.94,8.63.61.78.95,1.05,1.09,1.14.23-.16,1.18-1.07,2.68-5.67.35-.97.97-1.53,1.68-1.53.28,0,.55.09.8.27.31.19.57.64.26,1.72-.88,2.84-1.25,4.59-1.39,5.37-.29,1.67-.1,2.44.12,2.8.51.84.35,1.47.13,1.86-.54.98-1.46,2.31-3.08,2.31-2.14,0-4.22-1.5-6.21-4.46-2.08-2.94-3.26-6.95-3.6-12.22h-7.75l-1.62,9.21c3.17-.6,6.06-1.38,8.02-1.94.13-.04.27-.06.41-.06.73,0,1.28.58,1.29,1.38.06.67-.42,1.42-1.14,1.74-4.32,1.74-8.91,3.29-14.06,4.74-.47,1.57-.98,2.6-1.85,2.6Zm16.65-20.74c.05-2.68.26-5.39.61-8.08-.75.13-1.63.26-2.66.42-1.13.17-2.41.36-3.86.6l-1.24,7.06h7.16Z"/>
        <path class="cls-1" d="m439.04,236.01c-2.1,0-4.3-2.22-6.73-6.78-4.62-8.73-6.52-20.8-5.64-35.91h-24.92c-.65,0-1.14-.51-1.2-1.23-.08-.32.03-.74.32-1.09.37-.46,1-.74,1.65-.74h24.41l.14-1.46c.25-2.69.7-5.9,1.34-9.52l.63-3.6c.17-.95.87-1.61,1.71-1.61.07,0,.13,0,.2.01,2.57.31,3.97.77,4.51,1.5.23.31.31.66.25,1.02-.05.27-.19,1.05-2.52,2.3l-.21,1.17c-.56,3.2-1,6.51-1.3,9.84h10.37l2.54-3.54c.35-.5.84-.8,1.34-.8.47,0,.89.25,1.16.69.6.99,1.23,2.17,1.87,3.52l.12.19.02.05c.21.51.14,1.16-.19,1.66l-.25.49-.04.05c-.48.62-.95.75-1.27.75h-15.93c-.66,11.02.31,20.29,2.9,27.54,1.87,5.24,2.88,6.01,3.13,6.12.35-.3,1.45-1.96,3.96-10.95.3-1.03.99-1.69,1.76-1.69.29,0,.57.09.83.27.45.32.42,1.04.26,1.57l-.1.4c-.96,3.93-1.71,7.04-2.09,9.2-.69,3.9-.26,5.4.21,5.97.44.55.55,1.22.29,1.81-.59,1.21-1.58,2.79-3.52,2.79Zm-41.68-1.06c-1.22,0-1.73-1.62-1.95-6.2-.06-1.03.63-1.98,1.54-2.09,3.38-.62,6.76-1.3,10.02-2.02l2.87-16.26h-8.58c-.65,0-1.14-.51-1.2-1.23-.08-.32.03-.74.32-1.09.37-.46,1-.74,1.65-.74h15.93l2.72-3.63c.35-.5.85-.8,1.35-.8.45,0,.85.23,1.1.63.76,1.25,1.48,2.62,2.08,3.96.22.53.14,1.18-.18,1.68l-.22.39c-.52.69-1,.82-1.32.82h-9.09l-2.67,15.14c3.67-.96,7.49-1.99,10.94-3.06.15-.05.32-.08.48-.08.33,0,.65.13.88.37.29.3.44.74.43,1.27-.01.64-.47,1.22-1.15,1.45-8.09,3.43-16.12,6.3-23.83,8.54-.62,1.87-1.19,2.95-2.12,2.95Zm43.76-47.35c-.81,0-2.18-.39-2.19-2.98,0-2.36-.77-4.61-2.25-6.69-.44-.71-.42-1.51.02-2.06.32-.4.75-.62,1.19-.62.25,0,.49.08.69.22,4.29,2.57,6.18,5.6,5.58,8.98-.37,2.09-1.4,3.15-3.05,3.15Z"/>
        <path class="cls-1" d="m456.86,232.19c-.4,0-.76-.16-1-.45-.28-.34-.39-.83-.29-1.38l.33-1.89.02-.05c2.5-6.8,7.54-13.55,14.97-20.05l1.05-.92c3.47-3.02,5.88-5.24,7.23-6.98,1.8-2.44,2.9-4.89,3.36-7.49.63-3.55.2-6.22-1.26-7.95-1.04-1.21-2.45-1.82-4.21-1.82-2.98,0-5.29,1.18-7.06,3.62-.8,1.1-1.36,2.21-1.7,3.38.6.14,1.08.43,1.43.86.57.71.73,1.76.49,3.12-.58,3.31-2.46,4-3.92,4-1.07,0-1.9-.34-2.47-1.02-.77-.92-.98-2.43-.62-4.48.59-3.37,2.18-6.34,4.84-9.1,2.79-2.89,5.95-4.3,9.65-4.3,3.4,0,6.14,1.17,8.16,3.47,2.27,2.74,3.02,6.36,2.24,10.79-.52,2.96-1.73,5.78-3.61,8.39-1.73,2.38-4.78,5.14-9.09,8.21l-1.78,1.27c-6.43,4.62-10.78,9.71-12.95,15.15h13.82c2.09,0,3.51-.56,4.33-1.71.78-1.03,1.8-3.44,3.05-7.18.22-.75.85-1.29,1.55-1.29.41,0,.77.17,1.01.48.3.39.39.98.23,1.6l-3.28,12.3c-.23.85-.87,1.4-1.63,1.4h-22.88Z"/>
        <path class="cls-1" d="m506.05,233.96c-4.8,0-8.01-2.85-9.52-8.47-1.36-4.86-1.36-11.26,0-19.01,1.86-10.57,5.2-18.32,9.92-23.03,2.77-2.75,5.75-4.15,8.84-4.15,4.86,0,8.13,2.92,9.71,8.68,1.31,4.96,1.3,11.29-.02,18.8-1.34,7.61-3.6,13.97-6.72,18.89-3.45,5.5-7.56,8.29-12.2,8.29Zm9.03-50.88c-2.44,0-4.75,1.75-6.88,5.2-2.72,4.34-4.74,10.39-6.17,18.5-1.15,6.53-1.41,11.98-.77,16.19.78,4.81,2.52,7.15,5.29,7.15s5.56-2.52,8.13-7.7c2.05-4.2,3.65-9.51,4.76-15.79,1.18-6.7,1.45-12.29.79-16.61-.75-4.67-2.44-6.94-5.16-6.94Z"/>
        <path class="cls-1" d="m532.36,232.19c-.4,0-.76-.16-1-.45-.28-.34-.39-.83-.29-1.38l.33-1.89.02-.05c2.5-6.8,7.54-13.55,14.97-20.05l1.05-.92c3.47-3.02,5.88-5.24,7.23-6.98,1.8-2.44,2.9-4.89,3.36-7.49.63-3.55.2-6.22-1.26-7.95-1.04-1.21-2.45-1.82-4.21-1.82-2.98,0-5.29,1.18-7.06,3.62-.8,1.1-1.36,2.22-1.7,3.38.6.14,1.08.43,1.43.86.57.71.73,1.76.49,3.12-.58,3.31-2.46,4-3.92,4-1.07,0-1.9-.34-2.47-1.02-.77-.92-.98-2.43-.62-4.48.59-3.36,2.17-6.34,4.84-9.1,2.79-2.89,5.95-4.3,9.65-4.3,3.4,0,6.14,1.17,8.16,3.47,2.27,2.73,3.02,6.36,2.24,10.79-.52,2.96-1.73,5.78-3.6,8.39-1.73,2.38-4.78,5.14-9.09,8.21l-1.78,1.27c-6.43,4.62-10.78,9.71-12.95,15.15h13.82c2.09,0,3.51-.56,4.33-1.71.78-1.03,1.8-3.44,3.05-7.18.22-.75.85-1.29,1.55-1.29.41,0,.77.17,1.01.48.31.39.39.98.23,1.6l-3.28,12.3c-.23.85-.87,1.4-1.63,1.4h-22.88Z"/>
        <path class="cls-1" d="m580.31,234.03c-3.65,0-6.43-1.23-8.51-3.77-1.87-2.18-2.54-4.91-1.98-8.09.81-4.59,3.09-5.56,4.87-5.56,1.03,0,1.81.31,2.33.92.62.74.8,1.87.53,3.37-.44,2.51-1.66,3.79-3.61,3.79h0c.06.94.32,1.81.77,2.54,1.19,1.78,3.05,2.66,5.66,2.66s5.03-1.11,7.24-3.41c2.11-2.19,3.42-4.85,4-8.14.53-3.03.19-5.56-1.01-7.53-1.35-2.12-3.41-3.15-6.3-3.15h-1.95c-.4,0-.76-.16-1-.45-.28-.34-.39-.83-.29-1.38l.12-.71c.17-.96.84-1.6,1.66-1.6h1.95c2.44,0,4.56-.98,6.5-2.98,2.11-2.19,3.42-4.87,4.01-8.21.47-2.66.19-4.75-.87-6.39-1.12-1.75-2.69-2.6-4.79-2.6-2.21,0-4.24.81-6.22,2.46-.81.72-1.48,1.51-1.97,2.36.51.13.91.38,1.22.75.57.68.73,1.69.48,3.08-.59,3.36-2.53,4.07-4.05,4.07-1.01,0-1.79-.32-2.32-.96-.75-.89-.94-2.31-.58-4.33.54-3.05,2.35-5.8,5.4-8.17,2.84-2.16,5.84-3.25,8.91-3.25,4.08,0,7.06,1.48,8.85,4.41,1.46,2.39,1.89,5.37,1.28,8.86-1.15,6.52-4.67,10.76-10.48,12.6,5.83,2.03,8.16,6.56,6.94,13.48-.7,3.97-2.41,7.39-5.08,10.16-3.29,3.41-7.23,5.15-11.7,5.15Z"/>
      </g>
    </g>
    <g>
      <g>
        <path class="cls-1" d="m153.69,308.39c1.76,0,10.12-.89,11.49-1.17.84-.2.98-.61,1.53-.61.95,0,3.26,1.87,3.26,2.73,0,.7-.86.98-1.28,1.9-3.04,6.91-8.06,12.15-16.53,15.22l-.39-.61c7.89-4.01,13.13-10.23,14.75-16.64.11-.36-.06-.42-.31-.42-1.42,0-8.81,1.17-10.4,1.56-.75.17-1.37.67-1.95.67-.95,0-2.31-1.45-2.59-2.26-.14-.47-.2-.92-.25-1.7l.5-.2c.53.73,1.17,1.53,2.17,1.53Zm14.89-3.46c0-1.65,1.31-2.98,2.98-2.98s2.98,1.34,2.98,2.98-1.34,2.98-2.98,2.98-2.98-1.31-2.98-2.98Zm.98,0c0,1.12.89,2.01,2.01,2.01s1.98-.89,1.98-2.01-.89-1.98-1.98-1.98-2.01.89-2.01,1.98Z"/>
        <path class="cls-1" d="m176.66,306.67c.67-.31,1.48-.64,2.06-.64,1.28,0,3.21,1.39,3.21,2.12,0,.53-.61.95-.7,1.84-.17,1.51-.33,8.73-.33,11.32,0,.28.08.36.33.31,4.82-1.51,11.57-5.99,15.5-10.06l.5.5c-3.46,4.82-8.81,8.84-14.78,11.79-.92.47-.95,1.17-1.62,1.17-.78,0-2.37-1.73-2.37-2.45,0-.47.5-.89.53-1.84.08-1.92.11-10.12-.06-12.21-.03-.61-.28-.95-2.26-1.37l-.03-.47Z"/>
        <path class="cls-1" d="m205.79,304.88c.84-.31,1.64-.47,2.26-.47,1.17,0,3.04,1.12,3.04,1.81s-.56,1.03-.7,1.95c-.11.75-.22,2.2-.33,3.88,2.37-.67,5.71-1.59,7.28-2.04.84-.25,1.11-.78,1.56-.78.92,0,3.01,1.67,3.01,2.45,0,.61-.95.78-1.56,1.37-1.34,1.28-3.4,3.12-5.71,4.57l-.45-.45c1.73-1.84,3.26-3.85,4.1-5.41.19-.33.06-.53-.33-.47-1.51.22-5.52,1.59-7.97,2.43-.14,2.34-.2,4.85-.2,6.5.06,2.34.39,2.56,3.54,2.56,3.76,0,5.21-.67,5.77-.67.89,0,2.15.36,2.15,1.2,0,.61-.56.89-1.31,1.03-1.28.28-3.85.53-5.66.53-4.57,0-6.27-.33-6.3-4.13-.06-1.84.03-4.49.06-6.36-1.25.45-2.76,1-3.79,1.45-1.06.5-1.2.95-2.04.95-.73,0-2.34-1.25-2.73-2.09-.22-.45-.2-1.03-.17-1.65l.42-.14c.56.78,1.06,1.37,1.81,1.37,1,0,4.57-1.06,6.52-1.64.06-2.26.11-5.02.03-6.11-.06-.7-.89-.89-2.26-1.14l-.03-.5Zm12.02-.2c1.48.53,2.59,1.14,3.35,1.81.7.64.92,1.12.92,1.65,0,.5-.28.81-.75.81-.45,0-.78-.56-1.31-1.23-.56-.72-1.31-1.62-2.54-2.56l.33-.47Zm2.45-1.78c1.51.45,2.62,1,3.35,1.56.7.59,1,1.12,1,1.7,0,.53-.28.81-.72.81-.47,0-.78-.61-1.37-1.28-.56-.67-1.23-1.37-2.54-2.34l.28-.45Z"/>
        <path class="cls-1" d="m248.98,308.59l.61.39c-3.32,5.99-8.48,10.59-14.66,14.52-.64.39-.98,1.14-1.64,1.14-1.23,0-2.98-1.39-3.57-2.31-.28-.53-.53-1.48-.56-2.04l.42-.28c.78.86,1.7,1.81,2.62,1.81,2.4,0,12.8-7.44,16.78-13.24Zm-19.29-2.65c3.37.75,7.42,2.56,7.42,4.93,0,.75-.5,1.28-1.2,1.28-.59,0-1.03-.36-1.73-1.25-1.34-1.67-2.29-2.68-4.82-4.4l.33-.56Z"/>
        <path class="cls-1" d="m253.97,304.24c.75-.22,1.39-.47,1.98-.47,1.25,0,3.32,1.14,3.32,1.87,0,.64-.53.81-.64,1.73-.17,1.25-.22,3.15-.25,4.74,2.7.5,5.38,1.42,6.91,2.37.95.59,1.7,1.34,1.7,2.34,0,.64-.39,1.2-1.11,1.2-1.14,0-1.42-1.14-3.21-2.62-1.14-.84-2.51-1.59-4.29-2.31-.03,2.17-.03,6.5,0,9.31.03,1.28.08,2.15.08,2.59,0,.95-.28,1.34-1.03,1.34-1.09,0-1.64-1.51-1.64-2.79,0-.64.25-1.2.36-2.31.22-2.06.22-6.38.22-8.39,0-2.26,0-5.41-.2-6.77-.11-.89-.81-1.12-2.17-1.28l-.03-.53Z"/>
        <path class="cls-1" d="m277.63,304.44c.75-.33,1.81-.67,2.29-.67,1.2,0,2.93.7,2.96,1.34.06.59-.36.84-.28,1.67.08.81.22,1.51.45,2.56,1.12-.28,2.12-.56,3.01-.84,1.17-.39,1.7-.78,1.95-.78.86-.06,2.31.28,2.31,1,0,.53-.36.84-1.17,1-1.56.31-4.1.84-5.8,1.23.33,1.56.67,3.09.98,4.49,2.2-.53,4.93-1.25,5.97-1.59.72-.25.92-.42,1.17-.45,1.34-.06,2.65.47,2.65,1.17,0,.39-.2.84-1.03.92-2.68.25-4.54.59-8.42,1.51.56,2.45,1.03,4.46,1.31,5.52.33,1.37.59,2.04.59,2.9,0,.5-.25.98-.95.98-.72.03-1.39-.98-1.59-1.84-.14-.47-.28-2.15-.59-3.71-.17-.95-.39-2.15-.61-3.4-1.95.53-4.4,1.25-5.8,1.78-1,.36-1.34.81-1.98.81-.73.03-2.04-.78-2.45-1.37-.22-.33-.36-.78-.5-1.45l.45-.28c.73.61,1.14.86,1.62.86.81,0,5.46-1.17,8.36-1.9-.36-1.76-.73-3.43-.98-4.52-1.39.36-2.76.7-3.76,1.03-.78.31-1.03.61-1.62.61s-1.87-.81-2.31-1.42c-.28-.39-.33-.7-.45-1.28l.42-.19c.5.42.86.86,1.53.86s3.54-.67,5.83-1.2c-.39-1.67-.75-3.35-1.09-3.93-.31-.61-1.2-.61-2.4-.92l-.06-.53Z"/>
        <path class="cls-1" d="m300.16,310.04c.59-.22,1.14-.45,1.84-.45.92,0,2.56.47,2.56,1.06,0,.45-.17.86-.11,1.48.06.39.22,1.39.45,2.37,1.98-.53,4.99-1.34,5.83-1.59.47-.17.84-.64,1.17-.64.84,0,2.43,1.45,2.43,2.17,0,.5-.84.53-1.2.92-1,.98-2.68,2.79-4.77,4.15l-.33-.31c1.34-1.62,2.54-3.6,3.04-4.71.14-.31.03-.36-.28-.31-.95.22-3.57,1-5.58,1.59.7,2.84,1.67,6.3,2.12,7.75.2.64.53,1.59.53,2.09,0,.7-.31,1.09-.98,1.09-.89,0-1.45-.75-1.56-1.78-.28-1.98-1.14-6.05-1.84-8.64-1.11.36-2.31.75-2.76.92-.86.36-1.2.86-1.73.86-.72,0-1.78-.86-2.09-1.53-.11-.31-.14-.81-.17-1.34l.31-.14c.39.39.75.86,1.42.86.59.03,2.7-.5,4.66-1-.33-1.28-.81-2.98-1.14-3.6-.25-.53-.86-.75-1.76-.92l-.06-.36Z"/>
        <path class="cls-1" d="m338.88,308.59l.61.39c-3.32,5.99-8.48,10.59-14.66,14.52-.64.39-.98,1.14-1.64,1.14-1.23,0-2.98-1.39-3.57-2.31-.28-.53-.53-1.48-.56-2.04l.42-.28c.78.86,1.7,1.81,2.62,1.81,2.4,0,12.8-7.44,16.78-13.24Zm-19.29-2.65c3.37.75,7.42,2.56,7.42,4.93,0,.75-.5,1.28-1.2,1.28-.59,0-1.03-.36-1.73-1.25-1.34-1.67-2.29-2.68-4.82-4.4l.33-.56Z"/>
        <path class="cls-1" d="m341.64,315.45l.39-.36c.64.56,1.28.95,1.73.95.39,0,.81-.25,1.39-.81,1.31-1.17,3.71-3.9,4.6-4.82.61-.64,1.23-1.09,1.95-1.09s1.48.31,2.34,1.14c3.6,3.54,7.78,7.47,11.04,9.67.75.5,1.25,1.37,1.25,2.2,0,.67-.36,1.06-.98,1.06-.86,0-2.26-1.12-4.21-3.07-1.73-1.7-6.19-6.5-8.14-8.48-.56-.5-.89-.72-1.25-.72-.28,0-.59.17-1.03.67-.86,1.06-2.98,3.9-3.96,5.21-.64.86-1.06,1.53-1.9,1.53s-2.01-.73-2.62-1.51c-.36-.42-.5-.95-.61-1.59Zm16.17-6.38c0-1.76,1.45-3.21,3.23-3.21s3.18,1.45,3.18,3.21-1.42,3.21-3.18,3.21-3.23-1.42-3.23-3.21Zm1,0c0,1.25.98,2.23,2.23,2.23s2.2-.98,2.2-2.23-1-2.2-2.2-2.2-2.23.98-2.23,2.2Z"/>
        <path class="cls-1" d="m371.75,313.05c.64,1,1.12,1.84,2.37,1.84,2.62,0,12.02-.61,13.41-.73,1.87-.14,2.79-.31,3.48-.31,1.25,0,2.56.59,2.56,1.48,0,.56-.42.89-1.42.89s-1.98-.06-3.76-.06-9.23.42-11.32.67c-1.73.2-2.06.67-2.96.67s-2.29-1.51-2.7-2.56c-.22-.56-.22-1.14-.22-1.73l.56-.17Z"/>
        <path class="cls-1" d="m418.64,308.59l.61.39c-3.32,5.99-8.48,10.59-14.66,14.52-.64.39-.98,1.14-1.64,1.14-1.23,0-2.98-1.39-3.57-2.31-.28-.53-.53-1.48-.56-2.04l.42-.28c.78.86,1.7,1.81,2.62,1.81,2.4,0,12.8-7.44,16.78-13.24Zm-19.29-2.65c3.37.75,7.42,2.56,7.42,4.93,0,.75-.5,1.28-1.2,1.28-.59,0-1.03-.36-1.73-1.25-1.34-1.67-2.29-2.68-4.82-4.4l.33-.56Z"/>
        <path class="cls-1" d="m435.54,319.24c2.09,3.46,6.41,5.1,11.4,5.8v.31c-.95.25-1.59,1-1.87,2.09-4.99-1.37-8.42-3.68-10.15-8.2h-.78c-1.45,3.62-4.88,6.58-12.6,8.17l-.17-.47c6.27-1.84,9.23-4.49,10.51-7.69h-9.92l-.25-.81h10.48c.33-1.09.53-2.2.59-3.37h-7.89l-.22-.84h8.17v-3.12h-8.17l-.22-.81h8.39v-3.04l3.21.33c-.08.36-.28.64-.95.75v1.95h5.05l1.34-1.59s1.53,1.14,2.48,1.95c-.08.31-.31.45-.7.45h-8.17v2.45l-.03.67h4.82l1.37-1.62s1.56,1.14,2.54,2.01c-.08.31-.33.45-.73.45h-8.03c-.08,1.17-.28,2.29-.61,3.37h7.75l1.42-1.73s1.62,1.23,2.62,2.09c-.08.31-.36.45-.75.45h-9.92Zm-10.04-13.21c.06,1.9-.72,3.15-1.56,3.71-.84.5-1.98.42-2.31-.36-.25-.75.2-1.42.89-1.78,1.14-.56,2.2-2.2,2.06-4.01l.45-.03c.19.59.33,1.14.42,1.67h7.36v-3.54l3.29.31c-.06.39-.31.67-1,.78v2.45h8.14l1.31-1.34,2.34,2.26c-.19.22-.47.25-1.03.28-.84.84-2.29,1.92-3.4,2.54l-.33-.2c.36-.73.84-1.84,1.14-2.73h-17.76Z"/>
        <path class="cls-1" d="m474.65,324.65c.7.22.92.45.92.86,0,.92-1.03,1.31-6.22,1.28h-3.51c-2.54,0-3.21-.42-3.21-2.2v-8.75l-2.59.95-.31-.39c-.31,5.83-.86,8.7-1.9,9.78-.73.73-1.78,1.06-2.9,1.03,0-.64-.11-1.17-.45-1.48-.33-.33-1.23-.61-2.09-.75l.03-.47c.89.08,2.43.19,2.96.19.45,0,.67-.06.92-.31.81-.72,1.28-4.49,1.48-11.46h-2.76c-.36,5.38-1.42,10.48-5.41,14.41l-.45-.45c3.71-5.44,3.65-12.35,3.71-18.9h-3.12l-.22-.81h4.66v-5.3l3.15.28c-.06.36-.28.61-.92.72v4.29h1.53l1.39-1.9s1.62,1.37,2.56,2.26c-.06.31-.36.45-.75.45h-5.97c-.03,1.39-.06,2.79-.14,4.15h2.48l1.14-1.28,2.31,1.9c-.2.22-.56.36-1.14.45-.03,1-.06,1.92-.11,2.82l2.9-1.09v-4.88l2.84.31c-.06.36-.31.64-.92.73v3.15l2.68-1v-5.07l2.87.31c-.06.39-.28.67-.98.75v3.32l2.56-.95.14-.06,1.06-1.12,2.12,1.76c-.17.2-.45.33-1,.42-.03,5.55-.2,7.33-1.03,8.11-.56.45-1.25.7-2.12.7,0-.53-.06-1.03-.31-1.34-.22-.25-.64-.45-1.17-.56v-.45c.5.03,1.25.08,1.65.08.33,0,.5-.06.61-.2.33-.39.45-2.09.45-6.63l-2.96,1.09v8.98c0,.22-.81.64-1.53.64h-.36v-8.92l-2.68,1v9c0,.61.22.84,1.53.84h3.37c1.51,0,2.7-.03,3.15-.08.36-.03.56-.08.73-.28.25-.28.59-1.28.89-2.43h.33l.08,2.48Zm-14.86-13.33c1.78-2.26,3.4-5.8,4.24-9.62l3.29,1.03c-.11.36-.47.59-1.03.56-.47,1.17-1,2.26-1.62,3.26h6.66l1.42-1.9s1.67,1.34,2.65,2.29c-.08.28-.36.42-.73.42h-10.51c-1.17,1.76-2.51,3.18-4.01,4.24l-.36-.28Z"/>
        <path class="cls-1" d="m503.03,308.28c-.17.22-.61.47-1.17.59v9.42c-.03.2-1.17.67-1.95.67h-.39v-2.31h-7.58v9.87c0,.31-1,.89-1.87.89h-.45v-10.76h-7.58v1.9c0,.22-.98.78-1.92.78h-.36v-12.8l2.51,1.09h7.36v-5.94l3.35.36c-.08.39-.31.7-1.03.81v4.77h7.3l1.23-1.28,2.56,1.95Zm-13.41,7.56v-7.42h-7.58v7.42h7.58Zm9.9,0v-7.42h-7.58v7.42h7.58Z"/>
        <path class="cls-1" d="m510.42,323.62c0-1,.78-1.84,1.9-1.84s1.9.84,1.9,1.84-.81,1.87-1.9,1.87-1.9-.84-1.9-1.87Zm3.62-17.79c0,1.51-.25,3.96-.81,8.98l-.39,4.29h-1.06l-.39-4.29c-.56-5.05-.81-7.47-.81-8.98,0-1.42.67-2.06,1.73-2.06s1.73.64,1.73,2.06Z"/>
      </g>
      <polygon id="_パス_" data-name="&amp;lt;パス&amp;gt;" class="cls-4" points="554.06 289.43 218.62 289.43 104.24 289.43 114.6 315.16 104.24 340.89 218.62 340.89 554.06 340.89 543.69 315.16 554.06 289.43"/>
    </g>
    <polyline class="cls-3" points="1.16 323.93 1.16 402.55 79.79 402.55"/>
    <polyline class="cls-3" points="1.16 79.79 1.16 1.16 79.79 1.16"/>
    <polyline class="cls-3" points="666.15 79.79 666.15 1.16 587.53 1.16"/>
    <g>
      <g>
        <path class="cls-1" d="m222.56,126.09h-32.75c-12.71,0-23.06-10.34-23.06-23.06v-32.75c0-12.71,10.34-23.06,23.06-23.06h32.75c12.71,0,23.06,10.34,23.06,23.06v32.75c0,12.71-10.34,23.06-23.06,23.06Zm-32.75-71.51c-8.66,0-15.71,7.05-15.71,15.71v32.75c0,8.66,7.05,15.71,15.71,15.71h32.75c8.66,0,15.71-7.05,15.71-15.71v-32.75c0-8.66-7.05-15.71-15.71-15.71h-32.75Z"/>
        <circle class="cls-1" cx="227.26" cy="65.62" r="4.91" transform="translate(111.48 271.89) rotate(-76.8)"/>
        <path class="cls-1" d="m206.18,107.04c-11.24,0-20.39-9.14-20.39-20.38s9.14-20.39,20.39-20.39,20.39,9.14,20.39,20.39-9.14,20.38-20.39,20.38Zm0-33.42c-7.19,0-13.03,5.85-13.03,13.03s5.85,13.03,13.03,13.03,13.03-5.85,13.03-13.03-5.85-13.03-13.03-13.03Z"/>
      </g>
      <g>
        <path class="cls-1" d="m299.99,62.98s-.11.17-.18.37c-.07.2-.11.54-.11,1.03,0,.69.1,1.36.3,2v24.47c0,2.51-.25,4.93-.74,7.25-.49,2.32-1.34,4.37-2.55,6.17-1.21,1.8-2.86,3.23-4.95,4.29-2.1,1.06-4.77,1.59-8.02,1.59h-.96c-2.81,0-5.09-.38-6.84-1.15-1.75-.76-3.12-1.74-4.1-2.92-.99-1.18-1.65-2.48-2-3.88-.35-1.4-.52-2.75-.52-4.03,0-1.08.14-2.13.41-3.14.27-1.01.66-1.9,1.18-2.66.52-.76,1.15-1.38,1.89-1.85.74-.47,1.58-.7,2.51-.7.89,0,1.45.23,1.7.7.25.47.37.95.37,1.44,0,1.09-.22,1.98-.67,2.7-.44.71-.92,1.34-1.44,1.89-.52.54-1,1.08-1.44,1.63-.44.54-.67,1.21-.67,2,0,2.37.79,4.07,2.37,5.1,1.58,1.03,3.55,1.55,5.92,1.55,2.07,0,3.87-.42,5.4-1.26,1.53-.84,2.8-1.9,3.81-3.18,1.01-1.28,1.76-2.67,2.25-4.18.49-1.5.74-2.92.74-4.25l-1.11.07c-1.77,0-3.31-.41-4.62-1.22-1.31-.81-2.39-1.84-3.25-3.07-.86-1.23-1.5-2.56-1.92-3.99-.42-1.43-.63-2.76-.63-3.99v-2.59c0-.94.12-2.03.37-3.29.25-1.26.59-2.56,1.04-3.92.44-1.36.98-2.69,1.63-3.99.64-1.3,1.33-2.48,2.07-3.51.74-1.03,1.53-1.87,2.37-2.51.84-.64,1.7-.96,2.59-.96.34,0,.74.08,1.18.22l5.18.37c.34.05.68.17,1,.37.32.2.48.54.48,1.04Zm-6.36,8.87c.1-.39.2-.76.3-1.11.1-.34.15-.74.15-1.18,0-.64-.16-1.22-.48-1.74-.32-.52-.9-.78-1.74-.78-1.08,0-1.97.44-2.66,1.33-.69.89-1.22,1.95-1.59,3.18-.37,1.23-.63,2.51-.78,3.84-.15,1.33-.22,2.42-.22,3.25,0,.64.05,1.57.15,2.77.1,1.21.33,2.4.7,3.59.37,1.18.89,2.22,1.55,3.1.66.89,1.56,1.33,2.7,1.33.1,0,.38-.02.85-.07.47-.05.82-.12,1.07-.22v-17.3Z"/>
        <path class="cls-1" d="m316.92,91.07c-.74,1.04-1.34,2.18-1.81,3.44-.47,1.26-.88,2.56-1.22,3.92-.34,1.36-.63,2.71-.85,4.07-.22,1.36-.46,2.65-.7,3.88-.1.3-.48.49-1.15.59-.66.1-1.15.15-1.44.15-.89,0-1.62-.05-2.18-.15-.57-.1-1-.33-1.29-.7-.3-.37-.52-.94-.67-1.7-.15-.76-.27-1.79-.37-3.07l.96-21.96c0-.64.34-.96,1.04-.96.25,0,.59.04,1.03.11.44.07.91.18,1.4.33.49.15.91.33,1.26.55.34.22.52.48.52.78v15.01s.12-.25.22-.59c.34-.89.76-1.98,1.26-3.29.49-1.31,1.03-2.55,1.63-3.73.59-1.18,1.22-2.19,1.89-3.03.66-.84,1.34-1.26,2.03-1.26.89,0,1.56.21,2.03.63.47.42.82.95,1.07,1.59.24.64.39,1.33.44,2.07.05.74.07,1.45.07,2.14,0,.49-.05,1.31-.15,2.44-.1,1.13-.15,2.83-.15,5.1,0,1.28.12,2.44.37,3.47.25,1.03.74,1.55,1.48,1.55.54,0,1.04-.25,1.48-.74.44-.49.85-1.11,1.22-1.85.37-.74.68-1.53.92-2.36.25-.84.39-1.63.44-2.37.05-.94.42-1.4,1.11-1.4.44,0,.74.15.89.44.15.3.22.64.22,1.03v.15c-.05.99-.23,2.09-.55,3.33-.32,1.23-.79,2.39-1.4,3.47-.62,1.09-1.42,2-2.4,2.74-.99.74-2.19,1.11-3.62,1.11-2.22,0-3.64-.8-4.25-2.4-.62-1.6-.92-3.98-.92-7.13l.15-5.4Z"/>
        <path class="cls-1" d="m345.75,102.61c0,1.18-.39,2.1-1.18,2.74-.79.64-1.69,1.11-2.7,1.4-1.01.3-2.02.48-3.03.55-1.01.07-1.74.11-2.18.11-.69,0-1.54-.07-2.55-.22-1.01-.15-2-.38-2.96-.7-.96-.32-1.77-.78-2.44-1.37-.67-.59-1-1.33-1-2.22,0-.54.21-.93.63-1.15.42-.22.83-.33,1.22-.33.54,0,1.07.2,1.59.59.52.4,1.06.81,1.63,1.26.57.44,1.2.86,1.89,1.26.69.39,1.48.59,2.37.59.39,0,.92-.13,1.59-.41.67-.27,1-.75,1-1.44s-.28-1.36-.85-2c-.57-.64-1.28-1.31-2.14-2-.86-.69-1.79-1.41-2.77-2.14-.99-.74-1.91-1.54-2.77-2.4-.86-.86-1.58-1.81-2.14-2.85-.57-1.03-.85-2.17-.85-3.4,0-1.72.56-3.18,1.66-4.36,1.11-1.18,2.42-2.12,3.92-2.81,1.5-.69,3.04-1.18,4.62-1.48,1.58-.3,2.81-.44,3.7-.44.84,0,1.68.17,2.51.52.84.35,1.26,1.01,1.26,2,0,.3-.06.73-.19,1.29-.12.57-.32,1.12-.59,1.66-.27.54-.63,1.02-1.07,1.44-.44.42-1.01.63-1.7.63-.2,0-.39-.09-.59-.26-.2-.17-.42-.37-.66-.59-.25-.22-.51-.42-.78-.59-.27-.17-.58-.26-.92-.26-1.73,0-2.93.51-3.62,1.52-.69,1.01-1.04,2.08-1.04,3.22,0,.99.58,2.02,1.74,3.11,1.16,1.08,2.44,2.17,3.84,3.25,1.4,1.08,2.69,2.16,3.84,3.22,1.16,1.06,1.74,2.08,1.74,3.07Z"/>
        <path class="cls-1" d="m347.38,93.81c.05-2.51.12-5.08.22-7.69.1-2.61.2-5.03.3-7.25,0-.39-.39-.66-1.18-.81-.79-.15-1.68-.3-2.66-.44-.98-.15-1.87-.38-2.66-.7-.79-.32-1.18-.85-1.18-1.59,0-.64.64-1.01,1.92-1.11,1.28-.1,3.18-.15,5.69-.15.2,0,.33-.3.41-.89.07-.59.12-1.34.15-2.26.02-.91.05-1.89.07-2.92.02-1.03.06-2.01.11-2.92.05-.91.13-1.66.26-2.26.12-.59.28-.89.48-.89.25,0,.69.05,1.33.15.64.1,1.3.23,2,.41.69.17,1.29.38,1.81.63.52.25.78.52.78.81l-.81,9.61c0,.3.26.51.78.63.52.12,1.18.2,2,.22.81.02,1.68.04,2.59.04s1.77.07,2.59.22c.81.15,1.48.38,2,.7.52.32.78.8.78,1.44,0,.1-.05.26-.15.48-.1.22-.22.33-.37.33-.1,0-.23-.07-.41-.22-.17-.15-.63-.22-1.37-.22-.2,0-.74.03-1.63.07-.89.05-1.82.12-2.81.22-.99.1-1.89.21-2.7.33-.81.12-1.27.28-1.37.48-.05.1-.11.68-.19,1.74-.07,1.06-.15,2.45-.22,4.18-.07,1.73-.14,3.71-.18,5.95-.05,2.24-.07,4.6-.07,7.06,0,.94.05,1.85.15,2.74.1.89.24,1.69.44,2.4.2.72.46,1.29.78,1.74.32.44.7.67,1.15.67.64,0,1.23-.27,1.77-.81.54-.54,1.04-1.28,1.48-2.22.44-.94.84-2,1.18-3.18.35-1.18.64-2.39.89-3.62.15-.74.32-1.27.52-1.59.2-.32.49-.48.89-.48.34,0,.65.11.92.33.27.22.41.73.41,1.51,0,.49-.03.81-.07.96-.15.89-.43,2.11-.85,3.66-.42,1.55-.99,3.08-1.7,4.58-.71,1.5-1.59,2.82-2.63,3.96-1.04,1.13-2.24,1.7-3.62,1.7s-2.49-.38-3.48-1.15c-.99-.76-1.81-1.82-2.48-3.18-.67-1.36-1.17-2.96-1.52-4.81-.35-1.85-.52-3.83-.52-5.95v-.67Z"/>
        <path class="cls-1" d="m391.22,99.13c-.1.69-.34,1.5-.74,2.44-.39.94-.9,1.84-1.52,2.7-.62.86-1.33,1.59-2.14,2.18-.81.59-1.71.89-2.7.89-1.48,0-2.77-.57-3.88-1.7-1.11-1.13-1.79-2.73-2.03-4.81-.3.79-.64,1.7-1.04,2.74-.39,1.04-.89,2-1.48,2.88-.59.89-1.27,1.64-2.03,2.25-.77.62-1.66.92-2.7.92-.3,0-.52-.02-.67-.07-.15-.05-.31-.11-.48-.18-.17-.07-.37-.14-.59-.19-.22-.05-.53-.07-.92-.07-1.18,0-2.18-.38-2.99-1.15-.81-.76-1.47-1.74-1.96-2.92-.49-1.18-.85-2.48-1.07-3.88-.22-1.41-.33-2.72-.33-3.96,0-2.96.16-5.77.48-8.43.32-2.66.85-5.01,1.59-7.06.74-2.05,1.7-3.67,2.88-4.88,1.18-1.21,2.61-1.81,4.29-1.81.98,0,1.74.09,2.25.26.52.17,1,.37,1.44.59.44.22.92.46,1.44.7.52.25,1.24.44,2.18.59,1.03.59,1.76,1.3,2.18,2.11.42.81.69,1.69.81,2.62.12.94.16,1.91.11,2.92-.05,1.01,0,2.01.15,2.99,0,.05.11.12.33.22.22.1.48.21.78.33.3.12.56.3.78.52.22.22.33.51.33.85v.29c-.49,1.28-.79,2.42-.89,3.4-.1.99-.15,2.17-.15,3.55,0,.69.04,1.44.11,2.25.07.81.2,1.58.37,2.29.17.71.43,1.31.77,1.77.35.47.79.7,1.33.7.59,0,1.12-.3,1.59-.89.47-.59.86-1.27,1.18-2.03.32-.76.59-1.54.81-2.33.22-.79.36-1.38.41-1.77.1-.59.34-.89.74-.89.25,0,.48.14.7.41.22.27.33.75.33,1.44v.55c0,.17-.03.38-.07.63Zm-13.68-11.98c0-.54-.05-1.18-.15-1.92-.1-.74-.27-1.43-.52-2.07-.25-.64-.62-1.18-1.11-1.63-.49-.44-1.16-.66-2-.66-1.38,0-2.5.63-3.36,1.89-.86,1.26-1.54,2.74-2.03,4.44-.49,1.7-.81,3.45-.96,5.25-.15,1.8-.22,3.22-.22,4.25,0,.79.04,1.74.11,2.85.07,1.11.21,2.16.41,3.14.2.99.48,1.82.85,2.51.37.69.85,1.04,1.44,1.04,1.43,0,2.52-.55,3.29-1.66.76-1.11,1.34-2.49,1.74-4.14.39-1.65.68-3.42.85-5.32.17-1.9.33-3.63.48-5.21.1-.84.32-1.37.67-1.59.35-.22.52-.38.52-.48v-.66Z"/>
        <path class="cls-1" d="m413.55,109.11c0,.49-.22.84-.66,1.03-.44.2-.86.3-1.26.3l-1.48-.15c-.25,0-.37.15-.37.44l-.07.89c.05,1.33.07,3.01.07,5.03v5.84c0,1.97-.06,3.91-.18,5.8-.12,1.9-.41,3.6-.85,5.1-.44,1.5-1.07,2.71-1.89,3.62-.81.91-1.93,1.37-3.36,1.37-1.23,0-2.53-.06-3.88-.18-1.36-.12-2.59-.43-3.7-.93-1.11-.49-2.02-1.22-2.74-2.18-.72-.96-1.07-2.25-1.07-3.88s.19-3.29.56-4.99c.37-1.7.9-3.35,1.6-4.95.7-1.6,1.52-3.13,2.49-4.58.97-1.45,2.02-2.75,3.16-3.88.6-.59,1.25-1.2,1.97-1.81.72-.62,1.35-1.12,1.9-1.51v-.08c.1-1.03.17-2.07.22-3.11.05-1.03.07-2.09.07-3.18-.25.44-.54,1.05-.89,1.81-.35.77-.76,1.49-1.23,2.18-.47.69-1,1.29-1.6,1.81-.6.52-1.26.78-2.01.78-.4,0-.74-.07-1.04-.22-.3-.15-.72-.22-1.26-.22-1.39-.1-2.54-.47-3.46-1.11-.92-.64-1.63-1.53-2.15-2.66-.52-1.13-.88-2.48-1.08-4.03-.2-1.55-.3-3.29-.3-5.21,0-2.32.13-4.71.41-7.17.27-2.46.75-4.72,1.45-6.76.69-2.05,1.62-3.72,2.78-5.03,1.16-1.31,2.63-1.96,4.42-1.96.2,0,.46.07.78.22.32.15.67.31,1.04.48.37.17.74.34,1.11.52.37.17.65.28.85.33.99.2,1.91.44,2.75.74.84.3,1.56.68,2.15,1.15.59.47,1.06,1.08,1.41,1.85.35.76.52,1.71.52,2.85,0,.79-.06,1.5-.19,2.14-.12.64-.18,1.45-.18,2.44,0,.39.14.67.42.81.28.15.6.27.96.37.36.1.69.21.98.33.3.12.44.38.44.78,0,.1-.11.33-.33.7-.22.37-.36.6-.41.7-.15.4-.27,1.02-.37,1.89-.1.86-.17,1.8-.22,2.81-.05,1.01-.09,2.05-.11,3.1-.03,1.06-.04,2.01-.04,2.85v2.55c0,1.06.02,1.94.07,2.63h.3c.1,0,.2-.01.3-.04.1-.03.17-.04.22-.04.44,0,1.05.14,1.81.41.76.27,1.15.68,1.15,1.22Zm-9.39-22.84c0-.54-.05-1.16-.15-1.85-.1-.69-.27-1.34-.52-1.96-.25-.62-.61-1.13-1.08-1.55-.47-.42-1.05-.63-1.75-.63-.94,0-1.82.37-2.64,1.11-.82.74-1.54,1.79-2.16,3.14-.62,1.36-1.12,3.01-1.49,4.95-.37,1.95-.56,4.15-.56,6.62,0,1.04.04,2.11.11,3.22.07,1.11.2,2.11.37,2.99.17.89.44,1.63.81,2.22.37.59.85.89,1.44.89,1.03,0,1.95-.44,2.74-1.33.79-.89,1.44-1.98,1.96-3.29.52-1.31.91-2.66,1.18-4.07.27-1.4.43-2.62.48-3.66.05-1.43.13-2.4.24-2.92.1-.52.21-.85.31-1,.32-.39.51-.86.59-1.4.08-.54.12-1.04.12-1.48Zm-.3,25.66c-1.14.79-2.23,1.9-3.24,3.33-1.02,1.43-1.9,2.98-2.65,4.66-.75,1.68-1.33,3.38-1.75,5.1-.42,1.72-.63,3.28-.63,4.66,0,.49.05,1.04.15,1.63.1.59.26,1.15.48,1.66.23.52.55.95.97,1.29.42.34.93.52,1.53.52,1.04,0,1.9-.43,2.57-1.29.67-.86,1.19-1.88,1.57-3.07.37-1.18.62-2.39.75-3.62.12-1.23.19-2.22.19-2.96v-.67c0-.3.01-.86.04-1.7.03-.84.04-2.01.04-3.51v-6.02Z"/>
        <path class="cls-1" d="m435.65,96.77c0,.35-.11,1.17-.33,2.48-.22,1.31-.62,2.69-1.18,4.14-.57,1.45-1.33,2.75-2.29,3.88-.96,1.13-2.18,1.7-3.66,1.7-1.58,0-2.84-.55-3.77-1.66-.94-1.11-1.65-2.44-2.14-3.99-.49-1.55-.81-3.18-.96-4.88-.15-1.7-.22-3.12-.22-4.25,0-1.28.07-2.57.22-3.88.15-1.31.25-2.6.3-3.88,0-.39-.2-.64-.59-.74-.4-.1-.77-.15-1.11-.15-.59,0-.96.07-1.11.22-.15.15-.25.32-.3.52l-.29,2.37c-.2,1.58-.41,3.09-.63,4.55-.22,1.45-.47,2.73-.74,3.84-.27,1.11-.59,2-.96,2.66-.37.66-.8,1-1.29,1h-.07c-.2,0-.38-.05-.56-.15-.17-.1-.26-.34-.26-.74,0-.2.05-.49.15-.89.39-1.72.64-3.15.74-4.29.1-1.13.17-2.14.22-3.03v-.52c0-.25.01-.54.04-.89.02-.34.04-.76.04-1.26v-3.62c0-.59-.05-1.23-.15-1.92l-.22-4.36c0-.3.12-.57.37-.81.25-.25.57-.47.96-.67.39-.2.81-.34,1.26-.44.44-.1.84-.15,1.18-.15.84,0,1.26.54,1.26,1.63v.37l-.07,1.63v.44c0,.35.07.55.22.63.15.08.44.16.89.26h.22c.39.05,1.03.1,1.92.15.89.05,1.77.15,2.66.3.89.15,1.66.38,2.33.7.66.32,1,.78,1,1.37,0,.2-.05.48-.15.85-.1.37-.22.74-.37,1.11-.15.37-.27.7-.37,1-.1.3-.15.49-.15.59-.89,3.4-1.33,6.95-1.33,10.65,0,.29.02.84.07,1.63.05.79.15,1.6.3,2.44.15.84.37,1.58.67,2.22.3.64.67.96,1.11.96.74,0,1.41-.46,2-1.37.59-.91,1.11-1.97,1.55-3.18.44-1.21.8-2.43,1.07-3.66.27-1.23.46-2.14.56-2.74.1-.54.26-.87.48-1,.22-.12.43-.18.63-.18.69,0,1.03.44,1.03,1.33,0,.1-.01.36-.04.78-.03.42-.06.73-.11.92Z"/>
        <path class="cls-1" d="m462.78,99.13c-.1.69-.35,1.5-.74,2.44-.39.94-.9,1.84-1.52,2.7-.62.86-1.33,1.59-2.14,2.18-.81.59-1.71.89-2.7.89-1.48,0-2.77-.57-3.88-1.7-1.11-1.13-1.79-2.73-2.03-4.81-.3.79-.64,1.7-1.04,2.74-.39,1.04-.89,2-1.48,2.88-.59.89-1.27,1.64-2.03,2.25-.76.62-1.66.92-2.7.92-.3,0-.52-.02-.67-.07-.15-.05-.31-.11-.48-.18-.17-.07-.37-.14-.59-.19-.22-.05-.53-.07-.92-.07-1.18,0-2.18-.38-2.99-1.15-.81-.76-1.47-1.74-1.96-2.92-.49-1.18-.85-2.48-1.07-3.88-.22-1.41-.33-2.72-.33-3.96,0-2.96.16-5.77.48-8.43.32-2.66.85-5.01,1.59-7.06.74-2.05,1.7-3.67,2.88-4.88,1.18-1.21,2.61-1.81,4.29-1.81.99,0,1.74.09,2.25.26.52.17,1,.37,1.44.59.44.22.92.46,1.44.7.52.25,1.25.44,2.18.59,1.03.59,1.76,1.3,2.18,2.11.42.81.69,1.69.81,2.62.12.94.16,1.91.11,2.92-.05,1.01,0,2.01.15,2.99,0,.05.11.12.33.22.22.1.48.21.78.33.3.12.56.3.78.52.22.22.33.51.33.85v.29c-.49,1.28-.79,2.42-.89,3.4-.1.99-.15,2.17-.15,3.55,0,.69.04,1.44.11,2.25.07.81.2,1.58.37,2.29.17.71.43,1.31.78,1.77.34.47.79.7,1.33.7.59,0,1.12-.3,1.59-.89.47-.59.86-1.27,1.18-2.03.32-.76.59-1.54.81-2.33.22-.79.36-1.38.41-1.77.1-.59.34-.89.74-.89.25,0,.48.14.7.41.22.27.33.75.33,1.44v.55c0,.17-.03.38-.07.63Zm-13.68-11.98c0-.54-.05-1.18-.15-1.92-.1-.74-.27-1.43-.52-2.07-.25-.64-.62-1.18-1.11-1.63-.49-.44-1.16-.66-2-.66-1.38,0-2.5.63-3.36,1.89-.86,1.26-1.54,2.74-2.03,4.44-.49,1.7-.81,3.45-.96,5.25-.15,1.8-.22,3.22-.22,4.25,0,.79.04,1.74.11,2.85.07,1.11.21,2.16.41,3.14.2.99.48,1.82.85,2.51.37.69.85,1.04,1.44,1.04,1.43,0,2.52-.55,3.29-1.66.76-1.11,1.34-2.49,1.74-4.14.39-1.65.68-3.42.85-5.32.17-1.9.33-3.63.48-5.21.1-.84.32-1.37.67-1.59.34-.22.52-.38.52-.48v-.66Z"/>
        <path class="cls-1" d="m485.41,89.01c-.69,1.33-1.33,2.73-1.92,4.21-.59,1.48-1.04,2.64-1.33,3.48-.05.25-.18.76-.41,1.55s-.47,1.66-.74,2.62c-.27.96-.5,1.91-.7,2.85-.2.94-.3,1.7-.3,2.29,0,.25-.22.47-.67.67-.44.2-1.01.3-1.7.3-1.09,0-1.95-.15-2.59-.44-.64-.29-1.12-.78-1.44-1.44-.32-.67-.52-1.54-.59-2.62-.07-1.08-.11-2.39-.11-3.92v-5.55c0-.39-.01-.79-.04-1.18-.03-.39-.11-.64-.26-.74-.25.1-.55.74-.92,1.92-.37,1.18-.71,2.63-1.03,4.33-.32,1.7-.6,3.49-.85,5.36-.25,1.87-.37,3.55-.37,5.03,0,.54-.28.86-.85.96-.57.1-1.2.15-1.89.15-.2,0-.53-.04-1-.11-.47-.07-.94-.16-1.4-.26-.47-.1-.9-.23-1.29-.41-.4-.17-.64-.38-.74-.63-.25-.64-.43-1.7-.56-3.18-.12-1.48-.18-3.77-.18-6.88,0-1.82.04-3.94.11-6.36.07-2.42.16-5.25.26-8.5,0-.44-.02-1.02-.07-1.74-.05-.71-.07-1.12-.07-1.22,0-.39.16-.63.48-.7.32-.07.55-.11.7-.11.34,0,.75.04,1.22.11.47.07.94.16,1.4.26.47.1.9.21,1.29.33.39.12.67.24.81.33v17.82c.25-.99.53-2.13.85-3.44.32-1.31.69-2.6,1.11-3.88.42-1.28.87-2.46,1.37-3.55.49-1.08,1.01-1.87,1.55-2.37.2-.15.57-.26,1.11-.33.54-.07.98-.11,1.33-.11.25,0,.55.04.92.11.37.07.73.19,1.07.33.34.15.65.33.92.55.27.22.43.48.48.78v12.64c0,.3.05.44.15.44s.38-.67.84-2c.47-1.33,1.02-2.91,1.65-4.73.64-1.82,1.32-3.7,2.06-5.62.73-1.92,1.4-3.45,1.98-4.58.1-.2.43-.31.99-.33.56-.03,1.07-.04,1.51-.04.34,0,.81.11,1.4.33.59.22,1.16.53,1.73.92.56.4,1.06.84,1.48,1.33.42.49.63,1.01.63,1.55,0,.1-.15.38-.44.85-.29.47-.49.95-.59,1.44-.34,1.38-.58,2.74-.7,4.07-.13,1.33-.19,3.03-.19,5.1,0,.89.04,1.77.11,2.66.08.89.2,1.69.37,2.4.17.71.41,1.29.7,1.74.29.45.69.67,1.18.67.69,0,1.3-.23,1.85-.7.54-.47,1.01-1.1,1.4-1.89.39-.79.74-1.71,1.04-2.77.3-1.06.54-2.16.74-3.29.24-1.18.69-1.77,1.33-1.77.39,0,.65.1.78.3.12.2.18.64.18,1.33,0,.4-.03.67-.07.81-.05.64-.26,1.64-.63,2.99-.37,1.36-.89,2.71-1.55,4.07-.67,1.36-1.49,2.54-2.48,3.55-.99,1.01-2.12,1.52-3.4,1.52-1.52,0-2.77-.36-3.74-1.07-.97-.71-1.73-1.68-2.26-2.88-.54-1.21-.91-2.6-1.13-4.18-.22-1.58-.33-3.23-.33-4.95v-.52l.44-6.06Z"/>
      </g>
    </g>
  </g>
</svg>