<?xml version="1.0" encoding="UTF-8"?>
<svg id="_レイヤー_2" data-name="レイヤー 2" xmlns="http://www.w3.org/2000/svg" viewBox="0 0 369.08 223.28">
  <defs>
    <style>
      .cls-1 {
        fill: #fff;
      }

      .cls-2 {
        fill: #ea5532;
      }

      .cls-3 {
        stroke-linecap: round;
        stroke-linejoin: round;
        stroke-width: .99px;
      }

      .cls-3, .cls-4 {
        fill: none;
        stroke: #fff;
      }

      .cls-4 {
        stroke-miterlimit: 10;
        stroke-width: 1.28px;
      }
    </style>
  </defs>
  <g id="_文字" data-name="文字">
    <g>
      <g>
        <path class="cls-1" d="m85,170.57c.97,0,5.59-.49,6.35-.65.46-.11.54-.34.85-.34.52,0,1.8,1.03,1.8,1.51,0,.39-.48.54-.71,1.05-1.68,3.82-4.45,6.72-9.14,8.41l-.22-.34c4.36-2.22,7.26-5.66,8.15-9.2.06-.2-.03-.23-.17-.23-.79,0-4.87.65-5.75.86-.42.09-.75.37-1.08.37-.52,0-1.28-.8-1.43-1.25-.08-.26-.11-.51-.14-.94l.28-.11c.29.4.65.85,1.2.85Zm8.23-1.91c0-.91.72-1.65,1.65-1.65s1.65.74,1.65,1.65-.74,1.65-1.65,1.65-1.65-.72-1.65-1.65Zm.54,0c0,.62.49,1.11,1.11,1.11s1.09-.49,1.09-1.11-.49-1.09-1.09-1.09-1.11.49-1.11,1.09Z"/>
        <path class="cls-1" d="m97.7,169.61c.37-.17.82-.35,1.14-.35.71,0,1.77.77,1.77,1.17,0,.29-.34.52-.38,1.02-.09.83-.19,4.82-.19,6.26,0,.15.05.2.19.17,2.67-.83,6.4-3.31,8.57-5.56l.28.28c-1.91,2.67-4.87,4.89-8.17,6.52-.51.26-.52.65-.89.65-.43,0-1.31-.96-1.31-1.36,0-.26.28-.49.29-1.02.05-1.06.06-5.59-.03-6.75-.01-.34-.15-.52-1.25-.75l-.02-.26Z"/>
        <path class="cls-1" d="m113.82,168.63c.46-.17.91-.26,1.25-.26.65,0,1.68.62,1.68,1s-.31.57-.39,1.08c-.06.42-.12,1.22-.18,2.14,1.31-.37,3.16-.88,4.02-1.12.46-.14.62-.43.86-.43.51,0,1.66.92,1.66,1.36,0,.34-.52.43-.86.76-.74.71-1.88,1.73-3.16,2.53l-.25-.25c.96-1.02,1.8-2.13,2.26-2.99.11-.19.03-.29-.18-.26-.83.12-3.05.88-4.41,1.34-.08,1.29-.11,2.68-.11,3.59.03,1.29.22,1.42,1.96,1.42,2.08,0,2.88-.37,3.19-.37.49,0,1.19.2,1.19.66,0,.34-.31.49-.72.57-.71.15-2.13.29-3.13.29-2.53,0-3.47-.18-3.48-2.28-.03-1.02.02-2.48.03-3.51-.69.25-1.53.55-2.1.8-.59.28-.66.52-1.12.52-.4,0-1.29-.69-1.51-1.16-.12-.25-.11-.57-.09-.91l.23-.08c.31.43.59.76,1,.76.55,0,2.53-.59,3.61-.91.03-1.25.06-2.77.01-3.38-.03-.39-.49-.49-1.25-.63l-.02-.28Zm6.64-.11c.82.29,1.43.63,1.85,1,.38.35.51.62.51.91,0,.28-.15.45-.42.45-.25,0-.43-.31-.72-.68-.31-.4-.72-.89-1.4-1.42l.18-.26Zm1.36-.99c.83.25,1.45.55,1.85.86.38.32.55.62.55.94,0,.29-.15.45-.4.45-.26,0-.43-.34-.75-.71-.31-.37-.68-.75-1.4-1.29l.15-.25Z"/>
        <path class="cls-1" d="m137.7,170.68l.34.22c-1.83,3.31-4.69,5.86-8.11,8.03-.35.22-.54.63-.91.63-.68,0-1.65-.77-1.97-1.28-.15-.29-.29-.82-.31-1.12l.23-.15c.43.48.94,1,1.45,1,1.33,0,7.07-4.11,9.28-7.32Zm-10.67-1.46c1.87.42,4.1,1.42,4.1,2.73,0,.42-.28.71-.66.71-.32,0-.57-.2-.96-.69-.74-.92-1.26-1.48-2.67-2.44l.18-.31Z"/>
        <path class="cls-1" d="m140.46,168.27c.42-.12.77-.26,1.09-.26.69,0,1.83.63,1.83,1.03,0,.35-.29.45-.35.96-.09.69-.12,1.74-.14,2.62,1.49.28,2.97.79,3.82,1.31.52.32.94.74.94,1.29,0,.35-.22.66-.62.66-.63,0-.79-.63-1.77-1.45-.63-.46-1.39-.88-2.37-1.28-.02,1.2-.02,3.59,0,5.15.01.71.05,1.19.05,1.43,0,.52-.15.74-.57.74-.6,0-.91-.83-.91-1.54,0-.35.14-.66.2-1.28.12-1.14.12-3.53.12-4.64,0-1.25,0-2.99-.11-3.74-.06-.49-.45-.62-1.2-.71l-.02-.29Z"/>
        <path class="cls-1" d="m153.55,168.38c.42-.19,1-.37,1.26-.37.66,0,1.62.39,1.63.74.03.32-.2.46-.15.92.05.45.12.83.25,1.42.62-.15,1.17-.31,1.67-.46.65-.22.94-.43,1.08-.43.48-.03,1.28.15,1.28.56,0,.29-.2.46-.65.55-.86.17-2.26.46-3.21.68.18.86.37,1.71.54,2.48,1.22-.29,2.73-.69,3.3-.88.4-.14.51-.23.65-.25.74-.03,1.46.26,1.46.65,0,.22-.11.46-.57.51-1.48.14-2.51.32-4.65.83.31,1.36.57,2.47.72,3.05.19.76.32,1.12.32,1.6,0,.28-.14.54-.52.54-.4.02-.77-.54-.88-1.02-.08-.26-.15-1.19-.32-2.05-.09-.52-.22-1.19-.34-1.88-1.08.29-2.43.69-3.21.99-.56.2-.74.45-1.09.45-.4.02-1.12-.43-1.36-.75-.12-.19-.2-.43-.28-.8l.25-.15c.4.34.63.48.89.48.45,0,3.02-.65,4.62-1.05-.2-.97-.4-1.9-.54-2.5-.77.2-1.53.39-2.08.57-.43.17-.57.34-.89.34s-1.03-.45-1.28-.79c-.15-.22-.19-.39-.25-.71l.23-.11c.28.23.48.48.85.48s1.96-.37,3.22-.66c-.22-.92-.42-1.85-.6-2.17-.17-.34-.66-.34-1.33-.51l-.03-.29Z"/>
        <path class="cls-1" d="m166.01,171.48c.32-.12.63-.25,1.02-.25.51,0,1.42.26,1.42.59,0,.25-.09.48-.06.82.03.22.12.77.25,1.31,1.09-.29,2.76-.74,3.22-.88.26-.09.46-.35.65-.35.46,0,1.34.8,1.34,1.2,0,.28-.46.29-.66.51-.55.54-1.48,1.54-2.63,2.3l-.19-.17c.74-.89,1.4-1.99,1.68-2.6.08-.17.02-.2-.15-.17-.52.12-1.97.55-3.08.88.39,1.57.92,3.48,1.17,4.28.11.35.29.88.29,1.16,0,.39-.17.6-.54.6-.49,0-.8-.42-.86-.99-.15-1.09-.63-3.34-1.02-4.78-.62.2-1.28.42-1.53.51-.48.2-.66.48-.96.48-.4,0-.99-.48-1.16-.85-.06-.17-.08-.45-.09-.74l.17-.08c.22.22.42.48.79.48.32.02,1.5-.28,2.57-.55-.19-.71-.45-1.65-.63-1.99-.14-.29-.48-.42-.97-.51l-.03-.2Z"/>
        <path class="cls-1" d="m187.42,170.68l.34.22c-1.83,3.31-4.69,5.86-8.11,8.03-.35.22-.54.63-.91.63-.68,0-1.65-.77-1.97-1.28-.15-.29-.29-.82-.31-1.12l.23-.15c.43.48.94,1,1.45,1,1.33,0,7.07-4.11,9.28-7.32Zm-10.67-1.46c1.87.42,4.1,1.42,4.1,2.73,0,.42-.28.71-.66.71-.32,0-.57-.2-.96-.69-.74-.92-1.26-1.48-2.67-2.44l.18-.31Z"/>
        <path class="cls-1" d="m188.95,174.47l.22-.2c.35.31.71.52.96.52.22,0,.45-.14.77-.45.72-.65,2.05-2.16,2.54-2.67.34-.35.68-.6,1.08-.6s.82.17,1.29.63c1.99,1.96,4.3,4.13,6.1,5.35.42.28.69.75.69,1.22,0,.37-.2.59-.54.59-.48,0-1.25-.62-2.33-1.7-.96-.94-3.42-3.59-4.5-4.69-.31-.28-.49-.4-.69-.4-.15,0-.32.09-.57.37-.48.59-1.65,2.16-2.19,2.88-.35.48-.59.85-1.05.85s-1.11-.4-1.45-.83c-.2-.23-.28-.52-.34-.88Zm8.94-3.53c0-.97.8-1.77,1.79-1.77s1.76.8,1.76,1.77-.79,1.77-1.76,1.77-1.79-.79-1.79-1.77Zm.55,0c0,.69.54,1.23,1.23,1.23s1.22-.54,1.22-1.23-.55-1.22-1.22-1.22-1.23.54-1.23,1.22Z"/>
        <path class="cls-1" d="m205.61,173.14c.35.55.62,1.02,1.31,1.02,1.45,0,6.64-.34,7.41-.4,1.03-.08,1.54-.17,1.93-.17.69,0,1.42.32,1.42.82,0,.31-.23.49-.79.49s-1.09-.03-2.08-.03-5.1.23-6.26.37c-.96.11-1.14.37-1.63.37s-1.26-.83-1.5-1.42c-.12-.31-.12-.63-.12-.96l.31-.09Z"/>
        <path class="cls-1" d="m231.54,170.68l.34.22c-1.83,3.31-4.69,5.86-8.11,8.03-.35.22-.54.63-.91.63-.68,0-1.65-.77-1.97-1.28-.15-.29-.29-.82-.31-1.12l.23-.15c.43.48.94,1,1.45,1,1.33,0,7.07-4.11,9.28-7.32Zm-10.67-1.46c1.87.42,4.1,1.42,4.1,2.73,0,.42-.28.71-.66.71-.32,0-.57-.2-.96-.69-.74-.92-1.26-1.48-2.67-2.44l.18-.31Z"/>
        <path class="cls-1" d="m240.88,176.57c1.16,1.91,3.54,2.82,6.3,3.21v.17c-.52.14-.88.55-1.03,1.16-2.76-.75-4.65-2.03-5.61-4.53h-.43c-.8,2-2.7,3.64-6.97,4.52l-.09-.26c3.47-1.02,5.1-2.48,5.81-4.25h-5.49l-.14-.45h5.79c.18-.6.29-1.22.32-1.86h-4.36l-.12-.46h4.52v-1.73h-4.52l-.12-.45h4.64v-1.68l1.77.19c-.05.2-.15.35-.52.42v1.08h2.79l.74-.88s.85.63,1.37,1.08c-.05.17-.17.25-.38.25h-4.52v1.36l-.02.37h2.67l.76-.89s.86.63,1.4,1.11c-.05.17-.19.25-.4.25h-4.44c-.05.65-.15,1.26-.34,1.86h4.28l.79-.96s.89.68,1.45,1.16c-.05.17-.2.25-.42.25h-5.49Zm-5.55-7.31c.03,1.05-.4,1.74-.86,2.05-.46.28-1.09.23-1.28-.2-.14-.42.11-.79.49-.99.63-.31,1.22-1.22,1.14-2.22l.25-.02c.11.32.18.63.23.92h4.07v-1.96l1.82.17c-.03.22-.17.37-.55.43v1.36h4.5l.72-.74,1.29,1.25c-.11.12-.26.14-.57.15-.46.46-1.26,1.06-1.88,1.4l-.18-.11c.2-.4.46-1.02.63-1.51h-9.82Z"/>
        <path class="cls-1" d="m262.51,179.56c.38.12.51.25.51.48,0,.51-.57.72-3.44.71h-1.94c-1.4,0-1.77-.23-1.77-1.22v-4.84l-1.43.52-.17-.22c-.17,3.22-.48,4.81-1.05,5.41-.4.4-.99.59-1.6.57,0-.35-.06-.65-.25-.82-.19-.19-.68-.34-1.16-.42l.02-.26c.49.05,1.34.11,1.63.11.25,0,.37-.03.51-.17.45-.4.71-2.48.82-6.33h-1.53c-.2,2.97-.79,5.79-2.99,7.97l-.25-.25c2.05-3,2.02-6.83,2.05-10.45h-1.73l-.12-.45h2.57v-2.93l1.74.15c-.03.2-.15.34-.51.4v2.37h.85l.77-1.05s.89.75,1.42,1.25c-.03.17-.2.25-.42.25h-3.3c-.02.77-.03,1.54-.08,2.3h1.37l.63-.71,1.28,1.05c-.11.12-.31.2-.63.25-.02.56-.03,1.06-.06,1.56l1.6-.6v-2.7l1.57.17c-.03.2-.17.35-.51.4v1.74l1.48-.55v-2.81l1.59.17c-.03.22-.15.37-.54.42v1.83l1.42-.52.08-.03.58-.62,1.17.97c-.09.11-.25.19-.55.23-.02,3.07-.11,4.05-.57,4.48-.31.25-.69.39-1.17.39,0-.29-.03-.57-.17-.74-.12-.14-.35-.25-.65-.31v-.25c.28.02.69.05.91.05.18,0,.28-.03.34-.11.19-.22.25-1.16.25-3.67l-1.63.6v4.96c0,.12-.45.35-.85.35h-.2v-4.93l-1.48.56v4.98c0,.34.12.46.85.46h1.86c.83,0,1.5-.02,1.74-.05.2-.02.31-.05.4-.15.14-.15.32-.71.49-1.34h.18l.05,1.37Zm-8.21-7.37c.99-1.25,1.88-3.21,2.34-5.32l1.82.57c-.06.2-.26.32-.57.31-.26.65-.55,1.25-.89,1.8h3.68l.79-1.05s.92.74,1.46,1.26c-.05.15-.2.23-.4.23h-5.81c-.65.97-1.39,1.76-2.22,2.34l-.2-.15Z"/>
        <path class="cls-1" d="m278.21,170.51c-.09.12-.34.26-.65.32v5.21c-.02.11-.65.37-1.08.37h-.22v-1.28h-4.19v5.46c0,.17-.55.49-1.03.49h-.25v-5.95h-4.19v1.05c0,.12-.54.43-1.06.43h-.2v-7.07l1.39.6h4.07v-3.28l1.85.2c-.05.22-.17.39-.57.45v2.64h4.04l.68-.71,1.42,1.08Zm-7.41,4.18v-4.1h-4.19v4.1h4.19Zm5.47,0v-4.1h-4.19v4.1h4.19Z"/>
        <path class="cls-1" d="m282.3,178.98c0-.55.43-1.02,1.05-1.02s1.05.46,1.05,1.02-.45,1.03-1.05,1.03-1.05-.46-1.05-1.03Zm2-9.83c0,.83-.14,2.19-.45,4.96l-.22,2.37h-.58l-.22-2.37c-.31-2.79-.45-4.13-.45-4.96,0-.79.37-1.14.96-1.14s.96.35.96,1.14Z"/>
      </g>
      <polygon id="_パス_" data-name="&amp;lt;パス&amp;gt;" class="cls-3" points="306.44 160.07 120.91 160.07 57.65 160.07 63.38 174.31 57.65 188.54 120.91 188.54 306.44 188.54 300.71 174.31 306.44 160.07"/>
    </g>
    <polyline class="cls-4" points=".64 179.16 .64 222.64 44.13 222.64"/>
    <polyline class="cls-4" points="368.43 179.16 368.43 222.64 324.95 222.64"/>
    <polyline class="cls-4" points=".64 44.13 .64 .64 44.13 .64"/>
    <polyline class="cls-4" points="368.43 44.13 368.43 .64 324.95 .64"/>
    <g>
      <g>
        <path class="cls-1" d="m123.09,69.74h-18.11c-7.03,0-12.75-5.72-12.75-12.75v-18.11c0-7.03,5.72-12.75,12.75-12.75h18.11c7.03,0,12.75,5.72,12.75,12.75v18.11c0,7.03-5.72,12.75-12.75,12.75Zm-18.11-39.55c-4.79,0-8.69,3.9-8.69,8.69v18.11c0,4.79,3.9,8.69,8.69,8.69h18.11c4.79,0,8.69-3.9,8.69-8.69v-18.11c0-4.79-3.9-8.69-8.69-8.69h-18.11Z"/>
        <circle class="cls-1" cx="125.69" cy="36.29" r="2.72" transform="translate(61.66 150.38) rotate(-76.8)"/>
        <path class="cls-1" d="m114.04,59.2c-6.22,0-11.27-5.06-11.27-11.27s5.06-11.27,11.27-11.27,11.27,5.06,11.27,11.27-5.06,11.27-11.27,11.27Zm0-18.48c-3.97,0-7.21,3.23-7.21,7.21s3.23,7.21,7.21,7.21,7.21-3.23,7.21-7.21-3.23-7.21-7.21-7.21Z"/>
      </g>
      <g>
        <path class="cls-1" d="m165.92,34.83s-.06.1-.1.2c-.04.11-.06.3-.06.57,0,.38.05.75.16,1.1v13.53c0,1.39-.14,2.73-.41,4.01-.27,1.28-.74,2.42-1.41,3.41-.67,1-1.58,1.79-2.74,2.37-1.16.59-2.64.88-4.44.88h-.53c-1.55,0-2.81-.21-3.78-.63-.97-.42-1.72-.96-2.27-1.62-.55-.65-.91-1.37-1.1-2.15-.19-.78-.29-1.52-.29-2.23,0-.6.08-1.18.23-1.74.15-.56.37-1.05.65-1.47.29-.42.63-.76,1.04-1.02.41-.26.87-.39,1.39-.39.49,0,.8.13.94.39.14.26.2.53.2.8,0,.6-.12,1.1-.37,1.49-.25.4-.51.74-.8,1.04-.29.3-.55.6-.8.9-.25.3-.37.67-.37,1.1,0,1.31.44,2.25,1.31,2.82.87.57,1.96.86,3.27.86,1.14,0,2.14-.23,2.98-.69.84-.46,1.55-1.05,2.11-1.76.56-.71.97-1.48,1.25-2.31.27-.83.41-1.61.41-2.35l-.61.04c-.98,0-1.83-.22-2.56-.67-.72-.45-1.32-1.02-1.8-1.7-.48-.68-.83-1.42-1.06-2.21-.23-.79-.35-1.53-.35-2.21v-1.43c0-.52.07-1.12.2-1.82.14-.69.33-1.42.57-2.17.24-.75.54-1.49.9-2.21.35-.72.74-1.37,1.14-1.94.41-.57.84-1.04,1.31-1.39.46-.35.94-.53,1.43-.53.19,0,.41.04.65.12l2.86.2c.19.03.37.1.55.2.18.11.27.3.27.57Zm-3.52,4.91c.05-.22.11-.42.16-.61.05-.19.08-.41.08-.65,0-.35-.09-.67-.27-.96-.18-.29-.5-.43-.96-.43-.6,0-1.09.25-1.47.74-.38.49-.67,1.08-.88,1.76-.2.68-.35,1.39-.43,2.13-.08.74-.12,1.34-.12,1.8,0,.35.03.87.08,1.53.05.67.18,1.33.39,1.98.2.65.49,1.23.86,1.72.37.49.87.74,1.49.74.05,0,.21-.01.47-.04.26-.03.46-.07.59-.12v-9.57Z"/>
        <path class="cls-1" d="m175.28,50.37c-.41.57-.74,1.21-1,1.9-.26.69-.48,1.42-.67,2.17-.19.75-.35,1.5-.47,2.25-.12.75-.25,1.47-.39,2.15-.05.16-.27.27-.63.33-.37.06-.63.08-.8.08-.49,0-.89-.03-1.21-.08-.31-.05-.55-.18-.72-.39-.16-.2-.29-.52-.37-.94-.08-.42-.15-.99-.2-1.7l.53-12.14c0-.35.19-.53.57-.53.14,0,.33.02.57.06.25.04.5.1.78.18.27.08.5.18.7.31.19.12.29.27.29.43v8.3s.07-.14.12-.33c.19-.49.42-1.1.7-1.82.27-.72.57-1.41.9-2.07.33-.65.68-1.21,1.04-1.68.37-.46.74-.7,1.12-.7.49,0,.86.12,1.12.35.26.23.46.53.59.88.14.36.22.74.25,1.15.03.41.04.8.04,1.19,0,.27-.03.72-.08,1.35-.05.63-.08,1.57-.08,2.82,0,.71.07,1.35.2,1.92.14.57.41.86.82.86.3,0,.57-.14.82-.41.25-.27.47-.61.67-1.02.2-.41.37-.84.51-1.31.14-.46.22-.9.24-1.31.03-.52.23-.78.61-.78.25,0,.41.08.49.24.08.16.12.35.12.57v.08c-.03.55-.13,1.16-.31,1.84-.18.68-.44,1.32-.78,1.92-.34.6-.78,1.1-1.33,1.51-.55.41-1.21.61-2,.61-1.23,0-2.01-.44-2.35-1.33-.34-.88-.51-2.2-.51-3.95l.08-2.98Z"/>
        <path class="cls-1" d="m191.23,56.75c0,.65-.22,1.16-.65,1.51-.44.35-.93.61-1.49.78-.56.16-1.12.27-1.68.31-.56.04-.96.06-1.21.06-.38,0-.85-.04-1.41-.12-.56-.08-1.1-.21-1.64-.39-.53-.18-.98-.43-1.35-.76-.37-.33-.55-.74-.55-1.23,0-.3.12-.51.35-.63.23-.12.46-.18.67-.18.3,0,.59.11.88.33.29.22.59.45.9.7.31.25.66.48,1.04.7.38.22.82.33,1.31.33.22,0,.51-.07.88-.23.37-.15.55-.42.55-.8s-.16-.75-.47-1.1c-.31-.35-.71-.72-1.19-1.1-.48-.38-.99-.78-1.53-1.19-.55-.41-1.06-.85-1.53-1.33-.48-.48-.87-1-1.19-1.57-.31-.57-.47-1.2-.47-1.88,0-.95.31-1.76.92-2.41.61-.65,1.34-1.17,2.17-1.55.83-.38,1.68-.65,2.56-.82.87-.16,1.55-.25,2.04-.25.46,0,.93.1,1.39.29.46.19.7.56.7,1.1,0,.16-.03.4-.1.72-.07.31-.18.62-.33.92-.15.3-.35.57-.59.8-.25.23-.56.35-.94.35-.11,0-.22-.05-.33-.14-.11-.09-.23-.2-.37-.33-.14-.12-.28-.23-.43-.33-.15-.1-.32-.14-.51-.14-.96,0-1.62.28-2,.84-.38.56-.57,1.15-.57,1.78,0,.55.32,1.12.96,1.72.64.6,1.35,1.2,2.13,1.8.78.6,1.49,1.19,2.13,1.78.64.59.96,1.15.96,1.7Z"/>
        <path class="cls-1" d="m192.13,51.88c.03-1.39.07-2.81.12-4.25.05-1.45.11-2.78.16-4.01,0-.22-.22-.37-.65-.45-.44-.08-.93-.16-1.47-.25-.54-.08-1.04-.21-1.47-.39-.44-.18-.65-.47-.65-.88,0-.35.35-.56,1.06-.61.71-.05,1.76-.08,3.15-.08.11,0,.18-.16.22-.49.04-.33.07-.74.08-1.25.01-.5.03-1.04.04-1.61.01-.57.03-1.11.06-1.62.03-.5.07-.92.14-1.25.07-.33.16-.49.27-.49.14,0,.38.03.74.08.35.05.72.13,1.1.22.38.1.72.21,1,.35.29.14.43.29.43.45l-.45,5.32c0,.16.14.28.43.35.29.07.65.11,1.11.12.45.01.93.02,1.43.02s.98.04,1.43.12c.45.08.82.21,1.1.39.29.18.43.44.43.8,0,.05-.03.14-.08.27-.05.12-.12.18-.2.18-.06,0-.13-.04-.22-.12-.1-.08-.35-.12-.76-.12-.11,0-.41.01-.9.04-.49.03-1.01.07-1.55.12-.55.06-1.04.12-1.49.18-.45.07-.7.16-.76.27-.03.05-.06.38-.1.96-.04.59-.08,1.36-.12,2.31-.04.95-.08,2.05-.1,3.29-.03,1.24-.04,2.54-.04,3.91,0,.52.03,1.02.08,1.51.05.49.14.93.24,1.33.11.4.25.72.43.96.18.25.39.37.63.37.35,0,.68-.15.98-.45.3-.3.57-.71.82-1.23.25-.52.46-1.1.65-1.76.19-.65.35-1.32.49-2,.08-.41.18-.7.29-.88.11-.18.27-.27.49-.27.19,0,.36.06.51.18.15.12.22.4.22.84,0,.27-.01.45-.04.53-.08.49-.24,1.17-.47,2.02-.23.86-.55,1.7-.94,2.54-.4.83-.88,1.56-1.45,2.19-.57.63-1.24.94-2,.94s-1.38-.21-1.92-.63c-.55-.42-1-1.01-1.37-1.76-.37-.75-.65-1.64-.84-2.66-.19-1.02-.29-2.12-.29-3.29v-.37Z"/>
        <path class="cls-1" d="m216.38,54.83c-.05.38-.19.83-.41,1.35-.22.52-.5,1.02-.84,1.49-.34.48-.74.88-1.19,1.21-.45.33-.95.49-1.49.49-.82,0-1.53-.31-2.15-.94-.61-.63-.99-1.51-1.12-2.66-.16.44-.35.94-.57,1.51-.22.57-.49,1.1-.82,1.6-.33.49-.7.91-1.12,1.25-.42.34-.92.51-1.49.51-.16,0-.29-.01-.37-.04-.08-.03-.17-.06-.27-.1-.1-.04-.2-.08-.33-.1-.12-.03-.29-.04-.51-.04-.65,0-1.21-.21-1.66-.63-.45-.42-.81-.96-1.08-1.62-.27-.65-.47-1.37-.59-2.15-.12-.78-.18-1.51-.18-2.19,0-1.64.09-3.19.27-4.66.18-1.47.47-2.77.88-3.9.41-1.13.94-2.03,1.59-2.7.65-.67,1.44-1,2.37-1,.54,0,.96.05,1.25.14.29.1.55.2.8.33.24.12.51.25.8.39.29.14.69.25,1.21.33.57.33.97.72,1.21,1.17.23.45.38.93.45,1.45.07.52.09,1.06.06,1.61-.03.56,0,1.11.08,1.66,0,.03.06.07.18.12.12.06.27.12.43.18.16.07.31.16.43.29.12.12.18.28.18.47v.16c-.27.71-.44,1.34-.49,1.88-.05.55-.08,1.2-.08,1.96,0,.38.02.8.06,1.25.04.45.11.87.21,1.27.1.4.24.72.43.98.19.26.44.39.74.39.33,0,.62-.16.88-.49.26-.33.48-.7.65-1.12.18-.42.33-.85.45-1.29.12-.44.2-.76.23-.98.05-.33.19-.49.41-.49.14,0,.27.08.39.22.12.15.18.42.18.8v.31c0,.1-.01.21-.04.35Zm-7.57-6.62c0-.3-.03-.65-.08-1.06-.05-.41-.15-.79-.29-1.15-.14-.35-.34-.65-.61-.9-.27-.25-.64-.37-1.1-.37-.76,0-1.38.35-1.86,1.04-.48.69-.85,1.51-1.12,2.45-.27.94-.45,1.91-.53,2.9-.08,1-.12,1.78-.12,2.35,0,.44.02.96.06,1.57.04.61.12,1.19.22,1.74.11.55.27,1.01.47,1.39.21.38.47.57.8.57.79,0,1.4-.31,1.82-.92.42-.61.74-1.38.96-2.29.22-.91.37-1.89.47-2.94.1-1.05.18-2.01.27-2.88.05-.46.18-.76.37-.88.19-.12.29-.21.29-.27v-.37Z"/>
        <path class="cls-1" d="m228.72,60.35c0,.27-.12.46-.37.57-.25.11-.48.16-.7.16l-.82-.08c-.14,0-.21.08-.21.25l-.04.49c.03.74.04,1.66.04,2.78v3.23c0,1.09-.03,2.16-.1,3.21-.07,1.05-.22,1.99-.47,2.82-.25.83-.59,1.5-1.04,2-.45.5-1.07.76-1.86.76-.68,0-1.4-.03-2.15-.1-.75-.07-1.43-.24-2.04-.51-.61-.27-1.12-.67-1.51-1.21-.4-.53-.59-1.25-.59-2.15s.1-1.82.31-2.76c.21-.94.5-1.85.88-2.74.38-.89.84-1.73,1.38-2.53.53-.8,1.12-1.52,1.75-2.15.33-.33.69-.66,1.09-1,.4-.34.75-.62,1.05-.84v-.04c.05-.57.1-1.15.12-1.72.03-.57.04-1.16.04-1.76-.14.24-.3.58-.49,1-.19.42-.42.83-.68,1.21-.26.38-.56.72-.88,1-.33.29-.7.43-1.11.43-.22,0-.41-.04-.58-.12-.16-.08-.4-.12-.7-.12-.77-.05-1.4-.26-1.91-.61-.51-.35-.9-.84-1.19-1.47-.29-.63-.49-1.37-.6-2.23-.11-.86-.16-1.82-.16-2.88,0-1.28.07-2.6.23-3.97.15-1.36.42-2.61.8-3.74.38-1.13.9-2.06,1.54-2.78.64-.72,1.46-1.08,2.44-1.08.11,0,.25.04.43.12.18.08.37.17.58.27.2.1.41.19.62.29.2.1.36.16.47.18.55.11,1.05.24,1.52.41.47.16.86.38,1.19.63.33.26.59.6.78,1.02.19.42.29.95.29,1.57,0,.44-.03.83-.1,1.19-.07.35-.1.8-.1,1.35,0,.22.08.37.23.45.15.08.33.15.53.2.2.05.38.12.54.18.16.07.25.21.25.43,0,.05-.06.18-.18.39-.12.2-.2.33-.23.39-.08.22-.15.57-.2,1.04-.05.48-.1,1-.12,1.55-.03.56-.05,1.13-.06,1.72-.01.59-.02,1.11-.02,1.57v1.41c0,.59.01,1.07.04,1.45h.16c.05,0,.11,0,.16-.02.05-.01.1-.02.12-.02.25,0,.58.07,1,.22.42.15.63.37.63.67Zm-5.19-12.63c0-.3-.03-.64-.08-1.02-.06-.38-.15-.74-.29-1.08-.14-.34-.34-.63-.6-.86-.26-.23-.58-.35-.97-.35-.52,0-1.01.2-1.46.61-.45.41-.85.99-1.19,1.74-.34.75-.62,1.66-.82,2.74-.21,1.08-.31,2.3-.31,3.66,0,.57.02,1.17.06,1.78.04.61.11,1.17.2,1.66.1.49.25.9.45,1.23.2.33.47.49.8.49.57,0,1.08-.25,1.51-.74.44-.49.8-1.1,1.08-1.82.29-.72.5-1.47.65-2.25.15-.78.24-1.45.27-2.02.03-.79.07-1.33.13-1.62.06-.29.12-.47.17-.55.17-.22.28-.48.33-.78.04-.3.07-.57.07-.82Zm-.16,14.19c-.63.44-1.23,1.05-1.79,1.84-.56.79-1.05,1.65-1.47,2.58-.41.93-.74,1.87-.97,2.82-.23.95-.35,1.81-.35,2.58,0,.27.03.57.08.9.05.33.14.63.27.92.12.29.3.52.54.72.23.19.52.29.85.29.58,0,1.05-.24,1.42-.72.37-.48.66-1.04.87-1.7.21-.65.34-1.32.41-2,.07-.68.1-1.23.1-1.64v-.37c0-.16,0-.48.02-.94.01-.46.02-1.11.02-1.94v-3.33Z"/>
        <path class="cls-1" d="m240.95,53.52c0,.19-.06.65-.18,1.37-.12.72-.34,1.49-.65,2.29-.31.8-.74,1.52-1.27,2.15-.53.63-1.21.94-2.02.94-.87,0-1.57-.31-2.09-.92-.52-.61-.91-1.35-1.19-2.21-.27-.86-.45-1.76-.53-2.7-.08-.94-.12-1.72-.12-2.35,0-.71.04-1.42.12-2.15.08-.72.14-1.44.16-2.15,0-.22-.11-.35-.33-.41-.22-.05-.42-.08-.61-.08-.33,0-.53.04-.61.12-.08.08-.14.18-.16.29l-.16,1.31c-.11.87-.23,1.71-.35,2.52-.12.8-.26,1.51-.41,2.13-.15.61-.33,1.1-.53,1.47-.2.37-.44.55-.71.55h-.04c-.11,0-.21-.03-.31-.08-.09-.05-.14-.19-.14-.41,0-.11.03-.27.08-.49.22-.95.35-1.74.41-2.37.05-.63.09-1.19.12-1.68v-.29c0-.14,0-.3.02-.49.01-.19.02-.42.02-.7v-2c0-.33-.03-.68-.08-1.06l-.12-2.41c0-.16.07-.31.2-.45.14-.14.31-.26.53-.37.22-.11.45-.19.7-.24.24-.05.46-.08.65-.08.46,0,.7.3.7.9v.2l-.04.9v.25c0,.19.04.31.12.35.08.04.25.09.49.14h.12c.22.03.57.05,1.06.08.49.03.98.08,1.47.16.49.08.92.21,1.29.39.37.18.55.43.55.76,0,.11-.03.27-.08.47-.06.2-.12.41-.21.61-.08.2-.15.39-.2.55-.06.16-.08.27-.08.33-.49,1.88-.74,3.84-.74,5.89,0,.16.01.46.04.9.03.44.08.89.16,1.35.08.46.2.87.37,1.23.16.35.37.53.61.53.41,0,.78-.25,1.1-.76.33-.5.61-1.09.86-1.76.25-.67.44-1.34.59-2.02.15-.68.25-1.19.31-1.51.05-.3.14-.48.27-.55.12-.07.24-.1.35-.1.38,0,.57.24.57.74,0,.05,0,.2-.02.43-.01.23-.04.4-.06.51Z"/>
        <path class="cls-1" d="m255.96,54.83c-.05.38-.19.83-.41,1.35-.22.52-.5,1.02-.84,1.49-.34.48-.74.88-1.19,1.21-.45.33-.95.49-1.49.49-.82,0-1.53-.31-2.15-.94-.61-.63-.99-1.51-1.12-2.66-.16.44-.35.94-.57,1.51-.22.57-.49,1.1-.82,1.6-.33.49-.7.91-1.13,1.25-.42.34-.92.51-1.49.51-.16,0-.29-.01-.37-.04-.08-.03-.17-.06-.27-.1-.1-.04-.2-.08-.33-.1-.12-.03-.29-.04-.51-.04-.65,0-1.21-.21-1.66-.63-.45-.42-.81-.96-1.08-1.62-.27-.65-.47-1.37-.59-2.15-.12-.78-.18-1.51-.18-2.19,0-1.64.09-3.19.27-4.66.18-1.47.47-2.77.88-3.9.41-1.13.94-2.03,1.6-2.7.65-.67,1.44-1,2.37-1,.55,0,.96.05,1.25.14.29.1.55.2.8.33.25.12.51.25.8.39.29.14.69.25,1.21.33.57.33.97.72,1.21,1.17.23.45.38.93.45,1.45.07.52.09,1.06.06,1.61-.03.56,0,1.11.08,1.66,0,.03.06.07.18.12.12.06.27.12.43.18.16.07.31.16.43.29.12.12.18.28.18.47v.16c-.27.71-.44,1.34-.49,1.88-.05.55-.08,1.2-.08,1.96,0,.38.02.8.06,1.25.04.45.11.87.2,1.27.1.4.24.72.43.98.19.26.44.39.74.39.33,0,.62-.16.88-.49.26-.33.48-.7.65-1.12.18-.42.33-.85.45-1.29.12-.44.2-.76.23-.98.05-.33.19-.49.41-.49.14,0,.27.08.39.22.12.15.18.42.18.8v.31c0,.1-.01.21-.04.35Zm-7.57-6.62c0-.3-.03-.65-.08-1.06-.05-.41-.15-.79-.29-1.15-.14-.35-.34-.65-.61-.9-.27-.25-.64-.37-1.1-.37-.76,0-1.38.35-1.86,1.04-.48.69-.85,1.51-1.12,2.45-.27.94-.45,1.91-.53,2.9-.08,1-.12,1.78-.12,2.35,0,.44.02.96.06,1.57.04.61.12,1.19.22,1.74.11.55.27,1.01.47,1.39.2.38.47.57.8.57.79,0,1.4-.31,1.82-.92.42-.61.74-1.38.96-2.29.22-.91.37-1.89.47-2.94.1-1.05.18-2.01.27-2.88.05-.46.18-.76.37-.88.19-.12.29-.21.29-.27v-.37Z"/>
        <path class="cls-1" d="m268.47,49.23c-.38.74-.74,1.51-1.06,2.33-.33.82-.57,1.46-.74,1.92-.03.14-.1.42-.22.86s-.26.92-.41,1.45c-.15.53-.28,1.06-.39,1.57-.11.52-.16.94-.16,1.27,0,.14-.12.26-.37.37-.24.11-.56.16-.94.16-.6,0-1.08-.08-1.43-.25-.35-.16-.62-.43-.8-.8-.18-.37-.29-.85-.33-1.45-.04-.6-.06-1.32-.06-2.17v-3.07c0-.22,0-.44-.02-.65-.01-.22-.06-.35-.14-.41-.14.06-.31.41-.51,1.06-.2.65-.39,1.45-.57,2.39-.18.94-.33,1.93-.47,2.97-.14,1.04-.2,1.96-.2,2.78,0,.3-.16.48-.47.53-.31.05-.66.08-1.04.08-.11,0-.29-.02-.55-.06-.26-.04-.52-.09-.78-.14-.26-.05-.5-.13-.72-.22-.22-.1-.35-.21-.41-.35-.14-.35-.24-.94-.31-1.76-.07-.82-.1-2.08-.1-3.8,0-1.01.02-2.18.06-3.52.04-1.34.09-2.9.14-4.7,0-.25-.01-.57-.04-.96-.03-.39-.04-.62-.04-.67,0-.22.09-.35.27-.39.18-.04.31-.06.39-.06.19,0,.42.02.68.06.26.04.52.09.78.14.26.05.5.12.72.18.22.07.37.13.45.18v9.85c.14-.54.29-1.18.47-1.9.18-.72.38-1.44.61-2.15.23-.71.48-1.36.76-1.96.27-.6.56-1.04.86-1.31.11-.08.31-.14.61-.18.3-.04.54-.06.74-.06.14,0,.31.02.51.06.2.04.4.1.59.18.19.08.36.18.51.31.15.12.24.27.27.43v6.99c0,.16.03.25.08.25s.21-.37.47-1.1c.26-.74.56-1.61.91-2.62.35-1.01.73-2.04,1.14-3.11.41-1.06.77-1.91,1.1-2.53.05-.11.24-.17.55-.18.31-.01.59-.02.83-.02.19,0,.45.06.77.18.32.12.64.29.96.51.31.22.58.46.82.74.23.27.35.56.35.86,0,.05-.08.21-.25.47-.16.26-.27.52-.33.8-.19.76-.32,1.51-.39,2.25-.07.74-.1,1.68-.1,2.82,0,.49.02.98.06,1.47.04.49.11.93.2,1.33.1.4.22.72.39.96.16.25.38.37.65.37.38,0,.72-.13,1.02-.39.3-.26.56-.61.78-1.04.22-.44.41-.95.57-1.53.16-.59.3-1.19.41-1.82.14-.65.38-.98.74-.98.22,0,.36.06.43.16.07.11.1.35.1.74,0,.22-.01.37-.04.45-.03.35-.14.91-.35,1.66-.2.75-.49,1.5-.86,2.25-.37.75-.82,1.4-1.37,1.96-.55.56-1.17.84-1.88.84-.84,0-1.53-.2-2.07-.59-.54-.39-.96-.93-1.25-1.6-.3-.67-.51-1.44-.63-2.31-.12-.87-.18-1.78-.18-2.74v-.29l.25-3.35Z"/>
      </g>
    </g>
    <g>
      <g>
        <path class="cls-2" d="m50.52,109.39c-.06.35-.29.59-.57.59h-3.17l-2.15,6.76h3.91c.28,0,.42.23.36.59l-.09.51c-.06.35-.29.59-.56.59h-4.06l-3.19,10.24c-.12.35-.37.55-.64.47l-.65-.16c-.26-.08-.38-.31-.25-.66l3.1-9.89h-4.16l-3.31,10.24c-.12.35-.37.55-.64.47l-.65-.16c-.26-.08-.4-.35-.28-.7l3.22-9.85h-2.99c-.28,0-.42-.23-.36-.59l.09-.51c.06-.35.29-.59.57-.59h3.17l2.21-6.76h-3.97c-.28,0-.42-.23-.36-.59l.1-.55c.06-.35.29-.59.56-.59h4.16l2.48-7.62c.12-.31.37-.51.61-.47l.63.12c.27.04.39.39.27.74l-2.35,7.23h4.13l2.38-7.58c.12-.35.38-.59.64-.51l.65.16c.26.08.4.35.28.7l-2.32,7.23h2.96c.28,0,.42.23.36.59l-.1.55Zm-5.37.59h-4.06l-2.21,6.76h4.13l2.15-6.76Z"/>
        <path class="cls-2" d="m68.53,104.7l-.95.51c-1.74,2.89-3.47,5.35-5.12,7.39,1.03.62,1.94,1.41,2.73,2.35.9,1.02,1.26,1.95,1.11,2.77-.17.94-.55,1.37-1.2,1.37-.37,0-.64-.39-.79-1.13-.28-1.41-.93-2.78-2.08-4.1l-2.97,16.85c-.06.35-.29.59-.57.59h-.77c-.28,0-.42-.23-.36-.59l2.74-15.56c-1.52,1.64-3.11,3.13-4.84,4.57-.22.2-.49.16-.6-.08-.09-.2,0-.47.25-.7,4.26-4.26,7.84-9.03,10.79-14.42h-7.45c-.19,0-.32-.12-.34-.35-.04-.31.29-.63.7-.63h3.54l1.18-6.68c.07-.39.33-.66.63-.63,1.6.16,2.38.47,2.29.98-.06.35-.55.7-1.48,1.06l-.93,5.28h1.85l1.07-1.37c.23-.27.55-.31.72-.04.81,1.17,1.21,1.88,1.15,2.19-.03.16-.14.27-.31.39Zm14.53,12.27l-.88.63-2.31,13.09c-.06.35-.29.59-.57.59h-.86c-.28,0-.42-.23-.36-.59l.24-1.37h-11.73l-.24,1.37c-.06.35-.29.59-.57.59h-.86c-.28,0-.42-.23-.36-.59l2.65-15.05c.09-.51.37-.9.57-.78.43.2.95.55,1.59.94h11.12l1.09-1.29c.2-.23.48-.27.65-.04.84,1.02,1.24,1.72,1.19,1.99-.03.2-.15.35-.37.51Zm-11.4,11.37l.97-5.51h-4.9l-.97,5.51h4.9Zm1.14-6.49l.9-5.08h-4.9l-.9,5.08h4.9Zm13.52-22c-.12.16-.26.27-.42.27h-16.29c-.19,0-.32-.12-.34-.35-.04-.31.29-.63.7-.63h12.96l1.61-1.99c.23-.27.52-.31.69-.08.45.59.86,1.25,1.22,1.99.1.16.08.39-.04.59l-.1.19Zm-3.26,5.2l-.86.66-1.2,6.8c-.06.35-.29.59-.57.59h-.8c-.28,0-.42-.23-.36-.59l.17-.94h-7.88l-.21,1.17c-.06.35-.29.59-.57.59h-.8c-.28,0-.42-.23-.36-.59l1.56-8.83c.1-.55.5-.9.77-.7.39.23.75.47,1.16.78h7.42l1.05-1.25c.23-.27.49-.31.66-.08.81.98,1.19,1.64,1.14,1.92-.03.16-.11.27-.33.47Zm-3.44,5.55l.99-5.63h-7.88l-.99,5.63h7.88Zm-1.13,17.74l.97-5.51h-5.11l-.97,5.51h5.11Zm1.14-6.49l.9-5.08h-5.11l-.9,5.08h5.11Z"/>
        <path class="cls-2" d="m115.15,118.31c-.12.16-.26.27-.42.27h-7.11l-2.07,11.73c-.06.35-.29.59-.57.59h-.95c-.28,0-.42-.23-.36-.59l2.07-11.73h-7.85c-1.75,5.9-5.13,10.04-10.16,12.55-.2.08-.41.04-.49-.2-.14-.27.02-.63.37-.86,4.06-2.58,6.86-6.45,8.4-11.49h-6.93c-.15,0-.29-.12-.31-.35-.07-.31.29-.62.73-.62h6.8c.33-1.37.6-2.54.78-3.56l1.16-6.57h-6.16c-.19,0-.32-.12-.34-.35-.04-.31.29-.62.7-.62h5.97l1.5-8.52c.06-.35.33-.63.63-.59,1.76.16,2.6.47,2.51.98-.06.31-.55.7-1.52,1.13l-1.23,7h7.48l1.52-8.6c.06-.35.33-.62.63-.59,1.79.16,2.63.47,2.54.98-.06.35-.59.74-1.56,1.17l-1.24,7.04h3.14l1.59-2.19c.25-.35.59-.39.78-.08.37.7.73,1.45,1.05,2.23.06.2.05.39-.07.55l-.1.2c-.12.16-.26.27-.42.27h-6.16l-1.79,10.12h3.94l1.77-2.35c.28-.35.62-.39.78-.08.42.74.82,1.49,1.17,2.31.06.16.05.39-.07.59l-.13.23Zm-9.33-.7l1.79-10.12h-7.48l-1.16,6.57c-.21,1.21-.48,2.38-.78,3.56h7.64Z"/>
        <path class="cls-2" d="m142.22,123.74c-3.14,2.81-5.86,3.91-8.22,4.38-.07.04-.13.04-.19.04-.43,0-.62-.35-.54-.78.07-.39.38-.78.9-.9,1.84-.47,4.39-1.68,7.25-4.3,2.61-2.38,3.93-5.2,4.61-9.03l.2-1.13c.77-4.38-1.41-8.4-4.91-9.18-.89-.2-1.79-.31-2.72-.31-.46,0-.96.04-1.44.12.31.7.66,1.84.38,3.44-.12.7-.4,1.56-.87,2.46-2.99,5.94-5.95,9.97-8.09,12.51-1.2,1.41-2.5,2.31-3.64,2.31-.92,0-1.74-.62-2.27-1.99-.44-1.17-.46-2.81-.14-4.61.52-2.93,1.91-6.29,3.71-8.64,2.92-3.79,6.27-6.21,10.34-7.11.83-.2,1.78-.31,2.7-.31,3.54,0,7.32,1.6,8.42,6.72.46,2.11.46,4.22.11,6.21-.72,4.1-2.9,7.7-5.6,10.12Zm-6.3-20.87c-1.75.51-3.69,1.52-5.92,3.36-3.57,2.93-5.1,6.92-5.62,9.89-.16.9-.24,1.72-.24,2.38.01,1.68.49,2.62,1.29,2.62.55,0,1.28-.47,2.12-1.52,2.08-2.54,5.76-7.9,7.61-11.37.51-.98.84-1.95.99-2.81.19-1.06.1-1.99-.23-2.54Z"/>
        <path class="cls-2" d="m156.44,119.6c-1.09,3.21-2.42,6.06-4,8.52-.21.31-.44.39-.6.27-.2-.12-.21-.39-.1-.66,1.34-2.89,2.4-6.1,3.2-9.62.11-.43.42-.66.72-.59,1.37.43,2.03.86,1.95,1.33-.05.31-.43.55-1.18.74Zm8.22-3.48c-.52,0-.74-.35-.67-1.09.07-.74.07-1.45.03-2.07-.38.08-1.26.31-2.57.59-.04.04-.1.04-.19.04-.1.04-.13.04-.16.04l-3.01,17.08c-.06.35-.29.59-.56.59h-.8c-.28,0-.42-.23-.36-.59l2.95-16.73-.23.08c-.35.08-.95.16-1.78.31-.73.12-1.27.23-1.69.31-.34.86-.63,1.29-.81,1.29-.31,0-.47-.82-.49-2.46.01-.43.27-.82.61-.82l1.4-.08c.78-.04,1.18-.08,1.21-.08,2.78-3.52,5.32-7.31,7.67-11.37.17-.27.47-.39.69-.23,1.21.82,1.75,1.45,1.67,1.88-.06.35-.52.51-1.39.55-2.46,3.28-5,6.33-7.55,9.11l1.97-.16c1.03-.08,2.1-.2,3.24-.39-.18-.74-.46-1.6-.91-2.54-.11-.23-.09-.55.14-.78.16-.2.38-.23.56-.04,1.93,1.95,2.68,4.03,2.32,6.06-.18,1.02-.61,1.52-1.28,1.52Zm-.65-17.82c-1.44,2.03-2.79,3.75-4.06,5.2.87,1.17,1.23,2.27,1.05,3.28-.17.94-.62,1.41-1.33,1.41-.4,0-.63-.47-.71-1.41-.14-1.49-.79-3.01-1.96-4.46-.17-.23-.14-.59.06-.86.12-.16.37-.16.58,0,.77.51,1.37.98,1.78,1.45,1.25-2.03,2.35-4.22,3.34-6.57.15-.31.46-.51.71-.35,1.3.66,1.91,1.21,1.83,1.68-.06.31-.49.51-1.31.63Zm-1.56,27.52c-.55,0-.73-.59-.55-1.76.31-1.92.16-4.06-.38-6.37-.04-.27.04-.55.22-.7.18-.16.39-.12.53.12,1.47,2.5,2.02,4.81,1.64,6.92-.21,1.21-.69,1.8-1.46,1.8Zm16.92-6.53l-.82.62-1.9,10.79c-.06.35-.29.59-.57.59h-.89c-.28,0-.42-.23-.36-.59l.34-1.95h-8.31l-.34,1.95c-.06.35-.29.59-.57.59h-.86c-.28,0-.42-.23-.36-.59l2.25-12.74c.09-.51.43-.86.71-.7.42.23.89.55,1.38.9h7.76l1.05-1.25c.23-.27.48-.27.66-.08.84.98,1.22,1.64,1.16,1.99-.03.16-.15.31-.33.47Zm4.04-14.54c-.13.2-.26.27-.42.27h-7.11l-1.21,6.84h3.7l1.43-1.84c.28-.35.59-.39.75-.08.38.62.68,1.21.91,1.84.07.16.05.39-.07.55l-.13.23c-.12.16-.26.27-.42.27h-13.83c-.15,0-.29-.12-.31-.35-.07-.31.29-.63.73-.63h5.42l1.21-6.84h-6.47c-.15,0-.26-.12-.31-.31-.06-.35.3-.66.73-.66h6.22l1.26-7.15c.06-.35.33-.63.63-.59,1.7.12,2.48.43,2.39.94-.06.31-.55.7-1.46,1.13l-1,5.67h4.16l1.55-1.99c.23-.27.55-.31.72-.08.49.7.87,1.37,1.13,1.99.06.16.02.39-.07.59l-.13.2Zm-8.06,23.02l1.52-8.64h-8.31l-1.52,8.64h8.31Z"/>
        <path class="cls-2" d="m195.44,126.67c-.31,0-.63-.43-1-1.33-.41-.98-.98-1.95-1.7-2.93-2.12,3.64-4.87,6.49-8.28,8.52-.21.16-.44.08-.53-.16-.11-.27.02-.63.3-.82,3.12-2.35,5.59-5.32,7.42-8.91-.82-.94-1.81-1.8-2.99-2.62-.1.23-.2.43-.27.66-.26.63-.45,1.13-.61,1.52-.15.35-.43.51-.68.39l-.68-.31c-.23-.12-.34-.35-.19-.66,1.73-4.38,3.48-9.11,5.14-14.15h-2.99c-.19,0-.31-.16-.33-.39-.04-.31.29-.59.69-.59h2.96l.12-.31c.75-1.99,1.45-4.57,2.35-7.74.09-.35.37-.55.64-.51,1.57.35,2.3.74,2.21,1.25-.06.35-.54.62-1.47.86-.85,2.74-1.46,4.77-1.91,6.14-.01.08-.06.2-.09.31h3.23l1.11-1.41c.23-.27.52-.31.71-.04.75,1.02,1.11,1.72,1.05,2.07-.03.16-.11.27-.28.39l-.87.55c-1.51,5.59-3.11,10.28-4.81,14.03,2.14,1.99,3.09,3.6,2.87,4.85-.16.9-.54,1.33-1.13,1.33Zm-2.21-20.79c-1.47,4.5-2.85,8.33-4.2,11.57,1.33.66,2.44,1.37,3.37,2.03,1.59-3.75,3.06-8.29,4.4-13.6h-3.57Zm18.83,12.16l-.58.47-2.15,12.19c-.06.35-.29.59-.57.59h-.83c-.28,0-.42-.23-.36-.59l.3-1.72h-8.87l-.3,1.72c-.06.35-.29.59-.57.59h-.83c-.28,0-.42-.23-.36-.59l2.49-14.15c.09-.51.38-.9.6-.78.33.2.8.51,1.35.9h8.47l.82-.82c.19-.19.41-.23.57-.08.87.86,1.29,1.41,1.24,1.68-.03.2-.19.39-.44.59Zm.96-2.46c-1.02,0-2.09-.74-3.13-2.31-1.16-1.64-1.8-3.95-1.95-6.92h-4.93l-1.04,5.9c1.78-.31,3.46-.74,4.98-1.17.26-.08.48.08.49.39.02.23-.15.51-.42.62-2.62,1.06-5.26,1.92-7.92,2.66-.25.9-.49,1.37-.73,1.37-.31,0-.53-.86-.63-2.54-.01-.47.27-.82.61-.86.59-.04,1.19-.12,1.82-.2l2.29-13.01c.09-.51.48-.82.82-.63.42.23.83.51,1.23.86,3.82-.86,6.81-1.95,8.97-3.21.17-.08.29-.08.42.04,1,.98,1.46,1.68,1.38,2.11-.03.2-.21.31-.52.31-.18,0-.51-.08-.95-.2-1.68.47-2.9.74-3.67.9.02.08-.02.27-.06.51-.03.35-.07.59-.1.74-.22,1.41-.32,2.85-.3,4.3h2.89l1.36-1.76c.24-.31.58-.35.75-.08.31.51.63,1.13.92,1.8.1.16.05.39-.07.59l-.09.16c-.12.16-.26.27-.42.27h-5.3c.19,2.27.75,4.1,1.74,5.35.43.55.72.78.88.78.43,0,1.09-1.13,1.83-3.4.18-.51.53-.74.83-.51.08.04.08.27,0,.55-.43,1.37-.67,2.38-.78,3.01-.15.86-.1,1.45.11,1.8.12.19.2.43.07.66-.41.74-.84,1.09-1.39,1.09Zm-4.96,12.43l.85-4.81h-8.87l-.85,4.81h8.87Zm1.02-5.78l.81-4.57h-8.87l-.81,4.57h8.87Zm-1.16-16.85c.02-1.68.14-3.44.41-5.28-.9.2-2.28.35-4.12.66l-.22.04-.81,4.57h4.74Z"/>
        <path class="cls-2" d="m234,123.27c-4.52,1.91-9,3.52-13.34,4.77-.34,1.06-.62,1.56-.89,1.56-.4,0-.62-1.02-.72-3.09-.02-.39.22-.74.54-.78,1.91-.35,3.86-.74,5.81-1.17l1.7-9.65h-5.17c-.15,0-.29-.12-.31-.35-.07-.31.3-.63.73-.63h8.99l1.61-2.15c.25-.35.59-.39.76-.12.41.66.8,1.41,1.13,2.15.07.16.05.39-.07.59l-.13.23c-.12.16-.26.27-.42.27h-5.33l-1.63,9.22c2.39-.63,4.59-1.21,6.61-1.84.33-.12.53.12.53.51,0,.2-.16.39-.39.47Zm8.82,6.92c-.99,0-2.13-1.17-3.41-3.56-2.59-4.89-3.59-11.61-3.05-20.05h-14.16c-.15,0-.29-.12-.31-.35-.07-.31.29-.63.73-.63h13.83l.11-1.13c.14-1.48.39-3.24.74-5.24l.35-1.99c.07-.39.36-.62.66-.59,1.63.2,2.41.51,2.32.98-.05.27-.52.66-1.36,1.09l-.14.82c-.34,1.92-.59,3.87-.76,5.86h6.31l1.51-2.11c.25-.35.59-.39.78-.08.36.59.7,1.25,1.02,1.92l.07.12c.07.16.05.39-.07.59l-.14.27c-.12.16-.26.27-.42.27h-9.15c-.42,6.37.14,11.61,1.6,15.71.87,2.42,1.58,3.63,2.1,3.63.49,0,1.33-2.11,2.5-6.33.16-.55.54-.82.87-.59.05.04.08.23,0,.47-.56,2.31-1,4.1-1.22,5.35-.33,1.88-.26,3.05.2,3.6.13.16.21.39.11.63-.44.9-.94,1.33-1.62,1.33Zm1.15-26.77c-.55,0-.85-.43-.85-1.29,0-1.37-.45-2.7-1.31-3.91-.14-.23-.16-.51,0-.7s.39-.27.55-.16c2.28,1.37,3.25,2.89,2.94,4.61-.17.98-.59,1.45-1.33,1.45Z"/>
        <path class="cls-2" d="m265.89,127.57c-.09.31-.31.51-.55.51h-12.66c-.28,0-.42-.23-.36-.59l.18-1.02c1.36-3.71,4.07-7.35,8.18-10.94l.58-.51c1.93-1.68,3.29-2.93,4.05-3.91,1.01-1.37,1.66-2.77,1.93-4.3.37-2.07.12-3.64-.78-4.69-.64-.74-1.52-1.13-2.6-1.13-1.75,0-3.14.7-4.2,2.15-.57.78-.92,1.56-1.1,2.38.98.04,1.36.66,1.15,1.84-.23,1.29-.83,1.92-1.82,1.92-1.2,0-1.66-.9-1.36-2.62.32-1.8,1.15-3.36,2.58-4.85,1.47-1.52,3.14-2.27,5.08-2.27,1.82,0,3.21.63,4.24,1.8,1.17,1.41,1.58,3.28,1.16,5.67-.29,1.64-.95,3.13-1.93,4.5-.94,1.29-2.58,2.77-4.94,4.46l-.99.7c-3.81,2.74-6.31,5.75-7.47,9.03h8.16c1.26,0,2.16-.35,2.69-1.09.44-.59,1.01-1.92,1.73-4.06.08-.27.3-.47.51-.47.31,0,.44.31.34.7l-1.82,6.8Z"/>
        <path class="cls-2" d="m286.33,124.64c-1.84,2.93-4.01,4.42-6.44,4.42s-4.12-1.45-4.92-4.42c-.76-2.7-.73-6.18.01-10.36,1.02-5.78,2.8-9.97,5.38-12.55,1.46-1.45,3-2.19,4.63-2.19,2.56,0,4.2,1.52,5.02,4.53.7,2.66.72,6.06-.02,10.24s-1.96,7.62-3.67,10.32Zm1.76-19.58c-.44-2.74-1.49-4.14-3.21-4.14-1.48,0-2.86,1.02-4.11,3.05-1.54,2.46-2.67,5.9-3.46,10.36-.65,3.67-.79,6.72-.43,9.07.46,2.81,1.53,4.26,3.28,4.26s3.34-1.49,4.82-4.46c1.11-2.27,2.03-5.24,2.67-8.83.67-3.83.8-6.96.44-9.3Z"/>
        <path class="cls-2" d="m307.64,127.57c-.09.31-.31.51-.55.51h-12.66c-.28,0-.42-.23-.36-.59l.18-1.02c1.36-3.71,4.07-7.35,8.18-10.94l.58-.51c1.93-1.68,3.29-2.93,4.05-3.91,1.01-1.37,1.66-2.77,1.93-4.3.37-2.07.12-3.64-.78-4.69-.64-.74-1.52-1.13-2.6-1.13-1.75,0-3.14.7-4.2,2.15-.57.78-.92,1.56-1.1,2.38.98.04,1.36.66,1.15,1.84-.23,1.29-.83,1.92-1.82,1.92-1.2,0-1.66-.9-1.36-2.62.32-1.8,1.15-3.36,2.58-4.85,1.47-1.52,3.14-2.27,5.08-2.27,1.82,0,3.21.63,4.24,1.8,1.17,1.41,1.58,3.28,1.16,5.67-.29,1.64-.95,3.13-1.93,4.5-.94,1.29-2.58,2.77-4.94,4.46l-.99.7c-3.81,2.74-6.31,5.75-7.47,9.03h8.16c1.26,0,2.16-.35,2.69-1.09.44-.59,1.01-1.92,1.73-4.06.08-.27.3-.47.51-.47.31,0,.44.31.34.7l-1.82,6.8Z"/>
        <path class="cls-2" d="m327.16,126.36c-1.73,1.8-3.78,2.74-6.21,2.74-1.88,0-3.34-.62-4.43-1.95-.97-1.13-1.31-2.54-1.02-4.18.32-1.84,1.11-2.78,2.34-2.78,1.05,0,1.45.66,1.23,1.95-.21,1.21-.75,1.8-1.64,1.8-.12,0-.25,0-.36-.04-.03.7.12,1.41.48,1.99.73,1.09,1.87,1.64,3.44,1.64s2.98-.66,4.26-1.99c1.21-1.25,1.97-2.77,2.31-4.69.31-1.76.11-3.24-.61-4.42-.8-1.25-2.03-1.92-3.79-1.92h-1.08c-.28,0-.42-.23-.36-.59l.07-.39c.06-.35.29-.59.57-.59h1.08c1.45,0,2.72-.59,3.85-1.76,1.21-1.25,1.97-2.81,2.31-4.73.28-1.56.1-2.81-.53-3.79-.68-1.06-1.66-1.6-2.95-1.6s-2.55.51-3.67,1.45c-.62.55-1.1,1.17-1.41,1.88.99,0,1.34.59,1.14,1.76-.23,1.29-.84,1.95-1.88,1.95-1.11,0-1.55-.82-1.25-2.5.28-1.6,1.25-3.05,2.85-4.3,1.49-1.13,3.07-1.72,4.71-1.72,2.16,0,3.68.78,4.59,2.27.76,1.25.98,2.81.66,4.65-.65,3.71-2.72,6.02-6.23,6.88l-.05.27c3.59.94,5.01,3.36,4.32,7.27-.38,2.15-1.28,3.95-2.71,5.43Z"/>
      </g>
      <g>
        <path class="cls-1" d="m40.47,129.51c-.07,0-.15-.01-.22-.03l-.63-.15c-.24-.07-.4-.2-.49-.39-.07-.15-.14-.39-.01-.75l2.95-9.41h-3.41l-3.23,9.99c-.16.46-.49.74-.86.74-.07,0-.15-.01-.22-.03l-.63-.15c-.23-.07-.41-.21-.51-.41-.11-.22-.12-.49-.03-.77l3.06-9.37h-2.49c-.22,0-.42-.09-.55-.25-.16-.19-.21-.46-.16-.76l.09-.51c.09-.53.46-.88.92-.88h2.91l1.97-6.04h-3.48c-.22,0-.42-.09-.55-.25-.16-.19-.21-.46-.16-.76l.1-.55c.09-.53.46-.88.92-.88h3.9l2.4-7.37c.17-.44.51-.72.89-.72h.12s.64.13.64.13c.19.03.37.15.48.34.15.24.17.57.06.88l-2.2,6.75h3.37l2.3-7.33c.17-.48.51-.77.88-.77.07,0,.14,0,.21.03l.63.15c.23.07.41.21.5.4.11.22.12.49.03.77l-2.17,6.75h2.46c.22,0,.42.09.55.25.16.19.21.46.16.76l-.1.55c-.09.53-.46.88-.92.88h-2.91l-1.92,6.04h3.42c.22,0,.42.09.55.25.16.19.21.46.16.76l-.09.51c-.09.53-.46.88-.92.88h-3.8l-3.11,9.99c-.16.46-.49.74-.87.74Zm2.27-13.13l1.92-6.04h-3.31l-1.97,6.04h3.37Z"/>
        <path class="cls-1" d="m78.44,131.64c-.22,0-.42-.09-.55-.25-.16-.19-.21-.46-.16-.76l.17-.94h-11l-.19,1.07c-.09.53-.46.88-.92.88h-.86c-.22,0-.42-.09-.55-.25-.16-.19-.21-.46-.16-.76l2.09-11.84c-.27.44-.67.66-1.2.66-.39,0-.91-.25-1.14-1.42-.23-1.19-.73-2.28-1.51-3.33l-2.83,16.07c-.09.53-.46.88-.92.88h-.77c-.22,0-.42-.09-.55-.25-.16-.19-.21-.46-.16-.76l2.54-14.38c-1.25,1.28-2.58,2.51-4.05,3.74-.15.13-.34.21-.53.21-.27,0-.51-.15-.63-.41-.16-.35-.03-.79.33-1.12,4.13-4.13,7.55-8.65,10.43-13.8h-6.84c-.38,0-.66-.27-.7-.68-.03-.22.05-.46.22-.65.2-.23.51-.37.83-.37h3.24l1.13-6.39c.1-.55.48-.93.93-.93h.1c1.38.14,2.14.38,2.45.79.14.18.19.39.15.61-.08.47-.57.87-1.51,1.25l-.82,4.66h1.24l.96-1.23c.2-.24.45-.36.69-.36s.47.13.61.36c.97,1.4,1.27,2.02,1.2,2.44-.06.32-.29.51-.47.63l-.9.48c-1.58,2.62-3.21,4.98-4.84,7.03.92.6,1.75,1.34,2.47,2.2.65.74,1.05,1.45,1.18,2.14l.22-1.27c.09-.53.4-1.1.85-1.1h.1l.16.07c.3.14.69.38,1.13.65l.38.23h10.85l.98-1.16c.17-.21.4-.32.64-.32s.43.11.58.3c1.36,1.65,1.28,2.1,1.25,2.27-.07.37-.32.6-.51.73l-.77.54-2.28,12.95c-.09.53-.46.88-.92.88h-.86Zm-.25-3.65l.84-4.79h-4.38l-.84,4.79h4.38Zm-6.84,0l.84-4.79h-4.17l-.84,4.79h4.17Zm7.98-6.49l.77-4.36h-4.38l-.77,4.36h4.38Zm-6.84,0l.77-4.36h-4.17l-.77,4.36h4.17Zm-2.51-7.8c-.22,0-.42-.09-.55-.25-.16-.19-.21-.46-.16-.76l1.56-8.83c.11-.61.51-1.06.96-1.06.13,0,.26.04.38.12.4.24.73.46,1.07.72h7.13l.94-1.12c.25-.3.5-.36.67-.36.22,0,.42.11.56.3,1.31,1.58,1.24,2.02,1.21,2.19-.05.27-.21.46-.44.68l-.77.6-1.17,6.66c-.09.53-.46.88-.92.88h-.8c-.22,0-.42-.09-.55-.25-.16-.19-.21-.46-.16-.76l.09-.52h-7.15l-.15.88c-.09.53-.46.88-.92.88h-.8Zm9.33-3.46l.87-4.91h-7.15l-.87,4.91h7.15Zm-9.71-9.75c-.38,0-.66-.27-.7-.68-.03-.22.05-.46.22-.65.2-.23.51-.37.83-.37h12.79l1.51-1.86c.2-.24.44-.37.69-.37.22,0,.43.11.57.3.46.6.88,1.29,1.25,2.05.16.25.14.63-.06.94l-.07.16c-.3.4-.57.48-.74.48h-16.29Z"/>
        <path class="cls-1" d="m87.56,131.52c-.3,0-.54-.18-.65-.47-.2-.4,0-.94.51-1.28,3.84-2.44,6.57-6.08,8.11-10.83h-6.44c-.36,0-.63-.28-.67-.68-.04-.18.02-.41.17-.6.2-.25.55-.41.91-.41h6.52c.35-1.43.56-2.41.71-3.26l1.08-6.14h-5.73c-.38,0-.66-.27-.7-.68-.03-.22.05-.46.22-.65.2-.23.51-.37.83-.37h5.67l1.45-8.22c.09-.51.48-.89.92-.89h.1c1.52.14,2.35.39,2.67.81.13.17.18.38.15.59-.08.44-.58.86-1.56,1.32l-1.13,6.39h6.75l1.46-8.3c.09-.51.48-.89.92-.89h.1c1.54.14,2.38.39,2.7.81.13.17.18.38.15.59-.08.46-.58.89-1.59,1.36l-1.13,6.43h2.53l1.48-2.04c.19-.28.47-.44.74-.44.26,0,.49.14.64.38.44.84.79,1.58,1.08,2.28.14.46.01.74-.11.9l-.06.13c-.3.4-.56.48-.74.48h-5.86l-1.66,9.4h3.33l1.66-2.2c.22-.28.49-.43.76-.43s.5.15.63.41c.5.88.87,1.6,1.18,2.33.12.29.08.65-.1.92l-.12.22c-.29.38-.55.46-.73.46h-6.81l-2.01,11.43c-.09.53-.46.88-.92.88h-.95c-.22,0-.42-.09-.55-.25-.16-.19-.21-.46-.16-.76l1.99-11.3h-7.16c-1.78,5.8-5.23,10.01-10.26,12.51-.13.05-.24.07-.34.07Zm17.97-14.28l1.66-9.4h-6.75l-1.11,6.27c-.17.98-.39,1.99-.67,3.13h6.87Z"/>
        <path class="cls-1" d="m133.8,128.52c-.28,0-.53-.11-.7-.31-.19-.23-.26-.54-.2-.9.1-.58.56-1.05,1.17-1.19,1.57-.4,4.08-1.46,7.09-4.21,2.46-2.25,3.8-4.89,4.5-8.83l.2-1.13c.74-4.17-1.3-8.03-4.63-8.77-.93-.21-1.79-.3-2.64-.3-.31,0-.62.02-.94.05.36,1.01.43,2.07.23,3.21-.1.57-.34,1.48-.9,2.57-2.42,4.82-5.16,9.05-8.13,12.57-.95,1.11-2.4,2.43-3.92,2.43-1.12,0-2.05-.79-2.6-2.22-.45-1.2-.5-2.86-.16-4.8.55-3.1,1.99-6.47,3.78-8.79,3.07-3.99,6.51-6.36,10.55-7.25.89-.21,1.86-.32,2.78-.32,4.62,0,7.82,2.55,8.77,7.01.45,2.07.49,4.21.11,6.35-.69,3.93-2.78,7.7-5.72,10.33-2.73,2.44-5.38,3.85-8.35,4.45-.13.06-.24.06-.31.06Zm1.93-25.21c-1.76.56-3.57,1.61-5.5,3.21-3.86,3.17-5.1,7.42-5.5,9.67-.16.89-.24,1.69-.23,2.32,0,1.4.37,2.26.93,2.26.22,0,.85-.13,1.83-1.39,2.11-2.57,5.79-7.96,7.57-11.32.47-.89.8-1.83.95-2.71.14-.82.12-1.55-.06-2.04Z"/>
        <path class="cls-1" d="m175.19,131.64c-.22,0-.42-.09-.55-.25-.16-.19-.21-.46-.16-.76l.27-1.53h-7.58l-.29,1.66c-.09.53-.46.88-.92.88h-.86c-.22,0-.42-.09-.55-.25-.16-.19-.21-.46-.16-.76l2.25-12.74c.11-.6.5-1.04.92-1.04.11,0,.22.03.32.08.37.21.79.48,1.32.85h7.48l.94-1.12c.24-.28.49-.34.65-.34.2,0,.4.09.55.25,1.22,1.41,1.31,1.97,1.25,2.3-.04.23-.19.45-.45.68l-.72.55-1.88,10.65c-.09.53-.46.88-.92.88h-.89Zm-.14-4.24l1.4-7.92h-7.58l-1.4,7.92h7.58Zm-18.33,4.24c-.22,0-.42-.09-.55-.25-.16-.19-.21-.46-.16-.76l2.85-16.18c-.13.02-.28.05-.44.07-.29.05-.65.11-1.05.18-.54.09-.96.17-1.32.24l-.18.03c-.48,1.17-.81,1.33-1.07,1.33-.6,0-.83-.76-.85-2.82.02-.67.45-1.19.97-1.19l1.38-.08c.51-.03.86-.05,1.05-.07.93-1.18,1.84-2.41,2.74-3.68-.15.04-.29.05-.4.05-.92,0-1.03-1.31-1.06-1.74-.13-1.42-.78-2.9-1.88-4.26-.28-.37-.25-.89.05-1.3.13-.17.33-.26.55-.26.18,0,.37.06.54.19.63.42,1.12.79,1.5,1.15,1.09-1.82,2.1-3.83,3.08-6.12.18-.38.51-.63.85-.63.13,0,.26.04.38.11,1.48.76,2.11,1.39,1.99,2.05-.1.58-.81.79-1.46.9-1.3,1.83-2.58,3.48-3.8,4.89.75,1.08,1.08,2.11.98,3.07,1.21-1.81,2.38-3.68,3.49-5.62.19-.31.48-.48.78-.48.15,0,.3.05.43.14,1.34.91,1.92,1.62,1.82,2.23-.11.63-.83.79-1.56.83-2.19,2.92-4.49,5.71-6.86,8.33l1.06-.08c1-.08,1.93-.18,2.82-.32-.19-.71-.46-1.41-.79-2.09-.19-.39-.11-.86.2-1.19.14-.17.34-.28.56-.28.19,0,.38.09.52.24,1.96,1.98,2.79,4.18,2.41,6.37-.26,1.51-1.04,1.82-1.64,1.82-.32,0-.58-.1-.76-.3-.23-.25-.32-.64-.27-1.19.05-.53.07-1.07.05-1.59-.06.01-.13.03-.2.05-.46.11-1.09.26-1.89.43-.06.03-.12.05-.18.05l-2.97,16.83c-.09.53-.46.88-.92.88h-.8Zm-4.72-2.84c-.13,0-.26-.04-.37-.12-.31-.19-.41-.62-.22-1.09,1.31-2.83,2.38-6.05,3.19-9.56.13-.53.52-.88.96-.88.07,0,.14,0,.21.03,1.12.35,2.37.86,2.21,1.74-.09.54-.69.81-1.25.98-1.09,3.17-2.43,6-3.97,8.42-.28.43-.59.49-.75.49Zm10.46-2.63c-.28,0-.51-.1-.68-.3-.29-.34-.37-.94-.23-1.87.29-1.84.17-3.93-.38-6.23-.07-.43.06-.82.33-1.06.14-.12.3-.18.46-.18.24,0,.47.14.62.38,1.51,2.57,2.08,4.98,1.69,7.17-.24,1.39-.85,2.1-1.81,2.1Zm4.57-12.98c-.36,0-.63-.28-.67-.68-.04-.18.02-.41.18-.61.2-.25.55-.41.91-.41h5.12l1.08-6.12h-6.04c-.15,0-.51-.06-.66-.57-.05-.28.02-.53.19-.73.21-.25.54-.4.89-.4h5.92l1.21-6.85c.09-.51.48-.89.92-.89h.1c1.43.1,2.22.33,2.54.75.14.18.19.39.16.61-.05.27-.26.7-1.5,1.31l-.89,5.06h3.55l1.44-1.85c.21-.24.46-.37.71-.37.23,0,.44.11.58.3.51.73.9,1.42,1.17,2.07.1.24.07.57-.08.88l-.15.23c-.19.29-.43.44-.72.44h-6.81l-1.08,6.12h3.09l1.33-1.7c.22-.28.48-.43.74-.43s.49.15.62.41c.4.65.7,1.25.92,1.88.12.28.07.64-.12.89l-.11.19c-.29.38-.55.46-.73.46h-13.83Z"/>
        <path class="cls-1" d="m207.92,131.64c-.22,0-.42-.09-.55-.25-.16-.19-.21-.46-.16-.76l.23-1.3h-8.14l-.25,1.42c-.09.53-.46.88-.92.88h-.83c-.22,0-.42-.09-.55-.25-.16-.19-.21-.46-.16-.76l2.49-14.15c.09-.53.41-1.1.87-1.1h.09l.16.06c.34.2.78.49,1.3.86h8.2l.72-.72c.17-.18.39-.28.6-.28.18,0,.35.07.48.2,1.06,1.06,1.42,1.58,1.34,2-.05.28-.24.54-.58.81l-.47.38-2.13,12.06c-.09.53-.46.88-.92.88h-.83Zm-.19-4l.72-4.09h-8.14l-.72,4.09h8.14Zm1.02-5.78l.68-3.85h-8.14l-.68,3.85h8.14Zm-24.52,9.52c-.29,0-.54-.19-.64-.48-.16-.42.02-.95.43-1.24,2.97-2.23,5.4-5.12,7.19-8.56-.68-.74-1.47-1.44-2.4-2.12-.03.07-.06.14-.08.22-.17.4-.29.72-.4,1.01-.08.2-.15.38-.22.55-.18.41-.49.65-.84.65-.11,0-.22-.02-.32-.07l-.68-.31c-.44-.23-.58-.69-.37-1.15,1.9-4.82,3.53-9.29,4.97-13.64h-2.49c-.37,0-.65-.3-.69-.72-.03-.22.05-.44.21-.62.2-.22.51-.36.84-.36h2.71l.03-.08c.66-1.74,1.29-3.98,2.02-6.58l.32-1.13c.12-.46.49-.77.92-.77h.12c1.35.31,2.68.74,2.51,1.68-.11.6-.85.9-1.54,1.09-.28.91-.54,1.73-.77,2.48-.42,1.35-.75,2.45-1.04,3.31h2.58l1-1.27c.2-.24.44-.36.68-.36s.45.12.61.34c1.09,1.48,1.17,2.02,1.11,2.35-.05.26-.18.46-.44.63l-.76.48c-1.48,5.48-3.06,10.09-4.69,13.72,2.12,2.01,3.03,3.65,2.79,4.99-.24,1.34-.94,1.63-1.48,1.63-.49,0-.89-.46-1.33-1.55-.33-.79-.78-1.6-1.34-2.41-2.12,3.47-4.85,6.22-8.12,8.17-.11.08-.26.13-.41.13Zm5.25-14.1c.95.49,1.85,1.03,2.75,1.65,1.48-3.58,2.86-7.85,4.1-12.69h-2.85c-1.43,4.34-2.74,7.96-4,11.04Zm8.86-.8c-.59,0-.86-.78-.99-2.88-.01-.65.39-1.18.93-1.24.52-.03,1.03-.1,1.55-.16l2.25-12.75c.1-.57.51-.98.96-.98.14,0,.27.04.39.11.43.24.81.5,1.15.78,3.62-.83,6.54-1.88,8.69-3.13.16-.07.27-.1.38-.1.17,0,.32.06.46.18,1.14,1.12,1.6,1.87,1.5,2.44-.03.14-.16.61-.87.61-.21,0-.49-.06-.95-.18-1.2.33-2.32.61-3.33.82-.01.08-.03.17-.05.28-.03.32-.07.57-.1.73-.2,1.29-.3,2.59-.3,3.89h2.36l1.25-1.62c.2-.25.46-.4.73-.4.25,0,.48.13.62.35.33.53.65,1.17.94,1.84.14.22.11.59-.1.92l-.08.14c-.29.38-.56.46-.73.46h-4.9c.21,2.07.76,3.67,1.62,4.77.41.53.6.63.63.65,0-.03.54-.35,1.45-3.16.19-.53.54-.85.93-.85.17,0,.33.06.47.17.12.04.31.28.12.93-.49,1.57-.69,2.53-.77,2.97-.16.92-.05,1.35.07,1.55.28.46.2.81.07,1.03-.3.54-.81,1.28-1.71,1.28-1.18,0-2.34-.83-3.43-2.47-1.15-1.63-1.8-3.84-1.99-6.76h-4.29l-.9,5.1c1.75-.33,3.35-.77,4.44-1.07.07-.02.15-.03.23-.03.41,0,.71.32.72.76.03.37-.23.79-.63.96-2.38.96-4.93,1.82-7.77,2.62-.26.87-.54,1.44-1.02,1.44Zm9.21-11.47c.03-1.48.14-2.98.34-4.47-.42.07-.9.15-1.47.23-.62.09-1.34.2-2.14.33l-.69,3.9h3.96Z"/>
        <path class="cls-1" d="m242.82,130.55c-1.16,0-2.38-1.23-3.72-3.75-2.55-4.83-3.6-11.51-3.12-19.86h-13.78c-.36,0-.63-.28-.67-.68-.04-.18.02-.41.17-.6.21-.25.55-.41.91-.41h13.5l.08-.81c.14-1.48.39-3.26.74-5.27l.35-1.99c.09-.52.48-.89.95-.89h.11c1.42.18,2.19.43,2.49.84.12.17.17.36.14.57-.03.15-.1.58-1.4,1.27l-.11.65c-.31,1.76-.55,3.59-.72,5.44h5.74l1.4-1.96c.19-.28.47-.44.74-.44.26,0,.49.14.64.38.34.55.68,1.21,1.04,1.95l.05.08c.14.33.1.69-.08.97l-.12.24c-.25.33-.48.47-.74.47h-8.81c-.37,6.1.17,11.22,1.6,15.23,1.18,3.3,1.74,3.39,1.76,3.4.08-.07.68-.77,2.15-6.07.16-.57.55-.93.97-.93.16,0,.32.05.46.15.25.18.23.58.14.87l-.09.36c-.51,2.11-.92,3.78-1.12,4.95-.38,2.16-.14,2.99.12,3.3.25.3.3.67.16,1-.5,1.04-1.14,1.54-1.95,1.54Zm-23.05-.59c-.68,0-.96-.9-1.08-3.43-.03-.57.35-1.09.85-1.16,1.87-.34,3.74-.72,5.54-1.12l1.59-8.99h-4.74c-.36,0-.63-.28-.67-.68-.04-.18.02-.41.18-.61.2-.25.55-.41.91-.41h8.81l1.5-2.01c.2-.28.47-.44.75-.44.25,0,.47.13.61.35.42.69.82,1.45,1.15,2.19.12.29.08.65-.1.93l-.12.22c-.29.38-.55.46-.73.46h-5.03l-1.48,8.37c2.11-.55,4.15-1.1,6.05-1.69.08-.03.18-.05.27-.05.19,0,.36.07.49.2.16.17.25.41.24.7,0,.35-.26.68-.63.8-4.48,1.9-8.92,3.49-13.17,4.72-.35,1.04-.66,1.63-1.17,1.63Zm24.2-26.19c-.45,0-1.21-.21-1.21-1.65,0-1.3-.42-2.55-1.25-3.7-.24-.4-.23-.83.01-1.14.18-.22.42-.35.66-.35.14,0,.27.04.38.12,2.37,1.42,3.42,3.1,3.09,4.97-.21,1.16-.77,1.74-1.69,1.74Z"/>
        <path class="cls-1" d="m252.68,128.44c-.22,0-.42-.09-.55-.25-.16-.19-.21-.46-.16-.76l.18-1.02c1.4-3.82,4.18-7.56,8.3-11.15l.58-.51c1.92-1.67,3.26-2.9,4-3.86,1-1.35,1.6-2.7,1.86-4.14.35-1.96.11-3.44-.7-4.4-.57-.67-1.36-1.01-2.33-1.01-1.65,0-2.92.65-3.91,2-.44.61-.75,1.23-.94,1.87.33.08.6.24.79.48.31.39.41.97.27,1.72-.32,1.83-1.36,2.21-2.17,2.21-.59,0-1.05-.19-1.37-.56-.43-.51-.54-1.34-.34-2.48.33-1.86,1.2-3.51,2.67-5.03,1.54-1.6,3.29-2.38,5.34-2.38,1.88,0,3.4.65,4.51,1.92,1.26,1.51,1.67,3.52,1.24,5.97-.29,1.64-.96,3.2-1.99,4.64-.96,1.32-2.65,2.84-5.03,4.54l-.99.7c-3.55,2.55-5.96,5.37-7.16,8.38h7.64c1.16,0,1.94-.31,2.4-.94.43-.57.99-1.9,1.68-3.97.12-.41.47-.71.85-.71.23,0,.43.1.56.27.17.22.21.54.13.89l-1.82,6.8c-.13.47-.48.77-.9.77h-12.66Z"/>
        <path class="cls-1" d="m279.88,129.41c-2.66,0-4.43-1.58-5.27-4.68-.75-2.69-.75-6.23,0-10.51,1.03-5.84,2.88-10.13,5.48-12.74,1.53-1.52,3.18-2.29,4.89-2.29,2.69,0,4.5,1.61,5.37,4.8.73,2.74.72,6.24-.01,10.4-.74,4.21-1.99,7.72-3.72,10.45-1.91,3.04-4.18,4.58-6.75,4.58Zm4.99-28.14c-1.35,0-2.63.97-3.8,2.88-1.51,2.4-2.62,5.75-3.41,10.23-.64,3.61-.78,6.62-.43,8.95.43,2.66,1.39,3.96,2.93,3.96s3.07-1.39,4.5-4.26c1.13-2.32,2.02-5.26,2.63-8.74.65-3.71.8-6.8.44-9.19-.42-2.58-1.35-3.84-2.86-3.84Z"/>
        <path class="cls-1" d="m294.44,128.44c-.22,0-.42-.09-.55-.25-.16-.19-.21-.46-.16-.76l.18-1.02c1.4-3.82,4.18-7.56,8.3-11.15l.58-.51c1.92-1.67,3.26-2.9,4-3.86,1-1.35,1.6-2.7,1.86-4.14.35-1.96.11-3.44-.7-4.4-.57-.67-1.36-1.01-2.33-1.01-1.65,0-2.92.65-3.91,2-.44.61-.75,1.23-.94,1.87.33.08.6.24.79.48.31.39.41.97.27,1.72-.32,1.83-1.36,2.21-2.17,2.21-.59,0-1.05-.19-1.37-.56-.43-.51-.54-1.34-.34-2.48.33-1.86,1.2-3.51,2.67-5.03,1.54-1.6,3.29-2.38,5.34-2.38,1.88,0,3.4.65,4.51,1.92,1.26,1.51,1.67,3.52,1.24,5.97-.29,1.64-.96,3.2-1.99,4.64-.96,1.32-2.65,2.84-5.03,4.54l-.99.7c-3.55,2.55-5.96,5.37-7.16,8.38h7.64c1.16,0,1.94-.31,2.4-.94.43-.57.99-1.9,1.68-3.97.12-.41.47-.71.85-.71.23,0,.43.1.56.27.17.22.21.54.13.89l-1.82,6.8c-.13.47-.48.77-.9.77h-12.66Z"/>
        <path class="cls-1" d="m320.95,129.45c-2.02,0-3.56-.68-4.71-2.09-1.04-1.21-1.41-2.72-1.09-4.47.45-2.54,1.71-3.07,2.69-3.07.57,0,1,.17,1.29.51.34.41.44,1.03.29,1.87-.25,1.39-.92,2.1-1.99,2.1h0c.03.52.17,1,.42,1.41.66.98,1.68,1.47,3.13,1.47s2.78-.62,4-1.88c1.17-1.21,1.89-2.68,2.21-4.5.3-1.67.11-3.08-.56-4.17-.75-1.17-1.89-1.74-3.48-1.74h-1.08c-.22,0-.42-.09-.55-.25-.16-.19-.21-.46-.16-.76l.07-.39c.09-.53.46-.88.92-.88h1.08c1.35,0,2.52-.54,3.59-1.65,1.17-1.21,1.89-2.69,2.22-4.54.26-1.47.1-2.63-.48-3.53-.62-.97-1.49-1.44-2.65-1.44-1.22,0-2.35.45-3.44,1.36-.45.4-.82.84-1.09,1.31.28.07.51.21.67.41.32.38.4.93.27,1.7-.33,1.86-1.4,2.25-2.24,2.25-.56,0-.99-.18-1.29-.53-.41-.49-.52-1.28-.32-2.39.3-1.69,1.3-3.21,2.99-4.52,1.57-1.19,3.23-1.8,4.93-1.8,2.26,0,3.91.82,4.9,2.44.81,1.32,1.04,2.97.71,4.9-.64,3.61-2.58,5.95-5.8,6.97,3.22,1.12,4.51,3.63,3.84,7.45-.39,2.2-1.33,4.09-2.81,5.62-1.82,1.89-4,2.85-6.47,2.85Z"/>
      </g>
    </g>
  </g>
</svg>