<?xml version="1.0" encoding="UTF-8"?>
<svg id="_レイヤー_2" data-name="レイヤー 2" xmlns="http://www.w3.org/2000/svg" viewBox="0 0 427.76 166.18">
  <defs>
    <style>
      .cls-1 {
        fill: #fff;
      }
    </style>
  </defs>
  <g id="_文字" data-name="文字">
    <g>
      <path class="cls-1" d="m99.84,80.51c2.27-1.63,4.49-3.45,5.08-6.44.1-3.09-3.91-3.22-4.97-.71-.55,1.14-.98,2.37-1.45,3.46-.34.84-.74,1.76-1.17,2.74-3.47,2.17-7.95,3.01-11.97,2.95-.88-.01-1.58.8-1.43,1.67.13.79.87,1.32,1.65,1.2,3.57-.56,7.13-1.37,10.47-2.84-3.44,8.25-6.64,18.66,4.95,20.14,1.9.15,2.14-2.7.24-2.87-10.19-.59-5.31-11.85-2.03-18.93.21-.13.42-.24.63-.38Z"/>
      <path class="cls-1" d="m203.17,49.95c.46-.17.69-.68.52-1.14-.17-.46-.68-.69-1.14-.52-4.93,1.83-9.83,3.72-14.71,5.68-.32-4.31-3.79-7.07-8.54-6.34-1.87.29-1.48,3.1.4,2.85,3.98-.29,5.46,1.59,5.42,4.6-11.7,4.79-23.23,10.03-34.42,15.96-7.36,4.1-14.92,8.24-21.79,13.24.15-.49.29-.98.44-1.47,1.45-4.87,8.81-29.53,10.11-33.85l1.01-3.41c.14-.51.28-1.07.42-1.64.23-.15.47-.31.7-.46,2.33-1.44,9.33-7.12,5.45-9.88-1.86-.77-3.29.05-4.54,1.15-2.14,2.21-2.9,4.96-3.57,7.7-1.63,1.03-3.25,1.97-4.55,2.86-3.53,2.2-8.39,5.54-12.06,7.41-1.91,1.01-.1,3.75,1.58,2.41,4.13-3.15,9.41-6.33,14.15-9.35-.74,2.53-2.18,7.39-2.76,9.34-2.59,8.23-5.88,20.48-9.25,31.37-3.57,2.83-6.91,5.94-9.87,9.48-2.18,2.82-4.56,7.26-2.3,10.87,2.07,3.64,5.27,2.76,7.04-.51,3.04-5.97,5.09-12.33,7.01-18.71,17.41-12.78,36.99-22.19,56.99-30.42-1.74,9.22-12.86,25.04-15.31,28.41-8.93,12.47-18.79,24.29-28.82,35.9-.3.35-.27.88.08,1.18.35.31.88.27,1.18-.07,5.1-5.77,10.19-11.55,15.09-17.5,4.92-5.93,9.75-11.95,14.31-18.18,4.55-6.24,8.91-12.66,12.48-19.62,1.72-3.49,3.33-7.12,3.84-11.29,5.12-2.08,10.27-4.08,15.4-6.05Zm-59.07-13.58c.39-.44,1.31-.86,1.77-.77,0,.06-.02.13-.04.22-.73,1.73-2.21,3.23-3.96,4.57.53-1.59,1.21-3.06,2.23-4.02Zm-23.54,65.79c-.64,1.32-2.3,6.05-4.02,4.67-4.73-4.84,3.05-12.32,8.38-16.79-1.47,4.55-2.93,8.75-4.36,12.13Z"/>
      <path class="cls-1" d="m195.47,81.2c-.85.38-1.66.76-2.45,1.16,1.41-2.09,2.81-4.2,4.17-6.33,1.57-2.74,4-5.93,4.81-8.99.02-.37-.17-.78-.53-.94-.42-.2-.7-.07-.97.05-.85.54-1.91,1.69-2.95,1.51-.09-.6-.6-1.14-1.37-.94-1.5.5-1.02,2.3.11,2.74,1,.43,1.97.26,2.85-.17-3.46,6.58-8.4,12.44-13.11,18.17h0c-1.26,1.55,1.11,3.36,2.28,1.76,0,0,0,0,0,0,2.69-3.04,7.17-5.72,11.28-6.64,4.83-1.2,8.44,1.13,5.45,5.79-.49.76-1.07,1.49-1.69,2.19-.72-.17-1.41-.24-1.76-.19-3.17.21-7.53,1.46-8.15,5.14-.21,2.05,1.92,3.5,3.73,2.76,1.89-.72,3.16-2.08,4.69-3.27.76-.66,1.51-1.34,2.24-2.06.07.05.15.09.21.14.39.35.98.32,1.33-.07.39-.6.23-1.1-.21-1.5.52-.61,1.03-1.24,1.48-1.94,1.6-2.2,2.24-5.79,0-7.95-3.25-2.89-7.84-1.68-11.45-.42Zm1.82-13.6s-.01,0-.02,0c-.02-.03,0-.02.02,0Zm-.53,1.29c.12-.03.2-.09.3-.15-.09.08-.19.14-.3.15Zm1.01,26.69c-.58.44-1.45,1.01-2.03.72-.14-.08-.28-.37-.27-.67.65-2.29,3.99-3.15,6.16-3.31,0,0,.01,0,.02,0-1.24,1.17-2.58,2.25-3.88,3.27Z"/>
      <path class="cls-1" d="m224.48,60.72c-2.19-.32-4.37,1.21-6.24,2.05-2.3,1.1-.32,4.44,1.75,2.94.74-.52,2.35-1.88,3.02-2.22,1.69-.76,4.67-.32,5.4,1.64.7,1.61-1.08,2.75-2.37,3.61-1.73,1.22-3.39,2.77-4.18,4.8-1.03,2.67-1.34,5.48-.97,8.27.05.41.43.7.84.64.41-.05.7-.43.64-.84-.33-2.49-.06-5.18.92-7.45.73-1.73,2.17-2.98,3.74-3.98,1.2-.77,2.69-1.56,3.25-3.1,1.28-3.5-2.58-6.58-5.8-6.37Z"/>
      <path class="cls-1" d="m222.72,85.7h0c-.99,0-1.69,1.25-1.95,1.79l-.13.27,1.04,2.82,1.74.38.26-.33c.06-.08,1.19-2.05.28-3.99-.36-.78-.87-.94-1.24-.94Z"/>
      <path class="cls-1" d="m284.83,40.25c-.48-.12-1.08-.6-1.58-1.27-.73-.82-.99-2.01-1.63-2.85-.56-.53-1.46-.51-1.99.06-3.25,3.43-6.92,6.6-10.7,9.51-3.66,2.84-8.6,5.94-12.42,7.39.02-.26.17-.76.37-1.17,3.87-7.36,9.67-13.68,15.15-19.9.4-.43.5-1.09.21-1.64-.38-.72-1.28-.97-1.98-.56-4.29,2.23-8.94,4.88-13.6,5.85-.54.1-1.07.09-1.34.02-.24-.12-.09.1-.17-.26-.01-.73.53-1.95,1.09-2.97,6.69-10.67,16.07-19.6,24.84-28.59.79-.78-.38-1.94-1.16-1.21-3.72,3.53-7.34,7.13-10.9,10.82-2.78,3.28-22.23,21.75-14.46,24.6.96.28,1.74.22,2.45.12,3.29-.61,6.23-1.78,9.1-3.13-3.18,4.18-6.3,8.38-9.13,12.83-.84,1.57-4.08,6.04-.97,6.91.56.08.93-.04,1.29-.12,4.78-1.82,8.72-4.49,12.82-7.35,3.48-2.47,6.78-5.06,10.04-7.81.86,1.57,1.98,2.89,3.97,3.54.77.22,1.58-.24,1.78-1.02.21-.79-.29-1.59-1.08-1.77Z"/>
      <path class="cls-1" d="m268.98,53.94c.25,6.16.28,12.37.05,18.53-.38,5.81-.46,12.47-2.82,17.71-.4.66-.16,1.53.54,1.86,5.89,1.61,4.65-33.89,4.3-38.22-.08-1.36-2.14-1.23-2.07.11Z"/>
      <path class="cls-1" d="m254.7,87.07c-.16.07-.57.29-.62.23-.57-.24-.81-1.12-1.06-1.9-1.05-4.4-.85-9.22-.42-13.72.23-2.45-3.47-2.59-3.44-.14.43,3.64-.12,20.9,6.51,17.47,1.23-.65.29-2.54-.97-1.94Z"/>
      <path class="cls-1" d="m282.76,64.81c-.37-.18-.88-.85-1.18-1.67-.99-2.6-1.24-5.63-1.19-8.41.06-2-2.93-2-2.88,0,.19,3.23.4,6.35,1.5,9.44.42,1.04.94,2.24,2.31,3.14.72.5,1.74.23,2.11-.57.35-.72.05-1.58-.67-1.93Z"/>
      <path class="cls-1" d="m298.51,46.17c1.7-1.34,3.88-2.94,6.15-4.45.22.18.47.32.77.34.79.07,1.49-.51,1.56-1.31.02-.19.03-.39.05-.58,3.42-2.12,6.67-3.74,8.35-3.65.81.04,1.48-.56,1.53-1.35.05-.79-.55-1.48-1.35-1.53-2.06-.13-5.14,1.21-8.21,2.96.16-1.82.32-3.64.53-5.44l.97-7.46c2.71-1.46,5.38-2.98,7.99-4.67,2-1.59,5.06-2.79,5.4-5.81.03-3.42-4.48-4.21-7.06-3.82-6.27.76-7.74,6.56-8.35,11.84-.06.37-.12.78-.19,1.18-7.47,3.82-15.49,7.27-16.75,7.57-1.21.25-1.78,1.77-1.02,2.75.58.77,1.67.93,2.44.35,2.65-1.98,5.62-3.23,8.48-4.73,2.15-1.1,4.3-2.19,6.43-3.3-.66,4.32-1.38,9.25-1.89,13.35-3.75,2.42-6.98,4.95-7.64,5.48-.62.49-.73,1.4-.24,2.02.28.36.7.55,1.13.55.31,0,.63-.1.89-.31Zm13.31-32.9c1.89-1.84,5.4-2.41,7.67-1.15,2.68,1.27-3.12,5.16-10.29,8.99.39-2.99.82-6.05,2.61-7.85Z"/>
      <path class="cls-1" d="m315.06,69.48c.31-.73-.02-1.58-.76-1.89-.93-.41-1.95-.77-3.01-1.03,2.85-5.94,5.23-18.05-.35-19.22-1.99-.16-3.33.95-4.69,2.02-2.96,2.48-4.95,5.71-6.25,9.25-.03-.29-.05-.58-.09-.87-.3-1.93-3.17-1.46-2.84.46.36,1.89.61,3.89.76,5.86.15,1.96.18,3.93.03,5.86h0s0,.08,0,.12c-.02.55.39,1.04.95,1.11.62.08,1.18-.38,1.23-1,.15-1.17.23-2.33.28-3.49.54-4.49,1.87-9.03,4.44-12.69,1.34-1.77,3.78-4.55,5.91-4.58.69-.02,1.25,1.21,1.41,2.5.36,4.12-.63,8.52-2.14,12.37-.22.7-.53,1.33-.88,1.92-2.29-.23-4.63.1-6.59,1.46-1.37.86-2.6,2.99-1.25,4.49,1.56,1.25,3.05.29,4.4-.2,1.31-.58,2.92-1.44,4-2.71.08-.08.16-.18.24-.28,1.18.3,2.33.76,3.31,1.3.73.31,1.58-.02,1.89-.76Zm-12.11.97s0,0-.01,0c0,0,0,0,0,0,1-1.22,2.43-1.75,3.98-1.83-1.13.88-2.46,1.51-3.96,1.83Z"/>
      <path class="cls-1" d="m366.96,24.83c-2.25.99-4.48,2.01-6.67,3.09.32-1.35.64-2.7.93-4.06.34-1.97-2.6-2.34-2.85-.44-.36,2.05-.78,4.1-1.25,6.15-.58.31-1.16.62-1.72.95-2.14,1.22-4.22,2.52-6.26,3.87,3.59-13.12,11.31-28.1,14.05-32.9.66-1.16-1.09-2.11-1.73-.99-2.77,4.92-5.25,9.93-7.62,15.04-2.08,4.74-5.77,12.91-7.79,20.97-7.47,5.3-14.28,11.49-20.25,18.5-1.23,1.56,1.14,3.32,2.29,1.75,4.99-6.27,10.8-12.06,17.25-16.98-1.25,6.66-1.01,12.91,2.64,16.71-7.33,16.87-17.14,32.72-29.49,46.35l-4.04,4.43c-.61.6-.58,1.61.08,2.15.61.51,1.52.42,2.03-.19,5.26-6.18,10.44-12.43,15.02-19.13,7.06-10.1,13.26-20.81,18.33-32.03,1.26.8,2.78,1.4,4.61,1.77l2.31.29c.11.01.24.02.35.01,2.5-.21,2.14-3.95-.35-3.69-2.39.11-4.24-.36-5.67-1.23,3.38-7.84,6.2-15.93,8.37-24.22,2.74-1.33,5.56-2.49,8.45-3.47.83-.24,1.26-1.18.91-1.97-.32-.73-1.17-1.06-1.9-.74Zm-14.95,21.59c-.88,2.38-1.81,4.75-2.78,7.1-2.53-3.36-2.4-9.25-.9-15.94,2.59-1.81,5.27-3.47,8.04-4.96-1.21,4.66-2.68,9.29-4.35,13.81Z"/>
      <path class="cls-1" d="m382.1,34.84c.74-.72,1.26-1.49,1.77-2.17.2-.27.21-.65,0-.94-.93-1.09-2.39,1.15-3.16,1.47-2.2,1.81-3.11-.67-3.82-2.5-1.62-4.65-1.88-10.24.15-14.8,1.45-3.02,4.37-5.24,6.88-7.54,1.36-1.18,2.34-2.51,3.84-3.67.94-.76-.19-2.18-1.14-1.45-1.24.77-2.99,2.45-4.17,3.46-4.3,3.43-8.81,7.77-9.09,13.7-.83,4.71,1.31,20.58,8.76,14.44Z"/>
      <path class="cls-1" d="m426.58,40.46c-1.13,0-3.87.04-4.98.05-11.76-.61-22.61-6.71-30.58-15.22-1.46-1.67-3.01-3.37-4.41-5.16.87-.58,1.73-1.16,2.58-1.73,3.57-2.48,7.09-4.88,10.36-7.82.37-.34.39-.91.06-1.28-.34-.37-.91-.4-1.28-.06-3.98,3.43-8.38,6.47-12.83,9.37-.91-1.3-1.72-2.65-2.33-4.09-.15-.96-1.44-1.36-2.1-.62-.47.49-.44,1.27.05,1.73.89.86,1.34,1.9,2.04,2.86.26.38.53.75.8,1.12-1.28.83-2.57,1.65-3.85,2.46-.61.36-1.74,1.05-2.35,1.34-.08.03.01,0,.01.05-1.22.01-1.21,1.86,0,1.87.25-.04.6-.14.77-.22,2.2-1.18,4.38-2.55,6.52-3.96,9.05,12.02,22.75,21.46,38.18,21.4l3.49-.02c.57,0,1.03-.47,1.03-1.04,0-.63-.56-1.09-1.17-1.02Z"/>
      <path class="cls-1" d="m394.25,50.52c-.98-.44-1.93-.78-2.87-1.07.33-2.74.33-5.5-.25-8.31-1.26-4.7-6.5-3.75-8.93-.72-1.91,2.24-2.91,4.89-3.37,7.67-.53-.83-1.32-1.35-2.42-.82-1.2.73-.73,2.24.26,2.61,1.42,2.63,1.66,5.85,2.25,8.77.05.33.34.58.69.57.37-.01.66-.32.65-.7,0-.02,0-.04,0-.05-.01-.57-.03-1.14-.04-1.71.65,1.01,1.48,1.91,2.38,2.58,3.9,3.39,6.81-.3,7.67-4.06.26-1.03.49-2.06.69-3.09.76.33,1.48.67,2.12.96.73.33,1.58,0,1.91-.72.33-.73,0-1.58-.72-1.91Zm-16.83-.62c.14-.03.29-.06.43-.14-.12.08-.27.12-.43.14Zm9.48-10c1.15-.08,1.86.56,2.23,1.82.35.98.49,3.95.26,7.14-2.31-.61-4.75-1.03-7.12-.34-.8.24-1.43.58-1.93.98.2-1.41.53-2.81,1.12-4.17.94-2.41,2.79-5.16,5.43-5.43Zm-3.09,17.98c-1.67-1.47-3.97-4.46-2.4-6.46,2.09-1.53,5.03-.96,7.72.03-.65,4.88-2.25,9.16-5.32,6.43Z"/>
      <path class="cls-1" d="m207.53,48.16s2.81-.94,2.81-.94c.92-.39.34-1.78-.58-1.41l-3.97,1.23c-.94.39.81,1.51,1.74,1.12Z"/>
      <path class="cls-1" d="m2.4,65.4c2.09,1.82,3.24,4.38,3,7.15.02,3.75.01,7.58.16,11.31.57,10.13,1.22,21.09,7.46,29.42.4.36.98,1.05,1.45,1.32,5.49,3.87,12.23-.84,16.91-4.16,19.15-14.72,36.27-32.1,55.16-47.23.27-.22.67-.18.9.1.22.27.18.66-.08.89-9.24,7.82-18.03,16.14-26.96,24.34-8.92,8.22-17.86,16.4-27.45,23.99-3.69,2.78-7.96,5.67-12.74,6.27-2.09.35-4.42-.15-6.35-1.14-.38-.24-1.26-.87-1.62-1.12-.27-.27-1.08-1.06-1.36-1.35-.96-1.06-1.98-2.81-2.68-4.07-5.89-11.95-5.42-25.62-5.49-38.55.21-1.91-.55-3.75-2.13-4.92-1.53-1.19.31-3.51,1.82-2.23h0Z"/>
      <g>
        <path class="cls-1" d="m63.59,151.74c.55-1.73.57-1.95-.42-2.17l-.33-.07c-.11-.15-.09-.39.11-.46.61.04,1.23.06,1.99.06h3.42c1.18,0,2.06,0,2.59-.06-.13.31-.57,1.79-.75,2.45-.07.15-.4.13-.46-.02.11-.96.17-1.42-.64-1.64-.42-.11-.99-.17-1.95-.17h-1.01c-.52,0-.52.06-.7.63l-1.27,4.03c-.13.39-.09.46.29.46h1.27c1.75,0,2.1-.13,2.52-.9l.31-.57c.09-.11.44-.09.48.04-.13.33-.4,1.07-.63,1.75-.22.68-.4,1.38-.48,1.84-.11.13-.35.11-.48,0l.02-.7c.02-.61-.39-.81-1.9-.81h-1.36c-.4,0-.44.06-.59.52l-.81,2.65c-.52,1.71-.59,2.12.35,2.19l.72.06c.11.13.06.39-.07.46-1.07-.04-1.71-.06-2.5-.06-.74,0-1.36.02-2.08.06-.15-.09-.15-.35-.02-.46l.57-.06c.88-.09,1.07-.31,1.66-2.19l2.15-6.85Z"/>
        <path class="cls-1" d="m76.7,159.65c-.17.44-.07.63.13.63.28,0,1.01-.59,1.97-1.53,1.67-1.66,2.63-3.79,3.24-4.91.39-.07.83.11.9.33-.18.5-1.38,3.51-2.15,5.7-.09.24-.11.46.07.46.35,0,1.32-.86,1.8-1.44.17-.04.31.04.33.26-.48.88-2.25,2.34-3.22,2.34-.29,0-.57-.35-.46-.64l1.25-3.37-.04-.02c-1.32,1.67-3.61,4.03-4.6,4.03-.75,0-.85-.75-.53-1.56l1.69-4.47c.13-.35.15-.53,0-.53-.35,0-1.31.81-1.75,1.27-.18.04-.33-.11-.31-.28.48-.74,2.32-2.19,3.18-2.19.24,0,.66.24.55.55l-2.06,5.37Z"/>
        <path class="cls-1" d="m92.34,150.86c.42-1.29.44-1.53.13-1.67l-.33-.17c-.11-.07-.13-.18-.04-.28.55-.26,1.45-.52,2.25-.66l.11.09c-.15.52-.35,1.14-.9,2.71l-1.9,5.45h.04c.53-.72,1.14-1.34,1.88-1.9.52-.37,1.2-.7,1.99-.7,1.07,0,1.32.63,1.32,1.01,0,.22-.07.72-.75,1.34-.86.79-1.77,1.42-2.94,1.62-.13.07-.09.24-.06.35.15.53.48,1.34.68,1.73.22.4.4.61.59.61.24,0,.59-.24,1.1-.86.17,0,.24.07.24.22-.64,1.38-1.56,1.75-1.86,1.75-.33,0-.55-.22-.85-.74-.22-.4-.68-1.47-.85-1.97-.15-.48-.35-.68-.68-.61-.37.09-.46.18-.68.74l-.96,2.34c-.07.17-.15.24-.31.24-.2,0-.74-.06-.59-.48l3.37-10.16Zm2.54,3.66c-.48,0-1.16.4-1.79.94-.68.57-1.45,1.47-1.69,2.01-.07.18-.06.31.18.28.39-.04,1.42-.35,2.71-1.2.77-.52,1.18-1.16,1.18-1.55,0-.22-.17-.48-.59-.48Z"/>
        <path class="cls-1" d="m104.38,159.65c-.17.44-.07.63.13.63.28,0,1.01-.59,1.97-1.53,1.67-1.66,2.63-3.79,3.24-4.91.39-.07.83.11.9.33-.18.5-1.38,3.51-2.15,5.7-.09.24-.11.46.07.46.35,0,1.32-.86,1.8-1.44.17-.04.31.04.33.26-.48.88-2.25,2.34-3.22,2.34-.29,0-.57-.35-.46-.64l1.25-3.37-.04-.02c-1.32,1.67-3.61,4.03-4.6,4.03-.75,0-.85-.75-.53-1.56l1.69-4.47c.13-.35.15-.53,0-.53-.35,0-1.31.81-1.75,1.27-.18.04-.33-.11-.31-.28.48-.74,2.32-2.19,3.18-2.19.24,0,.66.24.55.55l-2.06,5.37Z"/>
        <path class="cls-1" d="m119.21,155.25c.09-.2.09-.35-.04-.35s-.61.22-1.53.98c-.17-.02-.28-.17-.24-.31,1.01-1.16,2.43-1.84,3.04-1.84.13,0,.22.11.29.18.11.11.11.28-.11.81l-2.19,5.23c-.07.18-.09.4.06.4.31,0,1.29-.64,1.91-1.36.18.02.28.15.28.31-.28.53-2.17,2.19-3.44,2.19-.09,0-.2-.06-.29-.17-.11-.13-.17-.29-.07-.5l2.34-5.58Zm2.19-4.62c0,.57-.4,1.14-.96,1.14-.48,0-.64-.37-.64-.68,0-.4.26-1.16.98-1.16.42,0,.63.29.63.7Z"/>
        <path class="cls-1" d="m140.44,152.51c.61-1.56.77-2.17.77-2.47,0-.26-.17-.37-.52-.42l-.86-.13c-.11-.11-.07-.39.09-.46.87.04,1.45.06,2.02.06.4,0,.85-.02,1.23-.06-.26.88-.11,2.01.09,3.59l.29,2.37c.2,1.58.31,2.56.4,3.37h.04c.72-.87,1.42-1.8,2.12-2.71l2.93-3.77c1.4-1.8,1.69-2.52,1.78-2.85.31.04.64.06,1.14.06.72,0,1.29-.02,1.86-.06.15.09.09.35,0,.46l-.42.07c-.64.11-.92.22-1.1.42-.26.29-.44.86-.85,2.28l-1.6,5.7c-.39,1.36-.52,2.01-.53,2.3-.02.29.22.46.74.5l.63.06c.13.13.07.39-.07.46-.68-.04-1.51-.06-2.36-.06-.75,0-1.55.02-2.23.06-.13-.11-.13-.39,0-.46l.48-.06c.33-.04.81-.15,1.01-.35.22-.22.59-1.18.94-2.34l1.47-4.82c.29-.94.55-1.77.7-2.32l-.06-.02c-.26.33-.72.96-1.71,2.25l-2.8,3.62c-1.05,1.36-2.13,2.76-2.94,4.14-.11.07-.28.02-.35-.07.02-.66-.07-1.64-.29-3.75l-.63-6.18h-.04c-.29.66-.57,1.44-.85,2.19l-1.38,3.72c-.88,2.37-1.1,3.09-1.1,3.44,0,.2.09.35.55.42l.79.13c.07.11.04.37-.06.46-.52-.04-1.25-.06-2.12-.06-.75,0-1.38.02-1.97.06-.11-.11-.11-.4.02-.46l.5-.06c.4-.04.81-.17,1.05-.5.29-.37,1.05-2.23,2.23-5.28l.96-2.48Z"/>
        <path class="cls-1" d="m164.58,153.3c.31-.15.79.04.9.28-.28.68-1.88,4.75-2.47,6.42-.11.31-.02.42.13.42.31,0,.85-.31,1.9-1.23.13,0,.26.09.26.24-.77,1.03-2.08,2.06-3.09,2.06-.42,0-.53-.35-.53-.5,0-.13.04-.29.18-.72l.61-1.66-.06-.02c-1.31,1.62-3.18,2.89-4.05,2.89-.52,0-.81-.52-.81-1.03,0-.42.4-1.9,1.62-3.57.88-1.21,1.67-1.95,2.43-2.37.72-.4,1.18-.53,1.66-.53.2,0,.33.06.44.11.07.04.28.2.37.39l.52-1.18Zm-3.2,2.1c-1.18,1.05-2.3,3.46-2.3,4.77,0,.22.11.35.28.35.18,0,.74-.24,1.79-1.2,1.4-1.31,2.17-2.89,2.47-3.98-.13-.35-.44-.66-.92-.66-.44,0-.74.2-1.31.72Z"/>
        <path class="cls-1" d="m174.41,155.47l-.79,2.32h.09c.55-1.03,1.45-2.5,1.93-3.11.42-.55.88-.96,1.34-.96.64,0,.74.63.74.9s-.17.81-.39,1.1c-.22.28-.52.29-.59-.09-.09-.48-.2-.72-.39-.72-.17,0-.37.18-.64.55-1.12,1.44-2.15,3.68-3.13,5.8-.07.15-.17.22-.31.22-.2,0-.74-.07-.61-.48.24-.74,1.4-3.99,1.9-5.8.06-.2.02-.39-.15-.39-.48,0-.98.52-1.31.96-.18.04-.31-.07-.29-.29.59-.99,1.29-1.77,2.17-1.77s.59,1.25.42,1.75Z"/>
        <path class="cls-1" d="m185.84,155.47l-.79,2.32h.09c.55-1.03,1.45-2.5,1.93-3.11.42-.55.88-.96,1.34-.96.64,0,.74.63.74.9s-.17.81-.39,1.1c-.22.28-.52.29-.59-.09-.09-.48-.2-.72-.39-.72-.17,0-.37.18-.64.55-1.12,1.44-2.15,3.68-3.13,5.8-.07.15-.17.22-.31.22-.2,0-.74-.07-.61-.48.24-.74,1.4-3.99,1.9-5.8.06-.2.02-.39-.15-.39-.48,0-.98.52-1.31.96-.18.04-.31-.07-.29-.29.59-.99,1.29-1.77,2.17-1.77s.59,1.25.42,1.75Z"/>
        <path class="cls-1" d="m196.66,155.25c.09-.2.09-.35-.04-.35s-.61.22-1.53.98c-.17-.02-.28-.17-.24-.31,1.01-1.16,2.43-1.84,3.04-1.84.13,0,.22.11.29.18.11.11.11.28-.11.81l-2.19,5.23c-.07.18-.09.4.06.4.31,0,1.29-.64,1.91-1.36.18.02.28.15.28.31-.28.53-2.17,2.19-3.44,2.19-.09,0-.2-.06-.29-.17-.11-.13-.17-.29-.07-.5l2.34-5.58Zm2.19-4.62c0,.57-.4,1.14-.96,1.14-.48,0-.64-.37-.64-.68,0-.4.26-1.16.98-1.16.42,0,.63.29.63.7Z"/>
        <path class="cls-1" d="m211.04,153.3c.31-.15.79.04.9.28-.28.68-1.88,4.75-2.47,6.42-.11.31-.02.42.13.42.31,0,.85-.31,1.9-1.23.13,0,.26.09.26.24-.77,1.03-2.08,2.06-3.09,2.06-.42,0-.53-.35-.53-.5,0-.13.04-.29.18-.72l.61-1.66-.06-.02c-1.31,1.62-3.18,2.89-4.05,2.89-.52,0-.81-.52-.81-1.03,0-.42.4-1.9,1.62-3.57.88-1.21,1.67-1.95,2.43-2.37.72-.4,1.18-.53,1.66-.53.2,0,.33.06.44.11.07.04.28.2.37.39l.52-1.18Zm-3.2,2.1c-1.18,1.05-2.3,3.46-2.3,4.77,0,.22.11.35.28.35.18,0,.74-.24,1.79-1.2,1.4-1.31,2.17-2.89,2.47-3.98-.13-.35-.44-.66-.92-.66-.44,0-.74.2-1.31.72Z"/>
        <path class="cls-1" d="m222.83,153.89c.2.07.37.17.44.17.17,0,.53-.02.88-.11.35-.09.7-.15.83-.15.26,0,.39.18.39.46,0,.42-.22.57-.4.57s-.44-.06-.61-.09c-.17-.06-.55-.11-.68-.11-.09,0-.18.06-.17.11.04.15.13.44.13.7,0,1.49-1.07,2.89-2.34,3.68-.2.13-.9.37-1.31.48-.2.11-.4.37-.4.64,0,.22.13.55.61.86.42.29,1.14.7,1.8,1.1,1.07.63,1.38,1.2,1.38,1.79,0,1.03-1.49,2.19-4.49,2.19-1.34,0-2.91-.52-2.91-1.75,0-1.4,2.15-2.28,3.15-2.59-.48-.31-.59-.59-.59-.85,0-.33.57-1.09.83-1.42-.35-.09-1.34-.42-1.34-1.66,0-1.03.57-2.28,1.49-3.09.88-.75,1.75-1.1,2.72-1.1.18,0,.39.09.59.17Zm-.66,10.43c0-.31-.2-.72-.79-1.12-.77-.52-1.42-.88-1.71-.92-.46-.06-1.18.29-1.71.68-.5.37-.7.77-.7,1.2,0,.87,1.23,1.42,2.48,1.42.85,0,2.43-.37,2.43-1.25Zm-1.38-9.31c-.72.83-1.66,2.45-1.66,3.39,0,.39.26.64.55.64.26,0,.7-.11,1.21-.72,1.03-1.21,1.67-2.85,1.67-3.44,0-.39-.28-.63-.55-.63-.31,0-.66.13-1.23.75Z"/>
        <path class="cls-1" d="m236.07,154.83c0,1.4-1.82,2.32-4.47,3.05-.13.31-.26.9-.26,1.64,0,.63.39,1.05.88,1.05.66,0,1.12-.37,1.93-1.07.17,0,.28.15.24.31-1.12,1.38-2.17,1.67-2.94,1.67-1.1,0-1.49-1.03-1.49-1.93,0-1.16.74-3.4,2.74-4.95.96-.74,1.67-.88,2.21-.88.74,0,1.16.63,1.16,1.1Zm-2.93.35c-.72.77-1.14,1.62-1.36,2.15,1.21-.37,1.79-.72,2.47-1.36.57-.53.72-1.09.72-1.25,0-.18-.09-.42-.42-.42-.26,0-.74.17-1.4.88Z"/>
        <path class="cls-1" d="m264.13,149.38c-.29.72-.66,1.79-.83,2.47-.07.15-.44.13-.5-.02.35-1.6-.11-2.47-2.01-2.47-1.31,0-3.02.4-4.71,2.06-.92.92-2.17,3.07-2.17,5.5,0,2.61,1.23,4.03,3.57,4.03,1.91,0,3.07-1.12,3.96-2.58.18-.07.39-.04.44.13-.17.5-.57,1.47-1.2,2.59-.4,0-.9.11-1.45.2-.53.09-1.14.22-1.78.22-2.39,0-5.15-1.09-5.15-4.95,0-2.13,1.12-4.18,2.63-5.54,1.55-1.4,3.77-2.25,6.18-2.25,1.44,0,2.56.4,3.02.59Z"/>
        <path class="cls-1" d="m274.87,153.3c.31-.15.79.04.9.28-.28.68-1.88,4.75-2.47,6.42-.11.31-.02.42.13.42.31,0,.85-.31,1.9-1.23.13,0,.26.09.26.24-.77,1.03-2.08,2.06-3.09,2.06-.42,0-.53-.35-.53-.5,0-.13.04-.29.18-.72l.61-1.66-.06-.02c-1.31,1.62-3.18,2.89-4.05,2.89-.52,0-.81-.52-.81-1.03,0-.42.4-1.9,1.62-3.57.88-1.21,1.67-1.95,2.43-2.37.72-.4,1.18-.53,1.66-.53.2,0,.33.06.44.11.07.04.28.2.37.39l.52-1.18Zm-3.2,2.1c-1.18,1.05-2.3,3.46-2.3,4.77,0,.22.11.35.28.35.18,0,.74-.24,1.79-1.2,1.4-1.31,2.17-2.89,2.47-3.98-.13-.35-.44-.66-.92-.66-.44,0-.74.2-1.31.72Z"/>
        <path class="cls-1" d="m289.07,156.12l-.7,1.69.06.04c1.77-2.82,3.17-4.12,4.38-4.12.7,0,1.03.39,1.03.99,0,.29-.13.86-.29,1.29-.33.92-1.66,3.92-1.71,4.07-.07.18-.09.35.04.35.31,0,1.2-.61,1.73-1.25.26-.04.29.11.29.26-.7,1.18-2.15,2.06-3.17,2.06-.17,0-.44-.24-.44-.46,0-.17.06-.29.44-1.21.39-.9,1.12-2.69,1.49-3.62.13-.33.39-.98.39-1.34,0-.22-.02-.44-.29-.44-.53,0-1.42.94-2.41,2.21-.94,1.18-1.77,2.63-2.89,4.66-.09.15-.17.22-.33.22-.2,0-.7-.06-.53-.48l1.82-4.82c.07-.2.81-1.79.15-1.79-.52,0-1.55.96-2.56,2.21-.96,1.2-1.69,2.63-2.76,4.66-.09.17-.17.22-.33.22-.2,0-.7-.06-.53-.48.06-.15,2.02-5.52,2.1-5.8.09-.31.07-.52-.13-.52-.61,0-1.25.55-1.62,1.01-.18,0-.28-.13-.26-.28.46-.88,1.44-1.71,2.83-1.71.42,0,.61.33.44.75l-1.27,3.33.06.04c1.33-2.17,3.05-4.12,4.45-4.12,1.33,0,.92,1.45.53,2.39Z"/>
        <path class="cls-1" d="m304.17,154.02c.15,0,.35-.04.7-.04.85,0,2.5.35,2.5,2.1s-1.03,3.18-2.43,4.36c-1.16.98-2.56,1.05-2.63,1.05-.17,0-.31-.04-.57-.11-.15.04-.24.15-.29.33l-.75,2.17c-.5,1.42-.46,1.58.15,1.67l.75.11c.09.13.09.33-.07.4-1.4,0-2.78.07-4.01.11-.13-.11-.13-.29,0-.4l.4-.07c1.03-.18,1.1-.61,1.38-1.36l3.42-9.61c-.66.18-1.09.37-1.86.75-.15-.02-.24-.18-.18-.35.64-.46,1.38-.77,2.28-1.01l.55-1.49c.24-.2.98-.02,1.05.26l-.39,1.12Zm-2.06,5.93c-.07.2-.06.39.02.5.11.18.39.42.68.42.24,0,1.27-.26,2.06-1.49.88-1.36,1.09-2.65,1.09-3.46,0-.92-.66-1.38-1.45-1.38-.2,0-.35.02-.48.04l-1.91,5.37Z"/>
        <path class="cls-1" d="m320.16,153.3c.31-.15.79.04.9.28-.28.68-1.88,4.75-2.47,6.42-.11.31-.02.42.13.42.31,0,.85-.31,1.9-1.23.13,0,.26.09.26.24-.77,1.03-2.08,2.06-3.09,2.06-.42,0-.53-.35-.53-.5,0-.13.04-.29.18-.72l.61-1.66-.06-.02c-1.31,1.62-3.18,2.89-4.05,2.89-.52,0-.81-.52-.81-1.03,0-.42.4-1.9,1.62-3.57.88-1.21,1.67-1.95,2.43-2.37.72-.4,1.18-.53,1.66-.53.2,0,.33.06.44.11.07.04.28.2.37.39l.52-1.18Zm-3.2,2.1c-1.18,1.05-2.3,3.46-2.3,4.77,0,.22.11.35.28.35.18,0,.74-.24,1.79-1.2,1.4-1.31,2.17-2.89,2.47-3.98-.13-.35-.44-.66-.92-.66-.44,0-.74.2-1.31.72Z"/>
        <path class="cls-1" d="m329.38,155.25c.09-.2.09-.35-.04-.35s-.61.22-1.53.98c-.17-.02-.28-.17-.24-.31,1.01-1.16,2.43-1.84,3.04-1.84.13,0,.22.11.29.18.11.11.11.28-.11.81l-2.19,5.23c-.07.18-.09.4.06.4.31,0,1.29-.64,1.91-1.36.18.02.28.15.28.31-.28.53-2.17,2.19-3.44,2.19-.09,0-.2-.06-.29-.17-.11-.13-.17-.29-.07-.5l2.34-5.58Zm2.19-4.62c0,.57-.4,1.14-.96,1.14-.48,0-.64-.37-.64-.68,0-.4.26-1.16.98-1.16.42,0,.63.29.63.7Z"/>
        <path class="cls-1" d="m342.23,153.89c.2.07.37.17.44.17.17,0,.53-.02.88-.11.35-.09.7-.15.83-.15.26,0,.39.18.39.46,0,.42-.22.57-.4.57s-.44-.06-.61-.09c-.17-.06-.55-.11-.68-.11-.09,0-.18.06-.17.11.04.15.13.44.13.7,0,1.49-1.07,2.89-2.34,3.68-.2.13-.9.37-1.31.48-.2.11-.4.37-.4.64,0,.22.13.55.61.86.42.29,1.14.7,1.8,1.1,1.07.63,1.38,1.2,1.38,1.79,0,1.03-1.49,2.19-4.49,2.19-1.34,0-2.91-.52-2.91-1.75,0-1.4,2.15-2.28,3.15-2.59-.48-.31-.59-.59-.59-.85,0-.33.57-1.09.83-1.42-.35-.09-1.34-.42-1.34-1.66,0-1.03.57-2.28,1.49-3.09.88-.75,1.75-1.1,2.72-1.1.18,0,.39.09.59.17Zm-.66,10.43c0-.31-.2-.72-.79-1.12-.77-.52-1.42-.88-1.71-.92-.46-.06-1.18.29-1.71.68-.5.37-.7.77-.7,1.2,0,.87,1.23,1.42,2.48,1.42.85,0,2.43-.37,2.43-1.25Zm-1.38-9.31c-.72.83-1.66,2.45-1.66,3.39,0,.39.26.64.55.64.26,0,.7-.11,1.21-.72,1.03-1.21,1.67-2.85,1.67-3.44,0-.39-.28-.63-.55-.63-.31,0-.66.13-1.23.75Z"/>
        <path class="cls-1" d="m351.8,157.7l.06.04c1.31-1.99,3.13-4.01,4.51-4.01.72,0,1.03.39,1.03.99,0,.29-.15.86-.29,1.29-.33.92-1.66,3.92-1.71,4.07-.07.18-.09.35.04.35.31,0,1.2-.61,1.73-1.25.26-.04.29.11.29.26-.7,1.18-2.15,2.06-3.17,2.06-.17,0-.44-.24-.44-.46,0-.17.06-.29.44-1.21.39-.9,1.07-2.71,1.49-3.62.15-.33.39-.98.39-1.34,0-.22-.02-.44-.29-.44-.44,0-1.53.92-2.54,2.19-.98,1.21-1.73,2.65-2.82,4.67-.09.17-.17.22-.33.22-.2,0-.7-.06-.53-.48.09-.24,2.04-5.54,2.13-5.8.09-.24.09-.42-.06-.42-.42,0-1.07.39-1.67.92-.15,0-.24-.13-.22-.28.7-.96,1.82-1.71,2.74-1.71.44,0,.64.33.48.75l-1.25,3.22Z"/>
      </g>
    </g>
  </g>
</svg>