<?xml version="1.0" encoding="UTF-8"?>
<svg id="_レイヤー_2" data-name="レイヤー 2" xmlns="http://www.w3.org/2000/svg" viewBox="0 0 642.53 240.26">
  <defs>
    <style>
      .cls-1 {
        fill: #ea5532;
      }

      .cls-2 {
        fill: #e95532;
      }
    </style>
  </defs>
  <g id="_文字" data-name="文字">
    <g>
      <path class="cls-1" d="m138.91,221.75c.71-2.22.73-2.5-.54-2.78l-.42-.09c-.14-.19-.12-.5.14-.59.78.05,1.58.07,2.55.07h4.38c1.51,0,2.64,0,3.32-.07-.17.4-.73,2.29-.97,3.14-.09.19-.52.17-.59-.02.14-1.23.21-1.82-.83-2.1-.54-.14-1.27-.21-2.5-.21h-1.3c-.66,0-.66.07-.9.8l-1.63,5.16c-.17.5-.12.59.38.59h1.63c2.24,0,2.69-.17,3.23-1.16l.4-.73c.12-.14.57-.12.61.05-.17.42-.52,1.37-.8,2.24s-.52,1.77-.61,2.36c-.14.17-.45.14-.61,0l.02-.9c.02-.78-.5-1.04-2.43-1.04h-1.74c-.52,0-.57.07-.75.66l-1.04,3.39c-.66,2.19-.75,2.71.45,2.81l.92.07c.14.17.07.5-.09.59-1.37-.05-2.19-.07-3.21-.07-.94,0-1.74.02-2.66.07-.19-.12-.19-.45-.02-.59l.73-.07c1.13-.12,1.37-.4,2.12-2.81l2.76-8.77Z"/>
      <path class="cls-1" d="m155.7,231.89c-.21.57-.09.8.17.8.35,0,1.3-.75,2.52-1.96,2.15-2.12,3.37-4.86,4.15-6.29.5-.09,1.06.14,1.16.42-.24.64-1.77,4.5-2.76,7.31-.12.31-.14.59.09.59.45,0,1.7-1.11,2.31-1.84.21-.05.4.05.42.33-.61,1.13-2.88,2.99-4.13,2.99-.38,0-.73-.45-.59-.83l1.6-4.31-.05-.02c-1.7,2.15-4.62,5.16-5.89,5.16-.97,0-1.08-.97-.68-2l2.17-5.73c.17-.45.19-.68,0-.68-.45,0-1.67,1.04-2.24,1.63-.24.05-.42-.14-.4-.35.61-.94,2.97-2.81,4.08-2.81.31,0,.85.31.71.71l-2.64,6.88Z"/>
      <path class="cls-1" d="m175.74,220.62c.54-1.65.57-1.96.17-2.15l-.42-.21c-.14-.09-.17-.24-.05-.35.71-.33,1.86-.66,2.88-.85l.14.12c-.19.66-.45,1.46-1.16,3.47l-2.43,6.98h.05c.68-.92,1.46-1.72,2.4-2.43.66-.47,1.53-.9,2.55-.9,1.37,0,1.7.8,1.7,1.3,0,.28-.09.92-.97,1.72-1.11,1.01-2.26,1.82-3.77,2.07-.17.09-.12.31-.07.45.19.68.61,1.72.87,2.22.28.52.52.78.75.78.31,0,.75-.31,1.41-1.11.21,0,.31.09.31.28-.83,1.77-2,2.24-2.38,2.24-.42,0-.71-.28-1.08-.94-.28-.52-.87-1.89-1.08-2.52-.19-.61-.45-.87-.87-.78-.47.12-.59.24-.87.94l-1.23,2.99c-.09.21-.19.31-.4.31-.26,0-.94-.07-.75-.61l4.31-13.01Zm3.25,4.69c-.61,0-1.49.52-2.29,1.2-.87.73-1.86,1.89-2.17,2.57-.09.24-.07.4.24.35.5-.05,1.82-.45,3.47-1.53.99-.66,1.51-1.48,1.51-1.98,0-.28-.21-.61-.75-.61Z"/>
      <path class="cls-1" d="m191.17,231.89c-.21.57-.09.8.17.8.35,0,1.3-.75,2.52-1.96,2.15-2.12,3.37-4.86,4.15-6.29.5-.09,1.06.14,1.16.42-.24.64-1.77,4.5-2.76,7.31-.12.31-.14.59.09.59.45,0,1.7-1.11,2.31-1.84.21-.05.4.05.42.33-.61,1.13-2.88,2.99-4.13,2.99-.38,0-.73-.45-.59-.83l1.6-4.31-.05-.02c-1.7,2.15-4.62,5.16-5.89,5.16-.97,0-1.08-.97-.68-2l2.17-5.73c.17-.45.19-.68,0-.68-.45,0-1.67,1.04-2.24,1.63-.24.05-.42-.14-.4-.35.61-.94,2.97-2.81,4.08-2.81.31,0,.85.31.71.71l-2.64,6.88Z"/>
      <path class="cls-1" d="m210.17,226.25c.12-.26.12-.45-.05-.45s-.78.28-1.96,1.25c-.21-.02-.35-.21-.31-.4,1.3-1.48,3.11-2.36,3.89-2.36.17,0,.28.14.38.24.14.14.14.35-.14,1.04l-2.81,6.7c-.09.24-.12.52.07.52.4,0,1.65-.83,2.45-1.74.24.02.35.19.35.4-.35.68-2.78,2.81-4.41,2.81-.12,0-.26-.07-.38-.21-.14-.17-.21-.38-.09-.64l2.99-7.14Zm2.81-5.92c0,.73-.52,1.46-1.23,1.46-.61,0-.82-.47-.82-.87,0-.52.33-1.49,1.25-1.49.54,0,.8.38.8.9Z"/>
      <path class="cls-1" d="m237.36,222.74c.78-2,.99-2.78.99-3.16,0-.33-.21-.47-.66-.54l-1.11-.17c-.14-.14-.09-.5.12-.59,1.11.05,1.86.07,2.59.07.52,0,1.08-.02,1.58-.07-.33,1.13-.14,2.57.12,4.6l.38,3.04c.26,2.03.4,3.28.52,4.31h.05c.92-1.11,1.82-2.31,2.71-3.47l3.75-4.83c1.79-2.31,2.17-3.23,2.29-3.65.4.05.83.07,1.46.07.92,0,1.65-.02,2.38-.07.19.12.12.45,0,.59l-.54.09c-.83.14-1.18.28-1.41.54-.33.38-.57,1.11-1.08,2.92l-2.05,7.31c-.5,1.74-.66,2.57-.68,2.95-.02.38.28.59.94.64l.8.07c.16.17.09.5-.09.59-.87-.05-1.93-.07-3.02-.07-.97,0-1.98.02-2.85.07-.17-.14-.17-.5,0-.59l.61-.07c.42-.05,1.04-.19,1.3-.45.28-.28.75-1.51,1.2-2.99l1.89-6.18c.38-1.2.71-2.26.9-2.97l-.07-.02c-.33.42-.92,1.23-2.19,2.88l-3.58,4.64c-1.34,1.74-2.73,3.54-3.77,5.3-.14.09-.35.02-.45-.09.02-.85-.09-2.1-.38-4.81l-.8-7.92h-.05c-.38.85-.73,1.84-1.08,2.81l-1.77,4.76c-1.13,3.04-1.41,3.96-1.41,4.41,0,.26.12.45.71.54l1.01.17c.09.14.05.47-.07.59-.66-.05-1.6-.07-2.71-.07-.97,0-1.77.02-2.52.07-.14-.14-.14-.52.02-.59l.64-.07c.52-.05,1.04-.21,1.34-.64.38-.47,1.34-2.85,2.85-6.77l1.23-3.18Z"/>
      <path class="cls-1" d="m268.3,223.76c.4-.19,1.01.05,1.16.35-.35.87-2.4,6.08-3.16,8.23-.14.4-.02.54.17.54.4,0,1.08-.4,2.43-1.58.17,0,.33.12.33.31-.99,1.32-2.66,2.64-3.96,2.64-.54,0-.68-.45-.68-.64,0-.17.05-.38.24-.92l.78-2.12-.07-.02c-1.67,2.07-4.08,3.7-5.19,3.7-.66,0-1.04-.66-1.04-1.32,0-.54.52-2.43,2.07-4.57,1.13-1.56,2.15-2.5,3.11-3.04.92-.52,1.51-.68,2.12-.68.26,0,.42.07.57.14.09.05.35.26.47.5l.66-1.51Zm-4.1,2.69c-1.51,1.34-2.95,4.43-2.95,6.11,0,.28.14.45.35.45.24,0,.94-.31,2.29-1.53,1.79-1.67,2.78-3.7,3.16-5.09-.17-.45-.57-.85-1.18-.85-.57,0-.94.26-1.67.92Z"/>
      <path class="cls-1" d="m280.89,226.54l-1.01,2.97h.12c.71-1.32,1.86-3.21,2.48-3.98.54-.71,1.13-1.23,1.72-1.23.83,0,.94.8.94,1.16s-.21,1.04-.49,1.41c-.28.35-.66.38-.75-.12-.12-.61-.26-.92-.5-.92-.21,0-.47.24-.83.71-1.44,1.84-2.76,4.71-4.01,7.43-.09.19-.21.28-.4.28-.26,0-.94-.09-.78-.61.31-.94,1.79-5.12,2.43-7.43.07-.26.02-.5-.19-.5-.61,0-1.25.66-1.67,1.23-.24.05-.4-.09-.38-.38.75-1.27,1.65-2.26,2.78-2.26s.75,1.6.54,2.24Z"/>
      <path class="cls-1" d="m295.53,226.54l-1.01,2.97h.12c.71-1.32,1.86-3.21,2.48-3.98.54-.71,1.13-1.23,1.72-1.23.83,0,.94.8.94,1.16s-.21,1.04-.5,1.41c-.28.35-.66.38-.75-.12-.12-.61-.26-.92-.5-.92-.21,0-.47.24-.83.71-1.44,1.84-2.76,4.71-4.01,7.43-.09.19-.21.28-.4.28-.26,0-.94-.09-.78-.61.31-.94,1.79-5.12,2.43-7.43.07-.26.02-.5-.19-.5-.61,0-1.25.66-1.67,1.23-.24.05-.4-.09-.38-.38.75-1.27,1.65-2.26,2.78-2.26s.75,1.6.54,2.24Z"/>
      <path class="cls-1" d="m309.4,226.25c.12-.26.12-.45-.05-.45s-.78.28-1.96,1.25c-.21-.02-.35-.21-.31-.4,1.3-1.48,3.11-2.36,3.89-2.36.17,0,.28.14.38.24.14.14.14.35-.14,1.04l-2.81,6.7c-.09.24-.12.52.07.52.4,0,1.65-.83,2.45-1.74.24.02.35.19.35.4-.35.68-2.78,2.81-4.41,2.81-.12,0-.26-.07-.38-.21-.14-.17-.21-.38-.09-.64l2.99-7.14Zm2.81-5.92c0,.73-.52,1.46-1.23,1.46-.61,0-.82-.47-.82-.87,0-.52.33-1.49,1.25-1.49.54,0,.8.38.8.9Z"/>
      <path class="cls-1" d="m327.81,223.76c.4-.19,1.01.05,1.16.35-.35.87-2.4,6.08-3.16,8.23-.14.4-.02.54.17.54.4,0,1.08-.4,2.43-1.58.17,0,.33.12.33.31-.99,1.32-2.66,2.64-3.96,2.64-.54,0-.68-.45-.68-.64,0-.17.05-.38.24-.92l.78-2.12-.07-.02c-1.67,2.07-4.08,3.7-5.19,3.7-.66,0-1.04-.66-1.04-1.32,0-.54.52-2.43,2.07-4.57,1.13-1.56,2.15-2.5,3.11-3.04.92-.52,1.51-.68,2.12-.68.26,0,.42.07.57.14.09.05.35.26.47.5l.66-1.51Zm-4.1,2.69c-1.51,1.34-2.95,4.43-2.95,6.11,0,.28.14.45.35.45.24,0,.94-.31,2.29-1.53,1.79-1.67,2.78-3.7,3.16-5.09-.17-.45-.57-.85-1.18-.85-.57,0-.94.26-1.67.92Z"/>
      <path class="cls-1" d="m342.93,224.51c.26.09.47.21.57.21.21,0,.68-.02,1.13-.14.45-.12.9-.19,1.06-.19.33,0,.5.24.5.59,0,.54-.28.73-.52.73s-.57-.07-.78-.12c-.21-.07-.71-.14-.87-.14-.12,0-.24.07-.21.14.05.19.17.57.17.9,0,1.91-1.37,3.7-2.99,4.72-.26.17-1.16.47-1.67.61-.26.14-.52.47-.52.83,0,.28.17.71.78,1.11.54.38,1.46.9,2.31,1.41,1.37.8,1.77,1.53,1.77,2.29,0,1.32-1.91,2.81-5.75,2.81-1.72,0-3.72-.66-3.72-2.24,0-1.79,2.76-2.92,4.03-3.32-.61-.4-.75-.75-.75-1.08,0-.42.73-1.39,1.06-1.81-.45-.12-1.72-.54-1.72-2.12,0-1.32.73-2.92,1.91-3.96,1.13-.97,2.24-1.41,3.49-1.41.24,0,.5.12.75.21Zm-.85,13.37c0-.4-.26-.92-1.01-1.44-.99-.66-1.82-1.13-2.19-1.18-.59-.07-1.51.38-2.19.87-.64.47-.9.99-.9,1.53,0,1.11,1.58,1.81,3.18,1.81,1.08,0,3.11-.47,3.11-1.6Zm-1.77-11.93c-.92,1.06-2.12,3.14-2.12,4.34,0,.5.33.83.71.83.33,0,.9-.14,1.56-.92,1.32-1.56,2.15-3.65,2.15-4.41,0-.5-.35-.8-.71-.8-.4,0-.85.17-1.58.97Z"/>
      <path class="cls-1" d="m359.88,225.71c0,1.79-2.33,2.97-5.73,3.91-.17.4-.33,1.16-.33,2.1,0,.8.5,1.34,1.13,1.34.85,0,1.44-.47,2.48-1.37.21,0,.35.19.31.4-1.44,1.77-2.78,2.15-3.77,2.15-1.41,0-1.91-1.32-1.91-2.48,0-1.48.94-4.36,3.51-6.34,1.23-.94,2.15-1.13,2.83-1.13.94,0,1.49.8,1.49,1.41Zm-3.75.45c-.92.99-1.46,2.07-1.74,2.76,1.56-.47,2.29-.92,3.16-1.74.73-.68.92-1.39.92-1.6,0-.24-.12-.54-.54-.54-.33,0-.94.21-1.79,1.13Z"/>
      <path class="cls-1" d="m395.84,218.73c-.38.92-.85,2.29-1.06,3.16-.09.19-.57.17-.64-.02.45-2.05-.14-3.16-2.57-3.16-1.67,0-3.87.52-6.04,2.64-1.18,1.18-2.78,3.94-2.78,7.05,0,3.35,1.58,5.16,4.57,5.16,2.45,0,3.94-1.44,5.07-3.3.24-.09.5-.05.57.17-.21.64-.73,1.89-1.53,3.32-.52,0-1.16.14-1.86.26-.68.12-1.46.28-2.29.28-3.06,0-6.6-1.39-6.6-6.34,0-2.73,1.44-5.35,3.37-7.1,1.98-1.79,4.83-2.88,7.92-2.88,1.84,0,3.28.52,3.87.75Z"/>
      <path class="cls-1" d="m409.59,223.76c.4-.19,1.01.05,1.16.35-.35.87-2.4,6.08-3.16,8.23-.14.4-.02.54.17.54.4,0,1.08-.4,2.43-1.58.17,0,.33.12.33.31-.99,1.32-2.66,2.64-3.96,2.64-.54,0-.68-.45-.68-.64,0-.17.05-.38.24-.92l.78-2.12-.07-.02c-1.67,2.07-4.08,3.7-5.19,3.7-.66,0-1.04-.66-1.04-1.32,0-.54.52-2.43,2.07-4.57,1.13-1.56,2.15-2.5,3.11-3.04.92-.52,1.51-.68,2.12-.68.26,0,.42.07.57.14.09.05.35.26.47.5l.66-1.51Zm-4.1,2.69c-1.51,1.34-2.95,4.43-2.95,6.11,0,.28.14.45.35.45.24,0,.94-.31,2.29-1.53,1.79-1.67,2.78-3.7,3.16-5.09-.17-.45-.57-.85-1.18-.85-.57,0-.94.26-1.67.92Z"/>
      <path class="cls-1" d="m427.79,227.36l-.9,2.17.07.05c2.26-3.61,4.05-5.28,5.61-5.28.9,0,1.32.5,1.32,1.27,0,.38-.17,1.11-.38,1.65-.42,1.18-2.12,5.02-2.19,5.21-.09.24-.12.45.05.45.4,0,1.53-.78,2.22-1.6.33-.05.38.14.38.33-.9,1.51-2.76,2.64-4.05,2.64-.21,0-.57-.31-.57-.59,0-.21.07-.38.57-1.56.5-1.15,1.44-3.44,1.91-4.64.17-.42.5-1.25.5-1.72,0-.28-.02-.57-.38-.57-.68,0-1.82,1.2-3.09,2.83-1.2,1.51-2.26,3.37-3.7,5.96-.12.19-.21.28-.42.28-.26,0-.9-.07-.68-.61l2.33-6.18c.09-.26,1.04-2.29.19-2.29-.66,0-1.98,1.23-3.28,2.83-1.23,1.53-2.17,3.37-3.54,5.96-.12.21-.21.28-.42.28-.26,0-.9-.07-.68-.61.07-.19,2.59-7.07,2.69-7.43.12-.4.09-.66-.17-.66-.78,0-1.6.71-2.07,1.3-.24,0-.35-.17-.33-.35.59-1.13,1.84-2.19,3.63-2.19.54,0,.78.42.57.97l-1.63,4.27.07.05c1.7-2.78,3.91-5.28,5.71-5.28,1.7,0,1.18,1.86.68,3.06Z"/>
      <path class="cls-1" d="m447.13,224.67c.19,0,.45-.05.9-.05,1.08,0,3.21.45,3.21,2.69s-1.32,4.08-3.11,5.59c-1.49,1.25-3.28,1.34-3.37,1.34-.21,0-.4-.05-.73-.14-.19.05-.31.19-.38.42l-.97,2.78c-.64,1.81-.59,2.03.19,2.15l.97.14c.12.17.12.42-.09.52-1.79,0-3.56.09-5.14.14-.17-.14-.17-.38,0-.52l.52-.09c1.32-.24,1.41-.78,1.77-1.74l4.38-12.31c-.85.24-1.39.47-2.38.97-.19-.02-.31-.24-.24-.45.83-.59,1.77-.99,2.92-1.3l.71-1.91c.31-.26,1.25-.02,1.34.33l-.5,1.44Zm-2.64,7.59c-.09.26-.07.5.02.64.14.24.5.54.87.54.31,0,1.63-.33,2.64-1.91,1.13-1.74,1.39-3.4,1.39-4.43,0-1.18-.85-1.77-1.86-1.77-.26,0-.45.02-.61.05l-2.45,6.88Z"/>
      <path class="cls-1" d="m467.62,223.76c.4-.19,1.01.05,1.16.35-.35.87-2.4,6.08-3.16,8.23-.14.4-.02.54.17.54.4,0,1.08-.4,2.43-1.58.17,0,.33.12.33.31-.99,1.32-2.66,2.64-3.96,2.64-.54,0-.68-.45-.68-.64,0-.17.05-.38.24-.92l.78-2.12-.07-.02c-1.67,2.07-4.08,3.7-5.19,3.7-.66,0-1.04-.66-1.04-1.32,0-.54.52-2.43,2.07-4.57,1.13-1.56,2.15-2.5,3.11-3.04.92-.52,1.51-.68,2.12-.68.26,0,.42.07.57.14.09.05.35.26.47.5l.66-1.51Zm-4.1,2.69c-1.51,1.34-2.95,4.43-2.95,6.11,0,.28.14.45.35.45.24,0,.94-.31,2.29-1.53,1.79-1.67,2.78-3.7,3.16-5.09-.17-.45-.57-.85-1.18-.85-.57,0-.94.26-1.67.92Z"/>
      <path class="cls-1" d="m479.44,226.25c.12-.26.12-.45-.05-.45s-.78.28-1.96,1.25c-.21-.02-.35-.21-.31-.4,1.3-1.48,3.11-2.36,3.89-2.36.17,0,.28.14.38.24.14.14.14.35-.14,1.04l-2.81,6.7c-.09.24-.12.52.07.52.4,0,1.65-.83,2.45-1.74.24.02.35.19.35.4-.35.68-2.78,2.81-4.41,2.81-.12,0-.26-.07-.38-.21-.14-.17-.21-.38-.09-.64l2.99-7.14Zm2.81-5.92c0,.73-.52,1.46-1.23,1.46-.61,0-.82-.47-.82-.87,0-.52.33-1.49,1.25-1.49.54,0,.8.38.8.9Z"/>
      <path class="cls-1" d="m495.9,224.51c.26.09.47.21.57.21.21,0,.68-.02,1.13-.14.45-.12.9-.19,1.06-.19.33,0,.5.24.5.59,0,.54-.28.73-.52.73s-.57-.07-.78-.12c-.21-.07-.71-.14-.87-.14-.12,0-.24.07-.21.14.05.19.17.57.17.9,0,1.91-1.37,3.7-2.99,4.72-.26.17-1.16.47-1.67.61-.26.14-.52.47-.52.83,0,.28.17.71.78,1.11.54.38,1.46.9,2.31,1.41,1.37.8,1.77,1.53,1.77,2.29,0,1.32-1.91,2.81-5.75,2.81-1.72,0-3.72-.66-3.72-2.24,0-1.79,2.76-2.92,4.03-3.32-.61-.4-.75-.75-.75-1.08,0-.42.73-1.39,1.06-1.81-.45-.12-1.72-.54-1.72-2.12,0-1.32.73-2.92,1.91-3.96,1.13-.97,2.24-1.41,3.49-1.41.24,0,.5.12.75.21Zm-.85,13.37c0-.4-.26-.92-1.01-1.44-.99-.66-1.82-1.13-2.19-1.18-.59-.07-1.51.38-2.19.87-.64.47-.9.99-.9,1.53,0,1.11,1.58,1.81,3.18,1.81,1.08,0,3.11-.47,3.11-1.6Zm-1.77-11.93c-.92,1.06-2.12,3.14-2.12,4.34,0,.5.33.83.71.83.33,0,.9-.14,1.56-.92,1.32-1.56,2.15-3.65,2.15-4.41,0-.5-.35-.8-.71-.8-.4,0-.85.17-1.58.97Z"/>
      <path class="cls-1" d="m508.16,229.39l.07.05c1.67-2.55,4.01-5.14,5.78-5.14.92,0,1.32.5,1.32,1.27,0,.38-.19,1.11-.38,1.65-.42,1.18-2.12,5.02-2.19,5.21-.09.24-.12.45.05.45.4,0,1.53-.78,2.22-1.6.33-.05.38.14.38.33-.9,1.51-2.76,2.64-4.05,2.64-.21,0-.57-.31-.57-.59,0-.21.07-.38.57-1.56.5-1.15,1.37-3.47,1.91-4.64.19-.42.49-1.25.49-1.72,0-.28-.02-.57-.38-.57-.57,0-1.96,1.18-3.25,2.81-1.25,1.56-2.22,3.4-3.61,5.99-.12.21-.21.28-.42.28-.26,0-.9-.07-.68-.61.12-.31,2.62-7.1,2.73-7.43.12-.31.12-.54-.07-.54-.54,0-1.37.49-2.15,1.18-.19,0-.31-.17-.28-.35.9-1.23,2.33-2.19,3.51-2.19.57,0,.82.42.61.97l-1.6,4.13Z"/>
    </g>
    <g>
      <path class="cls-2" d="m149.97,120.93c3.41-2.44,6.75-5.18,7.63-9.67.15-4.64-5.88-4.83-7.47-1.07-.82,1.71-1.47,3.56-2.18,5.2-.51,1.26-1.11,2.64-1.75,4.12-5.21,3.26-11.95,4.52-17.98,4.43-1.32-.02-2.38,1.2-2.15,2.51.19,1.18,1.3,1.99,2.48,1.8,5.36-.84,10.71-2.05,15.73-4.26-5.16,12.39-9.98,28.02,7.43,30.25,2.86.22,3.21-4.05.37-4.31-15.3-.89-7.98-17.8-3.05-28.43.31-.19.63-.37.94-.57Z"/>
      <path class="cls-2" d="m305.18,75.02c.69-.26,1.04-1.02.79-1.72-.26-.69-1.02-1.04-1.72-.79-7.4,2.74-14.77,5.59-22.1,8.54-.49-6.47-5.7-10.61-12.82-9.53-2.81.43-2.22,4.65.61,4.28,5.97-.43,8.2,2.39,8.14,6.91-17.58,7.2-34.89,15.07-51.7,23.98-11.05,6.16-22.41,12.37-32.73,19.89.22-.74.44-1.47.66-2.21,2.19-7.32,13.24-44.36,15.18-50.85l1.52-5.12c.21-.77.42-1.6.63-2.46.35-.23.71-.46,1.05-.69,3.5-2.16,14.02-10.7,8.18-14.84-2.79-1.15-4.94.08-6.83,1.72-3.22,3.32-4.35,7.45-5.36,11.57-2.45,1.55-4.89,2.96-6.83,4.3-5.31,3.31-12.6,8.32-18.11,11.13-2.86,1.52-.15,5.63,2.37,3.62,6.21-4.73,14.13-9.51,21.25-14.04-1.12,3.8-3.28,11.1-4.15,14.03-3.89,12.36-8.83,30.76-13.89,47.11-5.37,4.25-10.38,8.93-14.82,14.24-3.28,4.23-6.85,10.91-3.46,16.33,3.11,5.47,7.92,4.15,10.57-.77,4.57-8.96,7.64-18.52,10.54-28.1,26.15-19.19,55.57-33.34,85.6-45.69-2.61,13.85-19.32,37.61-23,42.67-13.42,18.74-28.23,36.48-43.29,53.93-.46.52-.41,1.31.11,1.77.52.46,1.32.41,1.78-.11,7.66-8.67,15.3-17.35,22.67-26.28,7.39-8.91,14.65-17.94,21.5-27.31,6.84-9.37,13.38-19.01,18.75-29.48,2.59-5.25,5.01-10.7,5.77-16.96,7.69-3.12,15.42-6.13,23.13-9.09Zm-88.73-20.4c.59-.66,1.96-1.3,2.67-1.15,0,.09-.03.2-.07.33-1.09,2.6-3.33,4.85-5.94,6.86.8-2.38,1.82-4.59,3.34-6.04Zm-35.36,98.82c-.96,1.98-3.46,9.09-6.04,7.01-7.11-7.27,4.57-18.51,12.58-25.22-2.2,6.84-4.41,13.14-6.54,18.21Z"/>
      <path class="cls-2" d="m293.62,121.98c-1.27.57-2.49,1.15-3.68,1.74,2.12-3.14,4.22-6.31,6.26-9.5,2.36-4.12,6-8.91,7.22-13.5.03-.55-.25-1.17-.8-1.41-.63-.3-1.06-.11-1.46.07-1.27.81-2.87,2.54-4.42,2.26-.13-.9-.9-1.72-2.06-1.42-2.25.75-1.53,3.46.17,4.11,1.51.64,2.96.39,4.28-.25-5.19,9.89-12.62,18.69-19.69,27.29h0c-1.89,2.33,1.66,5.05,3.42,2.65,0,0,0,0,0,0,4.04-4.57,10.77-8.59,16.94-9.97,7.26-1.81,12.68,1.69,8.19,8.7-.74,1.15-1.6,2.24-2.54,3.29-1.08-.26-2.11-.36-2.64-.29-4.76.32-11.3,2.2-12.24,7.72-.31,3.08,2.89,5.25,5.61,4.15,2.83-1.09,4.74-3.13,7.05-4.92,1.15-.99,2.27-2.02,3.36-3.1.1.07.22.13.31.21.58.52,1.47.47,2-.1.59-.91.34-1.66-.31-2.26.79-.92,1.55-1.87,2.23-2.91,2.41-3.31,3.36-8.7,0-11.94-4.88-4.34-11.77-2.53-17.21-.63Zm2.74-20.43s-.02,0-.03,0c-.03-.04,0-.03.03,0Zm-.8,1.94c.18-.05.31-.14.44-.22-.14.12-.29.2-.44.22Zm1.52,40.09c-.87.66-2.18,1.51-3.04,1.08-.21-.12-.42-.55-.4-1.01.97-3.44,6-4.73,9.25-4.98,0,0,.02,0,.03,0-1.87,1.75-3.88,3.39-5.83,4.91Z"/>
      <path class="cls-2" d="m337.2,91.2c-3.29-.48-6.57,1.82-9.37,3.09-3.46,1.66-.47,6.67,2.63,4.42,1.1-.79,3.52-2.83,4.53-3.34,2.54-1.14,7.02-.48,8.11,2.47,1.05,2.42-1.63,4.13-3.56,5.42-2.59,1.84-5.09,4.16-6.28,7.21-1.55,4.01-2.01,8.23-1.46,12.42.08.62.65,1.05,1.26.97.62-.08,1.05-.65.97-1.26-.5-3.74-.09-7.78,1.39-11.19,1.1-2.6,3.26-4.47,5.62-5.98,1.8-1.15,4.04-2.34,4.88-4.66,1.92-5.26-3.88-9.89-8.71-9.56Z"/>
      <path class="cls-2" d="m334.54,128.73h0c-1.48,0-2.54,1.88-2.93,2.69l-.2.41,1.57,4.24,2.61.57.39-.5c.09-.11,1.79-3.08.42-6-.55-1.17-1.31-1.41-1.86-1.42Z"/>
      <path class="cls-2" d="m427.84,60.46c-.71-.19-1.62-.9-2.37-1.91-1.1-1.23-1.49-3.02-2.45-4.29-.85-.8-2.19-.76-2.99.09-4.88,5.15-10.39,9.91-16.07,14.29-5.5,4.27-12.92,8.93-18.65,11.1.03-.39.26-1.14.55-1.76,5.82-11.06,14.53-20.55,22.76-29.89.6-.65.76-1.64.31-2.47-.57-1.07-1.93-1.45-2.98-.84-6.45,3.35-13.43,7.33-20.42,8.78-.82.16-1.61.13-2.01.02-.36-.18-.14.15-.26-.39-.02-1.1.79-2.93,1.64-4.46,10.05-16.02,24.13-29.45,37.31-42.95,1.19-1.17-.57-2.91-1.75-1.82-5.58,5.3-11.02,10.71-16.37,16.25-4.17,4.93-33.39,32.67-21.72,36.94,1.44.42,2.62.33,3.68.18,4.94-.92,9.35-2.68,13.67-4.7-4.77,6.28-9.46,12.59-13.72,19.27-1.26,2.36-6.12,9.07-1.45,10.38.84.11,1.39-.05,1.93-.18,7.17-2.74,13.1-6.74,19.26-11.04,5.22-3.71,10.19-7.6,15.07-11.73,1.29,2.36,2.97,4.34,5.96,5.32,1.16.33,2.37-.37,2.68-1.54.31-1.18-.43-2.39-1.62-2.66Z"/>
      <path class="cls-2" d="m404.04,81.03c.38,9.26.41,18.58.08,27.84-.56,8.73-.7,18.73-4.24,26.6-.6.99-.24,2.3.81,2.8,8.85,2.42,6.99-50.9,6.46-57.4-.12-2.05-3.21-1.84-3.11.17Z"/>
      <path class="cls-2" d="m382.59,130.79c-.25.11-.86.44-.93.35-.85-.36-1.22-1.69-1.59-2.86-1.58-6.6-1.28-13.85-.63-20.61.34-3.68-5.21-3.88-5.16-.21.64,5.46-.18,31.39,9.77,26.24,1.84-.98.43-3.81-1.46-2.92Z"/>
      <path class="cls-2" d="m424.73,97.35c-.55-.26-1.33-1.28-1.77-2.51-1.49-3.91-1.86-8.46-1.78-12.63.09-3-4.4-3-4.33-.01.28,4.85.6,9.54,2.25,14.18.64,1.56,1.41,3.36,3.46,4.72,1.08.75,2.62.34,3.18-.85.52-1.08.07-2.38-1.01-2.9Z"/>
      <path class="cls-2" d="m448.39,69.35c2.55-2.01,5.83-4.42,9.23-6.69.33.27.71.48,1.16.52,1.19.11,2.24-.77,2.35-1.96.03-.29.05-.58.08-.87,5.13-3.18,10.03-5.62,12.54-5.48,1.22.05,2.22-.83,2.29-2.02.07-1.19-.83-2.22-2.02-2.29-3.1-.2-7.71,1.81-12.33,4.44.24-2.73.49-5.46.79-8.18l1.46-11.21c4.07-2.19,8.08-4.47,12-7.01,3.01-2.39,7.61-4.19,8.12-8.72.04-5.13-6.74-6.33-10.61-5.73-9.41,1.14-11.63,9.86-12.54,17.79-.09.56-.19,1.18-.28,1.77-11.21,5.74-23.27,10.92-25.16,11.36-1.81.38-2.67,2.66-1.53,4.13.87,1.16,2.51,1.4,3.67.53,3.98-2.97,8.44-4.85,12.74-7.11,3.24-1.65,6.46-3.29,9.66-4.95-1,6.49-2.07,13.9-2.83,20.05-5.63,3.63-10.48,7.43-11.48,8.23-.94.74-1.1,2.1-.35,3.04.43.54,1.06.82,1.7.82.47,0,.94-.15,1.34-.47Zm19.99-49.42c2.84-2.77,8.12-3.62,11.53-1.72,4.02,1.9-4.69,7.75-15.45,13.51.59-4.5,1.23-9.09,3.92-11.79Z"/>
      <path class="cls-2" d="m473.24,104.37c.47-1.1-.04-2.37-1.14-2.84-1.4-.62-2.93-1.15-4.52-1.55,4.29-8.93,7.85-27.12-.53-28.88-2.98-.24-5,1.42-7.04,3.04-4.44,3.73-7.43,8.58-9.39,13.9-.05-.44-.08-.87-.13-1.31-.44-2.9-4.76-2.2-4.27.69.54,2.84.92,5.85,1.14,8.8.22,2.95.26,5.9.05,8.81h0c0,.06,0,.12-.01.18-.02.83.58,1.56,1.42,1.67.93.13,1.77-.57,1.85-1.49.22-1.75.35-3.5.42-5.24.81-6.75,2.81-13.57,6.67-19.07,2.01-2.65,5.67-6.84,8.87-6.88,1.03-.03,1.88,1.82,2.12,3.76.54,6.18-.94,12.8-3.21,18.59-.34,1.05-.8,2-1.33,2.89-3.45-.34-6.95.15-9.9,2.19-2.06,1.29-3.9,4.49-1.87,6.74,2.34,1.87,4.58.43,6.6-.3,1.97-.87,4.39-2.16,6.01-4.07.12-.12.24-.27.36-.42,1.78.44,3.5,1.14,4.97,1.95,1.1.47,2.37-.04,2.84-1.14Zm-18.19,1.45s-.01,0-.02,0c0,0,0,0,0,0,1.51-1.84,3.65-2.63,5.97-2.74-1.69,1.32-3.7,2.27-5.95,2.75Z"/>
      <path class="cls-1" d="m551.21,37.3c-3.38,1.49-6.73,3.01-10.03,4.64.49-2.03.96-4.06,1.39-6.1.51-2.96-3.9-3.52-4.27-.67-.53,3.08-1.17,6.16-1.88,9.24-.87.47-1.74.93-2.59,1.43-3.21,1.83-6.33,3.79-9.41,5.82,5.39-19.7,16.99-42.21,21.1-49.43.99-1.75-1.64-3.17-2.61-1.49-4.15,7.39-7.89,14.92-11.44,22.59-3.12,7.13-8.67,19.39-11.7,31.5-11.22,7.96-21.44,17.27-30.42,27.79-1.85,2.34,1.71,4.99,3.44,2.63,7.49-9.42,16.22-18.12,25.91-25.5-1.88,10-1.52,19.39,3.97,25.1-11.01,25.34-25.75,49.15-44.3,69.62l-6.07,6.65c-.92.9-.87,2.41.13,3.23.92.76,2.29.63,3.05-.29,7.9-9.29,15.68-18.67,22.56-28.73,10.6-15.17,19.92-31.26,27.53-48.11,1.9,1.2,4.18,2.11,6.92,2.66l3.47.44c.17.02.35.03.53.02,3.76-.32,3.22-5.93-.53-5.54-3.6.16-6.37-.53-8.51-1.84,5.08-11.78,9.32-23.93,12.57-36.38,4.12-1.99,8.36-3.74,12.7-5.21,1.24-.37,1.9-1.77,1.36-2.95-.48-1.09-1.76-1.59-2.86-1.11Zm-22.45,32.42c-1.32,3.58-2.72,7.13-4.18,10.66-3.81-5.04-3.61-13.89-1.35-23.95,3.89-2.71,7.92-5.21,12.08-7.46-1.81,7-4.03,13.96-6.54,20.75Z"/>
      <path class="cls-2" d="m573.95,52.34c1.11-1.08,1.89-2.24,2.66-3.27.3-.41.32-.98,0-1.41-1.4-1.64-3.59,1.73-4.74,2.21-3.31,2.72-4.67-1-5.75-3.76-2.44-6.99-2.83-15.38.23-22.23,2.18-4.54,6.57-7.87,10.33-11.33,2.04-1.77,3.52-3.77,5.76-5.52,1.41-1.14-.29-3.27-1.71-2.17-1.86,1.16-4.49,3.68-6.27,5.2-6.46,5.15-13.23,11.68-13.66,20.57-1.24,7.07,1.98,30.91,13.15,21.69Z"/>
      <path class="cls-2" d="m640.77,60.77c-1.7,0-5.82.06-7.49.07-17.67-.92-33.97-10.08-45.94-22.87-2.19-2.51-4.52-5.06-6.62-7.74,1.31-.87,2.6-1.74,3.88-2.59,5.36-3.73,10.65-7.33,15.56-11.75.56-.51.59-1.36.08-1.92-.51-.56-1.37-.6-1.92-.09-5.98,5.15-12.59,9.72-19.28,14.08-1.37-1.95-2.58-3.98-3.49-6.15-.22-1.44-2.16-2.04-3.15-.94-.7.74-.67,1.9.07,2.6,1.34,1.29,2.01,2.85,3.07,4.3.38.57.8,1.12,1.2,1.68-1.93,1.24-3.86,2.48-5.78,3.69-.91.53-2.61,1.57-3.53,2.01-.12.04.02,0,.02.08-1.84.02-1.82,2.8,0,2.81.38-.05.91-.21,1.15-.34,3.3-1.77,6.58-3.84,9.8-5.95,13.6,18.05,34.18,32.23,57.35,32.15l5.24-.03c.86,0,1.55-.71,1.55-1.57,0-.94-.85-1.63-1.76-1.54Z"/>
      <path class="cls-2" d="m592.2,75.88c-1.48-.67-2.9-1.17-4.32-1.61.49-4.11.5-8.26-.37-12.48-1.89-7.05-9.77-5.63-13.42-1.08-2.87,3.36-4.38,7.34-5.07,11.53-.8-1.24-1.98-2.03-3.64-1.24-1.8,1.09-1.09,3.36.4,3.92,2.13,3.95,2.5,8.78,3.38,13.18.08.5.52.87,1.03.85.56-.02,1-.49.98-1.05,0-.03,0-.05,0-.08-.02-.86-.04-1.71-.07-2.57.98,1.51,2.22,2.87,3.57,3.87,5.85,5.09,10.22-.45,11.52-6.09.39-1.55.74-3.09,1.04-4.64,1.14.5,2.22,1,3.18,1.44,1.09.49,2.37,0,2.86-1.08.49-1.09,0-2.37-1.08-2.86Zm-25.29-.93c.21-.05.43-.09.65-.22-.18.12-.41.18-.65.22Zm14.24-15.02c1.73-.12,2.79.84,3.35,2.74.52,1.47.73,5.94.4,10.73-3.48-.92-7.13-1.55-10.69-.51-1.21.36-2.15.87-2.9,1.47.3-2.12.8-4.22,1.69-6.27,1.41-3.62,4.19-7.75,8.16-8.15Zm-4.64,27.01c-2.51-2.2-5.96-6.7-3.6-9.7,3.14-2.3,7.56-1.45,11.6.04-.98,7.33-3.38,13.76-8,9.66Z"/>
      <path class="cls-2" d="m311.73,72.34s4.22-1.42,4.22-1.42c1.37-.58.51-2.68-.88-2.12l-5.96,1.85c-1.41.58,1.21,2.27,2.62,1.69Z"/>
      <path class="cls-2" d="m3.6,98.23c3.13,2.73,4.87,6.58,4.51,10.74.02,5.64.02,11.39.25,16.99.85,15.21,1.83,31.69,11.21,44.19.6.54,1.46,1.58,2.18,1.98,8.24,5.81,18.37-1.26,25.4-6.25,28.77-22.1,54.49-48.22,82.86-70.94.41-.33,1.01-.27,1.34.15.33.41.27,1-.13,1.33-13.87,11.74-27.08,24.24-40.49,36.56-13.4,12.34-26.83,24.64-41.24,36.03-5.55,4.18-11.96,8.52-19.13,9.42-3.14.52-6.65-.23-9.54-1.72-.58-.36-1.89-1.31-2.43-1.68-.41-.41-1.63-1.59-2.05-2.03-1.45-1.59-2.98-4.22-4.03-6.12-8.84-17.96-8.15-38.48-8.25-57.9.31-2.86-.83-5.63-3.2-7.39-2.3-1.79.46-5.28,2.74-3.35h0Z"/>
    </g>
  </g>
</svg>