<?xml version="1.0" encoding="UTF-8"?>
<svg id="_レイヤー_2" data-name="レイヤー 2" xmlns="http://www.w3.org/2000/svg" xmlns:xlink="http://www.w3.org/1999/xlink" viewBox="0 0 173.46 198">
  <defs>
    <style>
      .cls-1 {
        fill: url(#_名称未設定グラデーション_101-11);
      }

      .cls-2 {
        stroke: url(#_新規グラデーションスウォッチ_9-10);
      }

      .cls-2, .cls-3, .cls-4, .cls-5, .cls-6, .cls-7, .cls-8, .cls-9, .cls-10, .cls-11, .cls-12 {
        fill: none;
        stroke-miterlimit: 10;
        stroke-width: 2.37px;
      }

      .cls-13 {
        fill: url(#_名称未設定グラデーション_101-3);
      }

      .cls-3 {
        stroke: url(#_新規グラデーションスウォッチ_9-5);
      }

      .cls-14 {
        fill: url(#_名称未設定グラデーション_101-10);
      }

      .cls-15 {
        fill: #ea5532;
      }

      .cls-4 {
        stroke: url(#_新規グラデーションスウォッチ_9-7);
      }

      .cls-5 {
        stroke: url(#_新規グラデーションスウォッチ_9-6);
      }

      .cls-16 {
        fill: url(#_名称未設定グラデーション_101);
      }

      .cls-6 {
        stroke: url(#_新規グラデーションスウォッチ_9-9);
      }

      .cls-17 {
        fill: url(#_新規グラデーションスウォッチ_9);
      }

      .cls-7 {
        stroke: url(#_新規グラデーションスウォッチ_9-8);
      }

      .cls-18 {
        fill: url(#_名称未設定グラデーション_101-4);
      }

      .cls-8 {
        stroke: url(#_新規グラデーションスウォッチ_9-12);
      }

      .cls-9 {
        stroke: url(#_新規グラデーションスウォッチ_9-11);
      }

      .cls-19 {
        fill: url(#_名称未設定グラデーション_101-5);
      }

      .cls-20 {
        fill: url(#_名称未設定グラデーション_101-6);
      }

      .cls-10 {
        stroke: url(#_新規グラデーションスウォッチ_9-3);
      }

      .cls-21 {
        fill: url(#_名称未設定グラデーション_101-2);
      }

      .cls-11 {
        stroke: url(#_新規グラデーションスウォッチ_9-4);
      }

      .cls-22 {
        fill: url(#_名称未設定グラデーション_101-8);
      }

      .cls-23 {
        fill: url(#_名称未設定グラデーション_101-9);
      }

      .cls-24 {
        fill: url(#_名称未設定グラデーション_101-7);
      }

      .cls-12 {
        stroke: url(#_新規グラデーションスウォッチ_9-2);
      }
    </style>
    <linearGradient id="_新規グラデーションスウォッチ_9" data-name="新規グラデーションスウォッチ 9" x1="-.53" y1="176.07" x2="173.99" y2="176.07" gradientUnits="userSpaceOnUse">
      <stop offset="0" stop-color="#f7d781"/>
      <stop offset=".25" stop-color="#e4673a"/>
      <stop offset=".53" stop-color="#bf2f87"/>
      <stop offset=".79" stop-color="#9c78b2"/>
      <stop offset="1" stop-color="#7e7ab7"/>
    </linearGradient>
    <linearGradient id="_名称未設定グラデーション_101" data-name="名称未設定グラデーション 101" x1="53.57" y1="45.62" x2="54.76" y2="45.62" gradientUnits="userSpaceOnUse">
      <stop offset="0" stop-color="#fff11d"/>
      <stop offset="0" stop-color="#feed1d"/>
      <stop offset="0" stop-color="#f7c422"/>
      <stop offset="0" stop-color="#f2a126"/>
      <stop offset="0" stop-color="#ee8729"/>
      <stop offset="0" stop-color="#eb742b"/>
      <stop offset="0" stop-color="#e9682c"/>
      <stop offset="0" stop-color="#e9652d"/>
      <stop offset="0" stop-color="#fbcc00"/>
      <stop offset="0" stop-color="#ee9386"/>
      <stop offset="1" stop-color="#e7666e"/>
    </linearGradient>
    <linearGradient id="_名称未設定グラデーション_101-2" data-name="名称未設定グラデーション 101" x1="57.22" y1="45.62" x2="110.84" y2="45.62" xlink:href="#_名称未設定グラデーション_101"/>
    <linearGradient id="_名称未設定グラデーション_101-3" data-name="名称未設定グラデーション 101" x1="111.46" y1="45.62" x2="123.7" y2="45.62" xlink:href="#_名称未設定グラデーション_101"/>
    <linearGradient id="_名称未設定グラデーション_101-4" data-name="名称未設定グラデーション 101" x1="43.3" y1="45.62" x2="52.96" y2="45.62" xlink:href="#_名称未設定グラデーション_101"/>
    <linearGradient id="_名称未設定グラデーション_101-5" data-name="名称未設定グラデーション 101" x1="62.52" y1="15.34" x2="84.3" y2="15.34" xlink:href="#_名称未設定グラデーション_101"/>
    <linearGradient id="_名称未設定グラデーション_101-6" data-name="名称未設定グラデーション 101" x1="67.02" y1="15.34" x2="79.8" y2="15.34" xlink:href="#_名称未設定グラデーション_101"/>
    <linearGradient id="_名称未設定グラデーション_101-7" data-name="名称未設定グラデーション 101" x1="88.53" y1="13.12" x2="103.82" y2="13.12" xlink:href="#_名称未設定グラデーション_101"/>
    <linearGradient id="_名称未設定グラデーション_101-8" data-name="名称未設定グラデーション 101" x1="83.06" y1="13.12" x2="109.29" y2="13.12" xlink:href="#_名称未設定グラデーション_101"/>
    <linearGradient id="_名称未設定グラデーション_101-9" data-name="名称未設定グラデーション 101" x1="61.2" y1="84.75" x2="81.06" y2="84.75" gradientTransform="translate(111.97 -18.08) rotate(61.66)" xlink:href="#_名称未設定グラデーション_101"/>
    <linearGradient id="_名称未設定グラデーション_101-10" data-name="名称未設定グラデーション 101" x1="86.24" y1="84.75" x2="106.1" y2="84.75" gradientTransform="translate(51.75 -35.49) rotate(28.34)" xlink:href="#_名称未設定グラデーション_101"/>
    <linearGradient id="_名称未設定グラデーション_101-11" data-name="名称未設定グラデーション 101" x1="124.74" y1="45.62" x2="134.95" y2="45.62" xlink:href="#_名称未設定グラデーション_101"/>
    <linearGradient id="_新規グラデーションスウォッチ_9-2" data-name="新規グラデーションスウォッチ 9" x1="49.18" y1="29.49" x2="121.76" y2="78.91" xlink:href="#_新規グラデーションスウォッチ_9"/>
    <linearGradient id="_新規グラデーションスウォッチ_9-3" data-name="新規グラデーションスウォッチ 9" x1="49.18" y1="29.49" x2="121.76" y2="78.91" xlink:href="#_新規グラデーションスウォッチ_9"/>
    <linearGradient id="_新規グラデーションスウォッチ_9-4" data-name="新規グラデーションスウォッチ 9" x1="49.18" y1="29.49" x2="121.76" y2="78.91" xlink:href="#_新規グラデーションスウォッチ_9"/>
    <linearGradient id="_新規グラデーションスウォッチ_9-5" data-name="新規グラデーションスウォッチ 9" x1="49.18" y1="29.49" x2="121.76" y2="78.91" xlink:href="#_新規グラデーションスウォッチ_9"/>
    <linearGradient id="_新規グラデーションスウォッチ_9-6" data-name="新規グラデーションスウォッチ 9" x1="49.18" y1="29.49" x2="121.76" y2="78.91" xlink:href="#_新規グラデーションスウォッチ_9"/>
    <linearGradient id="_新規グラデーションスウォッチ_9-7" data-name="新規グラデーションスウォッチ 9" x1="49.18" y1="29.49" x2="121.76" y2="78.91" xlink:href="#_新規グラデーションスウォッチ_9"/>
    <linearGradient id="_新規グラデーションスウォッチ_9-8" data-name="新規グラデーションスウォッチ 9" x1="49.18" y1="29.49" x2="121.76" y2="78.91" xlink:href="#_新規グラデーションスウォッチ_9"/>
    <linearGradient id="_新規グラデーションスウォッチ_9-9" data-name="新規グラデーションスウォッチ 9" x1="49.18" y1="29.49" x2="121.76" y2="78.91" xlink:href="#_新規グラデーションスウォッチ_9"/>
    <linearGradient id="_新規グラデーションスウォッチ_9-10" data-name="新規グラデーションスウォッチ 9" x1="49.18" y1="29.49" x2="121.76" y2="78.91" gradientTransform="translate(111.97 -18.08) rotate(61.66)" xlink:href="#_新規グラデーションスウォッチ_9"/>
    <linearGradient id="_新規グラデーションスウォッチ_9-11" data-name="新規グラデーションスウォッチ 9" x1="49.18" y1="29.49" x2="121.76" y2="78.91" gradientTransform="translate(51.75 -35.49) rotate(28.34)" xlink:href="#_新規グラデーションスウォッチ_9"/>
    <linearGradient id="_新規グラデーションスウォッチ_9-12" data-name="新規グラデーションスウォッチ 9" x1="49.18" y1="29.49" x2="121.76" y2="78.91" xlink:href="#_新規グラデーションスウォッチ_9"/>
  </defs>
  <g id="_文字" data-name="文字">
    <g>
      <g>
        <path class="cls-15" d="m38.68,196.5h-11.02c-.41,0-.62-.35-.53-.87.08-.46.41-.75.78-.81,1.3-.12,2.21-.35,2.76-.64,1-.46,1.64-1.8,2.02-3.95l5.61-31.8h-.14l-18,37.55c-.15.35-.41.52-.64.52h-.78c-.23,0-.43-.17-.46-.52l-4.73-37.49h-.18l-5.61,31.8c-.35,1.97-.21,3.25.52,3.77.52.41,1.35.64,2.52.75.35.06.57.41.49.87-.08.46-.42.81-.83.81H.55c-.41,0-.62-.35-.53-.87.08-.46.41-.75.78-.81,1.21-.12,2.06-.29,2.72-.64,1-.46,1.64-1.8,2.01-3.89l4.99-28.32c.37-2.09.19-3.42-.49-3.95-.45-.29-1.31-.58-2.79-.75-.36-.06-.57-.41-.49-.87.08-.46.42-.81.83-.81h8.46c.23,0,.43.17.46.52l4.36,34.12,16.3-34.12c.15-.35.41-.52.64-.52h8.09c.41,0,.62.35.53.87-.08.46-.41.75-.78.81-1.17.17-2.08.41-2.78.75-1.01.52-1.69,1.8-2.06,3.89l-4.99,28.32c-.36,2.03-.17,3.31.51,3.83.48.41,1.35.64,2.7.75.36.06.57.41.49.87-.08.46-.42.81-.83.81Z"/>
        <path class="cls-15" d="m80.44,192.55c-3.52,3.66-7.36,5.46-11.61,5.46s-7.45-1.8-9.73-5.51c-2.59-4.24-3.27-9.69-2.07-16.54,1.17-6.62,3.77-12.07,7.81-16.31,3.52-3.66,7.46-5.51,11.72-5.51s7.49,1.86,9.73,5.51c2.54,4.24,3.24,9.63,2.08,16.19-1.23,6.96-3.86,12.54-7.93,16.71Zm3.27-31.22c-1.59-3.42-4.03-5.16-7.5-5.16-3.75,0-7.02,1.97-9.9,5.86-2.64,3.54-4.45,8.12-5.45,13.81-.9,5.11-.86,9.29.08,12.77,1.31,4.76,4.08,7.2,8.29,7.2,3.66,0,6.93-1.97,9.8-5.8,2.67-3.48,4.5-8.12,5.52-13.93,1.09-6.21.82-11.14-.83-14.74Z"/>
        <path class="cls-15" d="m135.85,157.26c-2.15.29-3.94,1.86-5.24,4.59l-17.02,35.34c-.15.35-.41.52-.64.52h-.55c-.23,0-.43-.17-.46-.52l-4.5-35.4c-.34-2.73-1.55-4.18-3.59-4.53-.36-.06-.57-.41-.49-.87.08-.46.42-.81.83-.81h10.7c.41,0,.62.35.53.87-.08.46-.42.81-.83.81-2.23.17-3.43.81-3.65,2.03-.13.75-.11,1.68,0,2.84l3.45,28.9,13.84-29.25c.57-1.16.86-2.03.96-2.61.2-1.16-.79-1.74-2.91-1.92-.41,0-.61-.41-.52-.93.08-.46.41-.75.82-.75h9.51c.41,0,.62.35.53.87-.08.46-.41.75-.78.81Z"/>
        <path class="cls-15" d="m167.12,195.68c-.13.46-.46.81-.83.81h-24.91c-.41,0-.62-.35-.53-.87.08-.46.41-.75.78-.81,1.36-.17,2.31-.41,2.87-.7.95-.46,1.59-1.74,1.95-3.77l5.03-28.55c.32-1.8.25-2.96-.25-3.48-.42-.46-1.41-.81-2.97-1.04-.36-.06-.57-.41-.49-.87.08-.46.42-.81.83-.81h24.32c.37,0,.58.35.54.81l-1.22,9.75c-.06.58-.45.99-.91.99,0,0-.58-.35-.54-.81.28-2.9.11-5.05-.52-6.38-.8-1.68-3.08-2.5-6.87-2.5h-4.02c-1.28,0-2.27.17-3.08.64-.77.46-1.35,1.68-1.71,3.71l-2.21,12.54h4.85c1.83,0,3.16-.52,3.98-1.57.66-.87,1.23-2.03,1.7-3.66.13-.46.41-.75.77-.75h.05c.41,0,.62.35.53.87l-2.19,12.42c-.09.52-.43.87-.84.87h-.05c-.37,0-.54-.29-.51-.76.09-1.57.01-2.67-.25-3.48-.42-1.28-1.58-1.92-3.55-1.92h-4.85l-2.45,13.87c-.33,1.86-.21,3.02.29,3.54.58.58,1.55.81,2.97.81h4.02c3.61,0,6.16-.7,7.58-2.03,1.58-1.45,2.87-4.06,3.79-7.78.13-.46.46-.81.83-.81.41,0,.66.41.51.99l-2.44,10.74Z"/>
      </g>
      <g>
        <path class="cls-17" d="m27.66,197.03c-.33,0-.62-.13-.82-.37-.23-.28-.32-.68-.24-1.13.12-.66.6-1.15,1.23-1.25,1.49-.13,2.23-.39,2.6-.58.81-.38,1.39-1.58,1.74-3.57l5.01-28.42-16.54,34.49c-.22.5-.65.83-1.12.83h-.78c-.53,0-.94-.42-.99-1.01l-4.36-34.57-5.1,28.93c-.39,2.22-.05,2.99.31,3.25.44.34,1.17.55,2.26.66.33.05.59.21.76.46.2.28.27.65.2,1.04-.13.74-.69,1.25-1.35,1.25H.55c-.33,0-.62-.13-.82-.37-.23-.28-.32-.68-.24-1.13.12-.66.6-1.15,1.23-1.25,1.25-.12,2.01-.29,2.55-.58.82-.38,1.39-1.56,1.74-3.51l4.99-28.32c.45-2.55-.05-3.25-.29-3.43-.23-.15-.92-.46-2.53-.65-.32-.05-.57-.21-.75-.45-.2-.28-.27-.65-.2-1.04.13-.74.69-1.25,1.35-1.25h8.46c.53,0,.94.42.99,1.01l4.13,32.3,15.52-32.49c.22-.5.65-.83,1.12-.83h8.09c.33,0,.62.13.82.37.23.28.32.68.24,1.13-.12.66-.6,1.15-1.23,1.25-1.17.17-2.01.4-2.63.71-.84.43-1.44,1.61-1.77,3.5l-4.99,28.32c-.42,2.36.02,3.09.31,3.31.39.33,1.18.54,2.42.65.34.05.59.21.77.46.2.28.27.65.2,1.04-.13.74-.69,1.25-1.36,1.25h-11.02Z"/>
        <path class="cls-17" d="m68.82,198.54c-4.42,0-7.84-1.94-10.18-5.77-2.67-4.37-3.37-9.9-2.14-16.91,1.18-6.71,3.86-12.29,7.95-16.58,3.63-3.77,7.7-5.68,12.1-5.68s7.84,1.94,10.18,5.77c2.6,4.33,3.33,9.9,2.15,16.56-1.24,7.06-3.96,12.78-8.07,16.99-3.64,3.78-7.57,5.62-12,5.62Zm7.38-41.84c-3.56,0-6.66,1.85-9.47,5.64-2.57,3.46-4.38,8.03-5.36,13.59-.88,5-.86,9.1.07,12.54,1.26,4.58,3.8,6.8,7.77,6.8,3.44,0,6.59-1.88,9.37-5.59,2.59-3.38,4.41-7.98,5.42-13.7,1.07-6.09.81-10.94-.79-14.43-1.52-3.26-3.81-4.85-7.02-4.85Z"/>
        <path class="cls-17" d="m112.4,198.25c-.53,0-.94-.42-.99-1.01l-4.5-35.38c-.31-2.46-1.31-3.75-3.15-4.07-.29-.05-.55-.21-.72-.45-.2-.28-.27-.65-.2-1.04.13-.74.69-1.25,1.35-1.25h10.7c.33,0,.62.13.82.37.23.28.32.68.24,1.13-.13.74-.69,1.25-1.35,1.25-2.88.23-3.06,1.25-3.12,1.59-.12.66-.11,1.49,0,2.7l3.23,27.05,13.05-27.57c.66-1.33.86-2.12.92-2.48.06-.32-.03-.48-.1-.57-.2-.26-.76-.59-2.32-.72h0c-.27,0-.55-.13-.75-.36-.25-.29-.34-.72-.25-1.19.13-.72.67-1.2,1.34-1.2h9.51c.33,0,.62.13.82.37.23.28.32.68.24,1.13-.12.66-.6,1.15-1.23,1.25-1.98.27-3.61,1.71-4.84,4.29l-17.02,35.34c-.22.5-.65.83-1.12.83h-.55Z"/>
        <path class="cls-17" d="m141.38,197.03c-.33,0-.62-.13-.82-.37-.23-.28-.32-.68-.24-1.13.12-.66.6-1.15,1.23-1.25,1.62-.21,2.36-.46,2.7-.64.78-.38,1.34-1.52,1.67-3.39l5.03-28.55c.38-2.13.09-2.81-.11-3.02-.2-.22-.79-.61-2.66-.89-.3-.05-.56-.21-.73-.45-.2-.28-.27-.65-.2-1.04.13-.74.69-1.25,1.35-1.25h24.32c.29,0,.56.12.76.33.24.26.35.64.32,1.06l-1.22,9.77c-.08.84-.69,1.45-1.44,1.45h-.15l-.13-.08c-.09-.05-.86-.54-.8-1.31.28-2.82.12-4.88-.47-6.12-.69-1.45-2.84-2.19-6.39-2.19h-4.02c-1.26,0-2.13.17-2.82.57-.43.26-1.04,1.06-1.44,3.34l-2.1,11.91h4.21c1.67,0,2.84-.45,3.56-1.36.65-.86,1.18-2,1.6-3.47.19-.7.69-1.14,1.29-1.14.38,0,.67.13.87.37.23.28.32.68.24,1.13l-2.19,12.42c-.14.79-.69,1.31-1.37,1.31-.35,0-.6-.11-.79-.31-.16-.17-.33-.48-.29-1.02.09-1.49.02-2.53-.23-3.27-.34-1.04-1.33-1.55-3.04-1.55h-4.4l-2.37,13.43c-.39,2.23-.03,2.89.15,3.08.44.44,1.26.65,2.58.65h4.02c3.45,0,5.88-.63,7.22-1.89,1.52-1.39,2.74-3.92,3.64-7.52.2-.73.74-1.22,1.35-1.22.34,0,.63.14.84.4.25.32.32.76.19,1.25l-2.44,10.72c-.2.74-.74,1.23-1.35,1.23h-24.91Z"/>
      </g>
    </g>
    <g>
      <g>
        <rect class="cls-16" x="53.57" y="29.52" width="1.19" height="32.2"/>
        <path class="cls-21" d="m107.19,65.36h-49.97v-1.19h49.97c1.35,0,2.46-1.1,2.46-2.46V29.52c0-1.35-1.1-2.46-2.46-2.46h-49.97v-1.19h49.97c2.01,0,3.65,1.64,3.65,3.65v32.2c0,2.01-1.64,3.65-3.65,3.65Z"/>
        <path class="cls-13" d="m120.83,58.28h-6.51c-1.58,0-2.86-1.28-2.86-2.86v-19.6c0-1.58,1.28-2.86,2.86-2.86h6.51v1.19h-6.51c-.92,0-1.67.75-1.67,1.67v19.6c0,.92.75,1.67,1.67,1.67h6.51c.92,0,1.67-.75,1.67-1.67v-19.6h1.19v19.6c0,1.58-1.28,2.86-2.86,2.86Z"/>
        <path class="cls-18" d="m50.29,54.96h-4.31c-1.47,0-2.67-1.2-2.67-2.67v-13.35c0-1.47,1.2-2.67,2.67-2.67h4.31c1.47,0,2.67,1.2,2.67,2.67v13.35c0,1.47-1.2,2.67-2.67,2.67Zm-4.31-17.49c-.81,0-1.48.66-1.48,1.48v13.35c0,.81.66,1.48,1.48,1.48h4.31c.81,0,1.48-.66,1.48-1.48v-13.35c0-.81-.66-1.48-1.48-1.48h-4.31Z"/>
        <path class="cls-19" d="m73.41,26.23c-6.01,0-10.89-4.89-10.89-10.89,0-2.91,1.13-5.65,3.19-7.7l.84.84c-1.83,1.83-2.84,4.27-2.84,6.86,0,5.35,4.35,9.7,9.7,9.7s9.7-4.35,9.7-9.7-4.35-9.7-9.7-9.7c-1.48,0-2.9.33-4.23.97l-.52-1.07c1.49-.72,3.08-1.09,4.75-1.09,6.01,0,10.89,4.89,10.89,10.89s-4.89,10.89-10.89,10.89Z"/>
        <path class="cls-20" d="m73.41,21.73c-3.53,0-6.39-2.87-6.39-6.39s2.87-6.39,6.39-6.39,6.39,2.87,6.39,6.39-2.87,6.39-6.39,6.39Zm0-11.59c-2.87,0-5.2,2.33-5.2,5.2s2.33,5.2,5.2,5.2,5.2-2.33,5.2-5.2-2.33-5.2-5.2-5.2Z"/>
        <path class="cls-24" d="m96.17,20.76c-4.22,0-7.64-3.43-7.64-7.64s3.43-7.64,7.64-7.64,7.64,3.43,7.64,7.64-3.43,7.64-7.64,7.64Zm0-14.1c-3.56,0-6.45,2.89-6.45,6.45s2.89,6.45,6.45,6.45,6.45-2.89,6.45-6.45-2.89-6.45-6.45-6.45Z"/>
        <path class="cls-22" d="m96.17,26.23c-7.23,0-13.12-5.88-13.12-13.12,0-4.36,2.16-8.43,5.78-10.88l.67.99c-3.29,2.22-5.26,5.92-5.26,9.89,0,6.58,5.35,11.92,11.92,11.92s11.92-5.35,11.92-11.92-5.35-11.92-11.92-11.92c-1.37,0-2.72.23-4,.69l-.4-1.12c1.41-.5,2.89-.75,4.4-.75,7.23,0,13.12,5.88,13.12,13.12s-5.88,13.12-13.12,13.12Z"/>
        <rect class="cls-23" x="51.31" y="84.15" width="39.64" height="1.19" transform="translate(-37.22 107.13) rotate(-61.66)"/>
        <rect class="cls-14" x="95.58" y="64.93" width="1.19" height="39.64" transform="translate(-28.7 55.8) rotate(-28.34)"/>
        <path class="cls-1" d="m132.24,57.67c-.39,0-.78-.08-1.14-.25l-4.79-2.22c-.95-.44-1.57-1.41-1.57-2.46v-14.24c0-1.05.62-2.01,1.57-2.46l4.79-2.22c.43-.2.9-.28,1.36-.25l-.1,1.19c-.26-.02-.52.03-.76.14l-4.79,2.22c-.53.25-.88.79-.88,1.38v14.24c0,.59.34,1.13.88,1.38l4.79,2.22c.48.22,1.01.19,1.45-.1.45-.28.7-.75.7-1.28v-18.69h1.19v18.69c0,.93-.47,1.78-1.25,2.28-.44.28-.95.43-1.46.43Z"/>
      </g>
      <g>
        <rect class="cls-12" x="53.57" y="29.52" width="1.19" height="32.2"/>
        <path class="cls-10" d="m107.19,65.36h-49.97v-1.19h49.97c1.35,0,2.46-1.1,2.46-2.46V29.52c0-1.35-1.1-2.46-2.46-2.46h-49.97v-1.19h49.97c2.01,0,3.65,1.64,3.65,3.65v32.2c0,2.01-1.64,3.65-3.65,3.65Z"/>
        <path class="cls-11" d="m120.83,58.28h-6.51c-1.58,0-2.86-1.28-2.86-2.86v-19.6c0-1.58,1.28-2.86,2.86-2.86h6.51v1.19h-6.51c-.92,0-1.67.75-1.67,1.67v19.6c0,.92.75,1.67,1.67,1.67h6.51c.92,0,1.67-.75,1.67-1.67v-19.6h1.19v19.6c0,1.58-1.28,2.86-2.86,2.86Z"/>
        <path class="cls-3" d="m50.29,54.96h-4.31c-1.47,0-2.67-1.2-2.67-2.67v-13.35c0-1.47,1.2-2.67,2.67-2.67h4.31c1.47,0,2.67,1.2,2.67,2.67v13.35c0,1.47-1.2,2.67-2.67,2.67Zm-4.31-17.49c-.81,0-1.48.66-1.48,1.48v13.35c0,.81.66,1.48,1.48,1.48h4.31c.81,0,1.48-.66,1.48-1.48v-13.35c0-.81-.66-1.48-1.48-1.48h-4.31Z"/>
        <path class="cls-5" d="m73.41,26.23c-6.01,0-10.89-4.89-10.89-10.89,0-2.91,1.13-5.65,3.19-7.7l.84.84c-1.83,1.83-2.84,4.27-2.84,6.86,0,5.35,4.35,9.7,9.7,9.7s9.7-4.35,9.7-9.7-4.35-9.7-9.7-9.7c-1.48,0-2.9.33-4.23.97l-.52-1.07c1.49-.72,3.08-1.09,4.75-1.09,6.01,0,10.89,4.89,10.89,10.89s-4.89,10.89-10.89,10.89Z"/>
        <path class="cls-4" d="m73.41,21.73c-3.53,0-6.39-2.87-6.39-6.39s2.87-6.39,6.39-6.39,6.39,2.87,6.39,6.39-2.87,6.39-6.39,6.39Zm0-11.59c-2.87,0-5.2,2.33-5.2,5.2s2.33,5.2,5.2,5.2,5.2-2.33,5.2-5.2-2.33-5.2-5.2-5.2Z"/>
        <path class="cls-7" d="m96.17,20.76c-4.22,0-7.64-3.43-7.64-7.64s3.43-7.64,7.64-7.64,7.64,3.43,7.64,7.64-3.43,7.64-7.64,7.64Zm0-14.1c-3.56,0-6.45,2.89-6.45,6.45s2.89,6.45,6.45,6.45,6.45-2.89,6.45-6.45-2.89-6.45-6.45-6.45Z"/>
        <path class="cls-6" d="m96.17,26.23c-7.23,0-13.12-5.88-13.12-13.12,0-4.36,2.16-8.43,5.78-10.88l.67.99c-3.29,2.22-5.26,5.92-5.26,9.89,0,6.58,5.35,11.92,11.92,11.92s11.92-5.35,11.92-11.92-5.35-11.92-11.92-11.92c-1.37,0-2.72.23-4,.69l-.4-1.12c1.41-.5,2.89-.75,4.4-.75,7.23,0,13.12,5.88,13.12,13.12s-5.88,13.12-13.12,13.12Z"/>
        <rect class="cls-2" x="51.31" y="84.15" width="39.64" height="1.19" transform="translate(-37.22 107.13) rotate(-61.66)"/>
        <rect class="cls-9" x="95.58" y="64.93" width="1.19" height="39.64" transform="translate(-28.7 55.8) rotate(-28.34)"/>
        <path class="cls-8" d="m132.24,57.67c-.39,0-.78-.08-1.14-.25l-4.79-2.22c-.95-.44-1.57-1.41-1.57-2.46v-14.24c0-1.05.62-2.01,1.57-2.46l4.79-2.22c.43-.2.9-.28,1.36-.25l-.1,1.19c-.26-.02-.52.03-.76.14l-4.79,2.22c-.53.25-.88.79-.88,1.38v14.24c0,.59.34,1.13.88,1.38l4.79,2.22c.48.22,1.01.19,1.45-.1.45-.28.7-.75.7-1.28v-18.69h1.19v18.69c0,.93-.47,1.78-1.25,2.28-.44.28-.95.43-1.46.43Z"/>
      </g>
    </g>
  </g>
</svg>