<?xml version="1.0" encoding="UTF-8"?>
<svg id="_レイヤー_2" data-name="レイヤー 2" xmlns="http://www.w3.org/2000/svg" xmlns:xlink="http://www.w3.org/1999/xlink" viewBox="0 0 412.77 81.56">
  <defs>
    <style>
      .cls-1 {
        fill: url(#_新規グラデーションスウォッチ_9-17);
      }

      .cls-1, .cls-2, .cls-3, .cls-4, .cls-5, .cls-6, .cls-7, .cls-8, .cls-9, .cls-10, .cls-11, .cls-12, .cls-13, .cls-14, .cls-15, .cls-16, .cls-17 {
        stroke-width: 0px;
      }

      .cls-2 {
        fill: url(#_新規グラデーションスウォッチ_9-7);
      }

      .cls-3 {
        fill: url(#_新規グラデーションスウォッチ_9-12);
      }

      .cls-4 {
        fill: url(#_新規グラデーションスウォッチ_9-14);
      }

      .cls-5 {
        fill: url(#_新規グラデーションスウォッチ_9-11);
      }

      .cls-6 {
        fill: url(#_新規グラデーションスウォッチ_9-6);
      }

      .cls-18 {
        stroke: url(#_新規グラデーションスウォッチ_9);
      }

      .cls-18, .cls-19 {
        fill: none;
        stroke-miterlimit: 10;
        stroke-width: 1.22px;
      }

      .cls-7 {
        fill: url(#_新規グラデーションスウォッチ_9-18);
      }

      .cls-8 {
        fill: url(#_新規グラデーションスウォッチ_9-19);
      }

      .cls-9 {
        fill: url(#_新規グラデーションスウォッチ_9-3);
      }

      .cls-10 {
        fill: url(#_新規グラデーションスウォッチ_9-5);
      }

      .cls-11 {
        fill: url(#_新規グラデーションスウォッチ_9-8);
      }

      .cls-19 {
        stroke: url(#_新規グラデーションスウォッチ_9-2);
      }

      .cls-12 {
        fill: url(#_新規グラデーションスウォッチ_9-15);
      }

      .cls-13 {
        fill: url(#_新規グラデーションスウォッチ_9-13);
      }

      .cls-14 {
        fill: url(#_新規グラデーションスウォッチ_9-9);
      }

      .cls-15 {
        fill: url(#_新規グラデーションスウォッチ_9-4);
      }

      .cls-16 {
        fill: url(#_新規グラデーションスウォッチ_9-16);
      }

      .cls-17 {
        fill: url(#_新規グラデーションスウォッチ_9-10);
      }
    </style>
    <linearGradient id="_新規グラデーションスウォッチ_9" data-name="新規グラデーションスウォッチ 9" x1="83.2" y1="120.44" x2="319.47" y2="120.44" gradientTransform="translate(-72.55 -89.65) rotate(5)" gradientUnits="userSpaceOnUse">
      <stop offset="0" stop-color="#f7d781"/>
      <stop offset=".25" stop-color="#e4673a"/>
      <stop offset=".53" stop-color="#bf2f87"/>
      <stop offset=".79" stop-color="#9c78b2"/>
      <stop offset="1" stop-color="#7e7ab7"/>
    </linearGradient>
    <linearGradient id="_新規グラデーションスウォッチ_9-2" data-name="新規グラデーションスウォッチ 9" x1="263.93" y1="90.37" x2="495.27" y2="90.37" xlink:href="#_新規グラデーションスウォッチ_9"/>
    <linearGradient id="_新規グラデーションスウォッチ_9-3" data-name="新規グラデーションスウォッチ 9" x1="-59.99" y1="-83.16" x2="376.49" y2="118.55" gradientTransform="matrix(1,0,0,1,0,0)" xlink:href="#_新規グラデーションスウォッチ_9"/>
    <linearGradient id="_新規グラデーションスウォッチ_9-4" data-name="新規グラデーションスウォッチ 9" x1="-59.99" y1="-83.16" x2="376.49" y2="118.55" gradientTransform="matrix(1,0,0,1,0,0)" xlink:href="#_新規グラデーションスウォッチ_9"/>
    <linearGradient id="_新規グラデーションスウォッチ_9-5" data-name="新規グラデーションスウォッチ 9" x1="-59.99" y1="-83.16" x2="376.49" y2="118.55" gradientTransform="matrix(1,0,0,1,0,0)" xlink:href="#_新規グラデーションスウォッチ_9"/>
    <linearGradient id="_新規グラデーションスウォッチ_9-6" data-name="新規グラデーションスウォッチ 9" x1="-59.99" y1="-83.16" x2="376.49" y2="118.55" gradientTransform="matrix(1,0,0,1,0,0)" xlink:href="#_新規グラデーションスウォッチ_9"/>
    <linearGradient id="_新規グラデーションスウォッチ_9-7" data-name="新規グラデーションスウォッチ 9" x1="-59.99" y1="-83.16" x2="376.49" y2="118.55" gradientTransform="matrix(1,0,0,1,0,0)" xlink:href="#_新規グラデーションスウォッチ_9"/>
    <linearGradient id="_新規グラデーションスウォッチ_9-8" data-name="新規グラデーションスウォッチ 9" x1="-59.99" y1="-83.16" x2="376.49" y2="118.55" gradientTransform="matrix(1,0,0,1,0,0)" xlink:href="#_新規グラデーションスウォッチ_9"/>
    <linearGradient id="_新規グラデーションスウォッチ_9-9" data-name="新規グラデーションスウォッチ 9" x1="-59.99" y1="-83.16" x2="376.49" y2="118.55" gradientTransform="matrix(1,0,0,1,0,0)" xlink:href="#_新規グラデーションスウォッチ_9"/>
    <linearGradient id="_新規グラデーションスウォッチ_9-10" data-name="新規グラデーションスウォッチ 9" x1="-59.99" y1="-83.16" x2="376.49" y2="118.55" gradientTransform="matrix(1,0,0,1,0,0)" xlink:href="#_新規グラデーションスウォッチ_9"/>
    <linearGradient id="_新規グラデーションスウォッチ_9-11" data-name="新規グラデーションスウォッチ 9" x1="-59.99" y1="-83.16" x2="376.49" y2="118.55" gradientTransform="matrix(1,0,0,1,0,0)" xlink:href="#_新規グラデーションスウォッチ_9"/>
    <linearGradient id="_新規グラデーションスウォッチ_9-12" data-name="新規グラデーションスウォッチ 9" x1="-59.99" y1="-83.16" x2="376.49" y2="118.55" gradientTransform="matrix(1,0,0,1,0,0)" xlink:href="#_新規グラデーションスウォッチ_9"/>
    <linearGradient id="_新規グラデーションスウォッチ_9-13" data-name="新規グラデーションスウォッチ 9" x1="-59.99" y1="-83.16" x2="376.49" y2="118.55" gradientTransform="matrix(1,0,0,1,0,0)" xlink:href="#_新規グラデーションスウォッチ_9"/>
    <linearGradient id="_新規グラデーションスウォッチ_9-14" data-name="新規グラデーションスウォッチ 9" x1="-59.99" y1="-83.16" x2="376.49" y2="118.55" gradientTransform="matrix(1,0,0,1,0,0)" xlink:href="#_新規グラデーションスウォッチ_9"/>
    <linearGradient id="_新規グラデーションスウォッチ_9-15" data-name="新規グラデーションスウォッチ 9" x1="-59.99" y1="-83.16" x2="376.49" y2="118.55" gradientTransform="matrix(1,0,0,1,0,0)" xlink:href="#_新規グラデーションスウォッチ_9"/>
    <linearGradient id="_新規グラデーションスウォッチ_9-16" data-name="新規グラデーションスウォッチ 9" x1="-59.99" y1="-83.16" x2="376.49" y2="118.55" gradientTransform="matrix(1,0,0,1,0,0)" xlink:href="#_新規グラデーションスウォッチ_9"/>
    <linearGradient id="_新規グラデーションスウォッチ_9-17" data-name="新規グラデーションスウォッチ 9" x1="-59.99" y1="-83.16" x2="376.49" y2="118.55" gradientTransform="matrix(1,0,0,1,0,0)" xlink:href="#_新規グラデーションスウォッチ_9"/>
    <linearGradient id="_新規グラデーションスウォッチ_9-18" data-name="新規グラデーションスウォッチ 9" x1="-59.99" y1="-83.16" x2="376.49" y2="118.55" gradientTransform="matrix(1,0,0,1,0,0)" xlink:href="#_新規グラデーションスウォッチ_9"/>
    <linearGradient id="_新規グラデーションスウォッチ_9-19" data-name="新規グラデーションスウォッチ 9" x1="-59.99" y1="-83.16" x2="376.49" y2="118.55" gradientTransform="matrix(1,0,0,1,0,0)" xlink:href="#_新規グラデーションスウォッチ_9"/>
  </defs>
  <g id="_文字" data-name="文字">
    <g>
      <polyline class="cls-18" points="160.34 67.27 4.75 80.88 8.85 58.06 .85 36.3 238.84 15.48"/>
      <polyline class="cls-19" points="257.41 13.85 408.02 .68 403.91 23.5 411.92 45.26 178.91 65.65"/>
      <g>
        <path class="cls-9" d="m32.56,65.88c-.08,0-.28-.03-.34-.35-.06-.3-.22-.5-.47-.6-.11-.04-.42-.14-.98-.2-.19-.01-.32-.18-.32-.42s.17-.4.41-.4c.16,0,.31.01.46.01.33,0,.68-.02,1.05-.05.32-.03.47-.21.47-.58v-6.03l-.73.59-.25.2c-.14.12-.26.22-.38.3,0,.63-.1.93-.32.95h0c-.31,0-.56-.46-.88-1.59-.06-.24.02-.48.21-.58.86-.47,1.67-.97,2.35-1.4v-4.55s-2.12.18-2.12.18c-.19,0-.31-.11-.35-.28-.02-.11,0-.22.07-.32.08-.1.2-.17.34-.18l2.06-.18v-4.47c0-.26.17-.47.4-.49.11,0,.22,0,.32,0,.85,0,1.26.16,1.26.5,0,.23-.22.47-.74.78v3.58l.7-.06.59-1.16c.08-.15.21-.25.35-.25.1,0,.2.05.28.14.25.35.5.71.75,1.12.08.12.07.3.03.42l-.06.13c-.07.13-.17.2-.28.21l-2.36.21v3.79c.54-.41,1.16-.88,1.83-1.43.08-.07.16-.1.25-.1.17,0,.3.12.34.33.02.12-.02.25-.13.37-.56.57-1.09,1.06-1.59,1.51l-.73.68.03,7.61c0,1.21-.49,1.9-1.46,2.05h-.04Zm2.67-.17c-.12,0-.22-.07-.27-.2-.11-.25-.02-.53.22-.67,1.92-1.01,3.48-2.29,4.79-3.92-.97-1.14-1.81-2.69-2.48-4.62,0,0-1.19.1-1.2.1-.16,0-.26-.07-.33-.22-.04-.12-.03-.24.04-.34.08-.12.22-.21.38-.22l6.45-.56.42-.72c.08-.13.19-.2.31-.2.06,0,.16.02.25.13.82.86.93,1.13.93,1.28,0,.12-.08.24-.23.37l-.5.36c-.63,1.55-1.42,3.04-2.39,4.49,1.11.84,2.49,1.46,4.1,1.84.15.03.26.13.31.27.07.18.04.41-.09.6-.12.19-.22.39-.33.62-.09.15-.21.23-.34.23-1.81-.6-3.28-1.43-4.43-2.5-1.38,1.59-3.22,2.88-5.48,3.84l-.13.03Zm3.06-9.48c.7,1.5,1.51,2.75,2.41,3.7.9-1.41,1.57-2.75,2.04-4.09l-4.44.39Zm-1.89-.98c-.11,0-.21-.06-.28-.18-.09-.16-.06-.36.08-.55,1.11-1.26,1.68-3.08,1.68-5.44v-2.71c0-.3.17-.52.4-.52.05,0,.1.01.15.03l.53.27.18.1,2.33-.22.43-.81c.08-.13.19-.2.31-.2.06,0,.16.02.26.12.7.74.84,1,.84,1.15s-.08.3-.2.39l-.44.35.04,4.14c0,.25.05.41.13.45.06.04.17.06.33.06.11,0,.23,0,.37-.02.56-.05.88-.26.99-.65.12-.43.23-1.25.31-2.45.02-.29.19-.5.4-.5.05,0,.1.01.15.04.11.06.13.25.13.36,0,1.2.04,2.09.12,2.45.05.23.12.36.23.43.06.03.28.13.25.42-.08.46-.24.74-.51.89-.31.15-.94.27-1.81.35-.32.03-.6.04-.84.04-.57,0-.92-.07-1.09-.22-.25-.2-.37-.62-.37-1.27v-4.77l-2.39.21v1.98c0,1.29-.13,2.34-.41,3.21-.36,1.13-1.06,2.12-2.08,2.96-.07.06-.15.09-.23.09Z"/>
        <path class="cls-15" d="m54.6,64.06c-.1,0-.2-.04-.26-.13-.06-.08-.09-.18-.09-.29v-8.51c-.6,1.93-1.26,3.61-2.01,5.14-.08.15-.19.23-.32.23-.07,0-.14-.03-.19-.07-.15-.08-.19-.34-.08-.57,1.03-2.41,1.87-5.45,2.51-9.03,0,0-2.13.18-2.13.18-.17,0-.29-.11-.34-.28-.03-.1-.01-.2.05-.29.08-.11.22-.19.38-.2l2.13-.19v-3.44c-.75.27-1.43.49-2.08.66-.01,0-.03,0-.04,0-.21,0-.31-.09-.35-.23-.07-.2.06-.45.31-.55,1.7-.64,3.22-1.53,4.53-2.66.06-.04.13-.07.2-.07s.14.02.19.07c.69.5,1.04.91,1.04,1.23,0,.09-.04.3-.4.33h-.04c-.14,0-.25-.01-.37-.03l-.13-.02c-.41.24-.92.48-1.65.78v3.82l.71-.06.52-1.06c.08-.16.21-.25.35-.25.1,0,.19.04.26.12.28.36.53.73.72,1.09.06.1.1.27.02.42l-.03.08c-.11.19-.22.24-.3.24l-2.25.2v2.07c1.51.93,2.3,2.03,2.3,3.17,0,.75-.35.94-.64.96h0c-.24,0-.5-.12-.62-.65-.19-.91-.54-1.73-1.03-2.43v9.72c0,.26-.14.45-.36.47l-.51.04Zm3.74-.33c-.1,0-.2-.04-.26-.13-.06-.08-.09-.18-.09-.29v-9.74c0-.3.1-.61.3-.61.31.14.63.31,1,.53l6.63-.59.36-.65c.07-.11.19-.18.31-.18.08,0,.15.03.22.08.92.85.92,1.1.92,1.18,0,.1-.07.22-.18.32l-.44.36.04,6.79c0,1.19-.51,1.9-1.47,2.05h-.02c-.2,0-.32-.12-.37-.33-.06-.28-.22-.46-.46-.53-.24-.07-.63-.17-1.18-.21-.2-.01-.33-.18-.33-.42,0-.23.17-.4.39-.4.23,0,.44,0,.64,0,.36,0,.7-.01,1.03-.04.38-.03.56-.23.56-.61v-6.64l-6.77.59v8.97c0,.26-.14.45-.36.47l-.49.04Zm2.3-2.78c-.1,0-.2-.04-.26-.13-.06-.08-.09-.18-.09-.29v-4.77c0-.32.17-.56.39-.56h.02l.1.02c.26.14.46.25.67.38l2.06-.2.33-.6c.1-.16.22-.19.3-.19.08,0,.15.03.22.09.72.64.82.89.82,1.03,0,.12-.06.24-.19.36l-.35.35.03,3.04c0,.26-.14.45-.36.46,0,0-.37.03-.37.03-.24,0-.37-.17-.37-.42v-.14l-2.14.19v.83c0,.26-.14.45-.36.46l-.44.04Zm.8-2.11l2.14-.19v-2.48l-2.14.19v2.48Zm-1.58-6.21c-.1,0-.2-.04-.26-.13-.06-.08-.09-.18-.09-.29v-4.04c0-.3.18-.51.44-.51.07,0,.15.02.22.06.23.12.43.24.62.36l3.68-.34.34-.64c.07-.12.18-.18.31-.18.08,0,.15.03.22.08.61.57.85.89.85,1.12,0,.1-.05.19-.14.29l-.45.4.03,2.79c0,.26-.14.45-.36.47,0,0-.43.04-.43.04-.24,0-.37-.17-.37-.42v-.32l-3.82.33v.45c0,.26-.14.45-.36.47l-.46.04Zm.82-1.72l3.82-.33v-2.07l-3.82.33v2.07Zm-2.98-3.94c-.14,0-.25-.1-.3-.26-.04-.08-.02-.19.03-.29.08-.13.24-.22.41-.24l4.07-.35v-2.44c0-.26.17-.47.4-.49.11,0,.22,0,.32,0,.31,0,1.24,0,1.24.5,0,.22-.23.45-.76.76v1.57l2.75-.24.52-1.06c.06-.15.19-.25.33-.25.09,0,.18.04.25.13.28.29.55.63.82,1.02.08.09.1.26.05.42l-.04.12c-.11.2-.22.24-.3.25l-9.79.85Z"/>
        <path class="cls-10" d="m81.79,61.4c-.16,0-.29-.13-.34-.33-.05-.26-.18-.45-.41-.57-.16-.07-.68-.24-2.39-.5-.17-.02-.3-.18-.3-.4,0-.25.17-.43.39-.43.86.08,1.57.11,2.17.11.35,0,.67-.01.96-.04.69-.06,1.13-.45,1.34-1.18.19-.67.33-1.58.44-2.86,0,0-9.81.85-9.81.85-.11,0-.22-.04-.31-.22-.04-.12-.03-.24.03-.34.08-.13.23-.21.4-.23l9.73-.85c.05-.9.08-1.81.1-2.69l-5.62.49c-.03.14-.09.32-.16.56l-.18.62c-.06.2-.19.32-.34.32h-.02l-.58-.13c-.11-.03-.19-.1-.24-.2-.06-.12-.07-.26-.03-.42.73-2.49,1.31-5.19,1.73-8.02.04-.23.21-.39.41-.39,1.09.11,1.57.32,1.57.68,0,.23-.26.45-.82.69-.11.72-.22,1.37-.34,1.95l5.21-.45.7-1.24c.08-.13.2-.2.32-.2.09,0,.17.04.23.1.38.38.7.79.95,1.18.08.1.1.27.02.44l-.03.09c-.11.19-.22.24-.3.24l-7.27.63c-.23,1.07-.44,2-.64,2.76l5.36-.47.42-.72c.07-.11.18-.18.29-.18.09,0,.17.04.24.11.91.85.91,1.08.91,1.15,0,.14-.06.26-.18.36l-.42.38c.02.96,0,1.71-.03,2.25l1.96-.17.7-1.3c.08-.14.2-.22.34-.22.1,0,.19.04.26.13.28.34.61.75.93,1.22.09.1.1.27.03.44l-.03.1c-.11.2-.22.24-.3.25l-3.92.34c-.16,2.11-.4,3.54-.74,4.37-.45,1.09-1.23,1.74-2.34,1.93h-.06Zm-7.39-13.21c-.17,0-.34-.08-.5-.24-.18-.17-.28-.37-.28-.62s.1-.5.28-.76c.63-.93.99-2.1,1.09-3.57.02-.27.17-.44.38-.44.16.02.29.11.34.41.01.16.03.29.04.4l11.19-.97.45-.81c.07-.13.19-.21.32-.21.1,0,.2.05.27.14.77.99,1.08,1.51,1.08,1.8,0,.17-.11.3-.29.35l-.67.19c-.3.47-.89,1.1-1.47,1.71-.06.06-.14.1-.22.1s-.16-.03-.23-.09c-.14-.14-.17-.37-.05-.56.32-.71.57-1.33.72-1.84l-11.03.96c0,.11,0,.25,0,.42,0,1.09-.16,2.01-.49,2.73-.24.57-.55.87-.92.9h-.05Z"/>
        <path class="cls-6" d="m95.23,60.42c-.12,0-.21-.07-.27-.18-.07-.15-.08-.24-.04-.33.05-.13.16-.24.3-.3,1.96-.94,3.58-2.16,4.84-3.6.05-.07.14-.12.23-.12.06,0,.12.02.18.05.82.48,1.22.87,1.22,1.19,0,.19-.14.39-.54.39h-.44c-1.6,1.27-3.42,2.25-5.37,2.9l-.1.02Zm14.47-1.38c-.16,0-.39-.13-.69-.4-1.01-.88-2.53-1.59-4.66-2.19-.12-.04-.22-.12-.27-.22-.05-.1-.05-.22-.01-.33.06-.16.18-.25.33-.25,4.03.4,5.96,1.21,5.96,2.49,0,.56-.22.86-.64.9h-.02Zm-14.24-3.15c-.13,0-.23-.07-.3-.22-.04-.12-.03-.24.04-.34.08-.12.22-.21.38-.22l12.91-1.12.72-1.28c.08-.13.2-.2.32-.2.1,0,.19.04.26.12.36.43.66.81.91,1.13.1.15.11.33.03.49l-.05.11c-.07.15-.17.23-.3.24l-14.92,1.29Zm2.95-1.77c-.1,0-.2-.04-.26-.13-.06-.07-.09-.18-.09-.29v-8.79c0-.29.2-.5.46-.5.09,0,.17.02.26.07.23.12.43.24.59.34l2.88-.27v-1.83s-6.23.54-6.23.54c-.16,0-.28-.1-.32-.26-.04-.08-.02-.19.03-.29.08-.13.24-.22.41-.23l6.1-.53v-2.05c0-.26.16-.47.38-.49.16,0,.3-.01.43-.01.76,0,1.15.17,1.15.51,0,.24-.23.47-.74.76v1.18l4.59-.4.64-1.21c.08-.13.2-.21.32-.21.08,0,.17.03.24.1l.28.33c.2.23.41.48.62.79.08.1.1.26.05.42l-.05.15c-.1.19-.22.24-.3.24l-6.39.56v1.83l2.93-.25.43-.72c.06-.12.17-.19.29-.19.08,0,.16.03.23.09.79.75.89,1.01.89,1.16,0,.13-.07.27-.19.38l-.42.42.03,7.47c0,.26-.14.45-.36.46,0,0-.48.04-.48.04-.13,0-.22-.04-.28-.12-.06-.08-.09-.18-.09-.29v-.38l-7.16.62v.49c0,.26-.14.45-.36.47l-.51.04Zm.87-1.77l7.16-.62v-1.85l-7.16.62v1.85Zm0-2.62l7.16-.62v-1.73l-7.16.62v1.73Zm0-2.51l7.16-.62v-1.64l-7.16.62v1.64Z"/>
        <path class="cls-2" d="m119.06,56.92c-.26,0-.47-.23-.57-.6-.34-1.36-.6-2.43-.6-4.9v-.13c0-2.45.35-4.4.69-6.29l.04-.21c.21-1.15.39-2.14.39-2.95,0-.75-.15-1.31-.5-1.82-.05-.1-.07-.21-.07-.28,0-.24.14-.49.38-.51h0c.1,0,.18.04.25.09.66.45,1.01,1.41,1.01,2.76,0,1.08-.3,2.8-.6,4.47-.09.5-.17.99-.25,1.45-.16.97-.25,2.08-.25,3.12,0,.75.03,1.46.09,2.02.03.39.13.49.16.49.03-.02.09-.1.14-.22.38-1.04.81-1.86,1.43-2.74.09-.12.2-.19.31-.2h0c.23,0,.39.2.39.44,0,.08-.02.17-.06.25-.6,1.27-1.5,4.28-1.76,5.18-.1.35-.31.57-.57.59h-.04Zm5.42-.41c-.65,0-1.25-.22-1.69-.62-.46-.41-.71-.99-.71-1.63.02-1.94,2.03-3.02,3.3-3.25.27-.05.54-.09.8-.12.19-.02.38-.03.57-.03.13,0,.26,0,.38.02v-.47c0-.86-.05-2.37-.11-3.97l-.05-1.4c-.21.05-.45.09-.69.11h-.11c-.12.02-.24.03-.36.03-1.51,0-2.44-.85-2.8-1.64-.04-.08-.04-.17-.04-.22,0-.24.15-.45.34-.46h0c.15,0,.25.06.35.17.43.45.91.85,1.99.85.13,0,.27,0,.41-.02.21-.02.43-.06.66-.1.09-.02.2-.05.21-.05l-.12-4.66c0-.5.29-.78.57-.8h0c.29,0,.49.2.58.53.58,2.36,1.03,3.09,2.9,3.42.38.08.58.32.58.71,0,.32-.18.6-.47.72-.9.42-1.88.86-2.89,1.14.05,2.44.14,5.44.14,5.44,0,.16.02.71.02.84,1.03.24,2.13.75,3.64,1.71.19.1.31.34.31.61,0,.35-.22.75-.57.78h-.01c-.17,0-.27-.04-.35-.12-1.13-.78-2.04-1.41-3.05-1.72-.13,1.67-.69,2.77-1.82,3.54-.55.37-1.14.59-1.69.63-.09,0-.17.01-.25.01Zm1.81-4.44c-.19.02-.38.05-.57.09l-.34.06c-1.36.27-2.31,1.05-2.31,1.89,0,.64.54,1.06,1.27,1.06.06,0,.11,0,.17,0,.38-.03.79-.16,1.18-.37.88-.47,1.28-1.23,1.4-2.67-.05,0-.11-.01-.16-.02-.15-.02-.32-.04-.48-.04-.05,0-.1,0-.16,0Zm1.78-9.4c0,.23,0,.48.01.76.67-.21.93-.33,1-.37-.23-.14-.65-.39-1.03-.94l.03.55Z"/>
        <path class="cls-11" d="m137.96,56.68c-.07,0-.14-.03-.2-.07-.15-.11-.19-.32-.1-.52.72-1.93,1.09-4.56,1.09-7.81v-4.27c0-.33.15-.58.35-.58h.03l.1.04c.21.12.48.28.78.48l2.6-.25c.37-1.05.67-2.25.93-3.64.04-.23.2-.39.39-.39.05,0,.1,0,.14.03.8.35,1.18.65,1.18.95,0,.17-.13.39-.71.51-.22.64-.62,1.47-1.17,2.48l1.11-.1.48-.92c.08-.14.2-.22.34-.22.1,0,.19.04.26.13.23.3.43.58.63.88.08.13.07.3.03.42l-.06.13c-.07.15-.17.23-.3.24l-5.91.51v3.52c0,3.33-.56,6.1-1.65,8.24-.08.14-.2.23-.33.23Zm6.88-.57c-.11,0-.21-.07-.28-.2-.1-.18-.01-.42.21-.58,1.29-.88,2.33-1.99,3.17-3.39.07-.12.19-.19.31-.19.05,0,.1.01.14.03.76.44,1.12.81,1.12,1.13,0,.34-.38.38-.52.39h-.4c-.84,1.05-2.08,2-3.59,2.76-.04.03-.1.05-.16.05Zm-4.75-.53c-.12,0-.23-.08-.29-.22-.11-.22,0-.46.22-.6,1.72-.96,3.21-2.27,4.42-3.91.11-.13.22-.16.29-.16.08,0,.15.03.22.08.66.56.94.92.94,1.2,0,.19-.17.33-.43.36h-.11c-.1,0-.22,0-.38-.03-1.26,1.37-2.89,2.47-4.75,3.24h-.02s-.11.03-.11.03Zm13.41-.43c-.25,0-.47-.18-.69-.56-.5-.84-1.24-1.6-2.21-2.26-.18-.13-.25-.33-.18-.52.08-.16.19-.24.33-.24l.1.02c2.31.82,3.34,1.65,3.34,2.68,0,.68-.35.85-.64.87h-.04Zm-13.02-3.1c-.12,0-.23-.08-.29-.22-.11-.19,0-.44.22-.57,1.42-.84,2.64-2,3.62-3.43.12-.14.23-.16.3-.16.07,0,.13.02.19.06.61.5.9.88.9,1.17,0,.32-.36.35-.48.36h-.1c-.06,0-.15,0-.27-.01-1,1.14-2.36,2.08-3.96,2.78h-.02s-.11.03-.11.03Zm6.62,0c-.1,0-.19-.05-.26-.13-.06-.08-.09-.18-.09-.29v-11.1c0-.33.16-.59.37-.59h.03l.11.04c.2.1.43.24.69.39l.11.06.63-.07c.22-1.38.32-2.24.36-2.74,0,0-2.81.24-2.81.24-.16,0-.26-.07-.33-.22-.04-.12-.03-.24.04-.34.08-.12.22-.21.38-.22l5.85-.51.57-1.13c.08-.14.2-.23.34-.23.1,0,.19.04.26.13.18.22.46.57.82,1.09.08.09.1.25.05.42l-.04.1c-.11.19-.22.24-.3.24l-3.29.29c-.31.92-.69,1.86-1.14,2.81l2.38-.21.42-.74c.07-.11.18-.18.29-.18.09,0,.17.04.24.11.88.8.88,1.05.88,1.13,0,.13-.08.23-.17.33l-.43.38.03,9.98c0,.26-.14.45-.36.47,0,0-.48.04-.48.04-.13,0-.22-.04-.28-.12-.06-.07-.09-.18-.09-.29v-.47l-3.91.34v.49c0,.26-.14.45-.36.46l-.51.04Zm.87-1.77l3.91-.34v-2.73l-3.91.34v2.73Zm0-3.5l3.91-.34v-2.53l-3.91.34v2.53Zm0-3.3l3.91-.34v-2.28l-3.91.34v2.28Zm-7.42,5.48c-.14,0-.25-.09-.31-.25-.09-.16,0-.38.24-.52,1.31-.73,2.45-1.79,3.38-3.16.07-.11.18-.18.3-.18.08,0,.15.03.21.09.59.51.88.88.88,1.13,0,.15-.07.33-.41.36-.03,0-.05,0-.08,0-.16,0-.28,0-.42-.03-.88,1.02-2.14,1.88-3.66,2.53h-.02s-.11.03-.11.03Zm.44-5.16c-.33,0-.52-.28-.56-.85-.05-.76-.28-1.46-.69-2.13-.1-.15-.11-.35-.02-.51.07-.1.16-.15.26-.15.07,0,.13.02.19.07,1.04.76,1.54,1.58,1.54,2.48,0,.85-.37,1.05-.68,1.08h-.05Zm-2.42-3.79c-.15,0-.27-.1-.31-.26-.03-.1-.01-.22.05-.31.08-.12.22-.2.37-.21l2.85-.25v-2.57c0-.26.17-.47.4-.49h.11c.63,0,1.36.05,1.36.48,0,.23-.21.46-.69.77v1.71l1.74-.15.5-.95c.08-.14.2-.22.34-.22.1,0,.19.04.26.13.25.32.48.62.66.9.08.13.07.3.03.42l-.06.13c-.07.15-.17.23-.3.24l-7.32.63Z"/>
        <path class="cls-14" d="m161.43,53.27c-.15,0-.31-.08-.42-.23-.11-.14-.17-.32-.17-.51,0-.16.02-.29.08-.41,1.6-3.76,2.73-6.88,3.65-10.13.03-.12.07-.23.09-.34,0,0-.02.01-.03.02-1.01.46-1.71.77-2.3.82-.06,0-.12,0-.18,0-.22,0-.42-.04-.6-.11-.55-.24-.94-.67-1.09-1.18l-.02-.16c0-.29.21-.48.41-.49h0c.16,0,.28.09.36.23.1.25.36.39.73.39.04,0,.08,0,.13,0,.07,0,.13-.01.18-.03.54-.11,1.41-.5,2.11-.81l.38-.17c.08-.04.18-.09.29-.13.35-1.74.76-4.16.76-4.16.08-.45.37-.68.62-.7h0c.32,0,.6.25.6.67,0,.07,0,.12-.02.21-.19.92-.47,2.28-.76,3.61.18-.04.36-.07.52-.09.12-.01.23-.02.34-.02.67,0,1.24.19,1.61.54.73.69.88,1.76.88,3.14,0,.25,0,.55-.02.84-.06,1.88-.19,3.34-.74,5.64-.46,1.88-1.38,3.06-2.46,3.15-.04,0-.08,0-.12,0-1.17,0-2.46-1.43-3.18-2.92-.34.93-.71,1.86-1.08,2.79-.13.34-.31.51-.55.53h-.04Zm5.56-12.31c-.07,0-.15,0-.22,0-.29.03-.6.1-.93.21l-.23,1.11c-.57,2.23-1.34,4.43-2.09,6.47.41.72,1.51,2.59,2.77,2.59h.11c.75-.07,1.42-1.68,1.8-4.22.2-1.39.3-2.52.3-3.45,0-1.49-.28-2.39-.8-2.61-.2-.08-.44-.12-.7-.12Zm6.16,7.22c-.29,0-.56-.06-.8-.19-.17-.08-.23-.28-.23-.44,0-.24.13-.51.38-.54.02,0,.04,0,.06,0,.06,0,.09,0,.13.03.07.03.15.05.26.05.04,0,.08,0,.13,0,.23-.02.79-.15,1.04-.89.03-.12.05-.26.05-.4,0-.83-.63-1.83-1.14-2.64-1.01-1.58-1.77-2.63-2.38-3.28-.1-.09-.13-.23-.13-.33,0-.24.15-.52.4-.54h0c.13,0,.23.06.31.15,1.36,1.26,2.64,2.9,3.49,4.49.46.82.68,1.54.68,2.21,0,.38-.06.69-.18,1-.29.7-1.07,1.26-1.85,1.33-.06,0-.13,0-.19,0Zm1.13-8.22c-.18,0-.34-.11-.45-.3-.4-.7-.64-.99-1.11-1.39-.2-.18-.28-.43-.2-.65.06-.17.21-.27.38-.27l.12.02c.58.13,1.24.59,1.68,1.16.24.3.29.68.12,1.02-.12.25-.34.41-.55.41Zm.65-2.3c-.1,0-.25-.04-.4-.21-.43-.49-.84-.83-1.18-.97-.2-.09-.31-.29-.27-.51.03-.19.19-.38.45-.38.55,0,1.18.25,1.68.68.33.29.34.71.24.97-.1.26-.3.43-.51.43Z"/>
        <path class="cls-17" d="m189.53,52.05c-.16,0-.29-.13-.34-.33-.05-.26-.18-.45-.41-.57-.16-.07-.69-.24-2.39-.5-.17-.02-.3-.19-.3-.4,0-.25.17-.43.39-.43.86.08,1.57.11,2.17.11.35,0,.67-.01.96-.04.69-.06,1.13-.45,1.34-1.18.19-.67.33-1.58.45-2.86,0,0-9.81.85-9.81.85-.11,0-.22-.04-.31-.22-.04-.12-.03-.24.03-.34.08-.13.23-.21.4-.23l9.73-.85c.05-.91.08-1.81.1-2.69l-5.62.49c-.03.14-.09.32-.16.56l-.18.62c-.06.2-.19.32-.34.32h-.02l-.58-.13c-.11-.03-.19-.1-.24-.2-.06-.12-.07-.26-.03-.42.73-2.49,1.31-5.19,1.73-8.02.04-.23.21-.39.4-.39,1.09.11,1.57.32,1.57.68,0,.23-.26.45-.82.69-.11.72-.22,1.37-.34,1.95l5.21-.45.7-1.24c.08-.13.2-.2.32-.2.09,0,.17.04.23.1.38.38.7.79.95,1.18.08.1.1.27.02.44l-.03.09c-.11.19-.22.24-.3.24l-7.27.63c-.23,1.07-.44,2-.64,2.76l5.36-.47.42-.72c.07-.11.18-.18.29-.18.09,0,.17.04.24.11.91.85.91,1.08.91,1.15,0,.14-.06.26-.18.36l-.42.38c.02.96,0,1.71-.03,2.25l1.96-.17.7-1.3c.08-.14.2-.22.34-.22.1,0,.19.04.26.13.28.34.61.74.93,1.22.09.1.1.27.03.44l-.03.1c-.09.16-.19.24-.3.25l-3.92.34c-.16,2.11-.4,3.54-.74,4.37-.45,1.09-1.23,1.74-2.34,1.93h-.06Zm-7.39-13.21c-.17,0-.34-.08-.5-.24-.18-.17-.28-.37-.28-.62s.1-.5.28-.76c.63-.93.99-2.1,1.09-3.57.02-.27.17-.44.38-.44.16.02.29.1.34.41.01.16.03.29.04.4l11.19-.97.45-.81c.07-.13.19-.21.32-.21.1,0,.2.05.27.14.77.99,1.08,1.51,1.08,1.8,0,.17-.11.3-.29.35l-.67.19c-.3.46-.89,1.1-1.47,1.71-.06.06-.14.1-.22.1s-.16-.03-.23-.09c-.14-.14-.17-.37-.05-.56.32-.71.57-1.33.72-1.84l-11.03.96c0,.11,0,.25,0,.42,0,1.09-.16,2.01-.49,2.73-.24.57-.55.87-.92.9h-.05Z"/>
        <path class="cls-5" d="m207.71,48.19c-.23,0-.36-.21-.36-.42.03-.27.19-.45.41-.47,1.48-.15,2.6-.43,4.26-1.49,1.23-.76,2.69-2.05,2.69-3.86v-.16c0-1.45-1-2.54-2.33-2.54-.07,0-.14,0-.21,0-1.12.1-1.98.72-2.99,1.44-.3.22-.62.44-.96.67-.6.39-1.18.61-1.73.66-.08,0-.16,0-.23,0-.69,0-1.3-.28-1.73-.79-.09-.1-.09-.24-.09-.29,0-.21.12-.46.35-.51h.01c.14,0,.24.06.32.15.21.25.48.38.8.38.04,0,.08,0,.12,0,.61-.05,1.31-.49,1.79-.82.17-.11.35-.24.54-.38.98-.7,2.32-1.65,3.77-1.77.08,0,.16,0,.24,0,1.64,0,3.39,1.28,3.39,3.65,0,2.85-2.44,4.59-3.19,5.06-1.37.85-2.72,1.31-4.25,1.44-.09,0-.19.01-.29.01-.1,0-.33.02-.33.02Z"/>
        <path class="cls-3" d="m234,46.12c-.57,0-1.09-.11-1.54-.34-1.46-.72-2.41-2.75-2.41-5.16,0-.25.02-.53.04-.78.2-2.22.75-3.81,1.84-5.32l.03-.04h.06s0,0,0,0c-.05,0-.02-.06-.02-.11l-.02.02h-.09c-.78.25-1.63.49-2.58.71-.36.08-.7.13-1,.16-.16.01-.31.02-.46.02-1.63,0-2.27-.86-2.53-1.58l-.02-.17c0-.26.2-.5.43-.52h0c.13,0,.27.05.39.25.35.62.73.85,1.34.85.08,0,.16,0,.24-.01.4-.03.88-.14,1.48-.33,3.21-.95,4.8-1.71,7.42-2.98l.94-.45c.09-.04.16-.04.21-.05h0c.35,0,.58.29.6.71,0,.35-.19.67-.48.82-1.6.76-2.92,1.38-4.21,1.89-.02.08-.06.15-.13.24-1.1,1.23-2.25,3.49-2.38,5.8-.02.23-.02.45-.02.67,0,1.81.51,3.08,1.51,3.78.34.24.75.36,1.2.36h0c.08,0,.15,0,.23,0,.87-.08,1.73-.54,2.16-.81.12-.1.27-.12.31-.13h0c.41,0,.6.39.6.76,0,.26-.1.51-.26.66-.53.55-1.51.97-2.5,1.05-.13.01-.26.02-.38.02Z"/>
        <path class="cls-13" d="m250.53,44.31c-.12,0-.35-.04-.51-.33-.93-1.58-1.71-4.01-2.13-5.76l-.17-.69c-.41-1.68-.8-3.27-1.02-5.46v-.15c0-.47.24-.84.55-.87h0c.3,0,.51.26.59.68.36,2.28.62,3.57,1.18,5.97.42,1.79.77,2.96,1.21,4.04.06.17.18.28.28.28s.2-.11.28-.3c.52-1.21,1.1-2.41,2.57-5,1.61-2.84,3.49-4.76,4.8-4.87.14-.01.19-.01.24-.01,1.75,0,2.67,2.72,2.67,5.41v.47c0,.46-.32.76-.62.78h-.01c-.2,0-.32-.06-.41-.17-.12-.11-.18-.31-.18-.57,0-1.86-.19-3.17-.55-3.91-.32-.64-.7-.72-1-.72-.04,0-.09,0-.13,0-1,.09-2.34,1.43-3.54,3.52-1.21,2.12-2.36,4.51-3.42,7.11-.13.33-.35.52-.62.54h-.05Z"/>
        <path class="cls-4" d="m274.72,44.3c-.76,0-1.38-.26-1.78-.76-.35-.43-.54-1.03-.54-1.69,0-1.39,1.01-2.49,2.45-2.75.25-.04.5-.07.75-.09.2-.02.4-.03.61-.03.22,0,.44.01.67.03-.03-.76-.09-1.73-.15-2.63-.05-.82-.1-1.57-.11-2.04-.02-.1-.02-.25-.02-.36,0-1.92.82-2.88,2.65-3.11.09-.05.07-.09.04-.13-.3-.27-.65-.76-1.17-1.63-.09-.14-.1-.26-.1-.36,0-.25.16-.45.38-.47h0c.14,0,.25.05.33.15.89,1.15,1.89,2.06,2.81,2.58.24.12.39.38.39.7,0,.36-.21.77-.61.8-.01,0-.02,0-.04,0-.1,0-.15-.01-.2-.04-.68-.16-1.22-.24-1.74-.24-.14,0-.28,0-.42.02h-.11c-.81.08-1.18.27-1.18,1.24,0,.13,0,.27.02.44l.08.71c.12,1.05.27,2.36.33,4.58.96.27,1.98.72,3.13,1.36.22.12.35.36.35.65,0,.36-.21.75-.55.78h0c-.12,0-.22-.04-.32-.11-.8-.47-1.67-.95-2.63-1.25-.2,1.6-1.09,3.47-2.98,3.63-.13.01-.23.01-.33.01Zm.98-4.04c-.21,0-.43,0-.65.03-1.09.09-1.69.83-1.71,1.48.07.87.49,1.25,1.31,1.25.08,0,.16,0,.25-.01h.12c1.04-.1,1.68-1.04,1.82-2.65-.38-.06-.77-.09-1.16-.09Zm-6.55-.12c-.33,0-.6-.33-.6-.71,0-.22.06-.42.2-.6.63-.86,1.39-1.95,2.39-3.99.91-1.86,1.3-2.93,1.6-3.84-.18.04-.37.07-.56.09-.11,0-.22.01-.33.01-1.05,0-1.91-.45-2.42-1.26-.03-.06-.05-.12-.05-.21,0-.24.17-.52.41-.54h0c.14,0,.25.05.33.15.32.44.69.63,1.26.63.08,0,.16,0,.25-.01.28-.02.55-.08.83-.16.26-.07.52-.16.78-.27l.04-.3c.25-.88.53-1.88.74-2.88.1-.46.37-.65.59-.67h0c.32,0,.62.23.62.74,0,.78.33,1.34.97,1.67.29.14.48.44.48.76,0,.34-.19.63-.5.79l-.24.12c-.43.21-1.14.58-1.89.88-.19.83-.46,1.62-.79,2.39-1.07,2.56-2.02,4.38-3.63,6.93-.13.17-.28.27-.45.28h-.04Zm5.44-11.33l.25-.14c-.07-.02-.14-.09-.19-.16l-.06.3Z"/>
        <path class="cls-12" d="m299.63,42.49c-.14,0-.39-.06-.54-.46-.91-2.37-1.89-4.15-3-5.42-1.2-1.38-2.13-1.89-3.12-2.43l-.4-.22c-.26-.15-.43-.41-.47-.73-.06-.46.14-.96.52-1.32.52-.46,1.34-1.37,2.75-2.92l.23-.25c1.16-1.25,2.9-3.15,2.89-4.31,0-.21-.05-.39-.16-.53-.07-.06-.11-.16-.11-.3,0-.26.18-.5.4-.51h0c.14,0,.23.05.31.11.31.32.49.83.49,1.4,0,.6-.17,1.22-.49,1.79-.98,1.71-3.17,4.1-4.77,5.84l-.24.26c-.13.14-.2.28-.2.4,0,.06.02.14.15.24.61.39,2.14,1.42,3.18,2.47,1.67,1.72,2.78,4.64,3.2,5.74.07.13.08.27.08.35,0,.45-.33.78-.64.81h-.04Z"/>
        <path class="cls-16" d="m320.19,38.63c-.57,0-1.09-.11-1.55-.34-1.46-.72-2.41-2.75-2.41-5.15,0-.25.02-.53.04-.78.2-2.22.75-3.81,1.84-5.32l.03-.04h0s.03-.08.03-.11l-.02.02h-.1c-.78.25-1.62.49-2.58.71-.36.08-.7.13-1,.16-.16.01-.31.02-.46.02-1.63,0-2.28-.86-2.53-1.58l-.02-.17c0-.25.2-.5.43-.52h0c.13,0,.27.05.39.25.35.62.73.85,1.34.85.08,0,.16,0,.24-.01.4-.04.88-.14,1.48-.33,3.21-.94,4.79-1.71,7.41-2.97l.95-.46c.09-.04.15-.04.21-.05h0c.36,0,.59.29.61.71,0,.35-.19.67-.48.82-1.6.76-2.93,1.38-4.21,1.89-.02.08-.06.15-.13.24-1.1,1.22-2.25,3.49-2.38,5.8-.02.23-.02.45-.02.67,0,1.81.51,3.08,1.51,3.78.34.24.75.36,1.2.36.08,0,.15,0,.23,0,.87-.08,1.73-.54,2.16-.81.12-.1.27-.12.31-.13h0c.41,0,.6.39.6.76,0,.26-.1.51-.26.66-.53.55-1.51.97-2.5,1.05-.13.01-.25.02-.38.02Z"/>
        <path class="cls-1" d="m340.54,39.1c-2.28,0-3.59-1.83-3.91-5.44-.03-.46-.07-.91-.07-1.36-.54-.22-.99-.52-1.35-.9-.71-.79-1.09-1.83-1.09-3.01,0-.68.12-1.37.36-2.05.42-1.12,1.01-2.04,1.78-2.75.1-.08.11-.14.11-.16,0-.02,0-.04-.08-.07-.62-.14-1.28-.39-2.02-.76-.2-.11-.3-.27-.3-.48,0-.25.16-.45.38-.47.02,0,.04,0,.06,0,.06,0,.09,0,.12.02,1.28.37,2.55.56,4.1.62v-.08c.04-.16.06-.3.07-.42,0-.05.02-.27.02-.31,0-.71-.18-1.44-.36-1.8-.05-.09-.08-.19-.08-.31,0-.3.19-.47.38-.49h0c.14,0,.25.05.33.15.31.39.77,1.35.77,2.4v.13c0,.24-.03.48-.06.72.23,0,.47,0,.7-.03h0c.42,0,.64.39.64.76s-.22.77-.64.81l-1.03-.04c-.12.38-.24.78-.38,1.21-.13.41-.27.83-.41,1.29-.52,1.75-.81,3.27-.89,4.78.68.17,1.48.26,2.39.26h.24c.45,0,.65.34.65.66,0,.38-.24.79-.7.83-.24.02-.43.03-.62.03-.59,0-1.24-.07-1.97-.22,0,.28.02.56.05.85.21,2.68,1.27,4.22,2.92,4.22.08,0,.15,0,.23,0,1.24-.11,2.16-.85,2.78-2.22.48-1.06.75-2.47.75-3.86v-.23c0-.36.21-.54.41-.56h0c.19,0,.37.13.39.41.02.29.04.61.04.93,0,3.25-1.41,6.66-4.1,6.89l-.23.02c-.13.01-.27.02-.39.02Zm-2.89-15.47c-.04.06-.1.12-.17.19-.85.64-1.47,1.48-1.95,2.66-.23.58-.35,1.18-.35,1.75,0,.82.24,1.49.71,1.99.19.18.44.35.73.49.14-1.79.48-3.54.97-4.93l.09-.26c.24-.71.44-1.31.6-1.8-.22-.02-.42-.05-.63-.09Z"/>
        <path class="cls-7" d="m363.74,35.93c-1.46,0-2.72-.62-3.75-1.85-1.31-1.56-1.95-3.64-1.95-6.34s.65-4.81,1.93-6.58c1.13-1.55,2.55-2.4,4.23-2.55.16-.01.32-.02.47-.02,1.46,0,2.72.62,3.75,1.84,1.28,1.55,1.93,3.64,1.93,6.21,0,2.73-.65,5-1.95,6.74-1.14,1.55-2.51,2.38-4.19,2.52-.16.01-.32.02-.48.02Zm.8-16.33c-.11,0-.21,0-.32.01-1.41.12-2.5.95-3.34,2.52-.77,1.43-1.15,3.25-1.15,5.43,0,1.96.29,3.55.89,4.85.75,1.62,1.85,2.44,3.25,2.44.11,0,.22,0,.33-.01,1.36-.12,2.47-.96,3.31-2.5.78-1.39,1.17-3.24,1.17-5.48,0-2.39-.44-4.27-1.31-5.57-.77-1.14-1.7-1.7-2.83-1.7Z"/>
        <path class="cls-8" d="m376.33,34.27c-.1,0-.2-.05-.26-.13-.06-.07-.09-.18-.09-.29,0-.22.13-.39.33-.44.45-.08.8-.2,1.01-.33.3-.19.46-.69.46-1.45v-11.05c0-.72-.16-1.18-.46-1.36-.13-.07-.43-.17-1.09-.23-.2-.02-.34-.19-.34-.42s.15-.43.36-.44c0,0,4.44-.38,4.44-.38.24,0,.37.17.37.42,0,.22-.13.39-.33.44-.57.1-.91.27-1.07.36-.32.21-.48.7-.48,1.49v5.34l4.74-6.26c.22-.28.33-.52.33-.71,0-.36-.48-.44-.87-.44-.3-.01-.45-.19-.45-.42s.15-.42.36-.44c0,0,3.8-.33,3.8-.33.24,0,.38.17.38.42,0,.22-.12.39-.31.44-.76.22-1.46.75-2.1,1.57l-3.8,4.93,4.58,6.65c.51.74,1.15,1.14,1.9,1.21.2.01.34.19.34.42s-.15.43-.36.44c0,0-4.29.37-4.3.37-.24,0-.37-.17-.37-.42,0-.22.16-.4.38-.42.69-.1,1.04-.29,1.04-.58,0-.08-.06-.34-.62-1.15l-3.59-5.32-1.1,1.43.02,4.34c0,.7.14,1.14.43,1.32.18.12.51.18,1.04.18.26.02.4.19.4.42s-.15.42-.36.44l-4.38.38Z"/>
      </g>
    </g>
  </g>
</svg>