<?xml version="1.0" encoding="UTF-8"?>
<svg id="_レイヤー_2" data-name="レイヤー 2" xmlns="http://www.w3.org/2000/svg" viewBox="0 0 306.94 283.79">
  <defs>
    <style>
      .cls-1 {
        fill: #fffddf;
      }

      .cls-2 {
        fill: #f8d9e7;
      }

      .cls-3 {
        fill: #f8c9cb;
      }

      .cls-4 {
        fill: #fdf0f6;
      }

      .cls-5 {
        fill: none;
      }

      .cls-6 {
        fill: #fad6db;
      }
    </style>
  </defs>
  <g id="_バック" data-name="バック">
    <g>
      <path class="cls-1" d="m27.37,32.25l-5.76,37.57-14.51-5.6c4.69-11.93,11.61-22.77,20.27-31.97Z"/>
      <path class="cls-6" d="m21.06,70.07l.16.35L.27,102.88c-.02-1.07-.03-2.14-.02-3.21.11-12.5,2.54-24.44,6.85-35.44l14.51,5.6-.54.24Z"/>
      <polygon class="cls-5" points="21.61 69.83 21.22 70.42 21.06 70.07 21.61 69.83"/>
      <polyline class="cls-5" points="6.48 64 6.49 64 7.09 64.23"/>
      <line class="cls-5" x1="8.79" y1="140.99" x2="8.19" y2="141.25"/>
      <line class="cls-5" x1="27.52" y1="31.23" x2="27.37" y2="32.25"/>
      <line class="cls-5" x1="28.55" y1="31" x2="27.52" y2="31.23"/>
      <g>
        <path class="cls-5" d="m150.06,77.69l-.44.31.69.25-.25-.56Z"/>
        <path class="cls-2" d="m150.05,77.69l-.44.31-43.62,9.58c10.47-10.8,23.03-19.56,37.04-25.68l7.01,15.79Z"/>
        <path class="cls-1" d="m104.61,89.04l-6.65,43.4-16.76-6.47c5.41-13.78,13.41-26.29,23.41-36.93Z"/>
        <path class="cls-6" d="m79.35,156.8l2.31.88-8.35,12.93c-.03-1.23-.04-2.47-.03-3.71.04-4.09.29-8.13.75-12.11l5.31,2.01Z"/>
        <path class="cls-6" d="m97.33,132.71l.19.41-11.3,17.49-10.93-4.15c1.35-7.08,3.34-13.92,5.91-20.49l16.76,6.47-.63.28Z"/>
        <path class="cls-2" d="m85.27,199.61c-2.71-.41-5.36-.93-7.99-1.57-.02-.01-.02-.03-.01-.04-1.38-5.07-2.4-10.28-3.08-15.59-.14-1.19-.28-2.38-.38-3.57-.26-2.65-.41-5.32-.48-8.02l4.4,6.29,9.11,13.03h0s7.32,10.49,7.32,10.49h0c-.17,0-.35-.01-.52-.03-.11,0-.22-.02-.33-.03-.51-.03-1.03-.08-1.55-.12-.29-.03-.57-.06-.85-.09-.34-.03-.69-.08-1.04-.12-.84-.09-1.7-.2-2.54-.31-.59-.08-1.16-.16-1.74-.26-.11-.01-.22-.04-.33-.05Z"/>
        <path class="cls-2" d="m96,208.99l-12.84,5.62c-1.1-2.46-2.11-4.98-3.04-7.53,2.54.49,5.1.9,7.67,1.22,2.72.33,5.46.56,8.21.69Z"/>
        <path class="cls-4" d="m109.9,252.14c-11.28-10.54-20.4-23.28-26.74-37.52l12.84-5.62h0c.89.05,1.77.08,2.66.11.32.01.64.01.97.01l10.26,43.03Z"/>
        <path class="cls-1" d="m154.58,259.94l-.49-.09-44.12-7.64s-.05-.04-.07-.07h0s-10.26-43.04-10.26-43.04c.17,0,.34,0,.51,0h.51c.48,0,.94,0,1.39,0h.02s35.75,13.58,35.75,13.58l16.49,36.63.28.62Z"/>
        <path class="cls-3" d="m154.09,259.85l-6.31,16.08c-14.16-5.46-26.97-13.57-37.8-23.72l44.12,7.64Z"/>
        <path class="cls-1" d="m193.53,283.74c-1.49.05-2.97.06-4.48.05-14.55-.13-28.46-2.91-41.28-7.85l6.31-16.08.49.08,38.94,23.8Z"/>
        <path class="cls-2" d="m230.61,257.92l-.44.31-35.74,25.48h0c-.29.02-.58.02-.88.03h0s-38.94-23.8-38.94-23.8l37.58-16.62,37.75,14.34.69.25Z"/>
        <path class="cls-4" d="m237.18,274.02c-13.16,5.74-27.59,9.16-42.75,9.69l35.74-25.48,7.01,15.79Z"/>
        <path class="cls-6" d="m275.97,246.53c-10.82,11.61-24,21.03-38.78,27.49l-7.01-15.79.44-.31.18-.46,45.18-10.93Z"/>
        <path class="cls-4" d="m282.26,203.47l-6.21,42.96s-.05.06-.08.09l-45.18,10.93,14.53-37.63,36.94-16.35Z"/>
        <path class="cls-1" d="m299.03,209.94h0c-5.33,13.61-13.19,25.96-22.98,36.49l6.21-42.96,16.77,6.47Z"/>
        <path class="cls-3" d="m306.94,169.02c-.13,14.43-2.92,28.22-7.91,40.93l-16.77-6.47.63-.27-.19-.44,24.14-39.91c.08,2.04.12,4.09.1,6.16Z"/>
        <path class="cls-4" d="m306.83,162.78l-25.68-34.53,15.91-6.94c5.71,12.8,9.11,26.79,9.76,41.47Z"/>
        <path class="cls-1" d="m306.83,162.85h0s-24.14,39.92-24.14,39.92l-16.58-36.83,14.46-37.43.25-.68.32.43,25.68,34.53h0s0,.04,0,.07Z"/>
        <path class="cls-1" d="m297.06,121.29h0s-15.91,6.95-15.91,6.95l-.32-.43-.45-.17-10.54-44.33c11.5,10.63,20.82,23.54,27.23,37.98Z"/>
        <path class="cls-4" d="m280.37,127.64l-37.97-14.42-16.49-36.63,42.64,5.54h.01c.43.4.84.78,1.27,1.18l10.54,44.33Z"/>
        <path class="cls-1" d="m225.19,76.14l-37.15,16.44-37.73-14.33-.25-.57,35.47-25.49c.37-.02.72-.03,1.09-.04l38.57,23.98Z"/>
        <path class="cls-2" d="m268.56,82.13l-42.64-5.54,6.53-16.63c13.42,5.18,25.64,12.75,36.12,22.17Z"/>
        <path class="cls-6" d="m232.44,59.96l-6.53,16.63-.28-.65-.45.19-38.57-23.98c1.51-.05,3.02-.06,4.55-.05,14.56.13,28.47,2.9,41.29,7.85Z"/>
        <path class="cls-3" d="m185.52,52.2l-35.47,25.49-7.01-15.79c13.1-5.74,27.43-9.14,42.48-9.7Z"/>
        <polygon class="cls-4" points="188.03 92.59 168.32 101.31 165.81 102.42 161.8 104.19 154.98 107.21 134.9 116.1 149.18 79.15 149.18 79.14 149.62 78 150.31 78.25 159.52 81.75 171.97 86.48 188.03 92.59"/>
        <polygon class="cls-6" points="242.4 113.22 215.57 103.05 210.67 101.19 202.52 98.09 202.51 98.09 201.52 97.72 188.03 92.59 196.91 88.66 201.57 86.6 201.58 86.59 209.29 83.18 225.19 76.15 225.64 75.95 225.91 76.59 242.4 113.22"/>
        <polygon class="cls-6" points="280.83 127.82 280.57 128.5 266.11 165.93 254.41 139.91 242.4 113.22 280.37 127.64 280.83 127.82"/>
        <polygon class="cls-2" points="282.69 202.76 282.26 203.47 245.32 219.82 255.58 193.21 266.11 165.93 282.69 202.76"/>
        <polygon class="cls-5" points="282.88 203.2 282.26 203.47 282.69 202.76 282.88 203.2"/>
        <polygon class="cls-3" points="245.32 219.82 230.79 257.45 229.91 257.66 192.16 243.32 218.41 231.72 245.32 219.82"/>
        <polygon class="cls-5" points="230.79 257.45 230.61 257.92 229.91 257.66 230.79 257.45"/>
        <polygon class="cls-6" points="192.16 243.32 154.59 259.94 154.3 259.32 137.82 222.69 164.65 232.87 192.16 243.32"/>
        <path class="cls-6" d="m103.38,200.85c-.41.02-.8.02-1.2.02l.42-1.1,11.51-29.77h0s8.31,18.48,8.31,18.48l3.38,7.52.77,1.72h0s0,.02,0,.02c-3.23.82-6.52,1.5-9.87,1.99-.89.13-1.79.25-2.68.36-.74.09-1.48.17-2.22.25-.35.04-.71.08-1.07.1-.31.04-.62.06-.94.09-.31.03-.63.05-.94.08-.1,0-.2.01-.31.02-.02,0-.05,0-.07,0-.4.03-.8.06-1.21.08-.41.03-.81.04-1.22.06-.1,0-.2.01-.32,0-.02,0-.05,0-.07,0-.12.01-.24.02-.36.02-.02,0-.04,0-.06,0h-.04s-.07,0-.1,0h0c-.24.02-.5.02-.76.02h-.01c-.33.02-.65.03-.97.02Z"/>
        <path class="cls-6" d="m137.82,222.69l-35.75-13.58c.09,0,.17,0,.25,0,.62,0,1.24-.01,1.86-.03.11,0,.2,0,.27,0,.32,0,.64-.02.96-.04.72-.03,1.46-.06,2.15-.1.2,0,.41-.02.61-.03.8-.05,1.61-.11,2.36-.17.58-.04,1.16-.1,1.77-.16.71-.08,1.41-.15,2.12-.24.28-.02.57-.07.83-.1l1.15-.15c1.9-.27,3.83-.58,5.75-.95,2.65-.5,5.27-1.11,7.87-1.82l7.82,17.37Z"/>
        <polygon class="cls-1" points="110.74 162.49 118.29 159.15 114.11 169.98 110.74 162.49"/>
        <polygon class="cls-1" points="134.9 116.1 124.64 142.7 122.53 148.18 107.33 154.91 97.53 133.12 97.96 132.43 134.9 116.1"/>
        <polygon class="cls-5" points="97.96 132.43 97.52 133.12 97.34 132.71 97.96 132.43"/>
        <polyline class="cls-5" points="299.03 209.94 299.03 209.95 299.73 210.22"/>
        <polyline class="cls-5" points="80.49 125.7 80.51 125.7 81.2 125.96"/>
        <line class="cls-5" x1="230.17" y1="258.23" x2="229.91" y2="257.66"/>
        <line class="cls-5" x1="237.48" y1="274.69" x2="237.18" y2="274.01"/>
        <line class="cls-5" x1="143.04" y1="61.9" x2="142.74" y2="61.23"/>
        <path class="cls-5" d="m202.52,98.46c0-.12,0-.24-.01-.37h0c0,.12,0,.24,0,.37Z"/>
        <polyline class="cls-5" points="147.5 276.65 147.5 276.63 147.78 275.94"/>
        <line class="cls-5" x1="154.3" y1="259.32" x2="154.09" y2="259.85"/>
        <line class="cls-5" x1="232.72" y1="59.27" x2="232.44" y2="59.96"/>
        <line class="cls-5" x1="83.16" y1="214.62" x2="82.47" y2="214.92"/>
        <line class="cls-5" x1="281.15" y1="128.25" x2="280.57" y2="128.5"/>
        <line class="cls-5" x1="297.75" y1="121" x2="297.06" y2="121.3"/>
        <line class="cls-5" x1="104.79" y1="87.85" x2="104.61" y2="89.04"/>
        <path class="cls-3" d="m149.62,78l-14.71,38.09-36.94,16.34,6.65-43.4c.44-.48.9-.96,1.37-1.44h.01s43.62-9.59,43.62-9.59Z"/>
        <line class="cls-5" x1="105.98" y1="87.6" x2="104.79" y2="87.85"/>
        <polygon class="cls-3" points="102.81 156.9 86.23 150.61 97.53 133.12 107.33 154.91 102.81 156.9"/>
        <path class="cls-3" d="m114.11,169.98h0s-11.51,29.78-11.51,29.78l-.42,1.1s-.1,0-.14,0c0,0-.03,0-.04,0-.5,0-1.01,0-1.52,0-.04,0-.08,0-.12,0-1.92-.01-3.82-.09-5.71-.22-.04,0-.09,0-.12,0-.11,0-.24-.01-.35-.02h0s-7.32-10.49-7.32-10.49h0s-9.11-13.04-9.11-13.04l-4.4-6.29c-.01-.07,0-.13,0-.2l8.35-12.93,21.5,8.16,7.58-3.35,3.37,7.49Z"/>
        <line class="cls-5" x1="109.91" y1="252.21" x2="109.9" y2="252.15"/>
        <line class="cls-5" x1="109.97" y1="252.22" x2="109.91" y2="252.21"/>
        <line class="cls-5" x1="276.04" y1="246.51" x2="275.97" y2="246.53"/>
        <line class="cls-5" x1="276.05" y1="246.44" x2="276.04" y2="246.51"/>
        <line class="cls-5" x1="306.86" y1="162.82" x2="306.84" y2="162.85"/>
        <line class="cls-5" x1="306.86" y1="162.82" x2="306.83" y2="162.79"/>
        <polyline class="cls-5" points="269.59 82.27 268.57 82.14 268.56 82.13"/>
        <line class="cls-5" x1="186.01" y1="51.85" x2="185.52" y2="52.2"/>
        <polyline class="cls-5" points="269.59 82.27 269.78 83.06 269.84 83.31"/>
        <line class="cls-5" x1="280.57" y1="128.5" x2="280.37" y2="127.64"/>
        <line class="cls-5" x1="186.61" y1="52.16" x2="186.01" y2="51.79"/>
        <line class="cls-5" x1="225.92" y1="76.6" x2="225.19" y2="76.14"/>
        <path class="cls-5" d="m22.57,134.96l.27.39.22-.6-.49.21ZM66.71,22.43l-.38.27.6.22-.22-.49Z"/>
        <path class="cls-2" d="m66.71,22.43l-.38.27-37.77,8.3c9.07-9.35,19.94-16.94,32.08-22.24l6.07,13.67Z"/>
        <path class="cls-2" d="m22.57,134.96l-13.79,6.03C3.6,129.34.6,116.51.28,103.05l22.3,31.9Z"/>
        <path class="cls-4" d="m31.94,173.47c-9.76-9.12-17.67-20.15-23.15-32.49l13.79-6.03.27.39,9.09,38.13Z"/>
        <path class="cls-1" d="m70.63,180.23l-.43-.07-38.2-6.61s-.04-.03-.06-.06h0s-9.09-38.14-9.09-38.14l33.27,12.63,14.28,31.72.24.53Z"/>
        <path class="cls-3" d="m70.21,180.16l-5.47,13.92c-12.26-4.72-23.35-11.75-32.73-20.54l38.2,6.61Z"/>
        <path class="cls-1" d="m104.35,200.84c-.33,0-.65.02-.97.02-.41.02-.8.02-1.2.02-.05,0-.1,0-.14,0,0,0-.03,0-.04,0-.5,0-1.01,0-1.52,0-1.96-.02-3.9-.09-5.82-.21-.04,0-.09,0-.12,0-.12-.02-.25-.02-.36-.03-.17-.01-.34-.02-.51-.03-.11,0-.22-.02-.33-.03-.51-.03-1.03-.08-1.55-.12-.29-.03-.57-.06-.85-.09-.34-.03-.69-.08-1.04-.12-.84-.09-1.7-.2-2.54-.31-.59-.08-1.16-.16-1.74-.26-.11-.01-.22-.04-.33-.05-2.7-.43-5.38-.97-8.01-1.61-.09-.01-.17-.04-.26-.06-3.57-.88-7.08-1.94-10.49-3.2-.59-.21-1.18-.43-1.76-.66l1.07-2.73h0s4.39-11.19,4.39-11.19h0s.42.07.42.07l3.27,2h0s.28.18.28.18l12.65,7.73h0s15.76,9.64,15.76,9.64l1.73,1.06h.02Z"/>
        <path class="cls-2" d="m136.45,178.47l-.38.27-5.83,4.16-7.82,5.58-17.28,12.32h-.01s0,0,0,0c-.24.02-.5.03-.76.02h-.01s-.02,0-.02,0l-1.73-1.06-15.76-9.63h0s-12.65-7.74-12.65-7.74l-.28-.17h0s-3.27-2-3.27-2l2.91-1.29.26-.11,3.92-1.73,25.44-11.26,10.94,4.15h0s12.44,4.73,12.44,4.73l9.3,3.53.6.22Z"/>
        <path class="cls-4" d="m142.14,192.42c-2.12.92-4.27,1.78-6.47,2.56-2.96,1.06-5.99,1.99-9.08,2.76-3.23.82-6.52,1.5-9.87,1.99-.89.13-1.79.25-2.68.36-.74.09-1.48.17-2.22.25-.35.04-.71.08-1.07.1-.31.04-.62.06-.94.09-.31.03-.63.05-.94.08-.1,0-.2.01-.31.02-.02,0-.05,0-.07,0-.4.03-.8.06-1.21.08-.41.03-.81.04-1.22.06-.1,0-.2.01-.32,0-.02,0-.05,0-.07,0-.12.01-.24.02-.36.02-.02,0-.04,0-.06,0h-.04s-.07,0-.1,0h.01s17.28-12.33,17.28-12.33l7.82-5.58,5.83-4.16,6.05,13.64.02.03Z"/>
        <path class="cls-6" d="m175.73,168.62c-9.37,10.06-20.78,18.21-33.58,23.8l-6.07-13.67.38-.27.16-.4,39.12-9.46Z"/>
        <path class="cls-4" d="m181.18,131.34l-5.38,37.2s-.04.05-.07.08l-39.12,9.46,12.58-32.58,31.99-14.15Z"/>
        <path class="cls-1" d="m195.7,136.94h0c-4.62,11.79-11.42,22.48-19.9,31.6l5.38-37.2,14.52,5.6Z"/>
        <path class="cls-3" d="m202.51,98.09l-.99-.37.94-1.55c.03.64.05,1.27.05,1.92Z"/>
        <path class="cls-3" d="m195.7,136.94h-.03s-14.49-5.6-14.49-5.6l.54-.24-.17-.38,14.93-24.69,5.77,2.18c.03-.34.05-.68.08-1.03-.02.34-.05.69-.07,1.03-.01.09-.02.18-.02.27-.06.7-.12,1.41-.19,2.1-.92,9.21-3.09,18.05-6.35,26.35Z"/>
        <path class="cls-4" d="m202.45,96.1l-22.23-29.9,13.78-6.01c4.94,11.09,7.89,23.19,8.45,35.91Z"/>
        <polygon class="cls-1" points="196.49 106.04 181.55 130.72 172.2 109.94 188.17 102.88 196.49 106.04"/>
        <path class="cls-1" d="m202.46,96.16h0s-.94,1.56-.94,1.56l-13.48-5.13-19.71,8.72-1.12-2.48,4.77-12.35,7.75-20.06.22-.59.28.37,16.7,22.46,5.54,7.44h0s0,.04,0,.06Z"/>
        <path class="cls-1" d="m184.01,42.7c-3.27.15-6.51.41-9.72.81l-3.86-16.21c5.03,4.65,9.59,9.82,13.58,15.4Z"/>
        <path class="cls-1" d="m194,60.18h0s-13.78,6.03-13.78,6.03l-.28-.37-.38-.15-1.86-7.85-1.18-4.95-.07-.3c3.14-.36,6.31-.58,9.51-.69.08,0,.15-.01.22-.01,1.21-.04,2.42-.06,3.64-.06.06.09.11.19.16.29.59,1.05,1.16,2.12,1.72,3.2.81,1.6,1.58,3.22,2.32,4.87Z"/>
        <path class="cls-4" d="m174.28,43.51c-9.88,1.21-19.51,3.56-28.8,7.04l-13.09-29.07,36.93,4.79h0c.37.35.73.68,1.1,1.03l3.86,16.21Z"/>
        <path class="cls-4" d="m179.55,65.68l-8.36-3.18-14.6-5.55-.49-.18c6.56-1.96,13.35-3.38,20.34-4.18l.07.3,1.18,4.95,1.86,7.85Z"/>
        <path class="cls-1" d="m131.76,21.09l-32.17,14.24-32.67-12.41-.22-.49L97.42.36c.32-.01.63-.03.94-.03l33.4,20.77Z"/>
        <path class="cls-2" d="m169.32,26.27l-36.92-4.79,5.65-14.4c11.62,4.49,22.2,11.04,31.27,19.2Z"/>
        <path class="cls-6" d="m138.05,7.08l-5.65,14.4-.24-.56-.39.17L98.36.32c1.3-.04,2.62-.05,3.94-.04,12.61.11,24.65,2.51,35.75,6.8Z"/>
        <path class="cls-3" d="m97.42.36l-30.71,22.07-6.07-13.67C71.98,3.79,84.39.85,97.42.36Z"/>
        <polygon class="cls-4" points="99.6 35.33 76.88 45.37 53.59 55.68 66.33 22.7 66.93 22.92 99.6 35.33"/>
        <path class="cls-6" d="m145.48,50.55c-.96.35-1.91.72-2.85,1.11l-19.2-7.28-23.83-9.06,32.17-14.24.39-.16.24.56,13.09,29.07Z"/>
        <path class="cls-6" d="m179.93,65.83l-.22.59-7.75,20.06-4.77,12.35-7.68-17.08-2.46-5.45-1.24-2.75-6.4-14.22-.13-.29c2.23-.82,4.5-1.58,6.79-2.26l.49.18,14.6,5.55,8.36,3.18.38.15Z"/>
        <polygon class="cls-2" points="168.32 101.31 165.81 102.42 167.2 98.83 168.32 101.31"/>
        <polygon class="cls-2" points="181.55 130.72 181.18 131.34 149.19 145.5 158.08 122.45 160.99 114.9 161 114.9 172.2 109.94 181.55 130.72"/>
        <polygon class="cls-5" points="181.72 131.1 181.18 131.34 181.55 130.72 181.72 131.1"/>
        <polygon class="cls-3" points="149.19 145.5 136.61 178.07 135.86 178.26 126.56 174.73 114.12 170.01 114.11 169.99 103.17 165.84 110.74 162.49 118.29 159.15 118.3 159.14 125.9 155.79 130.43 153.79 149.19 145.5"/>
        <polygon class="cls-5" points="136.61 178.08 136.46 178.48 135.86 178.26 136.61 178.08"/>
        <polygon class="cls-6" points="103.17 165.84 77.72 177.1 73.8 178.83 73.54 178.94 70.63 180.23 70.39 179.7 63.65 164.73 63.66 164.72 56.12 147.98 64.72 151.24 73.76 154.67 74.05 154.78 79.35 156.8 81.67 157.68 103.17 165.84"/>
        <polygon class="cls-6" points="56.11 147.97 22.85 135.34 23.07 134.75 35.58 102.34 45.72 124.87 56.11 147.97"/>
        <polygon class="cls-1" points="53.59 55.68 44.71 78.72 35.58 102.34 21.22 70.42 21.61 69.83 53.59 55.68"/>
        <polyline class="cls-5" points="195.7 136.94 195.7 136.95 196.31 137.18"/>
        <line class="cls-5" x1="136.08" y1="178.75" x2="135.86" y2="178.26"/>
        <line class="cls-5" x1="142.41" y1="193" x2="142.15" y2="192.42"/>
        <line class="cls-5" x1="60.64" y1="8.76" x2="60.38" y2="8.17"/>
        <polyline class="cls-5" points="64.5 194.69 64.5 194.68 64.74 194.08"/>
        <line class="cls-5" x1="70.39" y1="179.69" x2="70.21" y2="180.16"/>
        <line class="cls-5" x1="138.28" y1="6.48" x2="138.05" y2="7.08"/>
        <line class="cls-5" x1="180.22" y1="66.2" x2="179.72" y2="66.42"/>
        <line class="cls-5" x1="194.59" y1="59.93" x2="194" y2="60.19"/>
        <path class="cls-3" d="m66.33,22.7l-12.74,32.98-31.99,14.15,5.76-37.57c.38-.42.78-.83,1.19-1.25h0s37.77-8.31,37.77-8.31Z"/>
        <path class="cls-3" d="m35.58,102.34l-12.52,32.4-.49.21L.28,103.05c0-.06,0-.11,0-.17l20.96-32.45,14.36,31.92Z"/>
        <line class="cls-5" x1="31.95" y1="173.53" x2="31.95" y2="173.48"/>
        <line class="cls-5" x1="32.01" y1="173.54" x2="31.95" y2="173.53"/>
        <line class="cls-5" x1="175.79" y1="168.6" x2="175.73" y2="168.62"/>
        <line class="cls-5" x1="175.8" y1="168.54" x2="175.79" y2="168.6"/>
        <line class="cls-5" x1="202.48" y1="96.13" x2="202.46" y2="96.16"/>
        <line class="cls-5" x1="202.48" y1="96.13" x2="202.45" y2="96.11"/>
        <polyline class="cls-5" points="170.21 26.39 169.33 26.28 169.32 26.27"/>
        <line class="cls-5" x1="97.84" y1=".05" x2="97.42" y2=".36"/>
        <polyline class="cls-5" points="170.21 26.39 170.36 27.07 170.42 27.3"/>
        <line class="cls-5" x1="179.72" y1="66.42" x2="179.55" y2="65.68"/>
        <line class="cls-5" x1="98.36" y1=".32" x2="97.84"/>
        <line class="cls-5" x1="132.39" y1="21.48" x2="131.76" y2="21.09"/>
        <path class="cls-5" d="m110.74,162.49l-7.58,3.35,10.94,4.15h0s4.18-10.84,4.18-10.84l-7.55,3.34Zm55.07-60.08l2.51-1.11,19.71-8.72,13.48,5.13.99.37c.01.13.02.24.01.37,0-.12,0-.25,0-.37,0-.64-.04-1.28-.06-1.92h0s0-.04,0-.06c-.13-3.19-.42-6.32-.86-9.42,0-.03,0-.07,0-.1-.1-.74-.21-1.49-.34-2.22-1.36-8.46-3.8-16.58-7.18-24.2-.02-.05-.05-.1-.07-.15-.69-1.56-1.43-3.11-2.21-4.63-.55-1.1-1.13-2.19-1.73-3.27-.05-.1-.1-.19-.16-.29-1.76-3.15-3.69-6.2-5.78-9.13-4.03-5.67-8.65-10.91-13.75-15.62-.26-.27-.54-.52-.82-.76-9.11-8.25-19.74-14.88-31.43-19.41-.05-.02-.1-.04-.15-.06C126.86,2.56,114.8.15,102.18.04c-1.4-.02-2.8,0-4.19.05-.08,0-.14,0-.21,0-13.21.44-25.78,3.39-37.26,8.41l-.06.02c-12.28,5.36-23.28,13.08-32.43,22.58-.2.21-.4.41-.59.62,0,0,0,0-.01,0-8.79,9.28-15.83,20.23-20.58,32.33-.01.02-.02.05-.03.06C2.54,75.12.12,87.07,0,99.54c-.13,14.72,2.93,28.74,8.55,41.38.02.05.05.09.07.14,10.8,24.19,30.96,43.38,55.95,53.02.05.02.1.04.15.06.6.23,1.19.45,1.8.67,3.41,1.23,6.92,2.3,10.5,3.17.09.02.18.04.26.06,2.63.64,5.29,1.17,7.99,1.57.11.01.22.04.33.05.57.1,1.15.18,1.74.26.84.11,1.69.22,2.54.31.35.04.7.09,1.04.12.29.03.57.06.85.09.52.04,1.04.09,1.55.12.11.01.22.03.33.03.17.02.35.03.52.05.11.01.24.02.35.02.04,0,.09.01.12,0,1.89.13,3.79.2,5.71.22.04,0,.08,0,.12,0,.51,0,1.02,0,1.52,0,.01,0,.03,0,.04,0,.05,0,.1,0,.14,0,.4,0,.8,0,1.2-.02.32,0,.64,0,.95-.03h.03c.26,0,.52,0,.78-.03.03,0,.06,0,.09,0h.04s.04,0,.06,0c.12,0,.24,0,.36-.02.02,0,.05,0,.07,0,.11,0,.22,0,.32,0,.41-.02.81-.04,1.22-.06.41-.03.81-.05,1.21-.08.02,0,.05,0,.07,0,.11,0,.21-.01.31-.02.31-.03.63-.05.94-.08.32-.03.63-.05.94-.09.36-.02.72-.06,1.07-.1.74-.07,1.48-.16,2.22-.25.89-.11,1.79-.23,2.68-.36,3.34-.51,6.63-1.18,9.85-2.01h0c3.08-.77,6.11-1.7,9.07-2.77,2.18-.77,4.32-1.62,6.42-2.54.02,0,.03-.02.05-.02,12.77-5.58,24.15-13.72,33.5-23.75.06-.06.12-.12.18-.19,8.45-9.11,15.24-19.78,19.86-31.52.01-.02.02-.05.03-.06,3.24-8.28,5.42-17.09,6.35-26.28.07-.69.13-1.4.19-2.1,0-.09.01-.17.02-.27h0s-5.77-2.19-5.77-2.19l-8.32-3.16-15.97,7.07-11.2,4.96"/>
      </g>
    </g>
  </g>
</svg>