<?xml version="1.0" encoding="utf-8"?>
<!-- Generator: Adobe Illustrator 27.8.1, SVG Export Plug-In . SVG Version: 6.00 Build 0)  -->
<svg version="1.1" id="_レイヤー_2" xmlns="http://www.w3.org/2000/svg" xmlns:xlink="http://www.w3.org/1999/xlink" x="0px"
	 y="0px" viewBox="0 0 36 142" style="enable-background:new 0 0 36 142;" xml:space="preserve">
<style type="text/css">
	
		.st0{fill:url(#SVGID_1_);stroke:url(#SVGID_00000039840930110548323650000016701878297810901909_);stroke-width:1.34;stroke-miterlimit:10;stroke-dasharray:0,0,0,0,0,0;}
	.st1{fill:#FFFFFF;}
</style>
<g id="_文字">
	<g>
		
			<linearGradient id="SVGID_1_" gradientUnits="userSpaceOnUse" x1="-26.2718" y1="-198.2718" x2="62.2718" y2="-286.8154" gradientTransform="matrix(1 0 0 -1 0 -172)">
			<stop  offset="0" style="stop-color:#F7D781"/>
			<stop  offset="0.25" style="stop-color:#E4673A"/>
			<stop  offset="0.53" style="stop-color:#BF2F87"/>
			<stop  offset="0.79" style="stop-color:#9C78B2"/>
			<stop  offset="1" style="stop-color:#7E7AB7"/>
		</linearGradient>
		
			<linearGradient id="SVGID_00000088816870822262255930000008390304026247237041_" gradientUnits="userSpaceOnUse" x1="36.67" y1="-242.5436" x2="-0.67" y2="-242.5436" gradientTransform="matrix(1 0 0 -1 0 -172)">
			<stop  offset="0" style="stop-color:#F7D781"/>
			<stop  offset="0.25" style="stop-color:#E4673A"/>
			<stop  offset="0.53" style="stop-color:#BF2F87"/>
			<stop  offset="0.79" style="stop-color:#9C78B2"/>
			<stop  offset="1" style="stop-color:#7E7AB7"/>
		</linearGradient>
		
			<rect style="fill:url(#SVGID_1_);stroke:url(#SVGID_00000088816870822262255930000008390304026247237041_);stroke-width:1.34;stroke-miterlimit:10;stroke-dasharray:0,0,0,0,0,0;" width="36" height="141.1"/>
		<g>
			<path class="st1" d="M22.3,36.2H12.3c-3.9,0-7.1-3.2-7.1-7.1V19c0-3.9,3.2-7.1,7.1-7.1h10.1c3.9,0,7.1,3.2,7.1,7.1v10.1
				C29.4,33,26.2,36.2,22.3,36.2z M12.3,14.1c-2.7,0-4.8,2.2-4.8,4.8v10.1c0,2.7,2.2,4.8,4.8,4.8h10.1c2.7,0,4.8-2.2,4.8-4.8V19
				c0-2.7-2.2-4.8-4.8-4.8C22.3,14.1,12.3,14.1,12.3,14.1z"/>
			<circle class="st1" cx="23.8" cy="17.5" r="1.5"/>
			<path class="st1" d="M17.3,30.3c-3.5,0-6.3-2.8-6.3-6.3s2.8-6.3,6.3-6.3s6.3,2.8,6.3,6.3S20.8,30.3,17.3,30.3z M17.3,20
				c-2.2,0-4,1.8-4,4s1.8,4,4,4s4-1.8,4-4S19.5,20,17.3,20z"/>
		</g>
		<g>
			<path class="st1" d="M16.3,45.8c-0.1,0.2-0.3,0.3-0.6,0.3c-1.1,2.6-2.8,4.6-4.8,5.8l-0.2-0.1c1.5-1.4,3-3.8,3.8-6.5L16.3,45.8
				L16.3,45.8z M18.6,52.5c5.2,2.8,4.3,6.1,2.9,5c-0.1-0.6-0.4-1.2-0.8-1.9c-2,0.4-4.5,0.9-8,1.5c-0.1,0.2-0.2,0.3-0.4,0.3l-0.6-1.6
				c0.6,0,1.4,0,2.5-0.1c0.8-1.9,1.6-4.5,2-6.4l1.8,0.5c-0.1,0.2-0.2,0.3-0.5,0.3c-0.6,1.6-1.6,3.8-2.8,5.6c1.7-0.1,3.8-0.3,5.9-0.4
				c-0.6-1-1.4-2-2.1-2.7L18.6,52.5L18.6,52.5z M18.8,44.9c1,2.5,3.1,4.6,5.1,5.5l0,0.2c-0.5,0.1-0.9,0.4-1,1
				c-1.9-1.3-3.4-3.6-4.2-6.6L18.8,44.9L18.8,44.9z"/>
			<path class="st1" d="M23.3,71.9c0.4,0.7,0.5,0.9,0.3,1.1c-0.4,0.5-1.4,0-2-0.5c-2.3-1.9-3.3-5-3.6-8.7H11l-0.1-0.4h7.2
				c-0.1-1-0.1-2-0.1-3.1l1.7,0.2c0,0.2-0.2,0.3-0.5,0.4c0,0.8,0,1.7,0.1,2.5h2.4l0.7-0.9c0,0,0.9,0.7,1.4,1.1
				c0,0.2-0.2,0.2-0.4,0.2h-4.2c0.2,3.2,1,6.1,3.1,7.6c0.2,0.2,0.3,0.2,0.5-0.1c0.2-0.4,0.5-1.1,0.7-1.6l0.2,0L23.3,71.9L23.3,71.9z
				 M15.2,70.8c1-0.2,2-0.5,3.1-0.8l0.1,0.2c-1.4,0.6-3.4,1.4-6.2,2.4C12.1,72.9,12,73,11.8,73L11,71.7c0.6-0.1,1.7-0.3,3-0.6v-4.4
				h-2.5l-0.1-0.4H16l0.7-0.9c0,0,0.8,0.6,1.3,1.1c0,0.2-0.2,0.2-0.4,0.2h-2.5L15.2,70.8L15.2,70.8z M20.1,60.7
				c3.2,0.2,2.6,2.3,1.5,1.8c-0.3-0.6-1.1-1.3-1.6-1.6L20.1,60.7z"/>
			<path class="st1" d="M18.4,75.7c0.3,0,0.7,0,1,0.1c0.6,0.2,1.3,0.9,1.3,1.3c0,0.3-0.3,0.3-0.7,0.7c-0.5,0.5-1.2,1.3-2.1,2.1
				c0.4,0.3,0.7,0.5,0.7,0.7c0,0.2-0.1,0.4-0.1,0.8c-0.1,2,0,4.1,0,4.9c0,0.5-0.2,0.8-0.5,0.8c-0.5,0-0.8-0.7-0.8-1.2
				c0-0.3,0.1-0.5,0.2-1c0.1-1.1,0.2-3.2,0.1-3.8c0-0.2-0.1-0.4-0.2-0.6c-0.9,0.8-2.9,2.4-5.4,3.3l-0.2-0.3c3.3-1.9,5.9-4.6,6.9-6
				c0.3-0.4,0.4-0.6,0.4-0.8c0-0.2-0.3-0.5-0.8-0.7L18.4,75.7L18.4,75.7z"/>
			<path class="st1" d="M22.8,91.9l0.3,0.2c-1.6,3-4.2,5.3-7.4,7.3c-0.3,0.2-0.5,0.6-0.8,0.6c-0.6,0-1.5-0.7-1.8-1.2
				c-0.1-0.3-0.3-0.7-0.3-1l0.2-0.1c0.4,0.4,0.8,0.9,1.3,0.9C15.6,98.5,20.8,94.8,22.8,91.9L22.8,91.9z M13.1,90.5
				c1.7,0.4,3.7,1.3,3.7,2.5c0,0.4-0.2,0.7-0.6,0.7c-0.3,0-0.5-0.2-0.9-0.6c-0.7-0.8-1.1-1.3-2.4-2.2L13.1,90.5L13.1,90.5z"/>
			<path class="st1" d="M13.6,104c0.3,0.4,0.5,0.8,1,0.8c0.8,0,3.5-0.5,4.2-0.7c0.3-0.1,0.5-0.4,0.7-0.4c0.5,0,1.5,0.8,1.5,1.2
				c0,0.3-0.5,0.5-0.7,0.7c-0.5,0.7-1.3,2-2.3,3.1c2.3,0.9,4.5,2.4,4.5,3.7c0,0.3-0.2,0.6-0.6,0.6c-0.4,0-0.7-0.4-1.3-1.2
				c-0.8-1-1.6-1.9-2.9-2.7c-1.3,1.3-3.3,3.1-6.2,4.2l-0.2-0.3c3.3-1.7,6.6-5.1,7.9-7.9c0.1-0.2,0-0.2-0.2-0.2
				c-0.9,0.1-2.8,0.6-3.5,0.8c-0.4,0.1-0.5,0.4-0.9,0.4c-0.5,0-1.1-0.7-1.2-1.1c-0.1-0.2-0.2-0.5-0.2-0.9L13.6,104L13.6,104z"/>
			<path class="st1" d="M17.3,118.4c0.6,0,2.4-0.3,2.8-0.4c0.4-0.1,0.5-0.4,0.8-0.4c0.4,0,1.4,0.7,1.4,1.1c0,0.3-0.5,0.4-0.7,0.8
				c-0.6,1.2-1.3,2.2-2.1,3.2c0.8,0.6,1.5,1.3,1.5,1.9c0,0.4-0.2,0.6-0.6,0.6c-0.5,0-0.7-0.5-1.7-1.6c-1.7,1.8-3.7,3.2-6.4,4.2
				l-0.2-0.3c2.3-1.2,4.4-2.9,5.9-4.7c-0.8-0.8-1.8-1.4-2.9-1.9c-0.9,0.9-1.9,1.6-2.9,2.2l-0.2-0.3c2.1-1.6,4.5-4.8,4.5-5.7
				c0-0.3-0.4-0.5-0.8-0.7l0.1-0.2c0.3,0,0.5,0,0.9,0c0.7,0.1,1.5,0.5,1.5,0.8c0,0.3-0.2,0.4-0.4,0.7
				C17.6,118,17.4,118.2,17.3,118.4L17.3,118.4L17.3,118.4z M20.3,118.8c-0.5,0-1.7,0.2-2.1,0.4c-0.3,0.1-0.6,0.2-0.8,0.2
				c-0.1,0-0.3-0.1-0.5-0.2c-0.4,0.6-0.9,1.1-1.4,1.7c1.1,0.4,2.3,0.9,3.2,1.4c0.8-1.1,1.5-2.2,1.8-3.2
				C20.5,118.8,20.4,118.7,20.3,118.8L20.3,118.8z"/>
		</g>
	</g>
</g>
</svg>
