<?xml version="1.0" encoding="UTF-8"?>
<svg id="_レイヤー_2" data-name="レイヤー 2" xmlns="http://www.w3.org/2000/svg" viewBox="0 0 14.76 243.13">
  <defs>
    <style>
      .cls-1 {
        fill: #ea5532;
      }
    </style>
  </defs>
  <g id="_文字" data-name="文字">
    <g>
      <path class="cls-1" d="m2.98,239.49c-1.41-.45-1.59-.46-1.77.35l-.06.27c-.12.09-.31.08-.38-.09.03-.5.05-1,.05-1.62v-2.79c0-.96,0-1.68-.05-2.11.26.1,1.46.46,2,.61.12.06.1.33-.02.38-.78-.09-1.15-.13-1.33.53-.09.34-.13.81-.13,1.59v.82c0,.42.04.42.51.57l3.29,1.04c.31.1.38.08.38-.24v-1.03c0-1.43-.1-1.71-.74-2.06l-.46-.25c-.09-.08-.07-.36.03-.39.27.1.87.33,1.42.51s1.12.33,1.5.39c.1.09.09.29,0,.39l-.57-.02c-.49-.01-.66.32-.66,1.54v1.11c0,.33.04.36.42.48l2.16.66c1.4.42,1.73.48,1.79-.28l.04-.58c.1-.09.31-.05.38.06-.03.87-.04,1.39-.04,2.04,0,.6.02,1.11.04,1.69-.07.12-.29.12-.38.02l-.04-.47c-.08-.72-.25-.87-1.79-1.35l-5.58-1.75Z"/>
      <path class="cls-1" d="m9.43,228.81c.36.13.51.06.51-.1,0-.23-.48-.82-1.25-1.6-1.35-1.37-3.09-2.15-4-2.64-.06-.32.09-.68.27-.74.4.15,2.86,1.12,4.65,1.75.19.08.38.09.38-.06,0-.29-.71-1.08-1.17-1.47-.03-.14.03-.25.21-.27.72.39,1.9,1.83,1.9,2.62,0,.24-.29.46-.52.38l-2.75-1.02v.03c1.35,1.08,3.27,2.94,3.27,3.75,0,.62-.61.69-1.27.44l-3.65-1.38c-.28-.1-.44-.12-.44,0,0,.28.66,1.06,1.04,1.42.03.15-.09.27-.23.26-.6-.39-1.78-1.89-1.78-2.6,0-.19.19-.54.45-.45l4.38,1.68Z"/>
      <path class="cls-1" d="m2.27,216.06c-1.05-.34-1.25-.36-1.37-.1l-.13.27c-.06.09-.15.11-.23.03-.21-.45-.42-1.18-.54-1.83l.08-.09c.42.12.93.29,2.2.74l4.44,1.54v-.03c-.58-.44-1.09-.93-1.54-1.53-.3-.42-.57-.97-.57-1.62,0-.87.51-1.08.82-1.08.18,0,.58.06,1.1.61.65.71,1.15,1.44,1.32,2.4.06.1.19.07.29.04.43-.12,1.09-.39,1.41-.56.33-.18.5-.33.5-.48,0-.19-.19-.48-.71-.9,0-.14.06-.19.18-.19,1.12.52,1.42,1.27,1.42,1.51,0,.27-.18.45-.6.69-.33.18-1.2.55-1.6.69-.39.12-.55.29-.49.56.07.3.15.38.6.56l1.91.78c.13.06.19.12.19.25,0,.17-.04.6-.39.48l-8.28-2.75Zm2.98-2.07c0,.39.33.94.76,1.45.47.56,1.2,1.19,1.64,1.38.15.06.25.04.22-.15-.03-.31-.28-1.15-.97-2.21-.42-.63-.95-.96-1.26-.96-.18,0-.39.14-.39.48Z"/>
      <path class="cls-1" d="m9.43,206.25c.36.13.51.06.51-.11,0-.22-.48-.82-1.25-1.6-1.35-1.37-3.09-2.15-4-2.64-.06-.31.09-.68.27-.73.4.15,2.86,1.12,4.65,1.75.19.08.38.09.38-.06,0-.28-.71-1.08-1.17-1.47-.03-.13.03-.25.21-.27.72.39,1.9,1.83,1.9,2.62,0,.24-.29.46-.52.38l-2.75-1.02v.03c1.35,1.08,3.27,2.94,3.27,3.75,0,.61-.61.69-1.27.43l-3.65-1.38c-.28-.1-.44-.12-.44,0,0,.29.66,1.07,1.04,1.42.03.15-.09.27-.23.26-.6-.39-1.78-1.89-1.78-2.6,0-.19.19-.54.45-.45l4.38,1.68Z"/>
      <path class="cls-1" d="m2.08,192.37c.46,0,.93.33.93.78,0,.39-.3.52-.56.52-.33,0-.94-.21-.94-.79,0-.35.24-.51.57-.51Zm3.76,1.79c-.17-.08-.28-.08-.28.03s.18.49.79,1.24c-.02.14-.14.23-.25.19-.95-.82-1.5-1.98-1.5-2.47,0-.11.09-.18.15-.24.09-.09.23-.09.66.09l4.26,1.79c.15.06.33.08.33-.04,0-.25-.53-1.05-1.11-1.56.02-.15.12-.23.26-.23.43.23,1.78,1.77,1.78,2.81,0,.07-.04.16-.13.24-.1.09-.24.13-.41.06l-4.54-1.9Z"/>
      <path class="cls-1" d="m3.61,176.86c-1.27-.5-1.77-.63-2.01-.63-.21,0-.3.13-.35.42l-.1.71c-.09.09-.31.06-.38-.08.03-.71.05-1.18.05-1.65,0-.33-.02-.69-.05-1,.72.21,1.64.09,2.93-.07l1.93-.24c1.29-.17,2.08-.25,2.75-.33v-.03c-.71-.58-1.47-1.15-2.21-1.72l-3.07-2.38c-1.47-1.14-2.06-1.38-2.33-1.46.03-.25.05-.52.05-.93,0-.58-.02-1.05-.05-1.52.08-.12.29-.07.38,0l.06.35c.09.52.18.75.35.9.24.21.71.36,1.86.69l4.65,1.3c1.11.31,1.63.42,1.88.44.24.02.38-.18.4-.6l.04-.51c.1-.1.31-.06.38.06-.03.56-.04,1.23-.04,1.92,0,.62.02,1.26.04,1.82-.09.1-.31.1-.38,0l-.04-.39c-.03-.27-.12-.66-.29-.82-.18-.18-.96-.48-1.9-.77l-3.93-1.2c-.77-.24-1.44-.45-1.89-.57v.04c.25.21.77.58,1.81,1.4l2.96,2.28c1.11.85,2.25,1.74,3.37,2.4.06.09.02.23-.06.29-.54-.02-1.33.06-3.06.24l-5.04.51v.03c.54.24,1.17.46,1.78.69l3.03,1.12c1.94.72,2.52.9,2.81.9.17,0,.28-.08.34-.45l.1-.65c.09-.06.3-.03.38.04-.03.42-.04,1.02-.04,1.72,0,.62.02,1.12.04,1.61-.09.09-.33.09-.38-.02l-.04-.4c-.03-.33-.13-.66-.4-.86-.3-.24-1.81-.85-4.31-1.81l-2.02-.78Z"/>
      <path class="cls-1" d="m4.26,157.18c-.12-.25.03-.65.23-.73.56.23,3.87,1.53,5.23,2.01.25.09.34.02.34-.1,0-.25-.25-.69-1-1.54,0-.1.08-.21.2-.21.84.63,1.68,1.69,1.68,2.52,0,.35-.29.44-.4.44-.1,0-.24-.03-.58-.15l-1.35-.5-.02.05c1.32,1.06,2.35,2.59,2.35,3.3,0,.42-.42.66-.84.66-.35,0-1.54-.33-2.91-1.32-.99-.72-1.59-1.37-1.93-1.98-.33-.58-.44-.96-.44-1.35,0-.17.04-.27.09-.36.03-.06.17-.22.31-.3l-.96-.42Zm1.71,2.61c.85.96,2.82,1.88,3.88,1.88.18,0,.29-.09.29-.23,0-.15-.19-.6-.98-1.46-1.06-1.14-2.35-1.77-3.24-2.01-.29.1-.54.36-.54.75,0,.36.17.6.58,1.06Z"/>
      <path class="cls-1" d="m6.03,149.17l1.89.64v-.07c-.84-.45-2.04-1.19-2.54-1.57-.45-.35-.78-.72-.78-1.1,0-.52.51-.6.73-.6s.66.13.9.32c.23.18.24.42-.07.48-.39.08-.59.17-.59.32,0,.13.15.3.45.52,1.17.92,3,1.75,4.72,2.55.12.06.18.13.18.25,0,.17-.06.6-.39.49-.6-.19-3.25-1.14-4.72-1.54-.17-.04-.31-.01-.31.12,0,.39.42.79.78,1.07.03.15-.06.25-.24.24-.81-.48-1.44-1.05-1.44-1.77s1.02-.48,1.42-.34Z"/>
      <path class="cls-1" d="m6.03,139.86l1.89.65v-.08c-.84-.45-2.04-1.18-2.54-1.57-.45-.35-.78-.72-.78-1.1,0-.52.51-.6.73-.6s.66.13.9.31c.23.18.24.42-.07.48-.39.08-.59.17-.59.31,0,.14.15.3.45.52,1.17.92,3,1.75,4.72,2.55.12.06.18.14.18.25,0,.17-.06.6-.39.5-.6-.19-3.25-1.14-4.72-1.54-.17-.04-.31-.01-.31.12,0,.39.42.79.78,1.06.03.15-.06.25-.24.24-.81-.48-1.44-1.05-1.44-1.77s1.02-.48,1.42-.35Z"/>
      <path class="cls-1" d="m2.08,129.25c.46,0,.93.33.93.78,0,.39-.3.53-.56.53-.33,0-.94-.21-.94-.8,0-.35.24-.51.57-.51Zm3.76,1.78c-.17-.07-.28-.07-.28.03s.18.5.79,1.25c-.02.13-.14.22-.25.19-.95-.83-1.5-1.98-1.5-2.48,0-.1.09-.18.15-.24.09-.09.23-.09.66.09l4.26,1.78c.15.06.33.08.33-.04,0-.25-.53-1.05-1.11-1.56.02-.15.12-.23.26-.23.43.23,1.78,1.77,1.78,2.8,0,.08-.04.17-.13.24-.1.09-.24.13-.41.06l-4.54-1.91Z"/>
      <path class="cls-1" d="m4.26,119.32c-.12-.25.03-.64.23-.73.56.22,3.87,1.53,5.23,2.01.25.09.34.01.34-.11,0-.25-.25-.69-1-1.54,0-.1.08-.21.2-.21.84.63,1.68,1.7,1.68,2.52,0,.34-.29.43-.4.43-.1,0-.24-.03-.58-.15l-1.35-.5-.02.05c1.32,1.06,2.35,2.59,2.35,3.3,0,.42-.42.66-.84.66-.35,0-1.54-.33-2.91-1.32-.99-.72-1.59-1.37-1.93-1.98-.33-.58-.44-.96-.44-1.35,0-.17.04-.27.09-.36.03-.06.17-.23.31-.3l-.96-.42Zm1.71,2.61c.85.96,2.82,1.88,3.88,1.88.18,0,.29-.09.29-.23,0-.15-.19-.6-.98-1.45-1.06-1.14-2.35-1.77-3.24-2.01-.29.11-.54.36-.54.75,0,.36.17.6.58,1.07Z"/>
      <path class="cls-1" d="m4.74,109.71c.06-.17.14-.3.14-.36,0-.13-.02-.43-.09-.72-.07-.29-.12-.57-.12-.67,0-.21.15-.32.38-.32.34,0,.46.18.46.33s-.04.36-.08.5c-.04.13-.09.45-.09.55,0,.08.04.15.09.14.12-.03.36-.1.57-.1,1.21,0,2.35.87,3,1.91.1.17.3.73.39,1.06.09.17.3.33.52.33.18,0,.45-.1.71-.5.24-.34.57-.93.9-1.47.51-.87.98-1.12,1.46-1.12.84,0,1.78,1.21,1.78,3.66,0,1.09-.42,2.37-1.42,2.37-1.14,0-1.86-1.75-2.11-2.56-.25.39-.48.48-.69.48-.27,0-.89-.46-1.16-.67-.07.28-.34,1.1-1.35,1.1-.84,0-1.86-.47-2.52-1.22-.62-.72-.9-1.42-.9-2.22,0-.15.07-.31.13-.48Zm.92,1.67c.67.58,2,1.35,2.76,1.35.31,0,.52-.21.52-.45,0-.21-.09-.57-.58-.99-.99-.84-2.32-1.36-2.8-1.36-.31,0-.51.22-.51.45,0,.25.1.54.61,1Zm7.59-1.12c-.25,0-.58.17-.92.64-.42.63-.72,1.16-.75,1.4-.04.38.24.96.56,1.39.3.41.63.57.97.57.71,0,1.16-1,1.16-2.03,0-.69-.3-1.98-1.02-1.98Z"/>
      <path class="cls-1" d="m5.5,98.92c1.14,0,1.89,1.49,2.49,3.65.25.1.73.21,1.33.21.51,0,.85-.31.85-.72,0-.54-.3-.92-.87-1.57,0-.14.12-.23.26-.19,1.12.92,1.36,1.77,1.36,2.4,0,.9-.84,1.22-1.57,1.22-.95,0-2.77-.6-4.04-2.23-.6-.78-.72-1.37-.72-1.8,0-.6.51-.95.9-.95Zm.29,2.38c.63.58,1.32.93,1.75,1.11-.3-.99-.58-1.46-1.11-2.01-.43-.47-.88-.58-1.02-.58-.15,0-.35.07-.35.34,0,.21.14.6.72,1.14Z"/>
      <path class="cls-1" d="m1.06,76.05c.58.24,1.46.54,2.01.68.12.06.1.36-.01.4-1.31-.29-2.01.09-2.01,1.63,0,1.06.33,2.46,1.68,3.84.75.75,2.5,1.77,4.48,1.77,2.13,0,3.28-1,3.28-2.91,0-1.56-.92-2.5-2.1-3.22-.06-.15-.03-.31.1-.36.4.14,1.2.47,2.11.98,0,.33.09.73.17,1.18.07.44.18.93.18,1.46,0,1.95-.89,4.2-4.04,4.2-1.74,0-3.4-.91-4.51-2.15-1.14-1.26-1.83-3.07-1.83-5.04,0-1.17.33-2.08.48-2.46Z"/>
      <path class="cls-1" d="m4.26,67.3c-.12-.25.03-.65.23-.73.56.22,3.87,1.53,5.23,2.01.25.09.34.02.34-.1,0-.25-.25-.69-1-1.54,0-.1.08-.21.2-.21.84.63,1.68,1.69,1.68,2.52,0,.34-.29.43-.4.43-.1,0-.24-.03-.58-.15l-1.35-.5-.02.04c1.32,1.06,2.35,2.59,2.35,3.3,0,.42-.42.66-.84.66-.35,0-1.54-.33-2.91-1.32-.99-.72-1.59-1.36-1.93-1.98-.33-.58-.44-.96-.44-1.35,0-.17.04-.27.09-.36.03-.06.17-.23.31-.3l-.96-.42Zm1.71,2.61c.85.96,2.82,1.88,3.88,1.88.18,0,.29-.09.29-.23,0-.15-.19-.6-.98-1.45-1.06-1.14-2.35-1.77-3.24-2.01-.29.1-.54.36-.54.75,0,.36.17.6.58,1.06Z"/>
      <path class="cls-1" d="m6.55,55.72l1.38.57.03-.05c-2.29-1.44-3.36-2.58-3.36-3.57,0-.57.31-.84.81-.84.24,0,.7.1,1.05.24.75.27,3.19,1.35,3.31,1.39.15.06.28.08.28-.03,0-.26-.49-.98-1.02-1.41-.03-.21.09-.24.21-.24.96.57,1.68,1.75,1.68,2.58,0,.13-.19.36-.38.36-.13,0-.24-.04-.99-.36-.74-.32-2.19-.92-2.96-1.22-.27-.1-.79-.31-1.09-.31-.18,0-.36.02-.36.24,0,.43.77,1.15,1.8,1.96.96.76,2.14,1.44,3.79,2.35.12.08.18.14.18.27,0,.17-.04.57-.39.43l-3.93-1.48c-.17-.06-1.46-.66-1.46-.12,0,.42.78,1.26,1.8,2.08.97.78,2.14,1.38,3.79,2.25.14.08.18.14.18.27,0,.17-.04.57-.39.44-.12-.04-4.5-1.65-4.72-1.71-.25-.07-.42-.06-.42.1,0,.5.45,1.02.82,1.32,0,.15-.1.22-.22.21-.72-.38-1.4-1.17-1.4-2.31,0-.34.27-.49.61-.36l2.71,1.03.03-.04c-1.77-1.08-3.36-2.49-3.36-3.63,0-1.08,1.19-.75,1.95-.44Z"/>
      <path class="cls-1" d="m4.84,43.42c0-.12-.03-.29-.03-.57,0-.69.28-2.04,1.71-2.04s2.59.84,3.55,1.98c.79.94.85,2.08.85,2.15,0,.13-.03.25-.09.46.03.12.12.2.27.24l1.77.61c1.15.4,1.29.38,1.36-.12l.09-.62c.1-.08.27-.08.33.06,0,1.14.06,2.27.09,3.27-.09.1-.24.1-.33,0l-.06-.33c-.15-.84-.5-.9-1.11-1.12l-7.83-2.79c.15.54.3.88.62,1.52-.02.12-.15.19-.29.15-.38-.52-.63-1.12-.82-1.86l-1.22-.45c-.17-.2-.01-.8.21-.86l.92.32Zm4.83,1.68c.17.06.31.04.4-.02.15-.09.35-.31.35-.56,0-.19-.21-1.03-1.22-1.68-1.11-.72-2.16-.88-2.82-.88-.75,0-1.12.54-1.12,1.18,0,.17.02.29.03.39l4.38,1.56Z"/>
      <path class="cls-1" d="m4.26,30.39c-.12-.25.03-.65.23-.73.56.23,3.87,1.53,5.23,2.01.25.09.34.02.34-.1,0-.25-.25-.69-1-1.54,0-.1.08-.21.2-.21.84.63,1.68,1.69,1.68,2.52,0,.35-.29.44-.4.44-.1,0-.24-.03-.58-.15l-1.35-.5-.02.05c1.32,1.06,2.35,2.59,2.35,3.3,0,.42-.42.66-.84.66-.35,0-1.54-.33-2.91-1.32-.99-.72-1.59-1.37-1.93-1.98-.33-.58-.44-.96-.44-1.35,0-.17.04-.27.09-.36.03-.06.17-.22.31-.3l-.96-.42Zm1.71,2.61c.85.96,2.82,1.88,3.88,1.88.18,0,.29-.09.29-.23,0-.15-.19-.6-.98-1.46-1.06-1.14-2.35-1.77-3.24-2.01-.29.1-.54.36-.54.75,0,.36.17.6.58,1.06Z"/>
      <path class="cls-1" d="m2.08,21.09c.46,0,.93.33.93.78,0,.39-.3.52-.56.52-.33,0-.94-.21-.94-.79,0-.35.24-.51.57-.51Zm3.76,1.79c-.17-.08-.28-.08-.28.03s.18.49.79,1.24c-.02.14-.14.23-.25.19-.95-.82-1.5-1.98-1.5-2.47,0-.11.09-.18.15-.24.09-.09.23-.09.66.09l4.26,1.79c.15.06.33.08.33-.04,0-.25-.53-1.05-1.11-1.56.02-.15.12-.23.26-.23.43.23,1.78,1.77,1.78,2.81,0,.07-.04.16-.13.24-.1.09-.24.13-.41.06l-4.54-1.9Z"/>
      <path class="cls-1" d="m4.74,12.4c.06-.17.14-.3.14-.36,0-.13-.02-.43-.09-.72-.07-.29-.12-.57-.12-.67,0-.21.15-.32.38-.32.34,0,.46.18.46.33s-.04.36-.08.5c-.04.13-.09.45-.09.55,0,.08.04.15.09.14.12-.03.36-.1.57-.1,1.21,0,2.35.87,3,1.91.1.17.3.73.39,1.06.09.17.3.33.52.33.18,0,.45-.1.71-.5.24-.34.57-.93.9-1.47.51-.87.98-1.12,1.46-1.12.84,0,1.78,1.21,1.78,3.66,0,1.09-.42,2.37-1.42,2.37-1.14,0-1.86-1.75-2.11-2.56-.25.39-.48.48-.69.48-.27,0-.89-.46-1.16-.67-.07.28-.34,1.1-1.35,1.1-.84,0-1.86-.47-2.52-1.22-.62-.72-.9-1.42-.9-2.22,0-.15.07-.31.13-.48Zm.92,1.67c.67.58,2,1.35,2.76,1.35.31,0,.52-.21.52-.45,0-.21-.09-.57-.58-.99-.99-.84-2.32-1.36-2.8-1.36-.31,0-.51.22-.51.45,0,.25.1.54.61,1Zm7.59-1.12c-.25,0-.58.17-.92.64-.42.63-.72,1.16-.75,1.4-.04.38.24.96.56,1.39.3.41.63.57.97.57.71,0,1.16-1,1.16-2.03,0-.69-.3-1.98-1.02-1.98Z"/>
      <path class="cls-1" d="m7.84,4.6l.03-.04c-1.62-1.07-3.27-2.55-3.27-3.67,0-.58.31-.84.81-.84.24,0,.7.12,1.05.24.75.27,3.19,1.35,3.31,1.4.15.06.28.07.28-.03,0-.25-.49-.97-1.02-1.41-.03-.21.09-.24.21-.24.96.57,1.68,1.75,1.68,2.58,0,.13-.19.36-.38.36-.13,0-.24-.04-.99-.36-.74-.31-2.21-.87-2.96-1.22-.27-.12-.79-.31-1.09-.31-.18,0-.36.01-.36.24,0,.36.75,1.24,1.79,2.07.99.79,2.16,1.41,3.81,2.29.14.08.18.13.18.27,0,.17-.04.57-.39.44-.19-.08-4.51-1.67-4.72-1.74-.19-.07-.35-.07-.35.04,0,.35.32.87.75,1.37,0,.12-.1.2-.22.18-.78-.57-1.4-1.48-1.4-2.23,0-.36.27-.53.61-.39l2.62,1.02Z"/>
    </g>
  </g>
</svg>